<?xml version="1.0" encoding="UTF-8" standalone="no"?>
<!DOCTYPE svg PUBLIC "-//W3C//DTD SVG 1.1//EN" "http://www.w3.org/Graphics/SVG/1.1/DTD/svg11.dtd">
<!-- Microsoft Visio, SVG Export에서 생성되었습니다. Fan__Fault_2.svg Fan_Fault_02_Unbalance2 -->
<svg xmlns="http://www.w3.org/2000/svg" xmlns:xlink="http://www.w3.org/1999/xlink" xmlns:ev="http://www.w3.org/2001/xml-events"
		xmlns:v="http://schemas.microsoft.com/visio/2003/SVGExtensions/" width="11.6929in" height="8.26772in"
		viewBox="0 0 841.89 595.276" xml:space="preserve" color-interpolation-filters="sRGB" class="st11">
	<v:documentProperties v:langID="1042" v:metric="true" v:viewMarkup="false">
		<v:userDefs>
			<v:ud v:nameU="msvNoAutoConnect" v:val="VT0(1):26"/>
		</v:userDefs>
	</v:documentProperties>

	<style type="text/css">
	<![CDATA[
		.st1 {fill:#ffffff;stroke:none;stroke-linecap:round;stroke-linejoin:round;stroke-width:0.75}
		.st2 {fill:#000000;font-family:맑은 고딕;font-size:1.16666em;font-weight:bold}
		.st3 {fill:none;stroke:none;stroke-linecap:round;stroke-linejoin:round;stroke-width:0.75}
		.st4 {fill:#000000;font-family:맑은 고딕;font-size:1.00001em}
		.st5 {fill:#ffffff;stroke:#000000;stroke-linecap:round;stroke-linejoin:round;stroke-width:0.75}
		.st6 {fill:#000000;font-family:맑은 고딕;font-size:0.666664em}
		.st7 {stroke:#000000;stroke-linecap:round;stroke-linejoin:round;stroke-width:0.75}
		.st8 {stroke:#0070c0;stroke-linecap:round;stroke-linejoin:round;stroke-width:1}
		.st9 {fill:#ffffff;stroke:none;stroke-linecap:butt;stroke-width:7.2}
		.st10 {fill:#0070c0;font-family:맑은 고딕;font-size:0.833336em}
		.st11 {fill:none;fill-rule:evenodd;font-size:12px;overflow:visible;stroke-linecap:square;stroke-miterlimit:3}
	]]>
	</style>

	<g v:mID="27" v:index="2" v:groupContext="foregroundPage">
		<title>Fan_Fault_02_Unbalance2</title>
		<v:pageProperties v:drawingScale="0.0393701" v:pageScale="0.0393701" v:drawingUnits="24" v:shadowOffsetX="8.50394"
				v:shadowOffsetY="-8.50394"/>
		<v:layer v:name="전기" v:index="0"/>
		<v:layer v:name="연결선" v:index="1"/>
		<g id="shape1-1" v:mID="1" v:groupContext="shape" transform="translate(327.604,-552.917)">
			<title>시트.1</title>
			<desc>Fan Fault 02 - Unbalance2</desc>
			<v:textBlock v:margins="rect(4,4,4,4)" v:tabSpace="42.5197"/>
			<v:textRect cx="98.4025" cy="584.074" width="196.81" height="22.4037"/>
			<rect x="0" y="572.872" width="196.805" height="22.4037" class="st1"/>
			<text x="10.62" y="588.27" class="st2" v:langID="1033"><v:paragraph v:horizAlign="1"/><v:tabList/>Fan Fault 02 - Unbalance2</text>		</g>
		<g id="shape2-4" v:mID="2" v:groupContext="shape" transform="translate(68.8841,-374.469)">
			<title>시트.2</title>
			<desc>Rotor is OverHung</desc>
			<v:textBlock v:margins="rect(4,4,4,4)" v:tabSpace="42.5197"/>
			<v:textRect cx="141.52" cy="583.937" width="283.04" height="22.6772"/>
			<rect x="0" y="572.598" width="283.039" height="22.6772" class="st3"/>
			<text x="176.79" y="587.54" class="st4" v:langID="1033"><v:paragraph v:horizAlign="2"/><v:tabList/>Rotor is OverHung</text>		</g>
		<g id="shape3-7" v:mID="3" v:groupContext="shape" transform="translate(40.1124,-316.642)">
			<title>시트.3</title>
			<desc>1xRPM Vib. In any direction &#62; 80% of Overall Alarm</desc>
			<v:textBlock v:margins="rect(4,4,4,4)" v:tabSpace="42.5197"/>
			<v:textRect cx="155.906" cy="583.937" width="311.82" height="22.6772"/>
			<rect x="0" y="572.598" width="311.811" height="22.6772" class="st3"/>
			<text x="22.61" y="587.54" class="st4" v:langID="1033"><v:paragraph v:horizAlign="2"/><v:tabList/>1xRPM Vib. In any direction &#62; 80% of Overall Alarm</text>		</g>
		<g id="shape4-10" v:mID="4" v:groupContext="shape" transform="translate(48.9443,-258.815)">
			<title>시트.4</title>
			<desc>Horiz 1xRPM / Vert 1xRPM &#60;=5.0</desc>
			<v:textBlock v:margins="rect(4,4,4,4)" v:tabSpace="42.5197"/>
			<v:textRect cx="151.49" cy="583.937" width="302.98" height="22.6772"/>
			<rect x="0" y="572.598" width="302.979" height="22.6772" class="st3"/>
			<text x="114.72" y="587.54" class="st4" v:langID="1033"><v:paragraph v:horizAlign="2"/><v:tabList/>Horiz 1xRPM / Vert 1xRPM &#60;=5.0</text>		</g>
		<g id="shape5-13" v:mID="5" v:groupContext="shape" transform="translate(68.8841,-200.988)">
			<title>시트.5</title>
			<desc>Vert 1xRPM / Horiz 1xRPM &#60;=3.5</desc>
			<v:textBlock v:margins="rect(4,4,4,4)" v:tabSpace="42.5197"/>
			<v:textRect cx="141.52" cy="583.937" width="283.04" height="22.6772"/>
			<rect x="0" y="572.598" width="283.039" height="22.6772" class="st3"/>
			<text x="94.78" y="587.54" class="st4" v:langID="1033"><v:paragraph v:horizAlign="2"/><v:tabList/>Vert 1xRPM / Horiz 1xRPM &#60;=3.5</text>		</g>
		<g id="shape6-16" v:mID="6" v:groupContext="shape" transform="translate(26.2545,-143.161)">
			<title>시트.6</title>
			<desc>Axial 1xRPM / Vert 1xRPM &#60;=5.0</desc>
			<v:textBlock v:margins="rect(4,4,4,4)" v:tabSpace="42.5197"/>
			<v:textRect cx="162.834" cy="583.937" width="325.67" height="22.6772"/>
			<rect x="0" y="572.598" width="325.669" height="22.6772" class="st3"/>
			<text x="140.41" y="587.54" class="st4" v:langID="1033"><v:paragraph v:horizAlign="2"/><v:tabList/>Axial 1xRPM / Vert 1xRPM &#60;=5.0</text>		</g>
		<g id="shape7-19" v:mID="7" v:groupContext="shape" v:layerMember="0" transform="translate(373.183,-207.886)">
			<title>I/O 포트.36</title>
			<desc>Ans4</desc>
			<v:userDefs>
				<v:ud v:nameU="Form" v:val="VT0(0):26"/>
				<v:ud v:nameU="visVersion" v:val="VT0(15):26"/>
				<v:ud v:nameU="visDescription" v:val="VT4(단방향 또는 양방향 I/O 포트입니다. )"/>
			</v:userDefs>
			<v:textBlock v:margins="rect(1,1,1,1)" v:tabSpace="42.5197"/>
			<v:textRect cx="17.3723" cy="580.788" width="21.88" height="11.6036"/>
			<path d="M0 590.93 L0 586.59 L26.06 586.59 L34.74 590.93 L26.06 595.28 L0 595.28 L0 590.93 Z" class="st5"/>
			<text x="8.49" y="583.19" class="st6" v:langID="1042"><v:paragraph v:horizAlign="1"/><v:tabList/>Ans4</text>		</g>
		<g id="shape8-22" v:mID="8" v:groupContext="shape" v:layerMember="0" transform="translate(373.183,-149.354)">
			<title>I/O 포트.37</title>
			<desc>Ans5</desc>
			<v:userDefs>
				<v:ud v:nameU="Form" v:val="VT0(0):26"/>
				<v:ud v:nameU="visVersion" v:val="VT0(15):26"/>
				<v:ud v:nameU="visDescription" v:val="VT4(단방향 또는 양방향 I/O 포트입니다. )"/>
			</v:userDefs>
			<v:textBlock v:margins="rect(1,1,1,1)" v:tabSpace="42.5197"/>
			<v:textRect cx="17.3723" cy="580.788" width="21.88" height="11.6036"/>
			<path d="M0 590.93 L0 586.59 L26.06 586.59 L34.74 590.93 L26.06 595.28 L0 595.28 L0 590.93 Z" class="st5"/>
			<text x="8.49" y="583.19" class="st6" v:langID="1042"><v:paragraph v:horizAlign="1"/><v:tabList/>Ans5</text>		</g>
		<g id="shape9-25" v:mID="9" v:groupContext="shape" v:layerMember="0" transform="translate(373.183,-266.418)">
			<title>I/O 포트.44</title>
			<desc>Ans3</desc>
			<v:userDefs>
				<v:ud v:nameU="Form" v:val="VT0(0):26"/>
				<v:ud v:nameU="visVersion" v:val="VT0(15):26"/>
				<v:ud v:nameU="visDescription" v:val="VT4(단방향 또는 양방향 I/O 포트입니다. )"/>
			</v:userDefs>
			<v:textBlock v:margins="rect(1,1,1,1)" v:tabSpace="42.5197"/>
			<v:textRect cx="17.3723" cy="580.788" width="21.88" height="11.6036"/>
			<path d="M0 590.93 L0 586.59 L26.06 586.59 L34.74 590.93 L26.06 595.28 L0 595.28 L0 590.93 Z" class="st5"/>
			<text x="8.49" y="583.19" class="st6" v:langID="1042"><v:paragraph v:horizAlign="1"/><v:tabList/>Ans3</text>		</g>
		<g id="shape10-28" v:mID="10" v:groupContext="shape" v:layerMember="0" transform="translate(373.183,-383.483)">
			<title>I/O 포트.45</title>
			<desc>Ans1</desc>
			<v:userDefs>
				<v:ud v:nameU="Form" v:val="VT0(0):26"/>
				<v:ud v:nameU="visVersion" v:val="VT0(15):26"/>
				<v:ud v:nameU="visDescription" v:val="VT4(단방향 또는 양방향 I/O 포트입니다. )"/>
			</v:userDefs>
			<v:textBlock v:margins="rect(1,1,1,1)" v:tabSpace="42.5197"/>
			<v:textRect cx="17.3723" cy="580.788" width="22.58" height="11.6036"/>
			<path d="M0 590.93 L0 586.59 L26.06 586.59 L34.74 590.93 L26.06 595.28 L0 595.28 L0 590.93 Z" class="st5"/>
			<text x="8.49" y="583.19" class="st6" v:langID="1042"><v:paragraph v:horizAlign="1"/><v:tabList/>Ans1</text>		</g>
		<g id="shape11-31" v:mID="11" v:groupContext="shape" v:layerMember="0" transform="translate(373.183,-324.95)">
			<title>I/O 포트.46</title>
			<desc>Ans2</desc>
			<v:userDefs>
				<v:ud v:nameU="Form" v:val="VT0(0):26"/>
				<v:ud v:nameU="visVersion" v:val="VT0(15):26"/>
				<v:ud v:nameU="visDescription" v:val="VT4(단방향 또는 양방향 I/O 포트입니다. )"/>
			</v:userDefs>
			<v:textBlock v:margins="rect(1,1,1,1)" v:tabSpace="42.5197"/>
			<v:textRect cx="17.3723" cy="580.788" width="21.88" height="11.6036"/>
			<path d="M0 590.93 L0 586.59 L26.06 586.59 L34.74 590.93 L26.06 595.28 L0 595.28 L0 590.93 Z" class="st5"/>
			<text x="8.49" y="583.19" class="st6" v:langID="1042"><v:paragraph v:horizAlign="1"/><v:tabList/>Ans2</text>		</g>
		<g id="group12-34" transform="translate(433.451,-342.068)" v:mID="12" v:groupContext="group" v:layerMember="0">
			<v:custProps>
				<v:cp v:nameU="Input" v:lbl="입력 수" v:type="1" v:format="2;3;4;5" v:sortKey="2" v:langID="1042" v:val="VT4(2)"/>
				<v:cp v:nameU="Type" v:lbl="게이트 종류" v:type="1" v:format="OR;AND;NOR;NAND;XOR;XNOR" v:sortKey="1" v:langID="1042"
						v:val="VT4(AND)"/>
				<v:cp v:nameU="Out" v:lbl="출력 수" v:type="1" v:format="1;2;3" v:sortKey="3" v:langID="1042" v:val="VT4(1)"/>
				<v:cp v:nameU="Type" v:lbl="" v:prompt="" v:type="0" v:format="" v:sortKey="" v:invis="false" v:ask="false"
						v:langID="1033" v:cal="0" v:val="VT4(OR)"/>
			</v:custProps>
			<v:userDefs>
				<v:ud v:nameU="SubType" v:val="VT0(1):26"/>
				<v:ud v:nameU="Margin" v:val="VT0(0.059055118110236):24"/>
				<v:ud v:nameU="LimitHeight" v:val="VT0(0):26"/>
				<v:ud v:nameU="visVersion" v:val="VT0(15):26"/>
				<v:ud v:nameU="visDescription" v:val="VT4(여러 가지 모양의 논리 게이트를 나타냅니다.)"/>
				<v:ud v:nameU="SubType" v:prompt="" v:val="VT0(0):26"/>
				<v:ud v:nameU="Margin" v:prompt="" v:val="VT0(0.13213042461384):1"/>
			</v:userDefs>
			<title>논리 게이트 2.47</title>
			<desc>G1</desc>
			<g id="shape13-35" v:mID="13" v:groupContext="shape" v:layerMember="0" transform="translate(0,-9.51339)">
				<title>시트.13</title>
				<path d="M0 576.25 L38.05 576.25" class="st7"/>
				<path d="M0 595.28 L38.05 595.28" class="st7"/>
				<path d="M76.11 585.76 L38.05 585.76" class="st7"/>
			</g>
			<g id="shape14-40" v:mID="14" v:groupContext="shape" v:layerMember="0" transform="translate(13.3187,0)">
				<title>시트.14</title>
				<v:userDefs>
					<v:ud v:nameU="X" v:val="VT0(0.029527559055118):24"/>
					<v:ud v:nameU="X" v:prompt="" v:val="VT0(0.06606521230692):1"/>
				</v:userDefs>
				<path d="M49.47 576.25 A51.2404 31.3931 0 0 1 14.84 595.28 L0 595.28 A73.4152 44.9787 -180 0 0 0 557.22 L14.84 557.22
							 A50.5541 30.9726 0 0 1 49.47 576.25 Z" class="st5"/>
			</g>
			<g id="shape15-42" v:mID="15" v:groupContext="shape" v:layerMember="0" transform="translate(0,6.34226)">
				<title>시트.15</title>
			</g>
			<g id="shape16-44" v:mID="16" v:groupContext="shape" v:layerMember="0" transform="translate(51.5295,-4.78126)">
				<title>시트.16</title>
			</g>
			<g id="shape17-46" v:mID="17" v:groupContext="shape" v:layerMember="0" transform="translate(13.3187,0)">
				<title>시트.17</title>
			</g>
			<g id="shape12-48" v:mID="12" v:groupContext="groupContent" v:layerMember="0">
				<v:textBlock v:margins="rect(1,1,1,1)" v:tabSpace="42.5197"/>
				<v:textRect cx="38.0536" cy="601.077" width="14.84" height="11.6036"/>
				<text x="33.04" y="603.48" class="st6" v:langID="1042"><v:paragraph v:horizAlign="1"/><v:tabList/>G1</text>			</g>
		</g>
		<g id="shape18-50" v:mID="18" v:groupContext="shape" v:layerMember="0" transform="translate(759.436,-208.771)">
			<title>I/O 포트.59</title>
			<desc>Unbalance2</desc>
			<v:userDefs>
				<v:ud v:nameU="Form" v:val="VT0(0):26"/>
				<v:ud v:nameU="visVersion" v:val="VT0(15):26"/>
				<v:ud v:nameU="visDescription" v:val="VT4(단방향 또는 양방향 I/O 포트입니다. )"/>
			</v:userDefs>
			<v:textBlock v:margins="rect(1,1,1,1)" v:tabSpace="42.5197"/>
			<v:textRect cx="14.1732" cy="576.98" width="47.25" height="11.6036"/>
			<path d="M0 591.15 L0 587.03 L24.73 587.03 L32.98 591.15 L24.73 595.28 L0 595.28 L0 591.15 Z" class="st5"/>
			<text x="-7.04" y="579.44" class="st6" v:langID="1033"><v:paragraph v:horizAlign="1"/><v:tabList/>Unbalance2</text>		</g>
		<g id="shape19-53" v:mID="19" v:groupContext="shape" v:layerMember="1" transform="translate(407.928,-387.826)">
			<title>동적 연결선.42</title>
			<desc>False</desc>
			<v:textBlock v:margins="rect(4,4,4,4)" v:tabSpace="42.5197"/>
			<v:textRect cx="10.6299" cy="606.016" width="50" height="20.0036"/>
			<path d="M0 595.28 L10.63 595.28 L10.63 612.49 L25.52 612.49" class="st8"/>
			<rect v:rectContext="textBkgnd" x="-0.534721" y="600.016" width="22.3292" height="12.0001" class="st9"/>
			<text x="-0.53" y="609.02" class="st10" v:langID="1042"><v:paragraph v:horizAlign="1"/><v:tabList/>False</text>		</g>
		<g id="shape20-58" v:mID="20" v:groupContext="shape" v:layerMember="1" transform="translate(407.928,-329.294)">
			<title>동적 연결선.43</title>
			<desc>False</desc>
			<v:textBlock v:margins="rect(4,4,4,4)" v:tabSpace="42.5197"/>
			<v:textRect cx="10.6299" cy="582" width="50" height="20.0036"/>
			<path d="M0 595.28 L10.63 595.28 L10.63 572.99 L25.52 572.99" class="st8"/>
			<rect v:rectContext="textBkgnd" x="-0.534721" y="576" width="22.3292" height="12.0001" class="st9"/>
			<text x="-0.53" y="585" class="st10" v:langID="1042"><v:paragraph v:horizAlign="1"/><v:tabList/>False</text>		</g>
		<g id="shape21-63" v:mID="21" v:groupContext="shape" v:layerMember="1" transform="translate(716.916,-205.807)">
			<title>동적 연결선.67</title>
			<desc>True</desc>
			<v:textBlock v:margins="rect(4,4,4,4)" v:tabSpace="42.5197"/>
			<v:textRect cx="21.2598" cy="588.189" width="50" height="20.0036"/>
			<path d="M0 588.19 L42.52 588.19" class="st8"/>
			<rect v:rectContext="textBkgnd" x="11.2573" y="582.189" width="20.005" height="12.0001" class="st9"/>
			<text x="11.26" y="591.19" class="st10" v:langID="1042"><v:paragraph v:horizAlign="1"/><v:tabList/>True</text>		</g>
		<g id="shape22-68" v:mID="22" v:groupContext="shape" transform="translate(26.2545,-85.3347)">
			<title>시트.22</title>
			<desc>Axial 1xRPM / Horiz 1xRPM &#60;=5.0</desc>
			<v:textBlock v:margins="rect(4,4,4,4)" v:tabSpace="42.5197"/>
			<v:textRect cx="162.834" cy="583.937" width="325.67" height="22.6772"/>
			<rect x="0" y="572.598" width="325.669" height="22.6772" class="st3"/>
			<text x="134.2" y="587.54" class="st4" v:langID="1033"><v:paragraph v:horizAlign="2"/><v:tabList/>Axial 1xRPM / Horiz 1xRPM &#60;=5.0</text>		</g>
		<g id="shape23-71" v:mID="23" v:groupContext="shape" v:layerMember="0" transform="translate(373.183,-90.8217)">
			<title>I/O 포트.48</title>
			<desc>Ans6</desc>
			<v:userDefs>
				<v:ud v:nameU="Form" v:val="VT0(0):26"/>
				<v:ud v:nameU="visVersion" v:val="VT0(15):26"/>
				<v:ud v:nameU="visDescription" v:val="VT4(단방향 또는 양방향 I/O 포트입니다. )"/>
			</v:userDefs>
			<v:textBlock v:margins="rect(1,1,1,1)" v:tabSpace="42.5197"/>
			<v:textRect cx="17.3723" cy="580.788" width="21.88" height="11.6036"/>
			<path d="M0 590.93 L0 586.59 L26.06 586.59 L34.74 590.93 L26.06 595.28 L0 595.28 L0 590.93 Z" class="st5"/>
			<text x="8.49" y="583.19" class="st6" v:langID="1042"><v:paragraph v:horizAlign="1"/><v:tabList/>Ans6</text>		</g>
		<g id="group24-74" transform="translate(433.451,-227.067)" v:mID="24" v:groupContext="group" v:layerMember="0">
			<v:custProps>
				<v:cp v:nameU="Input" v:lbl="입력 수" v:type="1" v:format="2;3;4;5" v:sortKey="2" v:langID="1042" v:val="VT4(2)"/>
				<v:cp v:nameU="Type" v:lbl="게이트 종류" v:type="1" v:format="OR;AND;NOR;NAND;XOR;XNOR" v:sortKey="1" v:langID="1042"
						v:val="VT4(AND)"/>
				<v:cp v:nameU="Out" v:lbl="출력 수" v:type="1" v:format="1;2;3" v:sortKey="3" v:langID="1042" v:val="VT4(1)"/>
				<v:cp v:nameU="Type" v:lbl="" v:prompt="" v:type="0" v:format="" v:sortKey="" v:invis="false" v:ask="false"
						v:langID="1033" v:cal="0" v:val="VT0(0):26"/>
			</v:custProps>
			<v:userDefs>
				<v:ud v:nameU="SubType" v:val="VT0(1):26"/>
				<v:ud v:nameU="Margin" v:val="VT0(0.059055118110236):24"/>
				<v:ud v:nameU="LimitHeight" v:val="VT0(0):26"/>
				<v:ud v:nameU="visVersion" v:val="VT0(15):26"/>
				<v:ud v:nameU="visDescription" v:val="VT4(여러 가지 모양의 논리 게이트를 나타냅니다.)"/>
				<v:ud v:nameU="Margin" v:prompt="" v:val="VT0(0.13213042461384):1"/>
			</v:userDefs>
			<title>논리 게이트 2.49</title>
			<desc>G1</desc>
			<g id="shape25-75" v:mID="25" v:groupContext="shape" v:layerMember="0" transform="translate(0,-9.51339)">
				<title>시트.25</title>
				<path d="M0 576.25 L38.05 576.25" class="st7"/>
				<path d="M0 595.28 L38.05 595.28" class="st7"/>
				<path d="M76.11 585.76 L38.05 585.76" class="st7"/>
			</g>
			<g id="shape26-80" v:mID="26" v:groupContext="shape" v:layerMember="0" transform="translate(13.3187,0)">
				<title>시트.26</title>
				<v:userDefs>
					<v:ud v:nameU="X" v:val="VT0(0.029527559055118):24"/>
					<v:ud v:nameU="X" v:prompt="" v:val="VT0(0.06606521230692):1"/>
				</v:userDefs>
				<path d="M49.47 576.25 A51.2404 31.3931 0 0 1 14.84 595.28 L0 595.28 A73.4152 44.9787 -180 0 0 0 557.22 L14.84 557.22
							 A50.5541 30.9726 0 0 1 49.47 576.25 Z" class="st5"/>
			</g>
			<g id="shape27-82" v:mID="27" v:groupContext="shape" v:layerMember="0" transform="translate(0,6.34226)">
				<title>시트.27</title>
			</g>
			<g id="shape28-84" v:mID="28" v:groupContext="shape" v:layerMember="0" transform="translate(51.5295,-4.78126)">
				<title>시트.28</title>
			</g>
			<g id="shape29-86" v:mID="29" v:groupContext="shape" v:layerMember="0" transform="translate(13.3187,0)">
				<title>시트.29</title>
				<path d="M30.44 595.28 L0 595.28 L0 557.22 L30.44 557.22 A19.0268 19.0268 0 0 1 30.44 595.28 Z" class="st5"/>
			</g>
			<g id="shape24-88" v:mID="24" v:groupContext="groupContent" v:layerMember="0">
				<v:textBlock v:margins="rect(1,1,1,1)" v:tabSpace="42.5197"/>
				<v:textRect cx="38.0536" cy="601.077" width="14.84" height="11.6036"/>
				<text x="33.04" y="603.48" class="st6" v:langID="1042"><v:paragraph v:horizAlign="1"/><v:tabList/>G1</text>			</g>
		</g>
		<g id="shape30-90" v:mID="30" v:groupContext="shape" v:layerMember="1" transform="translate(407.928,-270.761)">
			<title>동적 연결선</title>
			<desc>False</desc>
			<v:textBlock v:margins="rect(4,4,4,4)" v:tabSpace="42.5197"/>
			<v:textRect cx="10.6299" cy="604.984" width="50" height="20.0036"/>
			<path d="M0 595.28 L10.63 595.28 L10.63 610.43 L25.52 610.43" class="st8"/>
			<rect v:rectContext="textBkgnd" x="-0.534721" y="598.985" width="22.3292" height="12.0001" class="st9"/>
			<text x="-0.53" y="607.98" class="st10" v:langID="1042"><v:paragraph v:horizAlign="1"/><v:tabList/>False</text>		</g>
		<g id="shape31-95" v:mID="31" v:groupContext="shape" v:layerMember="1" transform="translate(407.928,-212.229)">
			<title>동적 연결선.56</title>
			<desc>False</desc>
			<v:textBlock v:margins="rect(4,4,4,4)" v:tabSpace="42.5197"/>
			<v:textRect cx="10.6299" cy="580.968" width="50" height="20.0036"/>
			<path d="M0 595.28 L10.63 595.28 L10.63 570.92 L25.52 570.92" class="st8"/>
			<rect v:rectContext="textBkgnd" x="-0.534721" y="574.968" width="22.3292" height="12.0001" class="st9"/>
			<text x="-0.53" y="583.97" class="st10" v:langID="1042"><v:paragraph v:horizAlign="1"/><v:tabList/>False</text>		</g>
		<g id="group32-100" transform="translate(433.451,-108.828)" v:mID="32" v:groupContext="group" v:layerMember="0">
			<v:custProps>
				<v:cp v:nameU="Input" v:lbl="입력 수" v:type="1" v:format="2;3;4;5" v:sortKey="2" v:langID="1042" v:val="VT4(2)"/>
				<v:cp v:nameU="Type" v:lbl="게이트 종류" v:type="1" v:format="OR;AND;NOR;NAND;XOR;XNOR" v:sortKey="1" v:langID="1042"
						v:val="VT4(AND)"/>
				<v:cp v:nameU="Out" v:lbl="출력 수" v:type="1" v:format="1;2;3" v:sortKey="3" v:langID="1042" v:val="VT4(1)"/>
				<v:cp v:nameU="Type" v:lbl="" v:prompt="" v:type="0" v:format="" v:sortKey="" v:invis="false" v:ask="false"
						v:langID="1033" v:cal="0" v:val="VT0(0):26"/>
			</v:custProps>
			<v:userDefs>
				<v:ud v:nameU="SubType" v:val="VT0(1):26"/>
				<v:ud v:nameU="Margin" v:val="VT0(0.059055118110236):24"/>
				<v:ud v:nameU="LimitHeight" v:val="VT0(0):26"/>
				<v:ud v:nameU="visVersion" v:val="VT0(15):26"/>
				<v:ud v:nameU="visDescription" v:val="VT4(여러 가지 모양의 논리 게이트를 나타냅니다.)"/>
				<v:ud v:nameU="Margin" v:prompt="" v:val="VT0(0.13213042461384):1"/>
			</v:userDefs>
			<title>논리 게이트 2.57</title>
			<desc>G1</desc>
			<g id="shape33-101" v:mID="33" v:groupContext="shape" v:layerMember="0" transform="translate(0,-9.51339)">
				<title>시트.33</title>
				<path d="M0 576.25 L38.05 576.25" class="st7"/>
				<path d="M0 595.28 L38.05 595.28" class="st7"/>
				<path d="M76.11 585.76 L38.05 585.76" class="st7"/>
			</g>
			<g id="shape34-106" v:mID="34" v:groupContext="shape" v:layerMember="0" transform="translate(13.3187,0)">
				<title>시트.34</title>
				<v:userDefs>
					<v:ud v:nameU="X" v:val="VT0(0.029527559055118):24"/>
					<v:ud v:nameU="X" v:prompt="" v:val="VT0(0.06606521230692):1"/>
				</v:userDefs>
				<path d="M49.47 576.25 A51.2404 31.3931 0 0 1 14.84 595.28 L0 595.28 A73.4152 44.9787 -180 0 0 0 557.22 L14.84 557.22
							 A50.5541 30.9726 0 0 1 49.47 576.25 Z" class="st5"/>
			</g>
			<g id="shape35-108" v:mID="35" v:groupContext="shape" v:layerMember="0" transform="translate(0,6.34226)">
				<title>시트.35</title>
			</g>
			<g id="shape36-110" v:mID="36" v:groupContext="shape" v:layerMember="0" transform="translate(51.5295,-4.78126)">
				<title>시트.36</title>
			</g>
			<g id="shape37-112" v:mID="37" v:groupContext="shape" v:layerMember="0" transform="translate(13.3187,0)">
				<title>시트.37</title>
				<path d="M30.44 595.28 L0 595.28 L0 557.22 L30.44 557.22 A19.0268 19.0268 0 0 1 30.44 595.28 Z" class="st5"/>
			</g>
			<g id="shape32-114" v:mID="32" v:groupContext="groupContent" v:layerMember="0">
				<v:textBlock v:margins="rect(1,1,1,1)" v:tabSpace="42.5197"/>
				<v:textRect cx="38.0536" cy="601.077" width="14.84" height="11.6036"/>
				<text x="33.04" y="603.48" class="st6" v:langID="1042"><v:paragraph v:horizAlign="1"/><v:tabList/>G1</text>			</g>
		</g>
		<g id="shape38-116" v:mID="38" v:groupContext="shape" v:layerMember="1" transform="translate(407.928,-153.697)">
			<title>Dynamic connector.63</title>
			<desc>False</desc>
			<v:textBlock v:margins="rect(4,4,4,4)" v:tabSpace="42.5197"/>
			<v:textRect cx="10.6299" cy="605.572" width="50" height="20.0036"/>
			<path d="M0 595.28 L10.63 595.28 L10.63 611.6 L25.52 611.6" class="st8"/>
			<rect v:rectContext="textBkgnd" x="-0.534721" y="599.572" width="22.3292" height="12.0001" class="st9"/>
			<text x="-0.53" y="608.57" class="st10" v:langID="1042"><v:paragraph v:horizAlign="1"/><v:tabList/>False</text>		</g>
		<g id="shape39-121" v:mID="39" v:groupContext="shape" v:layerMember="1" transform="translate(407.928,-95.1648)">
			<title>Dynamic connector.64</title>
			<desc>False</desc>
			<v:textBlock v:margins="rect(4,4,4,4)" v:tabSpace="42.5197"/>
			<v:textRect cx="10.6299" cy="581.556" width="50" height="20.0036"/>
			<path d="M0 595.28 L10.63 595.28 L10.63 572.1 L25.52 572.1" class="st8"/>
			<rect v:rectContext="textBkgnd" x="-0.534721" y="575.556" width="22.3292" height="12.0001" class="st9"/>
			<text x="-0.53" y="584.56" class="st10" v:langID="1042"><v:paragraph v:horizAlign="1"/><v:tabList/>False</text>		</g>
		<g id="group40-126" transform="translate(546.837,-282.681)" v:mID="40" v:groupContext="group" v:layerMember="0">
			<v:custProps>
				<v:cp v:nameU="Input" v:lbl="입력 수" v:type="1" v:format="2;3;4;5" v:sortKey="2" v:langID="1042" v:val="VT4(2)"/>
				<v:cp v:nameU="Type" v:lbl="게이트 종류" v:type="1" v:format="OR;AND;NOR;NAND;XOR;XNOR" v:sortKey="1" v:langID="1042"
						v:val="VT4(AND)"/>
				<v:cp v:nameU="Out" v:lbl="출력 수" v:type="1" v:format="1;2;3" v:sortKey="3" v:langID="1042" v:val="VT4(1)"/>
				<v:cp v:nameU="Type" v:lbl="" v:prompt="" v:type="0" v:format="" v:sortKey="" v:invis="false" v:ask="false"
						v:langID="1033" v:cal="0" v:val="VT0(0):26"/>
			</v:custProps>
			<v:userDefs>
				<v:ud v:nameU="SubType" v:val="VT0(1):26"/>
				<v:ud v:nameU="Margin" v:val="VT0(0.059055118110236):24"/>
				<v:ud v:nameU="LimitHeight" v:val="VT0(0):26"/>
				<v:ud v:nameU="visVersion" v:val="VT0(15):26"/>
				<v:ud v:nameU="visDescription" v:val="VT4(여러 가지 모양의 논리 게이트를 나타냅니다.)"/>
				<v:ud v:nameU="Margin" v:prompt="" v:val="VT0(0.13213042461384):1"/>
			</v:userDefs>
			<title>논리 게이트 2.65</title>
			<desc>G1</desc>
			<g id="shape41-127" v:mID="41" v:groupContext="shape" v:layerMember="0" transform="translate(0,-9.51339)">
				<title>시트.41</title>
				<path d="M0 576.25 L38.05 576.25" class="st7"/>
				<path d="M0 595.28 L38.05 595.28" class="st7"/>
				<path d="M76.11 585.76 L38.05 585.76" class="st7"/>
			</g>
			<g id="shape42-132" v:mID="42" v:groupContext="shape" v:layerMember="0" transform="translate(13.3187,0)">
				<title>시트.42</title>
				<v:userDefs>
					<v:ud v:nameU="X" v:val="VT0(0.029527559055118):24"/>
					<v:ud v:nameU="X" v:prompt="" v:val="VT0(0.06606521230692):1"/>
				</v:userDefs>
				<path d="M49.47 576.25 A51.2404 31.3931 0 0 1 14.84 595.28 L0 595.28 A73.4152 44.9787 -180 0 0 0 557.22 L14.84 557.22
							 A50.5541 30.9726 0 0 1 49.47 576.25 Z" class="st5"/>
			</g>
			<g id="shape43-134" v:mID="43" v:groupContext="shape" v:layerMember="0" transform="translate(0,6.34226)">
				<title>시트.43</title>
			</g>
			<g id="shape44-136" v:mID="44" v:groupContext="shape" v:layerMember="0" transform="translate(51.5295,-4.78126)">
				<title>시트.44</title>
			</g>
			<g id="shape45-138" v:mID="45" v:groupContext="shape" v:layerMember="0" transform="translate(13.3187,0)">
				<title>시트.45</title>
				<path d="M30.44 595.28 L0 595.28 L0 557.22 L30.44 557.22 A19.0268 19.0268 0 0 1 30.44 595.28 Z" class="st5"/>
			</g>
			<g id="shape40-140" v:mID="40" v:groupContext="groupContent" v:layerMember="0">
				<v:textBlock v:margins="rect(1,1,1,1)" v:tabSpace="42.5197"/>
				<v:textRect cx="38.0536" cy="601.077" width="14.84" height="11.6036"/>
				<text x="33.04" y="603.48" class="st6" v:langID="1042"><v:paragraph v:horizAlign="1"/><v:tabList/>G1</text>			</g>
		</g>
		<g id="group46-142" transform="translate(640.809,-193.867)" v:mID="46" v:groupContext="group" v:layerMember="0">
			<v:custProps>
				<v:cp v:nameU="Input" v:lbl="입력 수" v:type="1" v:format="2;3;4;5" v:sortKey="2" v:langID="1042" v:val="VT4(2)"/>
				<v:cp v:nameU="Type" v:lbl="게이트 종류" v:type="1" v:format="OR;AND;NOR;NAND;XOR;XNOR" v:sortKey="1" v:langID="1042"
						v:val="VT4(AND)"/>
				<v:cp v:nameU="Out" v:lbl="출력 수" v:type="1" v:format="1;2;3" v:sortKey="3" v:langID="1042" v:val="VT4(1)"/>
				<v:cp v:nameU="Type" v:lbl="" v:prompt="" v:type="0" v:format="" v:sortKey="" v:invis="false" v:ask="false"
						v:langID="1033" v:cal="0" v:val="VT0(0):26"/>
			</v:custProps>
			<v:userDefs>
				<v:ud v:nameU="SubType" v:val="VT0(1):26"/>
				<v:ud v:nameU="Margin" v:val="VT0(0.059055118110236):24"/>
				<v:ud v:nameU="LimitHeight" v:val="VT0(0):26"/>
				<v:ud v:nameU="visVersion" v:val="VT0(15):26"/>
				<v:ud v:nameU="visDescription" v:val="VT4(여러 가지 모양의 논리 게이트를 나타냅니다.)"/>
				<v:ud v:nameU="Margin" v:prompt="" v:val="VT0(0.13213042461384):1"/>
			</v:userDefs>
			<title>논리 게이트 2.71</title>
			<desc>G1</desc>
			<g id="shape47-143" v:mID="47" v:groupContext="shape" v:layerMember="0" transform="translate(0,-9.51339)">
				<title>시트.47</title>
				<path d="M0 576.25 L38.05 576.25" class="st7"/>
				<path d="M0 595.28 L38.05 595.28" class="st7"/>
				<path d="M76.11 585.76 L38.05 585.76" class="st7"/>
			</g>
			<g id="shape48-148" v:mID="48" v:groupContext="shape" v:layerMember="0" transform="translate(13.3187,0)">
				<title>시트.48</title>
				<v:userDefs>
					<v:ud v:nameU="X" v:val="VT0(0.029527559055118):24"/>
					<v:ud v:nameU="X" v:prompt="" v:val="VT0(0.06606521230692):1"/>
				</v:userDefs>
				<path d="M49.47 576.25 A51.2404 31.3931 0 0 1 14.84 595.28 L0 595.28 A73.4152 44.9787 -180 0 0 0 557.22 L14.84 557.22
							 A50.5541 30.9726 0 0 1 49.47 576.25 Z" class="st5"/>
			</g>
			<g id="shape49-150" v:mID="49" v:groupContext="shape" v:layerMember="0" transform="translate(0,6.34226)">
				<title>시트.49</title>
			</g>
			<g id="shape50-152" v:mID="50" v:groupContext="shape" v:layerMember="0" transform="translate(51.5295,-4.78126)">
				<title>시트.50</title>
			</g>
			<g id="shape51-154" v:mID="51" v:groupContext="shape" v:layerMember="0" transform="translate(13.3187,0)">
				<title>시트.51</title>
				<path d="M30.44 595.28 L0 595.28 L0 557.22 L30.44 557.22 A19.0268 19.0268 0 0 1 30.44 595.28 Z" class="st5"/>
			</g>
			<g id="shape46-156" v:mID="46" v:groupContext="groupContent" v:layerMember="0">
				<v:textBlock v:margins="rect(1,1,1,1)" v:tabSpace="42.5197"/>
				<v:textRect cx="38.0536" cy="601.077" width="14.84" height="11.6036"/>
				<text x="33.04" y="603.48" class="st6" v:langID="1042"><v:paragraph v:horizAlign="1"/><v:tabList/>G1</text>			</g>
		</g>
		<g id="shape52-158" v:mID="52" v:groupContext="shape" v:layerMember="1" transform="translate(509.558,-361.095)">
			<title>동적 연결선.77</title>
			<desc>False</desc>
			<v:textBlock v:margins="rect(4,4,4,4)" v:tabSpace="42.5197"/>
			<v:textRect cx="10.6299" cy="628.222" width="50" height="20.0036"/>
			<path d="M0 595.28 L10.63 595.28 L10.63 645.15 L37.28 645.15" class="st8"/>
			<rect v:rectContext="textBkgnd" x="-0.534721" y="622.222" width="22.3292" height="12.0001" class="st9"/>
			<text x="-0.53" y="631.22" class="st10" v:langID="1042"><v:paragraph v:horizAlign="1"/><v:tabList/>False</text>		</g>
		<g id="shape53-163" v:mID="53" v:groupContext="shape" v:layerMember="1" transform="translate(509.558,-246.094)">
			<title>동적 연결선.78</title>
			<desc>False</desc>
			<v:textBlock v:margins="rect(4,4,4,4)" v:tabSpace="42.5197"/>
			<v:textRect cx="10.6299" cy="564.216" width="50" height="20.0036"/>
			<path d="M0 595.28 L10.63 595.28 L10.63 549.17 L37.28 549.17" class="st8"/>
			<rect v:rectContext="textBkgnd" x="-0.534721" y="558.216" width="22.3292" height="12.0001" class="st9"/>
			<text x="-0.53" y="567.22" class="st10" v:langID="1042"><v:paragraph v:horizAlign="1"/><v:tabList/>False</text>		</g>
		<g id="shape54-168" v:mID="54" v:groupContext="shape" v:layerMember="1" transform="translate(509.558,-127.854)">
			<title>동적 연결선.79</title>
			<desc>False</desc>
			<v:textBlock v:margins="rect(4,4,4,4)" v:tabSpace="42.5197"/>
			<v:textRect cx="101.603" cy="593.491" width="50" height="20.0036"/>
			<path d="M0 595.28 L101.6 595.28 L101.6 519.75 L131.25 519.75" class="st8"/>
			<rect v:rectContext="textBkgnd" x="90.4387" y="587.491" width="22.3292" height="12.0001" class="st9"/>
			<text x="90.44" y="596.49" class="st10" v:langID="1042"><v:paragraph v:horizAlign="1"/><v:tabList/>False</text>		</g>
		<g id="shape55-173" v:mID="55" v:groupContext="shape" v:layerMember="1" transform="translate(622.944,-301.708)">
			<title>동적 연결선.80</title>
			<desc>False</desc>
			<v:textBlock v:margins="rect(4,4,4,4)" v:tabSpace="42.5197"/>
			<v:textRect cx="10.6299" cy="633.228" width="50" height="20.0036"/>
			<path d="M0 595.28 L10.63 595.28 L10.63 674.58 L17.86 674.58" class="st8"/>
			<rect v:rectContext="textBkgnd" x="-0.534721" y="627.229" width="22.3292" height="12.0001" class="st9"/>
			<text x="-0.53" y="636.23" class="st10" v:langID="1042"><v:paragraph v:horizAlign="1"/><v:tabList/>False</text>		</g>
	</g>
</svg>
