<?xml version="1.0" encoding="UTF-8" standalone="no"?>
<!DOCTYPE svg PUBLIC "-//W3C//DTD SVG 1.1//EN" "http://www.w3.org/Graphics/SVG/1.1/DTD/svg11.dtd">
<!-- Microsoft Visio, SVG Export에서 생성되었습니다. Fan__Fault_3.svg Fan_Fault_03_Bent Shaft -->
<svg xmlns="http://www.w3.org/2000/svg" xmlns:xlink="http://www.w3.org/1999/xlink" xmlns:ev="http://www.w3.org/2001/xml-events"
		xmlns:v="http://schemas.microsoft.com/visio/2003/SVGExtensions/" width="11.6929in" height="8.26772in"
		viewBox="0 0 841.89 595.276" xml:space="preserve" color-interpolation-filters="sRGB" class="st13">
	<v:documentProperties v:langID="1042" v:metric="true" v:viewMarkup="false">
		<v:userDefs>
			<v:ud v:nameU="msvNoAutoConnect" v:val="VT0(1):26"/>
		</v:userDefs>
	</v:documentProperties>

	<style type="text/css">
	<![CDATA[
		.st1 {fill:#ffffff;stroke:none;stroke-linecap:round;stroke-linejoin:round;stroke-width:0.75}
		.st2 {fill:#000000;font-family:맑은 고딕;font-size:1.16666em;font-weight:bold}
		.st3 {stroke:#000000;stroke-linecap:round;stroke-linejoin:round;stroke-width:0.75}
		.st4 {fill:#ffffff;stroke:#000000;stroke-linecap:round;stroke-linejoin:round;stroke-width:0.75}
		.st5 {fill:#000000;font-family:맑은 고딕;font-size:0.666664em}
		.st6 {fill:none;stroke:none;stroke-linecap:round;stroke-linejoin:round;stroke-width:0.75}
		.st7 {fill:#000000;font-family:맑은 고딕;font-size:1.00001em}
		.st8 {stroke:#ff0000;stroke-linecap:round;stroke-linejoin:round;stroke-width:1}
		.st9 {fill:#ffffff;stroke:none;stroke-linecap:butt;stroke-width:7.2}
		.st10 {fill:#ff0000;font-family:맑은 고딕;font-size:0.833336em}
		.st11 {stroke:#0070c0;stroke-linecap:round;stroke-linejoin:round;stroke-width:1}
		.st12 {fill:#0070c0;font-family:맑은 고딕;font-size:0.833336em}
		.st13 {fill:none;fill-rule:evenodd;font-size:12px;overflow:visible;stroke-linecap:square;stroke-miterlimit:3}
	]]>
	</style>

	<g v:mID="28" v:index="3" v:groupContext="foregroundPage">
		<title>Fan_Fault_03_Bent Shaft</title>
		<v:pageProperties v:drawingScale="0.0393701" v:pageScale="0.0393701" v:drawingUnits="24" v:shadowOffsetX="8.50394"
				v:shadowOffsetY="-8.50394"/>
		<v:layer v:name="전기" v:index="0"/>
		<v:layer v:name="연결선" v:index="1"/>
		<g id="shape1-1" v:mID="1" v:groupContext="shape" transform="translate(318.653,-552.179)">
			<title>시트.1</title>
			<desc>Fan_Fault_03_Bent Shaft</desc>
			<v:textBlock v:margins="rect(4,4,4,4)" v:tabSpace="42.5197"/>
			<v:textRect cx="88.7049" cy="584.074" width="177.41" height="22.4037"/>
			<rect x="0" y="572.872" width="177.41" height="22.4037" class="st1"/>
			<text x="8.55" y="588.27" class="st2" v:langID="1033"><v:paragraph v:horizAlign="1"/><v:tabList/>Fan_Fault_03_Bent Shaft</text>		</g>
		<g id="group2-4" transform="translate(437.01,-303.181)" v:mID="2" v:groupContext="group" v:layerMember="0">
			<v:custProps>
				<v:cp v:nameU="Input" v:lbl="입력 수" v:type="1" v:format="2;3;4;5" v:sortKey="2" v:langID="1042" v:val="VT4(2)"/>
				<v:cp v:nameU="Type" v:lbl="게이트 종류" v:type="1" v:format="OR;AND;NOR;NAND;XOR;XNOR" v:sortKey="1" v:langID="1042"
						v:val="VT4(AND)"/>
				<v:cp v:nameU="Out" v:lbl="출력 수" v:type="1" v:format="1;2;3" v:sortKey="3" v:langID="1042" v:val="VT4(1)"/>
				<v:cp v:nameU="Type" v:lbl="" v:prompt="" v:type="0" v:format="" v:sortKey="" v:invis="false" v:ask="false"
						v:langID="1033" v:cal="0" v:val="VT4(OR)"/>
			</v:custProps>
			<v:userDefs>
				<v:ud v:nameU="SubType" v:val="VT0(1):26"/>
				<v:ud v:nameU="Margin" v:val="VT0(0.059055118110236):24"/>
				<v:ud v:nameU="LimitHeight" v:val="VT0(0):26"/>
				<v:ud v:nameU="visVersion" v:val="VT0(15):26"/>
				<v:ud v:nameU="visDescription" v:val="VT4(여러 가지 모양의 논리 게이트를 나타냅니다.)"/>
				<v:ud v:nameU="SubType" v:prompt="" v:val="VT0(0):26"/>
				<v:ud v:nameU="Margin" v:prompt="" v:val="VT0(0.13920134983127):1"/>
			</v:userDefs>
			<title>논리 게이트 2.29</title>
			<desc>G1</desc>
			<g id="shape3-5" v:mID="3" v:groupContext="shape" v:layerMember="0" transform="translate(0,-10.0225)">
				<title>시트.3</title>
				<path d="M0 575.23 L40.09 575.23" class="st3"/>
				<path d="M0 595.28 L40.09 595.28" class="st3"/>
				<path d="M80.18 585.25 L40.09 585.25" class="st3"/>
			</g>
			<g id="shape4-10" v:mID="4" v:groupContext="shape" v:layerMember="0" transform="translate(14.0315,0)">
				<title>시트.4</title>
				<v:userDefs>
					<v:ud v:nameU="X" v:val="VT0(0.029527559055118):24"/>
					<v:ud v:nameU="X" v:prompt="" v:val="VT0(0.069600674915635):1"/>
				</v:userDefs>
				<path d="M52.12 575.23 A53.9825 33.0731 0 0 1 15.64 595.28 L0 595.28 A77.344 47.3857 -180 0 0 0 555.19 L15.64 555.19
							 A53.2595 32.6301 0 0 1 52.12 575.23 Z" class="st4"/>
			</g>
			<g id="shape5-12" v:mID="5" v:groupContext="shape" v:layerMember="0" transform="translate(0,6.68166)">
				<title>시트.5</title>
			</g>
			<g id="shape6-14" v:mID="6" v:groupContext="shape" v:layerMember="0" transform="translate(54.2871,-5.03713)">
				<title>시트.6</title>
			</g>
			<g id="shape7-16" v:mID="7" v:groupContext="shape" v:layerMember="0" transform="translate(14.0315,0)">
				<title>시트.7</title>
			</g>
			<g id="shape2-18" v:mID="2" v:groupContext="groupContent" v:layerMember="0">
				<v:textBlock v:margins="rect(1,1,1,1)" v:tabSpace="42.5197"/>
				<v:textRect cx="40.09" cy="601.077" width="14.84" height="11.6036"/>
				<text x="35.08" y="603.48" class="st5" v:langID="1042"><v:paragraph v:horizAlign="1"/><v:tabList/>G1</text>			</g>
		</g>
		<g id="shape8-20" v:mID="8" v:groupContext="shape" transform="translate(45.788,-396)">
			<title>시트.8</title>
			<desc>Axial Harmonic Energy &#62; 70% Threshold Ref on...</desc>
			<v:textBlock v:margins="rect(4,4,4,4)" v:tabSpace="42.5197"/>
			<v:textRect cx="141.52" cy="583.937" width="283.04" height="22.6772"/>
			<rect x="0" y="572.598" width="283.039" height="22.6772" class="st6"/>
			<text x="9.73" y="587.54" class="st7" v:langID="1033"><v:paragraph v:horizAlign="2"/><v:tabList/>Axial Harmonic Energy &#62; 70% Threshold Ref on...</text>		</g>
		<g id="shape9-23" v:mID="9" v:groupContext="shape" transform="translate(17.0164,-329.739)">
			<title>시트.9</title>
			<desc>Axial Harmonic Energy &#62; 50% Horiz Harmonic Energy</desc>
			<v:textBlock v:margins="rect(4,4,4,4)" v:tabSpace="42.5197"/>
			<v:textRect cx="155.906" cy="583.937" width="311.82" height="22.6772"/>
			<rect x="0" y="572.598" width="311.811" height="22.6772" class="st6"/>
			<text x="13.51" y="587.54" class="st7" v:langID="1033"><v:paragraph v:horizAlign="2"/><v:tabList/>Axial Harmonic Energy &#62; 50% Horiz Harmonic Energy</text>		</g>
		<g id="shape10-26" v:mID="10" v:groupContext="shape" transform="translate(25.8483,-263.478)">
			<title>시트.10</title>
			<desc>Axial Harmonic Energy &#62; 50% Vert Harmonic Energy</desc>
			<v:textBlock v:margins="rect(4,4,4,4)" v:tabSpace="42.5197"/>
			<v:textRect cx="151.49" cy="583.937" width="302.98" height="22.6772"/>
			<rect x="0" y="572.598" width="302.979" height="22.6772" class="st6"/>
			<text x="10.88" y="587.54" class="st7" v:langID="1033"><v:paragraph v:horizAlign="2"/><v:tabList/>Axial Harmonic Energy &#62; 50% Vert Harmonic Energy</text>		</g>
		<g id="shape11-29" v:mID="11" v:groupContext="shape" transform="translate(45.788,-198.979)">
			<title>시트.11</title>
			<desc>Axial 1xRPM / Vert 1xRPM &#60;= 5.0 on Input Shaft</desc>
			<v:textBlock v:margins="rect(4,4,4,4)" v:tabSpace="42.5197"/>
			<v:textRect cx="141.52" cy="583.937" width="283.04" height="22.6772"/>
			<rect x="0" y="572.598" width="283.039" height="22.6772" class="st6"/>
			<text x="10.69" y="587.54" class="st7" v:langID="1033"><v:paragraph v:horizAlign="2"/><v:tabList/>Axial 1xRPM / Vert 1xRPM &#60;= 5.0 on Input Shaft</text>		</g>
		<g id="shape12-32" v:mID="12" v:groupContext="shape" transform="translate(38.6523,-133.305)">
			<title>시트.12</title>
			<desc>Axial 1xRPM / Horiz 1xRPM &#60;= 5.0 on Input Shaft</desc>
			<v:textBlock v:margins="rect(4,4,4,4)" v:tabSpace="42.5197"/>
			<v:textRect cx="145.088" cy="583.937" width="290.18" height="22.6772"/>
			<rect x="0" y="572.598" width="290.175" height="22.6772" class="st6"/>
			<text x="11.61" y="587.54" class="st7" v:langID="1033"><v:paragraph v:horizAlign="2"/><v:tabList/>Axial 1xRPM / Horiz 1xRPM &#60;= 5.0 on Input Shaft</text>		</g>
		<g id="shape13-35" v:mID="13" v:groupContext="shape" v:layerMember="0" transform="translate(367.52,-336.735)">
			<title>I/O 포트.36</title>
			<desc>Ans2</desc>
			<v:userDefs>
				<v:ud v:nameU="Form" v:val="VT0(0):26"/>
				<v:ud v:nameU="visVersion" v:val="VT0(15):26"/>
				<v:ud v:nameU="visDescription" v:val="VT4(단방향 또는 양방향 I/O 포트입니다. )"/>
			</v:userDefs>
			<v:textBlock v:margins="rect(1,1,1,1)" v:tabSpace="42.5197"/>
			<v:textRect cx="17.3723" cy="580.788" width="21.88" height="11.6036"/>
			<path d="M0 590.93 L0 586.59 L26.06 586.59 L34.74 590.93 L26.06 595.28 L0 595.28 L0 590.93 Z" class="st4"/>
			<text x="8.49" y="583.19" class="st5" v:langID="1042"><v:paragraph v:horizAlign="1"/><v:tabList/>Ans2</text>		</g>
		<g id="shape14-38" v:mID="14" v:groupContext="shape" v:layerMember="0" transform="translate(367.52,-271.282)">
			<title>I/O 포트.37</title>
			<desc>Ans3</desc>
			<v:userDefs>
				<v:ud v:nameU="Form" v:val="VT0(0):26"/>
				<v:ud v:nameU="visVersion" v:val="VT0(15):26"/>
				<v:ud v:nameU="visDescription" v:val="VT4(단방향 또는 양방향 I/O 포트입니다. )"/>
			</v:userDefs>
			<v:textBlock v:margins="rect(1,1,1,1)" v:tabSpace="42.5197"/>
			<v:textRect cx="17.3723" cy="580.788" width="21.88" height="11.6036"/>
			<path d="M0 590.93 L0 586.59 L26.06 586.59 L34.74 590.93 L26.06 595.28 L0 595.28 L0 590.93 Z" class="st4"/>
			<text x="8.49" y="583.19" class="st5" v:langID="1042"><v:paragraph v:horizAlign="1"/><v:tabList/>Ans3</text>		</g>
		<g id="shape15-41" v:mID="15" v:groupContext="shape" v:layerMember="1" transform="translate(402.265,-344.25)">
			<title>동적 연결선.73</title>
			<desc>False</desc>
			<v:textBlock v:margins="rect(4,4,4,4)" v:tabSpace="42.5197"/>
			<v:textRect cx="13.4577" cy="606.277" width="50" height="20.0036"/>
			<path d="M0 598.45 L10.63 598.45 L10.63 606.28 L34.74 606.28" class="st8"/>
			<rect v:rectContext="textBkgnd" x="2.29303" y="600.277" width="22.3292" height="12.0001" class="st9"/>
			<text x="2.29" y="609.28" class="st10" v:langID="1042"><v:paragraph v:horizAlign="1"/><v:tabList/>False</text>		</g>
		<g id="shape16-46" v:mID="16" v:groupContext="shape" v:layerMember="1" transform="translate(402.265,-275.625)">
			<title>동적 연결선.74</title>
			<desc>False</desc>
			<v:textBlock v:margins="rect(4,4,4,4)" v:tabSpace="42.5197"/>
			<v:textRect cx="10.6299" cy="569.744" width="50" height="20.0036"/>
			<path d="M0 595.28 L10.63 595.28 L10.63 557.7 L34.74 557.7" class="st11"/>
			<rect v:rectContext="textBkgnd" x="-0.534721" y="563.6" width="22.3292" height="12.289" class="st9"/>
			<text x="-0.53" y="572.82" class="st12" v:langID="1042"><v:paragraph v:horizAlign="1"/><v:tabList/>False</text>		</g>
		<g id="group17-51" transform="translate(542.458,-359.361)" v:mID="17" v:groupContext="group" v:layerMember="0">
			<v:custProps>
				<v:cp v:nameU="Input" v:lbl="입력 수" v:type="1" v:format="2;3;4;5" v:sortKey="2" v:langID="1042" v:val="VT4(2)"/>
				<v:cp v:nameU="Type" v:lbl="게이트 종류" v:type="1" v:format="OR;AND;NOR;NAND;XOR;XNOR" v:sortKey="1" v:langID="1042"
						v:val="VT4(AND)"/>
				<v:cp v:nameU="Out" v:lbl="출력 수" v:type="1" v:format="1;2;3" v:sortKey="3" v:langID="1042" v:val="VT4(1)"/>
			</v:custProps>
			<v:userDefs>
				<v:ud v:nameU="SubType" v:val="VT0(1):26"/>
				<v:ud v:nameU="Margin" v:val="VT0(0.059055118110236):24"/>
				<v:ud v:nameU="LimitHeight" v:val="VT0(0):26"/>
				<v:ud v:nameU="visVersion" v:val="VT0(15):26"/>
				<v:ud v:nameU="visDescription" v:val="VT4(여러 가지 모양의 논리 게이트를 나타냅니다.)"/>
				<v:ud v:nameU="Margin" v:prompt="" v:val="VT0(0.13920134983127):1"/>
			</v:userDefs>
			<title>논리 게이트 2.113</title>
			<desc>G3</desc>
			<g id="shape18-52" v:mID="18" v:groupContext="shape" v:layerMember="0" transform="translate(0,-10.0225)">
				<title>시트.18</title>
				<path d="M0 575.23 L40.09 575.23" class="st3"/>
				<path d="M0 595.28 L40.09 595.28" class="st3"/>
				<path d="M80.18 585.25 L40.09 585.25" class="st3"/>
			</g>
			<g id="shape19-57" v:mID="19" v:groupContext="shape" v:layerMember="0" transform="translate(14.0315,0)">
				<title>시트.19</title>
				<v:userDefs>
					<v:ud v:nameU="X" v:val="VT0(0.029527559055118):24"/>
					<v:ud v:nameU="X" v:prompt="" v:val="VT0(0.069600674915635):1"/>
				</v:userDefs>
				<path d="M52.12 575.23 A53.9825 33.0731 0 0 1 15.64 595.28 L0 595.28 A77.344 47.3857 -180 0 0 0 555.19 L15.64 555.19
							 A53.2595 32.6301 0 0 1 52.12 575.23 Z" class="st4"/>
			</g>
			<g id="shape20-59" v:mID="20" v:groupContext="shape" v:layerMember="0" transform="translate(0,6.68166)">
				<title>시트.20</title>
			</g>
			<g id="shape21-61" v:mID="21" v:groupContext="shape" v:layerMember="0" transform="translate(54.2871,-5.03713)">
				<title>시트.21</title>
			</g>
			<g id="shape22-63" v:mID="22" v:groupContext="shape" v:layerMember="0" transform="translate(14.0315,0)">
				<title>시트.22</title>
				<path d="M32.07 595.28 L0 595.28 L0 555.19 L32.07 555.19 A20.045 20.045 0 0 1 32.07 595.28 Z" class="st4"/>
			</g>
			<g id="shape17-65" v:mID="17" v:groupContext="groupContent" v:layerMember="0">
				<v:textBlock v:margins="rect(1,1,1,1)" v:tabSpace="42.5197"/>
				<v:textRect cx="40.09" cy="601.077" width="14.14" height="11.6036"/>
				<text x="35.08" y="603.48" class="st5" v:langID="1042"><v:paragraph v:horizAlign="1"/><v:tabList/>G3</text>			</g>
		</g>
		<g id="shape23-67" v:mID="23" v:groupContext="shape" v:layerMember="0" transform="translate(367.52,-402.187)">
			<title>I/O 포트.44</title>
			<desc>Ans1</desc>
			<v:userDefs>
				<v:ud v:nameU="Form" v:val="VT0(0):26"/>
				<v:ud v:nameU="visVersion" v:val="VT0(15):26"/>
				<v:ud v:nameU="visDescription" v:val="VT4(단방향 또는 양방향 I/O 포트입니다. )"/>
			</v:userDefs>
			<v:textBlock v:margins="rect(1,1,1,1)" v:tabSpace="42.5197"/>
			<v:textRect cx="17.3723" cy="580.788" width="22.58" height="11.6036"/>
			<path d="M0 590.93 L0 586.59 L26.06 586.59 L34.74 590.93 L26.06 595.28 L0 595.28 L0 590.93 Z" class="st4"/>
			<text x="8.49" y="583.19" class="st5" v:langID="1042"><v:paragraph v:horizAlign="1"/><v:tabList/>Ans1</text>		</g>
		<g id="shape24-70" v:mID="24" v:groupContext="shape" v:layerMember="0" transform="translate(367.52,-205.83)">
			<title>I/O 포트.45</title>
			<desc>Ans4</desc>
			<v:userDefs>
				<v:ud v:nameU="Form" v:val="VT0(0):26"/>
				<v:ud v:nameU="visVersion" v:val="VT0(15):26"/>
				<v:ud v:nameU="visDescription" v:val="VT4(단방향 또는 양방향 I/O 포트입니다. )"/>
			</v:userDefs>
			<v:textBlock v:margins="rect(1,1,1,1)" v:tabSpace="42.5197"/>
			<v:textRect cx="17.3723" cy="580.788" width="21.88" height="11.6036"/>
			<path d="M0 590.93 L0 586.59 L26.06 586.59 L34.74 590.93 L26.06 595.28 L0 595.28 L0 590.93 Z" class="st4"/>
			<text x="8.49" y="583.19" class="st5" v:langID="1042"><v:paragraph v:horizAlign="1"/><v:tabList/>Ans4</text>		</g>
		<g id="shape25-73" v:mID="25" v:groupContext="shape" v:layerMember="0" transform="translate(367.52,-140.378)">
			<title>I/O 포트.46</title>
			<desc>Ans5</desc>
			<v:userDefs>
				<v:ud v:nameU="Form" v:val="VT0(0):26"/>
				<v:ud v:nameU="visVersion" v:val="VT0(15):26"/>
				<v:ud v:nameU="visDescription" v:val="VT4(단방향 또는 양방향 I/O 포트입니다. )"/>
			</v:userDefs>
			<v:textBlock v:margins="rect(1,1,1,1)" v:tabSpace="42.5197"/>
			<v:textRect cx="17.3723" cy="580.788" width="21.88" height="11.6036"/>
			<path d="M0 590.93 L0 586.59 L26.06 586.59 L34.74 590.93 L26.06 595.28 L0 595.28 L0 590.93 Z" class="st4"/>
			<text x="8.49" y="583.19" class="st5" v:langID="1042"><v:paragraph v:horizAlign="1"/><v:tabList/>Ans5</text>		</g>
		<g id="group26-76" transform="translate(437.01,-166.808)" v:mID="26" v:groupContext="group" v:layerMember="0">
			<v:custProps>
				<v:cp v:nameU="Input" v:lbl="입력 수" v:type="1" v:format="2;3;4;5" v:sortKey="2" v:langID="1042" v:val="VT4(2)"/>
				<v:cp v:nameU="Type" v:lbl="게이트 종류" v:type="1" v:format="OR;AND;NOR;NAND;XOR;XNOR" v:sortKey="1" v:langID="1042"
						v:val="VT4(AND)"/>
				<v:cp v:nameU="Out" v:lbl="출력 수" v:type="1" v:format="1;2;3" v:sortKey="3" v:langID="1042" v:val="VT4(1)"/>
			</v:custProps>
			<v:userDefs>
				<v:ud v:nameU="SubType" v:val="VT0(1):26"/>
				<v:ud v:nameU="Margin" v:val="VT0(0.059055118110236):24"/>
				<v:ud v:nameU="LimitHeight" v:val="VT0(0):26"/>
				<v:ud v:nameU="visVersion" v:val="VT0(15):26"/>
				<v:ud v:nameU="visDescription" v:val="VT4(여러 가지 모양의 논리 게이트를 나타냅니다.)"/>
				<v:ud v:nameU="Margin" v:prompt="" v:val="VT0(0.13920134983127):1"/>
			</v:userDefs>
			<title>논리 게이트 2.47</title>
			<desc>G2</desc>
			<g id="shape27-77" v:mID="27" v:groupContext="shape" v:layerMember="0" transform="translate(0,-10.0225)">
				<title>시트.27</title>
				<path d="M0 575.23 L40.09 575.23" class="st3"/>
				<path d="M0 595.28 L40.09 595.28" class="st3"/>
				<path d="M80.18 585.25 L40.09 585.25" class="st3"/>
			</g>
			<g id="shape28-82" v:mID="28" v:groupContext="shape" v:layerMember="0" transform="translate(14.0315,0)">
				<title>시트.28</title>
				<v:userDefs>
					<v:ud v:nameU="X" v:val="VT0(0.029527559055118):24"/>
					<v:ud v:nameU="X" v:prompt="" v:val="VT0(0.069600674915635):1"/>
				</v:userDefs>
				<path d="M52.12 575.23 A53.9825 33.0731 0 0 1 15.64 595.28 L0 595.28 A77.344 47.3857 -180 0 0 0 555.19 L15.64 555.19
							 A53.2595 32.6301 0 0 1 52.12 575.23 Z" class="st4"/>
			</g>
			<g id="shape29-84" v:mID="29" v:groupContext="shape" v:layerMember="0" transform="translate(0,6.68166)">
				<title>시트.29</title>
			</g>
			<g id="shape30-86" v:mID="30" v:groupContext="shape" v:layerMember="0" transform="translate(54.2871,-5.03713)">
				<title>시트.30</title>
			</g>
			<g id="shape31-88" v:mID="31" v:groupContext="shape" v:layerMember="0" transform="translate(14.0315,0)">
				<title>시트.31</title>
				<path d="M32.07 595.28 L0 595.28 L0 555.19 L32.07 555.19 A20.045 20.045 0 0 1 32.07 595.28 Z" class="st4"/>
			</g>
			<g id="shape26-90" v:mID="26" v:groupContext="groupContent" v:layerMember="0">
				<v:textBlock v:margins="rect(1,1,1,1)" v:tabSpace="42.5197"/>
				<v:textRect cx="40.09" cy="601.077" width="14.14" height="11.6036"/>
				<text x="35.08" y="603.48" class="st5" v:langID="1042"><v:paragraph v:horizAlign="1"/><v:tabList/>G2</text>			</g>
		</g>
		<g id="group32-92" transform="translate(640.225,-255.58)" v:mID="32" v:groupContext="group" v:layerMember="0">
			<v:custProps>
				<v:cp v:nameU="Input" v:lbl="입력 수" v:type="1" v:format="2;3;4;5" v:sortKey="2" v:langID="1042" v:val="VT4(2)"/>
				<v:cp v:nameU="Type" v:lbl="게이트 종류" v:type="1" v:format="OR;AND;NOR;NAND;XOR;XNOR" v:sortKey="1" v:langID="1042"
						v:val="VT4(AND)"/>
				<v:cp v:nameU="Out" v:lbl="출력 수" v:type="1" v:format="1;2;3" v:sortKey="3" v:langID="1042" v:val="VT4(1)"/>
			</v:custProps>
			<v:userDefs>
				<v:ud v:nameU="SubType" v:val="VT0(1):26"/>
				<v:ud v:nameU="Margin" v:val="VT0(0.059055118110236):24"/>
				<v:ud v:nameU="LimitHeight" v:val="VT0(0):26"/>
				<v:ud v:nameU="visVersion" v:val="VT0(15):26"/>
				<v:ud v:nameU="visDescription" v:val="VT4(여러 가지 모양의 논리 게이트를 나타냅니다.)"/>
				<v:ud v:nameU="Margin" v:prompt="" v:val="VT0(0.13920134983127):1"/>
			</v:userDefs>
			<title>논리 게이트 2.53</title>
			<desc>G4</desc>
			<g id="shape33-93" v:mID="33" v:groupContext="shape" v:layerMember="0" transform="translate(0,-10.0225)">
				<title>시트.33</title>
				<path d="M0 575.23 L40.09 575.23" class="st3"/>
				<path d="M0 595.28 L40.09 595.28" class="st3"/>
				<path d="M80.18 585.25 L40.09 585.25" class="st3"/>
			</g>
			<g id="shape34-98" v:mID="34" v:groupContext="shape" v:layerMember="0" transform="translate(14.0315,0)">
				<title>시트.34</title>
				<v:userDefs>
					<v:ud v:nameU="X" v:val="VT0(0.029527559055118):24"/>
					<v:ud v:nameU="X" v:prompt="" v:val="VT0(0.069600674915635):1"/>
				</v:userDefs>
				<path d="M52.12 575.23 A53.9825 33.0731 0 0 1 15.64 595.28 L0 595.28 A77.344 47.3857 -180 0 0 0 555.19 L15.64 555.19
							 A53.2595 32.6301 0 0 1 52.12 575.23 Z" class="st4"/>
			</g>
			<g id="shape35-100" v:mID="35" v:groupContext="shape" v:layerMember="0" transform="translate(0,6.68166)">
				<title>시트.35</title>
			</g>
			<g id="shape36-102" v:mID="36" v:groupContext="shape" v:layerMember="0" transform="translate(54.2871,-5.03713)">
				<title>시트.36</title>
			</g>
			<g id="shape37-104" v:mID="37" v:groupContext="shape" v:layerMember="0" transform="translate(14.0315,0)">
				<title>시트.37</title>
				<path d="M32.07 595.28 L0 595.28 L0 555.19 L32.07 555.19 A20.045 20.045 0 0 1 32.07 595.28 Z" class="st4"/>
			</g>
			<g id="shape32-106" v:mID="32" v:groupContext="groupContent" v:layerMember="0">
				<v:textBlock v:margins="rect(1,1,1,1)" v:tabSpace="42.5197"/>
				<v:textRect cx="40.09" cy="601.077" width="14.14" height="11.6036"/>
				<text x="35.08" y="603.48" class="st5" v:langID="1042"><v:paragraph v:horizAlign="1"/><v:tabList/>G4</text>			</g>
		</g>
		<g id="shape38-108" v:mID="38" v:groupContext="shape" v:layerMember="0" transform="translate(773.129,-271.282)">
			<title>I/O 포트.59</title>
			<desc>Bent Input Shaft</desc>
			<v:userDefs>
				<v:ud v:nameU="Form" v:val="VT0(0):26"/>
				<v:ud v:nameU="visVersion" v:val="VT0(15):26"/>
				<v:ud v:nameU="visDescription" v:val="VT4(단방향 또는 양방향 I/O 포트입니다. )"/>
			</v:userDefs>
			<v:textBlock v:margins="rect(1,1,1,1)" v:tabSpace="42.5197"/>
			<v:textRect cx="14.1732" cy="604.587" width="64.17" height="11.6036"/>
			<path d="M0 590.93 L0 586.59 L26.06 586.59 L34.74 590.93 L26.06 595.28 L0 595.28 L0 590.93 Z" class="st4"/>
			<text x="-15.5" y="606.99" class="st5" v:langID="1033"><v:paragraph v:horizAlign="1"/><v:tabList/>Bent Input Shaft</text>		</g>
		<g id="shape39-111" v:mID="39" v:groupContext="shape" v:layerMember="1" transform="translate(402.265,-406.53)">
			<title>동적 연결선</title>
			<desc>False</desc>
			<v:textBlock v:margins="rect(4,4,4,4)" v:tabSpace="42.5197"/>
			<v:textRect cx="61.5461" cy="612.377" width="50" height="20.0036"/>
			<path d="M0 595.28 L10.63 595.28 L10.63 612.38 L140.19 612.38" class="st11"/>
			<rect v:rectContext="textBkgnd" x="50.3815" y="606.377" width="22.3292" height="12.0001" class="st9"/>
			<text x="50.38" y="615.38" class="st12" v:langID="1042"><v:paragraph v:horizAlign="1"/><v:tabList/>False</text>		</g>
		<g id="shape40-116" v:mID="40" v:groupContext="shape" v:layerMember="1" transform="translate(517.19,-323.226)">
			<title>동적 연결선.61</title>
			<desc>False</desc>
			<v:textBlock v:margins="rect(4,4,4,4)" v:tabSpace="42.5197"/>
			<v:textRect cx="10.6299" cy="570.192" width="50" height="20.0036"/>
			<path d="M0 595.28 L10.63 595.28 L10.63 549.12 L25.27 549.12" class="st11"/>
			<rect v:rectContext="textBkgnd" x="-0.534721" y="564.192" width="22.3292" height="12.0001" class="st9"/>
			<text x="-0.53" y="573.19" class="st12" v:langID="1042"><v:paragraph v:horizAlign="1"/><v:tabList/>False</text>		</g>
		<g id="shape41-121" v:mID="41" v:groupContext="shape" v:layerMember="1" transform="translate(622.638,-379.406)">
			<title>동적 연결선.62</title>
			<desc>False</desc>
			<v:textBlock v:margins="rect(4,4,4,4)" v:tabSpace="42.5197"/>
			<v:textRect cx="5.31496" cy="645.633" width="50" height="20.0036"/>
			<path d="M0 595.28 L5.31 595.28 L5.31 689.03 L17.59 689.03" class="st11"/>
			<rect v:rectContext="textBkgnd" x="-5.84968" y="639.633" width="22.3292" height="12.0001" class="st9"/>
			<text x="-5.85" y="648.63" class="st12" v:langID="1042"><v:paragraph v:horizAlign="1"/><v:tabList/>False</text>		</g>
		<g id="shape42-126" v:mID="42" v:groupContext="shape" v:layerMember="1" transform="translate(402.265,-210.611)">
			<title>동적 연결선.63</title>
			<desc>False</desc>
			<v:textBlock v:margins="rect(4,4,4,4)" v:tabSpace="42.5197"/>
			<v:textRect cx="10.7233" cy="609.011" width="50" height="20.0036"/>
			<path d="M0 595.71 L10.63 595.71 L10.63 609.01 L34.74 609.01" class="st11"/>
			<rect v:rectContext="textBkgnd" x="-0.441358" y="603.011" width="22.3292" height="12.0001" class="st9"/>
			<text x="-0.44" y="612.01" class="st12" v:langID="1042"><v:paragraph v:horizAlign="1"/><v:tabList/>False</text>		</g>
		<g id="shape43-131" v:mID="43" v:groupContext="shape" v:layerMember="1" transform="translate(402.265,-144.721)">
			<title>동적 연결선.64</title>
			<desc>False</desc>
			<v:textBlock v:margins="rect(4,4,4,4)" v:tabSpace="42.5197"/>
			<v:textRect cx="10.6299" cy="572.479" width="50" height="20.0036"/>
			<path d="M0 595.28 L10.63 595.28 L10.63 563.17 L34.74 563.17" class="st11"/>
			<rect v:rectContext="textBkgnd" x="-0.534721" y="566.479" width="22.3292" height="12.0001" class="st9"/>
			<text x="-0.53" y="575.48" class="st12" v:langID="1042"><v:paragraph v:horizAlign="1"/><v:tabList/>False</text>		</g>
		<g id="shape44-136" v:mID="44" v:groupContext="shape" v:layerMember="1" transform="translate(517.19,-186.853)">
			<title>동적 연결선.66</title>
			<desc>False</desc>
			<v:textBlock v:margins="rect(4,4,4,4)" v:tabSpace="42.5197"/>
			<v:textRect cx="22.1425" cy="516.525" width="50" height="20.0036"/>
			<path d="M0 595.28 L10.63 595.28 L10.63 516.53 L123.04 516.53" class="st11"/>
			<rect v:rectContext="textBkgnd" x="10.9779" y="510.526" width="22.3292" height="12.0001" class="st9"/>
			<text x="10.98" y="519.53" class="st12" v:langID="1042"><v:paragraph v:horizAlign="1"/><v:tabList/>False</text>		</g>
		<g id="shape45-141" v:mID="45" v:groupContext="shape" v:layerMember="1" transform="translate(720.405,-268.539)">
			<title>동적 연결선.67</title>
			<desc>False</desc>
			<v:textBlock v:margins="rect(4,4,4,4)" v:tabSpace="42.5197"/>
			<v:textRect cx="26.3622" cy="588.189" width="50" height="20.0036"/>
			<path d="M0 588.19 L52.72 588.19" class="st11"/>
			<rect v:rectContext="textBkgnd" x="15.1976" y="582.189" width="22.3292" height="12.0001" class="st9"/>
			<text x="15.2" y="591.19" class="st12" v:langID="1042"><v:paragraph v:horizAlign="1"/><v:tabList/>False</text>		</g>
	</g>
</svg>
