<?xml version="1.0" encoding="UTF-8" standalone="no"?>
<!DOCTYPE svg PUBLIC "-//W3C//DTD SVG 1.1//EN" "http://www.w3.org/Graphics/SVG/1.1/DTD/svg11.dtd">
<!-- Microsoft Visio, SVG Export에서 생성되었습니다. Fan__Fault_1.svg Fan_Fault_01_Unbalance1 -->
<svg xmlns="http://www.w3.org/2000/svg" xmlns:xlink="http://www.w3.org/1999/xlink" xmlns:ev="http://www.w3.org/2001/xml-events"
		xmlns:v="http://schemas.microsoft.com/visio/2003/SVGExtensions/" width="11.6929in" height="8.26772in"
		viewBox="0 0 841.89 595.276" xml:space="preserve" color-interpolation-filters="sRGB" class="st11">
	<v:documentProperties v:langID="1042" v:metric="true" v:viewMarkup="false">
		<v:userDefs>
			<v:ud v:nameU="msvNoAutoConnect" v:val="VT0(1):26"/>
		</v:userDefs>
	</v:documentProperties>

	<style type="text/css">
	<![CDATA[
		.st1 {fill:#ffffff;stroke:none;stroke-linecap:round;stroke-linejoin:round;stroke-width:0.75}
		.st2 {fill:#000000;font-family:맑은 고딕;font-size:1.16666em;font-weight:bold}
		.st3 {fill:none;stroke:none;stroke-linecap:round;stroke-linejoin:round;stroke-width:0.75}
		.st4 {fill:#000000;font-family:맑은 고딕;font-size:1.00001em}
		.st5 {fill:#ffffff;stroke:#000000;stroke-linecap:round;stroke-linejoin:round;stroke-width:0.75}
		.st6 {fill:#000000;font-family:맑은 고딕;font-size:0.666664em}
		.st7 {stroke:#000000;stroke-linecap:round;stroke-linejoin:round;stroke-width:0.75}
		.st8 {stroke:#0070c0;stroke-linecap:round;stroke-linejoin:round;stroke-width:1}
		.st9 {fill:#ffffff;stroke:none;stroke-linecap:butt;stroke-width:7.2}
		.st10 {fill:#0070c0;font-family:맑은 고딕;font-size:0.833336em}
		.st11 {fill:none;fill-rule:evenodd;font-size:12px;overflow:visible;stroke-linecap:square;stroke-miterlimit:3}
	]]>
	</style>

	<g v:mID="26" v:index="1" v:groupContext="foregroundPage">
		<title>Fan_Fault_01_Unbalance1</title>
		<v:pageProperties v:drawingScale="0.0393701" v:pageScale="0.0393701" v:drawingUnits="24" v:shadowOffsetX="8.50394"
				v:shadowOffsetY="-8.50394"/>
		<v:layer v:name="전기" v:index="0"/>
		<v:layer v:name="연결선" v:index="1"/>
		<g id="shape1-1" v:mID="1" v:groupContext="shape" transform="translate(325.984,-553.894)">
			<title>시트.1</title>
			<desc>Fan Fault 01 - Unbalance1</desc>
			<v:textBlock v:margins="rect(4,4,4,4)" v:tabSpace="42.5197"/>
			<v:textRect cx="100.357" cy="584.074" width="200.72" height="22.4037"/>
			<rect x="0" y="572.872" width="200.715" height="22.4037" class="st1"/>
			<text x="12.57" y="588.27" class="st2" v:langID="1033"><v:paragraph v:horizAlign="1"/><v:tabList/>Fan Fault 01 - Unbalance1</text>		</g>
		<g id="shape2-4" v:mID="2" v:groupContext="shape" transform="translate(42.5197,-353.48)">
			<title>시트.2</title>
			<desc>Horiz 1xRPM&#62;Unbalance Thresh</desc>
			<v:textBlock v:margins="rect(4,4,4,4)" v:tabSpace="42.5197"/>
			<v:textRect cx="121.005" cy="583.937" width="242.01" height="22.6772"/>
			<rect x="0" y="572.598" width="242.009" height="22.6772" class="st3"/>
			<text x="61.99" y="587.54" class="st4" v:langID="1033"><v:paragraph v:horizAlign="2"/><v:tabList/>Horiz 1xRPM&#62;Unbalance Thresh</text>		</g>
		<g id="shape3-7" v:mID="3" v:groupContext="shape" transform="translate(42.5197,-295.654)">
			<title>시트.3</title>
			<desc>Vert 1xRPM&#62;Unbalance Thresh</desc>
			<v:textBlock v:margins="rect(4,4,4,4)" v:tabSpace="42.5197"/>
			<v:textRect cx="121.005" cy="583.937" width="242.01" height="22.6772"/>
			<rect x="0" y="572.598" width="242.009" height="22.6772" class="st3"/>
			<text x="68.2" y="587.54" class="st4" v:langID="1033"><v:paragraph v:horizAlign="2"/><v:tabList/>Vert 1xRPM&#62;Unbalance Thresh</text>		</g>
		<g id="shape4-10" v:mID="4" v:groupContext="shape" transform="translate(42.5197,-237.827)">
			<title>시트.4</title>
			<desc>Axial 1xRPM&#60;=50%Horiz 1xRPM</desc>
			<v:textBlock v:margins="rect(4,4,4,4)" v:tabSpace="42.5197"/>
			<v:textRect cx="121.005" cy="583.937" width="242.01" height="22.6772"/>
			<rect x="0" y="572.598" width="242.009" height="22.6772" class="st3"/>
			<text x="60.53" y="587.54" class="st4" v:langID="1033"><v:paragraph v:horizAlign="2"/><v:tabList/>Axial 1xRPM&#60;=50%Horiz 1xRPM</text>		</g>
		<g id="shape5-13" v:mID="5" v:groupContext="shape" transform="translate(42.5197,-180)">
			<title>시트.5</title>
			<desc>Axial 1xRPM&#60;=50%Vert 1xRPM</desc>
			<v:textBlock v:margins="rect(4,4,4,4)" v:tabSpace="42.5197"/>
			<v:textRect cx="121.005" cy="583.937" width="242.01" height="22.6772"/>
			<rect x="0" y="572.598" width="242.009" height="22.6772" class="st3"/>
			<text x="66.74" y="587.54" class="st4" v:langID="1033"><v:paragraph v:horizAlign="2"/><v:tabList/>Axial 1xRPM&#60;=50%Vert 1xRPM</text>		</g>
		<g id="shape6-16" v:mID="6" v:groupContext="shape" transform="translate(42.5197,-122.173)">
			<title>시트.6</title>
			<desc>Horiz 1xRPM / Vert 1xRPM &#60;=5.0</desc>
			<v:textBlock v:margins="rect(4,4,4,4)" v:tabSpace="42.5197"/>
			<v:textRect cx="121.005" cy="583.937" width="242.01" height="22.6772"/>
			<rect x="0" y="572.598" width="242.009" height="22.6772" class="st3"/>
			<text x="53.75" y="587.54" class="st4" v:langID="1033"><v:paragraph v:horizAlign="2"/><v:tabList/>Horiz 1xRPM / Vert 1xRPM &#60;=5.0</text>		</g>
		<g id="shape7-19" v:mID="7" v:groupContext="shape" v:layerMember="0" transform="translate(305.789,-186.898)">
			<title>I/O 포트.36</title>
			<desc>Ans4</desc>
			<v:userDefs>
				<v:ud v:nameU="Form" v:val="VT0(0):26"/>
				<v:ud v:nameU="visVersion" v:val="VT0(15):26"/>
				<v:ud v:nameU="visDescription" v:val="VT4(단방향 또는 양방향 I/O 포트입니다. )"/>
			</v:userDefs>
			<v:textBlock v:margins="rect(1,1,1,1)" v:tabSpace="42.5197"/>
			<v:textRect cx="17.3723" cy="580.788" width="21.88" height="11.6036"/>
			<path d="M0 590.93 L0 586.59 L26.06 586.59 L34.74 590.93 L26.06 595.28 L0 595.28 L0 590.93 Z" class="st5"/>
			<text x="8.49" y="583.19" class="st6" v:langID="1042"><v:paragraph v:horizAlign="1"/><v:tabList/>Ans4</text>		</g>
		<g id="shape8-22" v:mID="8" v:groupContext="shape" v:layerMember="0" transform="translate(305.789,-128.366)">
			<title>I/O 포트.37</title>
			<desc>Ans5</desc>
			<v:userDefs>
				<v:ud v:nameU="Form" v:val="VT0(0):26"/>
				<v:ud v:nameU="visVersion" v:val="VT0(15):26"/>
				<v:ud v:nameU="visDescription" v:val="VT4(단방향 또는 양방향 I/O 포트입니다. )"/>
			</v:userDefs>
			<v:textBlock v:margins="rect(1,1,1,1)" v:tabSpace="42.5197"/>
			<v:textRect cx="17.3723" cy="580.788" width="21.88" height="11.6036"/>
			<path d="M0 590.93 L0 586.59 L26.06 586.59 L34.74 590.93 L26.06 595.28 L0 595.28 L0 590.93 Z" class="st5"/>
			<text x="8.49" y="583.19" class="st6" v:langID="1042"><v:paragraph v:horizAlign="1"/><v:tabList/>Ans5</text>		</g>
		<g id="shape9-25" v:mID="9" v:groupContext="shape" v:layerMember="0" transform="translate(305.789,-245.43)">
			<title>I/O 포트.44</title>
			<desc>Ans3</desc>
			<v:userDefs>
				<v:ud v:nameU="Form" v:val="VT0(0):26"/>
				<v:ud v:nameU="visVersion" v:val="VT0(15):26"/>
				<v:ud v:nameU="visDescription" v:val="VT4(단방향 또는 양방향 I/O 포트입니다. )"/>
			</v:userDefs>
			<v:textBlock v:margins="rect(1,1,1,1)" v:tabSpace="42.5197"/>
			<v:textRect cx="17.3723" cy="580.788" width="21.88" height="11.6036"/>
			<path d="M0 590.93 L0 586.59 L26.06 586.59 L34.74 590.93 L26.06 595.28 L0 595.28 L0 590.93 Z" class="st5"/>
			<text x="8.49" y="583.19" class="st6" v:langID="1042"><v:paragraph v:horizAlign="1"/><v:tabList/>Ans3</text>		</g>
		<g id="shape10-28" v:mID="10" v:groupContext="shape" v:layerMember="0" transform="translate(305.789,-362.494)">
			<title>I/O 포트.45</title>
			<desc>Ans1</desc>
			<v:userDefs>
				<v:ud v:nameU="Form" v:val="VT0(0):26"/>
				<v:ud v:nameU="visVersion" v:val="VT0(15):26"/>
				<v:ud v:nameU="visDescription" v:val="VT4(단방향 또는 양방향 I/O 포트입니다. )"/>
			</v:userDefs>
			<v:textBlock v:margins="rect(1,1,1,1)" v:tabSpace="42.5197"/>
			<v:textRect cx="17.3723" cy="580.788" width="22.58" height="11.6036"/>
			<path d="M0 590.93 L0 586.59 L26.06 586.59 L34.74 590.93 L26.06 595.28 L0 595.28 L0 590.93 Z" class="st5"/>
			<text x="8.49" y="583.19" class="st6" v:langID="1042"><v:paragraph v:horizAlign="1"/><v:tabList/>Ans1</text>		</g>
		<g id="shape11-31" v:mID="11" v:groupContext="shape" v:layerMember="0" transform="translate(305.789,-303.962)">
			<title>I/O 포트.46</title>
			<desc>Ans2</desc>
			<v:userDefs>
				<v:ud v:nameU="Form" v:val="VT0(0):26"/>
				<v:ud v:nameU="visVersion" v:val="VT0(15):26"/>
				<v:ud v:nameU="visDescription" v:val="VT4(단방향 또는 양방향 I/O 포트입니다. )"/>
			</v:userDefs>
			<v:textBlock v:margins="rect(1,1,1,1)" v:tabSpace="42.5197"/>
			<v:textRect cx="17.3723" cy="580.788" width="21.88" height="11.6036"/>
			<path d="M0 590.93 L0 586.59 L26.06 586.59 L34.74 590.93 L26.06 595.28 L0 595.28 L0 590.93 Z" class="st5"/>
			<text x="8.49" y="583.19" class="st6" v:langID="1042"><v:paragraph v:horizAlign="1"/><v:tabList/>Ans2</text>		</g>
		<g id="group12-34" transform="translate(366.057,-321.08)" v:mID="12" v:groupContext="group" v:layerMember="0">
			<v:custProps>
				<v:cp v:nameU="Input" v:lbl="입력 수" v:type="1" v:format="2;3;4;5" v:sortKey="2" v:langID="1042" v:val="VT4(2)"/>
				<v:cp v:nameU="Type" v:lbl="게이트 종류" v:type="1" v:format="OR;AND;NOR;NAND;XOR;XNOR" v:sortKey="1" v:langID="1042"
						v:val="VT4(AND)"/>
				<v:cp v:nameU="Out" v:lbl="출력 수" v:type="1" v:format="1;2;3" v:sortKey="3" v:langID="1042" v:val="VT4(1)"/>
				<v:cp v:nameU="Type" v:lbl="" v:prompt="" v:type="0" v:format="" v:sortKey="" v:invis="false" v:ask="false"
						v:langID="1033" v:cal="0" v:val="VT4(OR)"/>
			</v:custProps>
			<v:userDefs>
				<v:ud v:nameU="SubType" v:val="VT0(1):26"/>
				<v:ud v:nameU="Margin" v:val="VT0(0.059055118110236):24"/>
				<v:ud v:nameU="LimitHeight" v:val="VT0(0):26"/>
				<v:ud v:nameU="visVersion" v:val="VT0(15):26"/>
				<v:ud v:nameU="visDescription" v:val="VT4(여러 가지 모양의 논리 게이트를 나타냅니다.)"/>
				<v:ud v:nameU="SubType" v:prompt="" v:val="VT0(0):26"/>
				<v:ud v:nameU="Margin" v:prompt="" v:val="VT0(0.13213042461384):1"/>
			</v:userDefs>
			<title>논리 게이트 2.47</title>
			<desc>G1</desc>
			<g id="shape13-35" v:mID="13" v:groupContext="shape" v:layerMember="0" transform="translate(0,-9.51339)">
				<title>시트.13</title>
				<path d="M0 576.25 L38.05 576.25" class="st7"/>
				<path d="M0 595.28 L38.05 595.28" class="st7"/>
				<path d="M76.11 585.76 L38.05 585.76" class="st7"/>
			</g>
			<g id="shape14-40" v:mID="14" v:groupContext="shape" v:layerMember="0" transform="translate(13.3187,0)">
				<title>시트.14</title>
				<v:userDefs>
					<v:ud v:nameU="X" v:val="VT0(0.029527559055118):24"/>
					<v:ud v:nameU="X" v:prompt="" v:val="VT0(0.06606521230692):1"/>
				</v:userDefs>
				<path d="M49.47 576.25 A51.2404 31.3931 0 0 1 14.84 595.28 L0 595.28 A73.4152 44.9787 -180 0 0 0 557.22 L14.84 557.22
							 A50.5541 30.9726 0 0 1 49.47 576.25 Z" class="st5"/>
			</g>
			<g id="shape15-42" v:mID="15" v:groupContext="shape" v:layerMember="0" transform="translate(0,6.34226)">
				<title>시트.15</title>
			</g>
			<g id="shape16-44" v:mID="16" v:groupContext="shape" v:layerMember="0" transform="translate(51.5295,-4.78126)">
				<title>시트.16</title>
			</g>
			<g id="shape17-46" v:mID="17" v:groupContext="shape" v:layerMember="0" transform="translate(13.3187,0)">
				<title>시트.17</title>
			</g>
			<g id="shape12-48" v:mID="12" v:groupContext="groupContent" v:layerMember="0">
				<v:textBlock v:margins="rect(1,1,1,1)" v:tabSpace="42.5197"/>
				<v:textRect cx="38.0536" cy="601.077" width="14.84" height="11.6036"/>
				<text x="33.04" y="603.48" class="st6" v:langID="1042"><v:paragraph v:horizAlign="1"/><v:tabList/>G1</text>			</g>
		</g>
		<g id="shape18-50" v:mID="18" v:groupContext="shape" v:layerMember="0" transform="translate(760.721,-187.783)">
			<title>I/O 포트.59</title>
			<desc>Unbalance1</desc>
			<v:userDefs>
				<v:ud v:nameU="Form" v:val="VT0(0):26"/>
				<v:ud v:nameU="visVersion" v:val="VT0(15):26"/>
				<v:ud v:nameU="visDescription" v:val="VT4(단방향 또는 양방향 I/O 포트입니다. )"/>
			</v:userDefs>
			<v:textBlock v:margins="rect(1,1,1,1)" v:tabSpace="42.5197"/>
			<v:textRect cx="14.1732" cy="576.98" width="47.25" height="11.6036"/>
			<path d="M0 591.15 L0 587.03 L24.73 587.03 L32.98 591.15 L24.73 595.28 L0 595.28 L0 591.15 Z" class="st5"/>
			<text x="-7.04" y="579.44" class="st6" v:langID="1033"><v:paragraph v:horizAlign="1"/><v:tabList/>Unbalance1</text>		</g>
		<g id="shape19-53" v:mID="19" v:groupContext="shape" v:layerMember="1" transform="translate(340.533,-366.837)">
			<title>동적 연결선.42</title>
			<desc>False</desc>
			<v:textBlock v:margins="rect(4,4,4,4)" v:tabSpace="42.5197"/>
			<v:textRect cx="10.6299" cy="606.016" width="50" height="20.0036"/>
			<path d="M0 595.28 L10.63 595.28 L10.63 612.49 L25.52 612.49" class="st8"/>
			<rect v:rectContext="textBkgnd" x="-0.534721" y="600.016" width="22.3292" height="12.0001" class="st9"/>
			<text x="-0.53" y="609.02" class="st10" v:langID="1042"><v:paragraph v:horizAlign="1"/><v:tabList/>False</text>		</g>
		<g id="shape20-58" v:mID="20" v:groupContext="shape" v:layerMember="1" transform="translate(340.533,-308.305)">
			<title>동적 연결선.43</title>
			<desc>False</desc>
			<v:textBlock v:margins="rect(4,4,4,4)" v:tabSpace="42.5197"/>
			<v:textRect cx="10.6299" cy="582" width="50" height="20.0036"/>
			<path d="M0 595.28 L10.63 595.28 L10.63 572.99 L25.52 572.99" class="st8"/>
			<rect v:rectContext="textBkgnd" x="-0.534721" y="576" width="22.3292" height="12.0001" class="st9"/>
			<text x="-0.53" y="585" class="st10" v:langID="1042"><v:paragraph v:horizAlign="1"/><v:tabList/>False</text>		</g>
		<g id="shape21-63" v:mID="21" v:groupContext="shape" v:layerMember="1" transform="translate(718.201,-184.819)">
			<title>동적 연결선.67</title>
			<desc>True</desc>
			<v:textBlock v:margins="rect(4,4,4,4)" v:tabSpace="42.5197"/>
			<v:textRect cx="21.2598" cy="588.189" width="50" height="20.0036"/>
			<path d="M0 588.19 L42.52 588.19" class="st8"/>
			<rect v:rectContext="textBkgnd" x="11.2573" y="582.189" width="20.005" height="12.0001" class="st9"/>
			<text x="11.26" y="591.19" class="st10" v:langID="1042"><v:paragraph v:horizAlign="1"/><v:tabList/>True</text>		</g>
		<g id="shape22-68" v:mID="22" v:groupContext="shape" transform="translate(42.5197,-64.3465)">
			<title>시트.22</title>
			<desc>Vert 1xRPM / Horiz 1xRPM &#60;=3.5</desc>
			<v:textBlock v:margins="rect(4,4,4,4)" v:tabSpace="42.5197"/>
			<v:textRect cx="121.005" cy="583.937" width="242.01" height="22.6772"/>
			<rect x="0" y="572.598" width="242.009" height="22.6772" class="st3"/>
			<text x="53.75" y="587.54" class="st4" v:langID="1033"><v:paragraph v:horizAlign="2"/><v:tabList/>Vert 1xRPM / Horiz 1xRPM &#60;=3.5</text>		</g>
		<g id="shape23-71" v:mID="23" v:groupContext="shape" v:layerMember="0" transform="translate(305.789,-69.8335)">
			<title>I/O 포트.48</title>
			<desc>Ans6</desc>
			<v:userDefs>
				<v:ud v:nameU="Form" v:val="VT0(0):26"/>
				<v:ud v:nameU="visVersion" v:val="VT0(15):26"/>
				<v:ud v:nameU="visDescription" v:val="VT4(단방향 또는 양방향 I/O 포트입니다. )"/>
			</v:userDefs>
			<v:textBlock v:margins="rect(1,1,1,1)" v:tabSpace="42.5197"/>
			<v:textRect cx="17.3723" cy="580.788" width="21.88" height="11.6036"/>
			<path d="M0 590.93 L0 586.59 L26.06 586.59 L34.74 590.93 L26.06 595.28 L0 595.28 L0 590.93 Z" class="st5"/>
			<text x="8.49" y="583.19" class="st6" v:langID="1042"><v:paragraph v:horizAlign="1"/><v:tabList/>Ans6</text>		</g>
		<g id="group24-74" transform="translate(366.057,-206.079)" v:mID="24" v:groupContext="group" v:layerMember="0">
			<v:custProps>
				<v:cp v:nameU="Input" v:lbl="입력 수" v:type="1" v:format="2;3;4;5" v:sortKey="2" v:langID="1042" v:val="VT4(2)"/>
				<v:cp v:nameU="Type" v:lbl="게이트 종류" v:type="1" v:format="OR;AND;NOR;NAND;XOR;XNOR" v:sortKey="1" v:langID="1042"
						v:val="VT4(AND)"/>
				<v:cp v:nameU="Out" v:lbl="출력 수" v:type="1" v:format="1;2;3" v:sortKey="3" v:langID="1042" v:val="VT4(1)"/>
				<v:cp v:nameU="Type" v:lbl="" v:prompt="" v:type="0" v:format="" v:sortKey="" v:invis="false" v:ask="false"
						v:langID="1033" v:cal="0" v:val="VT0(0):26"/>
			</v:custProps>
			<v:userDefs>
				<v:ud v:nameU="SubType" v:val="VT0(1):26"/>
				<v:ud v:nameU="Margin" v:val="VT0(0.059055118110236):24"/>
				<v:ud v:nameU="LimitHeight" v:val="VT0(0):26"/>
				<v:ud v:nameU="visVersion" v:val="VT0(15):26"/>
				<v:ud v:nameU="visDescription" v:val="VT4(여러 가지 모양의 논리 게이트를 나타냅니다.)"/>
				<v:ud v:nameU="Margin" v:prompt="" v:val="VT0(0.13213042461384):1"/>
			</v:userDefs>
			<title>논리 게이트 2.49</title>
			<desc>G1</desc>
			<g id="shape25-75" v:mID="25" v:groupContext="shape" v:layerMember="0" transform="translate(0,-9.51339)">
				<title>시트.25</title>
				<path d="M0 576.25 L38.05 576.25" class="st7"/>
				<path d="M0 595.28 L38.05 595.28" class="st7"/>
				<path d="M76.11 585.76 L38.05 585.76" class="st7"/>
			</g>
			<g id="shape26-80" v:mID="26" v:groupContext="shape" v:layerMember="0" transform="translate(13.3187,0)">
				<title>시트.26</title>
				<v:userDefs>
					<v:ud v:nameU="X" v:val="VT0(0.029527559055118):24"/>
					<v:ud v:nameU="X" v:prompt="" v:val="VT0(0.06606521230692):1"/>
				</v:userDefs>
				<path d="M49.47 576.25 A51.2404 31.3931 0 0 1 14.84 595.28 L0 595.28 A73.4152 44.9787 -180 0 0 0 557.22 L14.84 557.22
							 A50.5541 30.9726 0 0 1 49.47 576.25 Z" class="st5"/>
			</g>
			<g id="shape27-82" v:mID="27" v:groupContext="shape" v:layerMember="0" transform="translate(0,6.34226)">
				<title>시트.27</title>
			</g>
			<g id="shape28-84" v:mID="28" v:groupContext="shape" v:layerMember="0" transform="translate(51.5295,-4.78126)">
				<title>시트.28</title>
			</g>
			<g id="shape29-86" v:mID="29" v:groupContext="shape" v:layerMember="0" transform="translate(13.3187,0)">
				<title>시트.29</title>
				<path d="M30.44 595.28 L0 595.28 L0 557.22 L30.44 557.22 A19.0268 19.0268 0 0 1 30.44 595.28 Z" class="st5"/>
			</g>
			<g id="shape24-88" v:mID="24" v:groupContext="groupContent" v:layerMember="0">
				<v:textBlock v:margins="rect(1,1,1,1)" v:tabSpace="42.5197"/>
				<v:textRect cx="38.0536" cy="601.077" width="14.84" height="11.6036"/>
				<text x="33.04" y="603.48" class="st6" v:langID="1042"><v:paragraph v:horizAlign="1"/><v:tabList/>G1</text>			</g>
		</g>
		<g id="shape30-90" v:mID="30" v:groupContext="shape" v:layerMember="1" transform="translate(340.533,-249.773)">
			<title>동적 연결선</title>
			<desc>False</desc>
			<v:textBlock v:margins="rect(4,4,4,4)" v:tabSpace="42.5197"/>
			<v:textRect cx="10.6299" cy="604.984" width="50" height="20.0036"/>
			<path d="M0 595.28 L10.63 595.28 L10.63 610.43 L25.52 610.43" class="st8"/>
			<rect v:rectContext="textBkgnd" x="-0.534721" y="598.985" width="22.3292" height="12.0001" class="st9"/>
			<text x="-0.53" y="607.98" class="st10" v:langID="1042"><v:paragraph v:horizAlign="1"/><v:tabList/>False</text>		</g>
		<g id="shape31-95" v:mID="31" v:groupContext="shape" v:layerMember="1" transform="translate(340.533,-191.241)">
			<title>동적 연결선.56</title>
			<desc>False</desc>
			<v:textBlock v:margins="rect(4,4,4,4)" v:tabSpace="42.5197"/>
			<v:textRect cx="10.6299" cy="580.968" width="50" height="20.0036"/>
			<path d="M0 595.28 L10.63 595.28 L10.63 570.92 L25.52 570.92" class="st8"/>
			<rect v:rectContext="textBkgnd" x="-0.534721" y="574.968" width="22.3292" height="12.0001" class="st9"/>
			<text x="-0.53" y="583.97" class="st10" v:langID="1042"><v:paragraph v:horizAlign="1"/><v:tabList/>False</text>		</g>
		<g id="group32-100" transform="translate(366.057,-87.8394)" v:mID="32" v:groupContext="group" v:layerMember="0">
			<v:custProps>
				<v:cp v:nameU="Input" v:lbl="입력 수" v:type="1" v:format="2;3;4;5" v:sortKey="2" v:langID="1042" v:val="VT4(2)"/>
				<v:cp v:nameU="Type" v:lbl="게이트 종류" v:type="1" v:format="OR;AND;NOR;NAND;XOR;XNOR" v:sortKey="1" v:langID="1042"
						v:val="VT4(AND)"/>
				<v:cp v:nameU="Out" v:lbl="출력 수" v:type="1" v:format="1;2;3" v:sortKey="3" v:langID="1042" v:val="VT4(1)"/>
				<v:cp v:nameU="Type" v:lbl="" v:prompt="" v:type="0" v:format="" v:sortKey="" v:invis="false" v:ask="false"
						v:langID="1033" v:cal="0" v:val="VT0(0):26"/>
			</v:custProps>
			<v:userDefs>
				<v:ud v:nameU="SubType" v:val="VT0(1):26"/>
				<v:ud v:nameU="Margin" v:val="VT0(0.059055118110236):24"/>
				<v:ud v:nameU="LimitHeight" v:val="VT0(0):26"/>
				<v:ud v:nameU="visVersion" v:val="VT0(15):26"/>
				<v:ud v:nameU="visDescription" v:val="VT4(여러 가지 모양의 논리 게이트를 나타냅니다.)"/>
				<v:ud v:nameU="Margin" v:prompt="" v:val="VT0(0.13213042461384):1"/>
			</v:userDefs>
			<title>논리 게이트 2.57</title>
			<desc>G1</desc>
			<g id="shape33-101" v:mID="33" v:groupContext="shape" v:layerMember="0" transform="translate(0,-9.51339)">
				<title>시트.33</title>
				<path d="M0 576.25 L38.05 576.25" class="st7"/>
				<path d="M0 595.28 L38.05 595.28" class="st7"/>
				<path d="M76.11 585.76 L38.05 585.76" class="st7"/>
			</g>
			<g id="shape34-106" v:mID="34" v:groupContext="shape" v:layerMember="0" transform="translate(13.3187,0)">
				<title>시트.34</title>
				<v:userDefs>
					<v:ud v:nameU="X" v:val="VT0(0.029527559055118):24"/>
					<v:ud v:nameU="X" v:prompt="" v:val="VT0(0.06606521230692):1"/>
				</v:userDefs>
				<path d="M49.47 576.25 A51.2404 31.3931 0 0 1 14.84 595.28 L0 595.28 A73.4152 44.9787 -180 0 0 0 557.22 L14.84 557.22
							 A50.5541 30.9726 0 0 1 49.47 576.25 Z" class="st5"/>
			</g>
			<g id="shape35-108" v:mID="35" v:groupContext="shape" v:layerMember="0" transform="translate(0,6.34226)">
				<title>시트.35</title>
			</g>
			<g id="shape36-110" v:mID="36" v:groupContext="shape" v:layerMember="0" transform="translate(51.5295,-4.78126)">
				<title>시트.36</title>
			</g>
			<g id="shape37-112" v:mID="37" v:groupContext="shape" v:layerMember="0" transform="translate(13.3187,0)">
				<title>시트.37</title>
				<path d="M30.44 595.28 L0 595.28 L0 557.22 L30.44 557.22 A19.0268 19.0268 0 0 1 30.44 595.28 Z" class="st5"/>
			</g>
			<g id="shape32-114" v:mID="32" v:groupContext="groupContent" v:layerMember="0">
				<v:textBlock v:margins="rect(1,1,1,1)" v:tabSpace="42.5197"/>
				<v:textRect cx="38.0536" cy="601.077" width="14.84" height="11.6036"/>
				<text x="33.04" y="603.48" class="st6" v:langID="1042"><v:paragraph v:horizAlign="1"/><v:tabList/>G1</text>			</g>
		</g>
		<g id="shape38-116" v:mID="38" v:groupContext="shape" v:layerMember="1" transform="translate(340.533,-132.709)">
			<title>Dynamic connector.63</title>
			<desc>False</desc>
			<v:textBlock v:margins="rect(4,4,4,4)" v:tabSpace="42.5197"/>
			<v:textRect cx="10.6299" cy="605.572" width="50" height="20.0036"/>
			<path d="M0 595.28 L10.63 595.28 L10.63 611.6 L25.52 611.6" class="st8"/>
			<rect v:rectContext="textBkgnd" x="-0.534721" y="599.572" width="22.3292" height="12.0001" class="st9"/>
			<text x="-0.53" y="608.57" class="st10" v:langID="1042"><v:paragraph v:horizAlign="1"/><v:tabList/>False</text>		</g>
		<g id="shape39-121" v:mID="39" v:groupContext="shape" v:layerMember="1" transform="translate(340.533,-74.1766)">
			<title>Dynamic connector.64</title>
			<desc>False</desc>
			<v:textBlock v:margins="rect(4,4,4,4)" v:tabSpace="42.5197"/>
			<v:textRect cx="10.6299" cy="581.556" width="50" height="20.0036"/>
			<path d="M0 595.28 L10.63 595.28 L10.63 572.1 L25.52 572.1" class="st8"/>
			<rect v:rectContext="textBkgnd" x="-0.534721" y="575.556" width="22.3292" height="12.0001" class="st9"/>
			<text x="-0.53" y="584.56" class="st10" v:langID="1042"><v:paragraph v:horizAlign="1"/><v:tabList/>False</text>		</g>
		<g id="group40-126" transform="translate(453.524,-261.693)" v:mID="40" v:groupContext="group" v:layerMember="0">
			<v:custProps>
				<v:cp v:nameU="Input" v:lbl="입력 수" v:type="1" v:format="2;3;4;5" v:sortKey="2" v:langID="1042" v:val="VT4(2)"/>
				<v:cp v:nameU="Type" v:lbl="게이트 종류" v:type="1" v:format="OR;AND;NOR;NAND;XOR;XNOR" v:sortKey="1" v:langID="1042"
						v:val="VT4(AND)"/>
				<v:cp v:nameU="Out" v:lbl="출력 수" v:type="1" v:format="1;2;3" v:sortKey="3" v:langID="1042" v:val="VT4(1)"/>
				<v:cp v:nameU="Type" v:lbl="" v:prompt="" v:type="0" v:format="" v:sortKey="" v:invis="false" v:ask="false"
						v:langID="1033" v:cal="0" v:val="VT0(0):26"/>
			</v:custProps>
			<v:userDefs>
				<v:ud v:nameU="SubType" v:val="VT0(1):26"/>
				<v:ud v:nameU="Margin" v:val="VT0(0.059055118110236):24"/>
				<v:ud v:nameU="LimitHeight" v:val="VT0(0):26"/>
				<v:ud v:nameU="visVersion" v:val="VT0(15):26"/>
				<v:ud v:nameU="visDescription" v:val="VT4(여러 가지 모양의 논리 게이트를 나타냅니다.)"/>
				<v:ud v:nameU="Margin" v:prompt="" v:val="VT0(0.13213042461384):1"/>
			</v:userDefs>
			<title>논리 게이트 2.65</title>
			<desc>G1</desc>
			<g id="shape41-127" v:mID="41" v:groupContext="shape" v:layerMember="0" transform="translate(0,-9.51339)">
				<title>시트.41</title>
				<path d="M0 576.25 L38.05 576.25" class="st7"/>
				<path d="M0 595.28 L38.05 595.28" class="st7"/>
				<path d="M76.11 585.76 L38.05 585.76" class="st7"/>
			</g>
			<g id="shape42-132" v:mID="42" v:groupContext="shape" v:layerMember="0" transform="translate(13.3187,0)">
				<title>시트.42</title>
				<v:userDefs>
					<v:ud v:nameU="X" v:val="VT0(0.029527559055118):24"/>
					<v:ud v:nameU="X" v:prompt="" v:val="VT0(0.06606521230692):1"/>
				</v:userDefs>
				<path d="M49.47 576.25 A51.2404 31.3931 0 0 1 14.84 595.28 L0 595.28 A73.4152 44.9787 -180 0 0 0 557.22 L14.84 557.22
							 A50.5541 30.9726 0 0 1 49.47 576.25 Z" class="st5"/>
			</g>
			<g id="shape43-134" v:mID="43" v:groupContext="shape" v:layerMember="0" transform="translate(0,6.34226)">
				<title>시트.43</title>
			</g>
			<g id="shape44-136" v:mID="44" v:groupContext="shape" v:layerMember="0" transform="translate(51.5295,-4.78126)">
				<title>시트.44</title>
			</g>
			<g id="shape45-138" v:mID="45" v:groupContext="shape" v:layerMember="0" transform="translate(13.3187,0)">
				<title>시트.45</title>
				<path d="M30.44 595.28 L0 595.28 L0 557.22 L30.44 557.22 A19.0268 19.0268 0 0 1 30.44 595.28 Z" class="st5"/>
			</g>
			<g id="shape40-140" v:mID="40" v:groupContext="groupContent" v:layerMember="0">
				<v:textBlock v:margins="rect(1,1,1,1)" v:tabSpace="42.5197"/>
				<v:textRect cx="38.0536" cy="601.077" width="14.84" height="11.6036"/>
				<text x="33.04" y="603.48" class="st6" v:langID="1042"><v:paragraph v:horizAlign="1"/><v:tabList/>G1</text>			</g>
		</g>
		<g id="group46-142" transform="translate(642.094,-172.879)" v:mID="46" v:groupContext="group" v:layerMember="0">
			<v:custProps>
				<v:cp v:nameU="Input" v:lbl="입력 수" v:type="1" v:format="2;3;4;5" v:sortKey="2" v:langID="1042" v:val="VT4(2)"/>
				<v:cp v:nameU="Type" v:lbl="게이트 종류" v:type="1" v:format="OR;AND;NOR;NAND;XOR;XNOR" v:sortKey="1" v:langID="1042"
						v:val="VT4(AND)"/>
				<v:cp v:nameU="Out" v:lbl="출력 수" v:type="1" v:format="1;2;3" v:sortKey="3" v:langID="1042" v:val="VT4(1)"/>
				<v:cp v:nameU="Type" v:lbl="" v:prompt="" v:type="0" v:format="" v:sortKey="" v:invis="false" v:ask="false"
						v:langID="1033" v:cal="0" v:val="VT0(0):26"/>
			</v:custProps>
			<v:userDefs>
				<v:ud v:nameU="SubType" v:val="VT0(1):26"/>
				<v:ud v:nameU="Margin" v:val="VT0(0.059055118110236):24"/>
				<v:ud v:nameU="LimitHeight" v:val="VT0(0):26"/>
				<v:ud v:nameU="visVersion" v:val="VT0(15):26"/>
				<v:ud v:nameU="visDescription" v:val="VT4(여러 가지 모양의 논리 게이트를 나타냅니다.)"/>
				<v:ud v:nameU="Margin" v:prompt="" v:val="VT0(0.13213042461384):1"/>
			</v:userDefs>
			<title>논리 게이트 2.71</title>
			<desc>G1</desc>
			<g id="shape47-143" v:mID="47" v:groupContext="shape" v:layerMember="0" transform="translate(0,-9.51339)">
				<title>시트.47</title>
				<path d="M0 576.25 L38.05 576.25" class="st7"/>
				<path d="M0 595.28 L38.05 595.28" class="st7"/>
				<path d="M76.11 585.76 L38.05 585.76" class="st7"/>
			</g>
			<g id="shape48-148" v:mID="48" v:groupContext="shape" v:layerMember="0" transform="translate(13.3187,0)">
				<title>시트.48</title>
				<v:userDefs>
					<v:ud v:nameU="X" v:val="VT0(0.029527559055118):24"/>
					<v:ud v:nameU="X" v:prompt="" v:val="VT0(0.06606521230692):1"/>
				</v:userDefs>
				<path d="M49.47 576.25 A51.2404 31.3931 0 0 1 14.84 595.28 L0 595.28 A73.4152 44.9787 -180 0 0 0 557.22 L14.84 557.22
							 A50.5541 30.9726 0 0 1 49.47 576.25 Z" class="st5"/>
			</g>
			<g id="shape49-150" v:mID="49" v:groupContext="shape" v:layerMember="0" transform="translate(0,6.34226)">
				<title>시트.49</title>
			</g>
			<g id="shape50-152" v:mID="50" v:groupContext="shape" v:layerMember="0" transform="translate(51.5295,-4.78126)">
				<title>시트.50</title>
			</g>
			<g id="shape51-154" v:mID="51" v:groupContext="shape" v:layerMember="0" transform="translate(13.3187,0)">
				<title>시트.51</title>
				<path d="M30.44 595.28 L0 595.28 L0 557.22 L30.44 557.22 A19.0268 19.0268 0 0 1 30.44 595.28 Z" class="st5"/>
			</g>
			<g id="shape46-156" v:mID="46" v:groupContext="groupContent" v:layerMember="0">
				<v:textBlock v:margins="rect(1,1,1,1)" v:tabSpace="42.5197"/>
				<v:textRect cx="38.0536" cy="601.077" width="14.84" height="11.6036"/>
				<text x="33.04" y="603.48" class="st6" v:langID="1042"><v:paragraph v:horizAlign="1"/><v:tabList/>G1</text>			</g>
		</g>
		<g id="shape52-158" v:mID="52" v:groupContext="shape" v:layerMember="1" transform="translate(440.757,-340.107)">
			<title>동적 연결선.77</title>
			<desc>False</desc>
			<v:textBlock v:margins="rect(4,4,4,4)" v:tabSpace="42.5197"/>
			<v:textRect cx="6.7214" cy="620.577" width="50" height="20.0036"/>
			<path d="M1.41 595.28 L6.72 595.28 L6.72 645.15 L12.77 645.15" class="st8"/>
			<rect v:rectContext="textBkgnd" x="-4.44325" y="614.578" width="22.3292" height="12.0001" class="st9"/>
			<text x="-4.44" y="623.58" class="st10" v:langID="1042"><v:paragraph v:horizAlign="1"/><v:tabList/>False</text>		</g>
		<g id="shape53-163" v:mID="53" v:groupContext="shape" v:layerMember="1" transform="translate(440.757,-225.106)">
			<title>동적 연결선.78</title>
			<desc>False</desc>
			<v:textBlock v:margins="rect(4,4,4,4)" v:tabSpace="42.5197"/>
			<v:textRect cx="6.7214" cy="571.86" width="50" height="20.0036"/>
			<path d="M1.41 595.28 L6.72 595.28 L6.72 549.17 L12.77 549.17" class="st8"/>
			<rect v:rectContext="textBkgnd" x="-4.44325" y="565.86" width="22.3292" height="12.0001" class="st9"/>
			<text x="-4.44" y="574.86" class="st10" v:langID="1042"><v:paragraph v:horizAlign="1"/><v:tabList/>False</text>		</g>
		<g id="shape54-168" v:mID="54" v:groupContext="shape" v:layerMember="1" transform="translate(442.164,-106.866)">
			<title>동적 연결선.79</title>
			<desc>False</desc>
			<v:textBlock v:margins="rect(4,4,4,4)" v:tabSpace="42.5197"/>
			<v:textRect cx="63.5871" cy="521.135" width="50" height="20.0036"/>
			<path d="M0 595.28 L63.59 595.28 L63.59 519.75 L199.93 519.75" class="st8"/>
			<rect v:rectContext="textBkgnd" x="52.4225" y="515.135" width="22.3292" height="12.0001" class="st9"/>
			<text x="52.42" y="524.13" class="st10" v:langID="1042"><v:paragraph v:horizAlign="1"/><v:tabList/>False</text>		</g>
		<g id="shape55-173" v:mID="55" v:groupContext="shape" v:layerMember="1" transform="translate(527.02,-280.72)">
			<title>동적 연결선.80</title>
			<desc>False</desc>
			<v:textBlock v:margins="rect(4,4,4,4)" v:tabSpace="42.5197"/>
			<v:textRect cx="7.92586" cy="560.239" width="50" height="20.0036"/>
			<path d="M2.61 595.28 L7.93 595.28 L7.93 523.52 L11.56 523.52" class="st8"/>
			<rect v:rectContext="textBkgnd" x="-3.23879" y="554.24" width="22.3292" height="12.0001" class="st9"/>
			<text x="-3.24" y="563.24" class="st10" v:langID="1042"><v:paragraph v:horizAlign="1"/><v:tabList/>False</text>		</g>
		<g id="shape56-178" v:mID="56" v:groupContext="shape" transform="translate(43.8992,-411.307)">
			<title>시트.56</title>
			<desc>Rotor is Simply Suppoorted</desc>
			<v:textBlock v:margins="rect(4,4,4,4)" v:tabSpace="42.5197"/>
			<v:textRect cx="121.005" cy="583.937" width="242.01" height="22.6772"/>
			<rect x="0" y="572.598" width="242.009" height="22.6772" class="st3"/>
			<text x="86.75" y="587.54" class="st4" v:langID="1033"><v:paragraph v:horizAlign="2"/><v:tabList/>Rotor is Simply Suppoorted</text>		</g>
		<g id="group57-181" transform="translate(538.583,-342.957)" v:mID="57" v:groupContext="group" v:layerMember="0">
			<v:custProps>
				<v:cp v:nameU="Input" v:lbl="입력 수" v:type="1" v:format="2;3;4;5" v:sortKey="2" v:langID="1042" v:val="VT4(2)"/>
				<v:cp v:nameU="Type" v:lbl="게이트 종류" v:type="1" v:format="OR;AND;NOR;NAND;XOR;XNOR" v:sortKey="1" v:langID="1042"
						v:val="VT4(AND)"/>
				<v:cp v:nameU="Out" v:lbl="출력 수" v:type="1" v:format="1;2;3" v:sortKey="3" v:langID="1042" v:val="VT4(1)"/>
				<v:cp v:nameU="Type" v:lbl="" v:prompt="" v:type="0" v:format="" v:sortKey="" v:invis="false" v:ask="false"
						v:langID="1033" v:cal="0" v:val="VT0(0):26"/>
			</v:custProps>
			<v:userDefs>
				<v:ud v:nameU="SubType" v:val="VT0(1):26"/>
				<v:ud v:nameU="Margin" v:val="VT0(0.059055118110236):24"/>
				<v:ud v:nameU="LimitHeight" v:val="VT0(0):26"/>
				<v:ud v:nameU="visVersion" v:val="VT0(15):26"/>
				<v:ud v:nameU="visDescription" v:val="VT4(여러 가지 모양의 논리 게이트를 나타냅니다.)"/>
				<v:ud v:nameU="Margin" v:prompt="" v:val="VT0(0.13213042461384):1"/>
			</v:userDefs>
			<title>논리 게이트 2.57</title>
			<desc>G1</desc>
			<g id="shape58-182" v:mID="58" v:groupContext="shape" v:layerMember="0" transform="translate(0,-9.51339)">
				<title>시트.58</title>
				<path d="M0 576.25 L38.05 576.25" class="st7"/>
				<path d="M0 595.28 L38.05 595.28" class="st7"/>
				<path d="M76.11 585.76 L38.05 585.76" class="st7"/>
			</g>
			<g id="shape59-187" v:mID="59" v:groupContext="shape" v:layerMember="0" transform="translate(13.3187,0)">
				<title>시트.59</title>
				<v:userDefs>
					<v:ud v:nameU="X" v:val="VT0(0.029527559055118):24"/>
					<v:ud v:nameU="X" v:prompt="" v:val="VT0(0.06606521230692):1"/>
				</v:userDefs>
				<path d="M49.47 576.25 A51.2404 31.3931 0 0 1 14.84 595.28 L0 595.28 A73.4152 44.9787 -180 0 0 0 557.22 L14.84 557.22
							 A50.5541 30.9726 0 0 1 49.47 576.25 Z" class="st5"/>
			</g>
			<g id="shape60-189" v:mID="60" v:groupContext="shape" v:layerMember="0" transform="translate(0,6.34226)">
				<title>시트.60</title>
			</g>
			<g id="shape61-191" v:mID="61" v:groupContext="shape" v:layerMember="0" transform="translate(51.5295,-4.78126)">
				<title>시트.61</title>
			</g>
			<g id="shape62-193" v:mID="62" v:groupContext="shape" v:layerMember="0" transform="translate(13.3187,0)">
				<title>시트.62</title>
				<path d="M30.44 595.28 L0 595.28 L0 557.22 L30.44 557.22 A19.0268 19.0268 0 0 1 30.44 595.28 Z" class="st5"/>
			</g>
			<g id="shape57-195" v:mID="57" v:groupContext="groupContent" v:layerMember="0">
				<v:textBlock v:margins="rect(1,1,1,1)" v:tabSpace="42.5197"/>
				<v:textRect cx="38.0536" cy="601.077" width="14.84" height="11.6036"/>
				<text x="33.04" y="603.48" class="st6" v:langID="1042"><v:paragraph v:horizAlign="1"/><v:tabList/>G1</text>			</g>
		</g>
		<g id="shape63-197" v:mID="63" v:groupContext="shape" v:layerMember="0" transform="translate(307.168,-418.677)">
			<title>I/O 포트.63</title>
			<desc>Ans6</desc>
			<v:userDefs>
				<v:ud v:nameU="Form" v:val="VT0(0):26"/>
				<v:ud v:nameU="visVersion" v:val="VT0(15):26"/>
				<v:ud v:nameU="visDescription" v:val="VT4(단방향 또는 양방향 I/O 포트입니다. )"/>
			</v:userDefs>
			<v:textBlock v:margins="rect(1,1,1,1)" v:tabSpace="42.5197"/>
			<v:textRect cx="17.3723" cy="580.788" width="21.88" height="11.6036"/>
			<path d="M0 590.93 L0 586.59 L26.06 586.59 L34.74 590.93 L26.06 595.28 L0 595.28 L0 590.93 Z" class="st5"/>
			<text x="8.49" y="583.19" class="st6" v:langID="1042"><v:paragraph v:horizAlign="1"/><v:tabList/>Ans6</text>		</g>
		<g id="shape64-200" v:mID="64" v:groupContext="shape" v:layerMember="1" transform="translate(341.913,-423.02)">
			<title>동적 연결선.64</title>
			<desc>False</desc>
			<v:textBlock v:margins="rect(4,4,4,4)" v:tabSpace="42.5197"/>
			<v:textRect cx="124.096" cy="595.276" width="50" height="20.0036"/>
			<path d="M0 595.28 L135.49 595.28 L135.49 646.8 L196.67 646.8" class="st8"/>
			<rect v:rectContext="textBkgnd" x="112.932" y="589.276" width="22.3292" height="12.0001" class="st9"/>
			<text x="112.93" y="598.28" class="st10" v:langID="1042"><v:paragraph v:horizAlign="1"/><v:tabList/>False</text>		</g>
		<g id="shape65-205" v:mID="65" v:groupContext="shape" v:layerMember="1" transform="translate(614.69,-361.984)">
			<title>동적 연결선.65</title>
			<desc>False</desc>
			<v:textBlock v:margins="rect(4,4,4,4)" v:tabSpace="42.5197"/>
			<v:textRect cx="10.6299" cy="678.631" width="50" height="20.0036"/>
			<path d="M0 595.28 L10.63 595.28 L10.63 755.84 L27.4 755.84" class="st8"/>
			<rect v:rectContext="textBkgnd" x="-0.534721" y="672.631" width="22.3292" height="12.0001" class="st9"/>
			<text x="-0.53" y="681.63" class="st10" v:langID="1042"><v:paragraph v:horizAlign="1"/><v:tabList/>False</text>		</g>
	</g>
</svg>
