<?xml version="1.0" encoding="UTF-8" standalone="no"?>
<!DOCTYPE svg PUBLIC "-//W3C//DTD SVG 1.1//EN" "http://www.w3.org/Graphics/SVG/1.1/DTD/svg11.dtd">
<!-- Microsoft Visio, SVG Export에서 생성되었습니다. Gear__fault_05.svg Gear_ft05_ -->
<svg xmlns="http://www.w3.org/2000/svg" xmlns:xlink="http://www.w3.org/1999/xlink" xmlns:ev="http://www.w3.org/2001/xml-events"
		xmlns:v="http://schemas.microsoft.com/visio/2003/SVGExtensions/" width="11.1772in" height="5.5301in"
		viewBox="0 0 804.757 398.167" xml:space="preserve" color-interpolation-filters="sRGB" class="st13">
	<v:documentProperties v:langID="1042" v:metric="true" v:viewMarkup="false">
		<v:userDefs>
			<v:ud v:nameU="msvNoAutoConnect" v:val="VT0(1):26"/>
		</v:userDefs>
	</v:documentProperties>

	<style type="text/css">
	<![CDATA[
		.st1 {stroke:#000000;stroke-linecap:round;stroke-linejoin:round;stroke-width:0.75}
		.st2 {fill:#ffffff;stroke:#000000;stroke-linecap:round;stroke-linejoin:round;stroke-width:0.75}
		.st3 {fill:#000000;font-family:맑은 고딕;font-size:0.666664em}
		.st4 {fill:none;stroke:none;stroke-linecap:round;stroke-linejoin:round;stroke-width:0.75}
		.st5 {fill:#000000;font-family:맑은 고딕;font-size:1.00001em}
		.st6 {stroke:#ff0000;stroke-linecap:round;stroke-linejoin:round;stroke-width:1}
		.st7 {fill:#ffffff;stroke:none;stroke-linecap:butt;stroke-width:7.2}
		.st8 {fill:#ff0000;font-family:맑은 고딕;font-size:0.833336em}
		.st9 {stroke:#0070c0;stroke-linecap:round;stroke-linejoin:round;stroke-width:1}
		.st10 {fill:#0070c0;font-family:맑은 고딕;font-size:0.833336em}
		.st11 {fill:#ffffff;stroke:none;stroke-linecap:round;stroke-linejoin:round;stroke-width:0.75}
		.st12 {fill:#000000;font-family:맑은 고딕;font-size:1.16666em;font-weight:bold}
		.st13 {fill:none;fill-rule:evenodd;font-size:12px;overflow:visible;stroke-linecap:square;stroke-miterlimit:3}
	]]>
	</style>

	<g v:mID="30" v:index="5" v:groupContext="foregroundPage">
		<title>Gear_ft05_Unbalance Output Shaft</title>
		<v:pageProperties v:drawingScale="0.0393701" v:pageScale="0.0393701" v:drawingUnits="24" v:shadowOffsetX="8.50394"
				v:shadowOffsetY="-8.50394"/>
		<v:layer v:name="전기" v:index="0"/>
		<v:layer v:name="연결선" v:index="1"/>
		<g id="group1-1" transform="translate(462.069,-138.722)" v:mID="1" v:groupContext="group" v:layerMember="0">
			<v:custProps>
				<v:cp v:nameU="Input" v:lbl="입력 수" v:type="1" v:format="2;3;4;5" v:sortKey="2" v:langID="1042" v:val="VT4(2)"/>
				<v:cp v:nameU="Type" v:lbl="게이트 종류" v:type="1" v:format="OR;AND;NOR;NAND;XOR;XNOR" v:sortKey="1" v:langID="1042"
						v:val="VT4(AND)"/>
				<v:cp v:nameU="Out" v:lbl="출력 수" v:type="1" v:format="1;2;3" v:sortKey="3" v:langID="1042" v:val="VT4(1)"/>
				<v:cp v:nameU="Type" v:lbl="" v:prompt="" v:type="0" v:format="" v:sortKey="" v:invis="false" v:ask="false"
						v:langID="1033" v:cal="0" v:val="VT0(0):26"/>
			</v:custProps>
			<v:userDefs>
				<v:ud v:nameU="SubType" v:val="VT0(1):26"/>
				<v:ud v:nameU="Margin" v:val="VT0(0.059055118110236):24"/>
				<v:ud v:nameU="LimitHeight" v:val="VT0(0):26"/>
				<v:ud v:nameU="visVersion" v:val="VT0(15):26"/>
				<v:ud v:nameU="visDescription" v:val="VT4(여러 가지 모양의 논리 게이트를 나타냅니다.)"/>
				<v:ud v:nameU="Margin" v:prompt="" v:val="VT0(0.10887750927028):1"/>
			</v:userDefs>
			<title>논리 게이트 2.29</title>
			<desc>G2</desc>
			<g id="shape2-2" v:mID="2" v:groupContext="shape" v:layerMember="0" transform="translate(0,-7.83918)">
				<title>시트.2</title>
				<path d="M0 382.49 L31.36 382.49" class="st1"/>
				<path d="M0 398.17 L31.36 398.17" class="st1"/>
				<path d="M62.71 390.33 L31.36 390.33" class="st1"/>
			</g>
			<g id="shape3-7" v:mID="3" v:groupContext="shape" v:layerMember="0" transform="translate(10.9749,0)">
				<title>시트.3</title>
				<v:userDefs>
					<v:ud v:nameU="X" v:val="VT0(0.029527559055118):24"/>
					<v:ud v:nameU="X" v:prompt="" v:val="VT0(0.05443875463514):1"/>
				</v:userDefs>
				<path d="M40.76 382.49 A42.2229 25.8684 0 0 1 12.23 398.17 L0 398.17 A60.4952 37.0632 -180 0 0 0 366.81 L12.23 366.81
							 A41.6574 25.5219 0 0 1 40.76 382.49 Z" class="st2"/>
			</g>
			<g id="shape4-9" v:mID="4" v:groupContext="shape" v:layerMember="0" transform="translate(0,5.22612)">
				<title>시트.4</title>
			</g>
			<g id="shape5-11" v:mID="5" v:groupContext="shape" v:layerMember="0" transform="translate(42.4611,-3.93983)">
				<title>시트.5</title>
			</g>
			<g id="shape6-13" v:mID="6" v:groupContext="shape" v:layerMember="0" transform="translate(10.9749,0)">
				<title>시트.6</title>
				<path d="M25.09 398.17 L0 398.17 L0 366.81 L25.09 366.81 A15.6784 15.6784 0 0 1 25.09 398.17 Z" class="st2"/>
			</g>
			<g id="shape1-15" v:mID="1" v:groupContext="groupContent" v:layerMember="0">
				<v:textBlock v:margins="rect(1,1,1,1)" v:tabSpace="42.5197"/>
				<v:textRect cx="31.3567" cy="403.969" width="14.14" height="11.6036"/>
				<text x="26.35" y="406.37" class="st3" v:langID="1042"><v:paragraph v:horizAlign="1"/><v:tabList/>G2</text>			</g>
		</g>
		<g id="shape7-17" v:mID="7" v:groupContext="shape" transform="translate(18.375,-259.32)">
			<title>시트.7</title>
			<desc>Horiz 1xRPM Unbalance Thresh on Output Shaft</desc>
			<v:textBlock v:margins="rect(4,4,4,4)" v:tabSpace="42.5197"/>
			<v:textRect cx="169.552" cy="386.829" width="339.11" height="22.6772"/>
			<rect x="0" y="375.49" width="339.105" height="22.6772" class="st4"/>
			<text x="70.22" y="390.43" class="st5" v:langID="1033"><v:paragraph v:horizAlign="2"/><v:tabList/>Horiz 1xRPM Unbalance Thresh on Output Shaft</text>		</g>
		<g id="shape14-20" v:mID="14" v:groupContext="shape" v:layerMember="1" transform="translate(400.597,-175.988)">
			<title>동적 연결선.73</title>
			<desc>False</desc>
			<v:textBlock v:margins="rect(4,4,4,4)" v:tabSpace="42.5197"/>
			<v:textRect cx="24.5994" cy="411.39" width="50" height="20.0036"/>
			<path d="M0 398.59 L0 401.92 L24.6 401.92 L24.6 411.92 L61.47 411.92" class="st6"/>
			<rect v:rectContext="textBkgnd" x="13.4348" y="405.391" width="22.3292" height="12.0001" class="st7"/>
			<text x="13.43" y="414.39" class="st8" v:langID="1042"><v:paragraph v:horizAlign="1"/><v:tabList/>False</text>		</g>
		<g id="shape15-25" v:mID="15" v:groupContext="shape" v:layerMember="1" transform="translate(400.597,-127.249)">
			<title>동적 연결선.74</title>
			<desc>True</desc>
			<v:textBlock v:margins="rect(4,4,4,4)" v:tabSpace="42.5197"/>
			<v:textRect cx="27.0291" cy="384.804" width="50" height="20.0036"/>
			<path d="M0 398.17 L27.03 398.17 L27.03 378.85 L61.47 378.85" class="st9"/>
			<rect v:rectContext="textBkgnd" x="17.0266" y="378.805" width="20.005" height="12.0001" class="st7"/>
			<text x="17.03" y="387.8" class="st10" v:langID="1042"><v:paragraph v:horizAlign="1"/><v:tabList/>True</text>		</g>
		<g id="group16-30" transform="translate(575.082,-198.425)" v:mID="16" v:groupContext="group" v:layerMember="0">
			<v:custProps>
				<v:cp v:nameU="Input" v:lbl="입력 수" v:type="1" v:format="2;3;4;5" v:sortKey="2" v:langID="1042" v:val="VT4(2)"/>
				<v:cp v:nameU="Type" v:lbl="게이트 종류" v:type="1" v:format="OR;AND;NOR;NAND;XOR;XNOR" v:sortKey="1" v:langID="1042"
						v:val="VT4(AND)"/>
				<v:cp v:nameU="Out" v:lbl="출력 수" v:type="1" v:format="1;2;3" v:sortKey="3" v:langID="1042" v:val="VT4(1)"/>
			</v:custProps>
			<v:userDefs>
				<v:ud v:nameU="SubType" v:val="VT0(1):26"/>
				<v:ud v:nameU="Margin" v:val="VT0(0.059055118110236):24"/>
				<v:ud v:nameU="LimitHeight" v:val="VT0(0):26"/>
				<v:ud v:nameU="visVersion" v:val="VT0(15):26"/>
				<v:ud v:nameU="visDescription" v:val="VT4(여러 가지 모양의 논리 게이트를 나타냅니다.)"/>
				<v:ud v:nameU="Margin" v:prompt="" v:val="VT0(0.10887750927028):1"/>
			</v:userDefs>
			<title>논리 게이트 2.113</title>
			<desc>G4</desc>
			<g id="shape17-31" v:mID="17" v:groupContext="shape" v:layerMember="0" transform="translate(0,-7.83918)">
				<title>시트.17</title>
				<path d="M0 382.49 L31.36 382.49" class="st1"/>
				<path d="M0 398.17 L31.36 398.17" class="st1"/>
				<path d="M62.71 390.33 L31.36 390.33" class="st1"/>
			</g>
			<g id="shape18-36" v:mID="18" v:groupContext="shape" v:layerMember="0" transform="translate(10.9749,0)">
				<title>시트.18</title>
				<v:userDefs>
					<v:ud v:nameU="X" v:val="VT0(0.029527559055118):24"/>
					<v:ud v:nameU="X" v:prompt="" v:val="VT0(0.05443875463514):1"/>
				</v:userDefs>
				<path d="M40.76 382.49 A42.2229 25.8684 0 0 1 12.23 398.17 L0 398.17 A60.4952 37.0632 -180 0 0 0 366.81 L12.23 366.81
							 A41.6574 25.5219 0 0 1 40.76 382.49 Z" class="st2"/>
			</g>
			<g id="shape19-38" v:mID="19" v:groupContext="shape" v:layerMember="0" transform="translate(0,5.22612)">
				<title>시트.19</title>
			</g>
			<g id="shape20-40" v:mID="20" v:groupContext="shape" v:layerMember="0" transform="translate(42.4611,-3.93983)">
				<title>시트.20</title>
			</g>
			<g id="shape21-42" v:mID="21" v:groupContext="shape" v:layerMember="0" transform="translate(10.9749,0)">
				<title>시트.21</title>
				<path d="M25.09 398.17 L0 398.17 L0 366.81 L25.09 366.81 A15.6784 15.6784 0 0 1 25.09 398.17 Z" class="st2"/>
			</g>
			<g id="shape16-44" v:mID="16" v:groupContext="groupContent" v:layerMember="0">
				<v:textBlock v:margins="rect(1,1,1,1)" v:tabSpace="42.5197"/>
				<v:textRect cx="31.3567" cy="403.969" width="14.14" height="11.6036"/>
				<text x="26.35" y="406.37" class="st3" v:langID="1042"><v:paragraph v:horizAlign="1"/><v:tabList/>G4</text>			</g>
		</g>
		<g id="group47-46" transform="translate(461.674,-42.5197)" v:mID="47" v:groupContext="group" v:layerMember="0">
			<v:custProps>
				<v:cp v:nameU="Input" v:lbl="입력 수" v:type="1" v:format="2;3;4;5" v:sortKey="2" v:langID="1042" v:val="VT4(2)"/>
				<v:cp v:nameU="Type" v:lbl="게이트 종류" v:type="1" v:format="OR;AND;NOR;NAND;XOR;XNOR" v:sortKey="1" v:langID="1042"
						v:val="VT4(AND)"/>
				<v:cp v:nameU="Out" v:lbl="출력 수" v:type="1" v:format="1;2;3" v:sortKey="3" v:langID="1042" v:val="VT4(1)"/>
			</v:custProps>
			<v:userDefs>
				<v:ud v:nameU="SubType" v:val="VT0(1):26"/>
				<v:ud v:nameU="Margin" v:val="VT0(0.059055118110236):24"/>
				<v:ud v:nameU="LimitHeight" v:val="VT0(0):26"/>
				<v:ud v:nameU="visVersion" v:val="VT0(15):26"/>
				<v:ud v:nameU="visDescription" v:val="VT4(여러 가지 모양의 논리 게이트를 나타냅니다.)"/>
				<v:ud v:nameU="Margin" v:prompt="" v:val="VT0(0.10887750927028):1"/>
			</v:userDefs>
			<title>논리 게이트 2.47</title>
			<desc>G3</desc>
			<g id="shape48-47" v:mID="48" v:groupContext="shape" v:layerMember="0" transform="translate(0,-7.83918)">
				<title>시트.48</title>
				<path d="M0 382.49 L31.36 382.49" class="st1"/>
				<path d="M0 398.17 L31.36 398.17" class="st1"/>
				<path d="M62.71 390.33 L31.36 390.33" class="st1"/>
			</g>
			<g id="shape49-52" v:mID="49" v:groupContext="shape" v:layerMember="0" transform="translate(10.9749,0)">
				<title>시트.49</title>
				<v:userDefs>
					<v:ud v:nameU="X" v:val="VT0(0.029527559055118):24"/>
					<v:ud v:nameU="X" v:prompt="" v:val="VT0(0.05443875463514):1"/>
				</v:userDefs>
				<path d="M40.76 382.49 A42.2229 25.8684 0 0 1 12.23 398.17 L0 398.17 A60.4952 37.0632 -180 0 0 0 366.81 L12.23 366.81
							 A41.6574 25.5219 0 0 1 40.76 382.49 Z" class="st2"/>
			</g>
			<g id="shape50-54" v:mID="50" v:groupContext="shape" v:layerMember="0" transform="translate(0,5.22612)">
				<title>시트.50</title>
			</g>
			<g id="shape51-56" v:mID="51" v:groupContext="shape" v:layerMember="0" transform="translate(42.4611,-3.93983)">
				<title>시트.51</title>
			</g>
			<g id="shape52-58" v:mID="52" v:groupContext="shape" v:layerMember="0" transform="translate(10.9749,0)">
				<title>시트.52</title>
				<path d="M25.09 398.17 L0 398.17 L0 366.81 L25.09 366.81 A15.6784 15.6784 0 0 1 25.09 398.17 Z" class="st2"/>
			</g>
			<g id="shape47-60" v:mID="47" v:groupContext="groupContent" v:layerMember="0">
				<v:textBlock v:margins="rect(1,1,1,1)" v:tabSpace="42.5197"/>
				<v:textRect cx="31.3567" cy="403.969" width="14.14" height="11.6036"/>
				<text x="26.35" y="406.37" class="st3" v:langID="1042"><v:paragraph v:horizAlign="1"/><v:tabList/>G3</text>			</g>
		</g>
		<g id="group53-62" transform="translate(665.77,-108.482)" v:mID="53" v:groupContext="group" v:layerMember="0">
			<v:custProps>
				<v:cp v:nameU="Input" v:lbl="입력 수" v:type="1" v:format="2;3;4;5" v:sortKey="2" v:langID="1042" v:val="VT4(2)"/>
				<v:cp v:nameU="Type" v:lbl="게이트 종류" v:type="1" v:format="OR;AND;NOR;NAND;XOR;XNOR" v:sortKey="1" v:langID="1042"
						v:val="VT4(AND)"/>
				<v:cp v:nameU="Out" v:lbl="출력 수" v:type="1" v:format="1;2;3" v:sortKey="3" v:langID="1042" v:val="VT4(1)"/>
			</v:custProps>
			<v:userDefs>
				<v:ud v:nameU="SubType" v:val="VT0(1):26"/>
				<v:ud v:nameU="Margin" v:val="VT0(0.059055118110236):24"/>
				<v:ud v:nameU="LimitHeight" v:val="VT0(0):26"/>
				<v:ud v:nameU="visVersion" v:val="VT0(15):26"/>
				<v:ud v:nameU="visDescription" v:val="VT4(여러 가지 모양의 논리 게이트를 나타냅니다.)"/>
				<v:ud v:nameU="Margin" v:prompt="" v:val="VT0(0.10887750927028):1"/>
			</v:userDefs>
			<title>논리 게이트 2.53</title>
			<desc>G5</desc>
			<g id="shape54-63" v:mID="54" v:groupContext="shape" v:layerMember="0" transform="translate(0,-7.83918)">
				<title>시트.54</title>
				<path d="M0 382.49 L31.36 382.49" class="st1"/>
				<path d="M0 398.17 L31.36 398.17" class="st1"/>
				<path d="M62.71 390.33 L31.36 390.33" class="st1"/>
			</g>
			<g id="shape55-68" v:mID="55" v:groupContext="shape" v:layerMember="0" transform="translate(10.9749,0)">
				<title>시트.55</title>
				<v:userDefs>
					<v:ud v:nameU="X" v:val="VT0(0.029527559055118):24"/>
					<v:ud v:nameU="X" v:prompt="" v:val="VT0(0.05443875463514):1"/>
				</v:userDefs>
				<path d="M40.76 382.49 A42.2229 25.8684 0 0 1 12.23 398.17 L0 398.17 A60.4952 37.0632 -180 0 0 0 366.81 L12.23 366.81
							 A41.6574 25.5219 0 0 1 40.76 382.49 Z" class="st2"/>
			</g>
			<g id="shape56-70" v:mID="56" v:groupContext="shape" v:layerMember="0" transform="translate(0,5.22612)">
				<title>시트.56</title>
			</g>
			<g id="shape57-72" v:mID="57" v:groupContext="shape" v:layerMember="0" transform="translate(42.4611,-3.93983)">
				<title>시트.57</title>
			</g>
			<g id="shape58-74" v:mID="58" v:groupContext="shape" v:layerMember="0" transform="translate(10.9749,0)">
				<title>시트.58</title>
				<path d="M25.09 398.17 L0 398.17 L0 366.81 L25.09 366.81 A15.6784 15.6784 0 0 1 25.09 398.17 Z" class="st2"/>
			</g>
			<g id="shape53-76" v:mID="53" v:groupContext="groupContent" v:layerMember="0">
				<v:textBlock v:margins="rect(1,1,1,1)" v:tabSpace="42.5197"/>
				<v:textRect cx="31.3567" cy="403.969" width="14.14" height="11.6036"/>
				<text x="26.35" y="406.37" class="st3" v:langID="1042"><v:paragraph v:horizAlign="1"/><v:tabList/>G5</text>			</g>
		</g>
		<g id="shape59-78" v:mID="59" v:groupContext="shape" v:layerMember="0" transform="translate(759.206,-120.763)">
			<title>I/O 포트.59</title>
			<desc>Unbalance Output Shaft</desc>
			<v:userDefs>
				<v:ud v:nameU="Form" v:val="VT0(0):26"/>
				<v:ud v:nameU="visVersion" v:val="VT0(15):26"/>
				<v:ud v:nameU="visDescription" v:val="VT4(단방향 또는 양방향 I/O 포트입니다. )"/>
			</v:userDefs>
			<v:textBlock v:margins="rect(1,1,1,1)" v:tabSpace="42.5197"/>
			<v:textRect cx="11.8173" cy="411.214" width="92.65" height="11.6036"/>
			<path d="M0 394.77 L0 391.37 L20.38 391.37 L27.18 394.77 L20.38 398.17 L0 398.17 L0 394.77 Z" class="st2"/>
			<text x="-32.1" y="413.61" class="st3" v:langID="1033"><v:paragraph v:horizAlign="1"/><v:tabList/>Unbalance Output Shaft</text>		</g>
		<g id="shape61-81" v:mID="61" v:groupContext="shape" v:layerMember="1" transform="translate(524.783,-154.4)">
			<title>동적 연결선.61</title>
			<desc>True</desc>
			<v:textBlock v:margins="rect(4,4,4,4)" v:tabSpace="42.5197"/>
			<v:textRect cx="10.6299" cy="357.716" width="50" height="20.0036"/>
			<path d="M0 398.17 L10.63 398.17 L10.63 346.3 L50.3 346.3" class="st9"/>
			<rect v:rectContext="textBkgnd" x="0.627358" y="351.716" width="20.005" height="12.0001" class="st7"/>
			<text x="0.63" y="360.72" class="st10" v:langID="1042"><v:paragraph v:horizAlign="1"/><v:tabList/>True</text>		</g>
		<g id="shape62-86" v:mID="62" v:groupContext="shape" v:layerMember="1" transform="translate(637.795,-214.104)">
			<title>동적 연결선.62</title>
			<desc>True</desc>
			<v:textBlock v:margins="rect(4,4,4,4)" v:tabSpace="42.5197"/>
			<v:textRect cx="10.6299" cy="442.577" width="50" height="20.0036"/>
			<path d="M0 398.17 L10.63 398.17 L10.63 480.27 L27.97 480.27" class="st9"/>
			<rect v:rectContext="textBkgnd" x="0.627358" y="436.577" width="20.005" height="12.0001" class="st7"/>
			<text x="0.63" y="445.58" class="st10" v:langID="1042"><v:paragraph v:horizAlign="1"/><v:tabList/>True</text>		</g>
		<g id="shape63-91" v:mID="63" v:groupContext="shape" v:layerMember="1" transform="translate(400.597,-76.5882)">
			<title>동적 연결선.63</title>
			<desc>True</desc>
			<v:textBlock v:margins="rect(4,4,4,4)" v:tabSpace="42.5197"/>
			<v:textRect cx="27.074" cy="408.718" width="50" height="20.0036"/>
			<path d="M0 401.79 L0 408.72 L61.08 408.72" class="st9"/>
			<rect v:rectContext="textBkgnd" x="17.0714" y="402.719" width="20.005" height="12.0001" class="st7"/>
			<text x="17.07" y="411.72" class="st10" v:langID="1042"><v:paragraph v:horizAlign="1"/><v:tabList/>True</text>		</g>
		<g id="shape64-96" v:mID="64" v:groupContext="shape" v:layerMember="1" transform="translate(400.597,-30.6188)">
			<title>동적 연결선.64</title>
			<desc>True</desc>
			<v:textBlock v:margins="rect(4,4,4,4)" v:tabSpace="42.5197"/>
			<v:textRect cx="20.6683" cy="378.427" width="50" height="20.0036"/>
			<path d="M0 398.17 L10.63 398.17 L10.63 378.43 L61.08 378.43" class="st9"/>
			<rect v:rectContext="textBkgnd" x="10.6657" y="372.427" width="20.005" height="12.0001" class="st7"/>
			<text x="10.67" y="381.43" class="st10" v:langID="1042"><v:paragraph v:horizAlign="1"/><v:tabList/>True</text>		</g>
		<g id="shape66-101" v:mID="66" v:groupContext="shape" v:layerMember="1" transform="translate(524.388,-58.198)">
			<title>동적 연결선.66</title>
			<desc>True</desc>
			<v:textBlock v:margins="rect(4,4,4,4)" v:tabSpace="42.5197"/>
			<v:textRect cx="41.6297" cy="340.045" width="50" height="20.0036"/>
			<path d="M0 398.17 L10.63 398.17 L10.63 340.04 L141.38 340.04" class="st9"/>
			<rect v:rectContext="textBkgnd" x="31.6271" y="334.045" width="20.005" height="12.0001" class="st7"/>
			<text x="31.63" y="343.04" class="st10" v:langID="1042"><v:paragraph v:horizAlign="1"/><v:tabList/>True</text>		</g>
		<g id="shape67-106" v:mID="67" v:groupContext="shape" v:layerMember="1" transform="translate(728.483,-117.073)">
			<title>동적 연결선.67</title>
			<desc>True</desc>
			<v:textBlock v:margins="rect(4,4,4,4)" v:tabSpace="42.5197"/>
			<v:textRect cx="15.3616" cy="391.081" width="50" height="20.0036"/>
			<path d="M0 391.08 L30.72 391.08" class="st9"/>
			<rect v:rectContext="textBkgnd" x="5.35906" y="385.081" width="20.005" height="12.0001" class="st7"/>
			<text x="5.36" y="394.08" class="st10" v:langID="1042"><v:paragraph v:horizAlign="1"/><v:tabList/>True</text>		</g>
		<g id="shape68-111" v:mID="68" v:groupContext="shape" transform="translate(18.375,-211.131)">
			<title>시트.68</title>
			<desc>Vert 1xRPM Unbalance Thresh on Output Shaft</desc>
			<v:textBlock v:margins="rect(4,4,4,4)" v:tabSpace="42.5197"/>
			<v:textRect cx="169.552" cy="386.829" width="339.11" height="22.6772"/>
			<rect x="0" y="375.49" width="339.105" height="22.6772" class="st4"/>
			<text x="76.43" y="390.43" class="st5" v:langID="1033"><v:paragraph v:horizAlign="2"/><v:tabList/>Vert 1xRPM Unbalance Thresh on Output Shaft</text>		</g>
		<g id="shape69-114" v:mID="69" v:groupContext="shape" transform="translate(18.375,-162.942)">
			<title>시트.69</title>
			<desc>Axial 1xRPM &#60;= 50% Horiz 1xRPM on Output Shaft</desc>
			<v:textBlock v:margins="rect(4,4,4,4)" v:tabSpace="42.5197"/>
			<v:textRect cx="169.552" cy="386.829" width="339.11" height="22.6772"/>
			<rect x="0" y="375.49" width="339.105" height="22.6772" class="st4"/>
			<text x="51.92" y="390.43" class="st5" v:langID="1033"><v:paragraph v:horizAlign="2"/><v:tabList/>Axial 1xRPM &#60;= 50% Horiz 1xRPM on Output Shaft</text>		</g>
		<g id="shape70-117" v:mID="70" v:groupContext="shape" transform="translate(18.375,-114.753)">
			<title>시트.70</title>
			<desc>Axial 1xRPM &#60;= 50% Vert 1xRPM on Output Shaft</desc>
			<v:textBlock v:margins="rect(4,4,4,4)" v:tabSpace="42.5197"/>
			<v:textRect cx="169.552" cy="386.829" width="339.11" height="22.6772"/>
			<rect x="0" y="375.49" width="339.105" height="22.6772" class="st4"/>
			<text x="58.13" y="390.43" class="st5" v:langID="1033"><v:paragraph v:horizAlign="2"/><v:tabList/>Axial 1xRPM &#60;= 50% Vert 1xRPM on Output Shaft</text>		</g>
		<g id="shape71-120" v:mID="71" v:groupContext="shape" transform="translate(18.375,-66.564)">
			<title>시트.71</title>
			<desc>Horiz 1xRPM / Vert 1xRPM &#60;= 5.0 on Output Shaft</desc>
			<v:textBlock v:margins="rect(4,4,4,4)" v:tabSpace="42.5197"/>
			<v:textRect cx="169.552" cy="386.829" width="339.11" height="22.6772"/>
			<rect x="0" y="375.49" width="339.105" height="22.6772" class="st4"/>
			<text x="53.57" y="390.43" class="st5" v:langID="1033"><v:paragraph v:horizAlign="2"/><v:tabList/>Horiz 1xRPM / Vert 1xRPM &#60;= 5.0 on Output Shaft</text>		</g>
		<g id="shape72-123" v:mID="72" v:groupContext="shape" transform="translate(18,-18.375)">
			<title>시트.72</title>
			<desc>Vert 1xRPM / Horiz 1xRPM &#60;=3.5 on Output Shaft</desc>
			<v:textBlock v:margins="rect(4,4,4,4)" v:tabSpace="42.5197"/>
			<v:textRect cx="169.552" cy="386.829" width="339.11" height="22.6772"/>
			<rect x="0" y="375.49" width="339.105" height="22.6772" class="st4"/>
			<text x="57.79" y="390.43" class="st5" v:langID="1033"><v:paragraph v:horizAlign="2"/><v:tabList/>Vert 1xRPM / Horiz 1xRPM &#60;=3.5 on Output Shaft</text>		</g>
		<g id="shape87-126" v:mID="87" v:groupContext="shape" v:layerMember="0" transform="translate(373.422,-220.482)">
			<title>I/O 포트.87</title>
			<desc>Ans2</desc>
			<v:userDefs>
				<v:ud v:nameU="Form" v:val="VT0(0):26"/>
				<v:ud v:nameU="visVersion" v:val="VT0(15):26"/>
				<v:ud v:nameU="visDescription" v:val="VT4(단방향 또는 양방향 I/O 포트입니다. )"/>
			</v:userDefs>
			<v:textBlock v:margins="rect(1,1,1,1)" v:tabSpace="42.5197"/>
			<v:textRect cx="13.5879" cy="385.572" width="21.88" height="11.6036"/>
			<path d="M0 394.77 L0 391.37 L20.38 391.37 L27.18 394.77 L20.38 398.17 L0 398.17 L0 394.77 Z" class="st2"/>
			<text x="4.71" y="387.97" class="st3" v:langID="1042"><v:paragraph v:horizAlign="1"/><v:tabList/>Ans2</text>		</g>
		<g id="shape88-129" v:mID="88" v:groupContext="shape" v:layerMember="0" transform="translate(373.422,-172.167)">
			<title>I/O 포트.88</title>
			<desc>Ans3</desc>
			<v:userDefs>
				<v:ud v:nameU="Form" v:val="VT0(0):26"/>
				<v:ud v:nameU="visVersion" v:val="VT0(15):26"/>
				<v:ud v:nameU="visDescription" v:val="VT4(단방향 또는 양방향 I/O 포트입니다. )"/>
			</v:userDefs>
			<v:textBlock v:margins="rect(1,1,1,1)" v:tabSpace="42.5197"/>
			<v:textRect cx="13.5879" cy="385.572" width="21.88" height="11.6036"/>
			<path d="M0 394.77 L0 391.37 L20.38 391.37 L27.18 394.77 L20.38 398.17 L0 398.17 L0 394.77 Z" class="st2"/>
			<text x="4.71" y="387.97" class="st3" v:langID="1042"><v:paragraph v:horizAlign="1"/><v:tabList/>Ans3</text>		</g>
		<g id="shape89-132" v:mID="89" v:groupContext="shape" v:layerMember="0" transform="translate(373.422,-268.797)">
			<title>I/O 포트.89</title>
			<desc>Ans1</desc>
			<v:userDefs>
				<v:ud v:nameU="Form" v:val="VT0(0):26"/>
				<v:ud v:nameU="visVersion" v:val="VT0(15):26"/>
				<v:ud v:nameU="visDescription" v:val="VT4(단방향 또는 양방향 I/O 포트입니다. )"/>
			</v:userDefs>
			<v:textBlock v:margins="rect(1,1,1,1)" v:tabSpace="42.5197"/>
			<v:textRect cx="13.5879" cy="385.572" width="22.58" height="11.6036"/>
			<path d="M0 394.77 L0 391.37 L20.38 391.37 L27.18 394.77 L20.38 398.17 L0 398.17 L0 394.77 Z" class="st2"/>
			<text x="4.71" y="387.97" class="st3" v:langID="1042"><v:paragraph v:horizAlign="1"/><v:tabList/>Ans1</text>		</g>
		<g id="shape90-135" v:mID="90" v:groupContext="shape" v:layerMember="0" transform="translate(373.422,-123.852)">
			<title>I/O 포트.90</title>
			<desc>Ans4</desc>
			<v:userDefs>
				<v:ud v:nameU="Form" v:val="VT0(0):26"/>
				<v:ud v:nameU="visVersion" v:val="VT0(15):26"/>
				<v:ud v:nameU="visDescription" v:val="VT4(단방향 또는 양방향 I/O 포트입니다. )"/>
			</v:userDefs>
			<v:textBlock v:margins="rect(1,1,1,1)" v:tabSpace="42.5197"/>
			<v:textRect cx="13.5879" cy="385.572" width="21.88" height="11.6036"/>
			<path d="M0 394.77 L0 391.37 L20.38 391.37 L27.18 394.77 L20.38 398.17 L0 398.17 L0 394.77 Z" class="st2"/>
			<text x="4.71" y="387.97" class="st3" v:langID="1042"><v:paragraph v:horizAlign="1"/><v:tabList/>Ans4</text>		</g>
		<g id="shape91-138" v:mID="91" v:groupContext="shape" v:layerMember="0" transform="translate(373.422,-75.5368)">
			<title>I/O 포트.91</title>
			<desc>Ans5</desc>
			<v:userDefs>
				<v:ud v:nameU="Form" v:val="VT0(0):26"/>
				<v:ud v:nameU="visVersion" v:val="VT0(15):26"/>
				<v:ud v:nameU="visDescription" v:val="VT4(단방향 또는 양방향 I/O 포트입니다. )"/>
			</v:userDefs>
			<v:textBlock v:margins="rect(1,1,1,1)" v:tabSpace="42.5197"/>
			<v:textRect cx="13.5879" cy="385.572" width="21.88" height="11.6036"/>
			<path d="M0 394.77 L0 391.37 L20.38 391.37 L27.18 394.77 L20.38 398.17 L0 398.17 L0 394.77 Z" class="st2"/>
			<text x="4.71" y="387.97" class="st3" v:langID="1042"><v:paragraph v:horizAlign="1"/><v:tabList/>Ans5</text>		</g>
		<g id="shape94-141" v:mID="94" v:groupContext="shape" v:layerMember="0" transform="translate(373.422,-27.2218)">
			<title>I/O 포트.94</title>
			<desc>Ans6</desc>
			<v:userDefs>
				<v:ud v:nameU="Form" v:val="VT0(0):26"/>
				<v:ud v:nameU="visVersion" v:val="VT0(15):26"/>
				<v:ud v:nameU="visDescription" v:val="VT4(단방향 또는 양방향 I/O 포트입니다. )"/>
			</v:userDefs>
			<v:textBlock v:margins="rect(1,1,1,1)" v:tabSpace="42.5197"/>
			<v:textRect cx="13.5879" cy="385.572" width="21.88" height="11.6036"/>
			<path d="M0 394.77 L0 391.37 L20.38 391.37 L27.18 394.77 L20.38 398.17 L0 398.17 L0 394.77 Z" class="st2"/>
			<text x="4.71" y="387.97" class="st3" v:langID="1042"><v:paragraph v:horizAlign="1"/><v:tabList/>Ans6</text>		</g>
		<g id="group95-144" transform="translate(462.069,-236.096)" v:mID="95" v:groupContext="group" v:layerMember="0">
			<v:custProps>
				<v:cp v:nameU="Input" v:lbl="입력 수" v:type="1" v:format="2;3;4;5" v:sortKey="2" v:langID="1042" v:val="VT4(2)"/>
				<v:cp v:nameU="Type" v:lbl="게이트 종류" v:type="1" v:format="OR;AND;NOR;NAND;XOR;XNOR" v:sortKey="1" v:langID="1042"
						v:val="VT4(AND)"/>
				<v:cp v:nameU="Out" v:lbl="출력 수" v:type="1" v:format="1;2;3" v:sortKey="3" v:langID="1042" v:val="VT4(1)"/>
				<v:cp v:nameU="Type" v:lbl="" v:prompt="" v:type="0" v:format="" v:sortKey="" v:invis="false" v:ask="false"
						v:langID="1033" v:cal="0" v:val="VT4(OR)"/>
			</v:custProps>
			<v:userDefs>
				<v:ud v:nameU="SubType" v:val="VT0(1):26"/>
				<v:ud v:nameU="Margin" v:val="VT0(0.059055118110236):24"/>
				<v:ud v:nameU="LimitHeight" v:val="VT0(0):26"/>
				<v:ud v:nameU="visVersion" v:val="VT0(15):26"/>
				<v:ud v:nameU="visDescription" v:val="VT4(여러 가지 모양의 논리 게이트를 나타냅니다.)"/>
				<v:ud v:nameU="SubType" v:prompt="" v:val="VT0(0):26"/>
				<v:ud v:nameU="Margin" v:prompt="" v:val="VT0(0.10887750927028):1"/>
			</v:userDefs>
			<title>논리 게이트 2.95</title>
			<desc>G1</desc>
			<g id="shape96-145" v:mID="96" v:groupContext="shape" v:layerMember="0" transform="translate(0,-7.83918)">
				<title>시트.96</title>
				<path d="M0 382.49 L31.36 382.49" class="st1"/>
				<path d="M0 398.17 L31.36 398.17" class="st1"/>
				<path d="M62.71 390.33 L31.36 390.33" class="st1"/>
			</g>
			<g id="shape97-150" v:mID="97" v:groupContext="shape" v:layerMember="0" transform="translate(10.9749,0)">
				<title>시트.97</title>
				<v:userDefs>
					<v:ud v:nameU="X" v:val="VT0(0.029527559055118):24"/>
					<v:ud v:nameU="X" v:prompt="" v:val="VT0(0.05443875463514):1"/>
				</v:userDefs>
				<path d="M40.76 382.49 A42.2229 25.8684 0 0 1 12.23 398.17 L0 398.17 A60.4952 37.0632 -180 0 0 0 366.81 L12.23 366.81
							 A41.6574 25.5219 0 0 1 40.76 382.49 Z" class="st2"/>
			</g>
			<g id="shape98-152" v:mID="98" v:groupContext="shape" v:layerMember="0" transform="translate(0,5.22612)">
				<title>시트.98</title>
			</g>
			<g id="shape99-154" v:mID="99" v:groupContext="shape" v:layerMember="0" transform="translate(42.4611,-3.93983)">
				<title>시트.99</title>
			</g>
			<g id="shape100-156" v:mID="100" v:groupContext="shape" v:layerMember="0" transform="translate(10.9749,0)">
				<title>시트.100</title>
			</g>
			<g id="shape95-158" v:mID="95" v:groupContext="groupContent" v:layerMember="0">
				<v:textBlock v:margins="rect(1,1,1,1)" v:tabSpace="42.5197"/>
				<v:textRect cx="31.3567" cy="403.969" width="14.84" height="11.6036"/>
				<text x="26.35" y="406.37" class="st3" v:langID="1042"><v:paragraph v:horizAlign="1"/><v:tabList/>G1</text>			</g>
		</g>
		<g id="shape101-160" v:mID="101" v:groupContext="shape" v:layerMember="1" transform="translate(400.597,-272.99)">
			<title>동적 연결선.101</title>
			<desc>True</desc>
			<v:textBlock v:margins="rect(4,4,4,4)" v:tabSpace="42.5197"/>
			<v:textRect cx="24.4456" cy="411.544" width="50" height="20.0036"/>
			<path d="M0 398.96 L10.63 398.96 L10.63 411.54 L61.47 411.54" class="st9"/>
			<rect v:rectContext="textBkgnd" x="14.4431" y="405.544" width="20.005" height="12.0001" class="st7"/>
			<text x="14.44" y="414.54" class="st10" v:langID="1042"><v:paragraph v:horizAlign="1"/><v:tabList/>True</text>		</g>
		<g id="shape102-165" v:mID="102" v:groupContext="shape" v:layerMember="1" transform="translate(400.597,-223.879)">
			<title>동적 연결선.102</title>
			<desc>True</desc>
			<v:textBlock v:margins="rect(4,4,4,4)" v:tabSpace="42.5197"/>
			<v:textRect cx="20.7078" cy="378.111" width="50" height="20.0036"/>
			<path d="M0 398.17 L10.63 398.17 L10.63 378.11 L61.47 378.11" class="st9"/>
			<rect v:rectContext="textBkgnd" x="10.7052" y="372.111" width="20.005" height="12.0001" class="st7"/>
			<text x="10.71" y="381.11" class="st10" v:langID="1042"><v:paragraph v:horizAlign="1"/><v:tabList/>True</text>		</g>
		<g id="shape103-170" v:mID="103" v:groupContext="shape" v:layerMember="1" transform="translate(524.783,-251.774)">
			<title>동적 연결선</title>
			<path d="M0 398.17 L10.63 398.17 L10.63 428 L50.3 428" class="st1"/>
		</g>
		<g id="shape104-173" v:mID="104" v:groupContext="shape" transform="translate(240.945,-354.331)">
			<title>시트.104</title>
			<desc>Gear Fault 05 - Unbalance Output Shaft</desc>
			<v:textBlock v:margins="rect(4,4,4,4)" v:tabSpace="42.5197"/>
			<v:textRect cx="144.459" cy="386.965" width="288.92" height="22.4037"/>
			<rect x="0" y="375.764" width="288.918" height="22.4037" class="st11"/>
			<text x="11.06" y="391.17" class="st12" v:langID="1033"><v:paragraph v:horizAlign="1"/><v:tabList/>Gear Fault 05 - Unbalance Output Shaft</text>		</g>
	</g>
</svg>
