<?xml version="1.0" encoding="UTF-8" standalone="no"?>
<!DOCTYPE svg PUBLIC "-//W3C//DTD SVG 1.1//EN" "http://www.w3.org/Graphics/SVG/1.1/DTD/svg11.dtd">
<!-- Microsoft Visio, SVG Export에서 생성되었습니다. Gear__fault_01.svg Gear_ft01_Unbalance_Input_shaft -->
<svg xmlns="http://www.w3.org/2000/svg" xmlns:xlink="http://www.w3.org/1999/xlink" xmlns:ev="http://www.w3.org/2001/xml-events"
		xmlns:v="http://schemas.microsoft.com/visio/2003/SVGExtensions/" width="11.5534in" height="6.40965in"
		viewBox="0 0 831.848 461.495" xml:space="preserve" color-interpolation-filters="sRGB" class="st11">
	<v:documentProperties v:langID="1042" v:metric="true" v:viewMarkup="false">
		<v:userDefs>
			<v:ud v:nameU="msvNoAutoConnect" v:val="VT0(1):26"/>
		</v:userDefs>
	</v:documentProperties>

	<style type="text/css">
	<![CDATA[
		.st1 {fill:none;stroke:none;stroke-linecap:round;stroke-linejoin:round;stroke-width:0.75}
		.st2 {fill:#000000;font-family:맑은 고딕;font-size:1.00001em}
		.st3 {fill:#ffffff;stroke:#000000;stroke-linecap:round;stroke-linejoin:round;stroke-width:0.75}
		.st4 {fill:#000000;font-family:맑은 고딕;font-size:0.666664em}
		.st5 {stroke:#000000;stroke-linecap:round;stroke-linejoin:round;stroke-width:0.75}
		.st6 {stroke:#0070c0;stroke-linecap:round;stroke-linejoin:round;stroke-width:1}
		.st7 {fill:#ffffff;stroke:none;stroke-linecap:butt;stroke-width:7.2}
		.st8 {fill:#0070c0;font-family:맑은 고딕;font-size:0.833336em}
		.st9 {fill:#ffffff;stroke:none;stroke-linecap:round;stroke-linejoin:round;stroke-width:0.75}
		.st10 {fill:#000000;font-family:맑은 고딕;font-size:1.16666em;font-weight:bold}
		.st11 {fill:none;fill-rule:evenodd;font-size:12px;overflow:visible;stroke-linecap:square;stroke-miterlimit:3}
	]]>
	</style>

	<g v:mID="26" v:index="1" v:groupContext="foregroundPage">
		<title>Gear_ft01_Unbalance_Input_shaft</title>
		<v:pageProperties v:drawingScale="0.0393701" v:pageScale="0.0393701" v:drawingUnits="24" v:shadowOffsetX="8.50394"
				v:shadowOffsetY="-8.50394"/>
		<v:layer v:name="전기" v:index="0"/>
		<v:layer v:name="연결선" v:index="1"/>
		<g id="shape8-1" v:mID="8" v:groupContext="shape" transform="translate(60.6296,-325.134)">
			<title>시트.8</title>
			<desc>Horiz 1xRPM Unbalance Thresh on Input Shaft</desc>
			<v:textBlock v:margins="rect(4,4,4,4)" v:tabSpace="42.5197"/>
			<v:textRect cx="141.52" cy="450.156" width="283.04" height="22.6772"/>
			<rect x="0" y="438.817" width="283.039" height="22.6772" class="st1"/>
			<text x="24.33" y="453.76" class="st2" v:langID="1033"><v:paragraph v:horizAlign="2"/><v:tabList/>Horiz 1xRPM Unbalance Thresh on Input Shaft</text>		</g>
		<g id="shape9-4" v:mID="9" v:groupContext="shape" transform="translate(31.8579,-267.307)">
			<title>시트.9</title>
			<desc>Vert 1xRPM &#62; Unbalance Thresh on Input Shaft</desc>
			<v:textBlock v:margins="rect(4,4,4,4)" v:tabSpace="42.5197"/>
			<v:textRect cx="155.906" cy="450.156" width="311.82" height="22.6772"/>
			<rect x="0" y="438.817" width="311.811" height="22.6772" class="st1"/>
			<text x="46.69" y="453.76" class="st2" v:langID="1033"><v:paragraph v:horizAlign="2"/><v:tabList/>Vert 1xRPM &#62; Unbalance Thresh on Input Shaft</text>		</g>
		<g id="shape10-7" v:mID="10" v:groupContext="shape" transform="translate(40.6899,-209.48)">
			<title>시트.10</title>
			<desc>Axial 1xRPM &#60;= 50% Horiz 1xRPM on Input Shaft</desc>
			<v:textBlock v:margins="rect(4,4,4,4)" v:tabSpace="42.5197"/>
			<v:textRect cx="151.49" cy="450.156" width="302.98" height="22.6772"/>
			<rect x="0" y="438.817" width="302.979" height="22.6772" class="st1"/>
			<text x="25.97" y="453.76" class="st2" v:langID="1033"><v:paragraph v:horizAlign="2"/><v:tabList/>Axial 1xRPM &#60;= 50% Horiz 1xRPM on Input Shaft</text>		</g>
		<g id="shape11-10" v:mID="11" v:groupContext="shape" transform="translate(60.6296,-151.654)">
			<title>시트.11</title>
			<desc>Axial 1xRPM &#60;= 50% Vert 1xRPM on Input Shaft</desc>
			<v:textBlock v:margins="rect(4,4,4,4)" v:tabSpace="42.5197"/>
			<v:textRect cx="141.52" cy="450.156" width="283.04" height="22.6772"/>
			<rect x="0" y="438.817" width="283.039" height="22.6772" class="st1"/>
			<text x="12.24" y="453.76" class="st2" v:langID="1033"><v:paragraph v:horizAlign="2"/><v:tabList/>Axial 1xRPM &#60;= 50% Vert 1xRPM on Input Shaft</text>		</g>
		<g id="shape12-13" v:mID="12" v:groupContext="shape" transform="translate(18,-93.8268)">
			<title>시트.12</title>
			<desc>Horiz 1xRPM / Vert 1xRPM 1xRPM &#60;= 5.0 on Input Shaft</desc>
			<v:textBlock v:margins="rect(4,4,4,4)" v:tabSpace="42.5197"/>
			<v:textRect cx="162.834" cy="450.156" width="325.67" height="22.6772"/>
			<rect x="0" y="438.817" width="325.669" height="22.6772" class="st1"/>
			<text x="8.74" y="453.76" class="st2" v:langID="1033"><v:paragraph v:horizAlign="2"/><v:tabList/>Horiz 1xRPM / Vert 1xRPM 1xRPM &#60;= 5.0 on Input Shaft</text>		</g>
		<g id="shape13-16" v:mID="13" v:groupContext="shape" v:layerMember="0" transform="translate(364.929,-158.551)">
			<title>I/O 포트.36</title>
			<desc>Ans4</desc>
			<v:userDefs>
				<v:ud v:nameU="Form" v:val="VT0(0):26"/>
				<v:ud v:nameU="visVersion" v:val="VT0(15):26"/>
				<v:ud v:nameU="visDescription" v:val="VT4(단방향 또는 양방향 I/O 포트입니다. )"/>
			</v:userDefs>
			<v:textBlock v:margins="rect(1,1,1,1)" v:tabSpace="42.5197"/>
			<v:textRect cx="17.3723" cy="447.007" width="21.88" height="11.6036"/>
			<path d="M0 457.15 L0 452.81 L26.06 452.81 L34.74 457.15 L26.06 461.49 L0 461.49 L0 457.15 Z" class="st3"/>
			<text x="8.49" y="449.41" class="st4" v:langID="1042"><v:paragraph v:horizAlign="1"/><v:tabList/>Ans4</text>		</g>
		<g id="shape14-19" v:mID="14" v:groupContext="shape" v:layerMember="0" transform="translate(364.929,-100.019)">
			<title>I/O 포트.37</title>
			<desc>Ans5</desc>
			<v:userDefs>
				<v:ud v:nameU="Form" v:val="VT0(0):26"/>
				<v:ud v:nameU="visVersion" v:val="VT0(15):26"/>
				<v:ud v:nameU="visDescription" v:val="VT4(단방향 또는 양방향 I/O 포트입니다. )"/>
			</v:userDefs>
			<v:textBlock v:margins="rect(1,1,1,1)" v:tabSpace="42.5197"/>
			<v:textRect cx="17.3723" cy="447.007" width="21.88" height="11.6036"/>
			<path d="M0 457.15 L0 452.81 L26.06 452.81 L34.74 457.15 L26.06 461.49 L0 461.49 L0 457.15 Z" class="st3"/>
			<text x="8.49" y="449.41" class="st4" v:langID="1042"><v:paragraph v:horizAlign="1"/><v:tabList/>Ans5</text>		</g>
		<g id="shape23-22" v:mID="23" v:groupContext="shape" v:layerMember="0" transform="translate(364.929,-217.084)">
			<title>I/O 포트.44</title>
			<desc>Ans3</desc>
			<v:userDefs>
				<v:ud v:nameU="Form" v:val="VT0(0):26"/>
				<v:ud v:nameU="visVersion" v:val="VT0(15):26"/>
				<v:ud v:nameU="visDescription" v:val="VT4(단방향 또는 양방향 I/O 포트입니다. )"/>
			</v:userDefs>
			<v:textBlock v:margins="rect(1,1,1,1)" v:tabSpace="42.5197"/>
			<v:textRect cx="17.3723" cy="447.007" width="21.88" height="11.6036"/>
			<path d="M0 457.15 L0 452.81 L26.06 452.81 L34.74 457.15 L26.06 461.49 L0 461.49 L0 457.15 Z" class="st3"/>
			<text x="8.49" y="449.41" class="st4" v:langID="1042"><v:paragraph v:horizAlign="1"/><v:tabList/>Ans3</text>		</g>
		<g id="shape24-25" v:mID="24" v:groupContext="shape" v:layerMember="0" transform="translate(364.929,-334.148)">
			<title>I/O 포트.45</title>
			<desc>Ans1</desc>
			<v:userDefs>
				<v:ud v:nameU="Form" v:val="VT0(0):26"/>
				<v:ud v:nameU="visVersion" v:val="VT0(15):26"/>
				<v:ud v:nameU="visDescription" v:val="VT4(단방향 또는 양방향 I/O 포트입니다. )"/>
			</v:userDefs>
			<v:textBlock v:margins="rect(1,1,1,1)" v:tabSpace="42.5197"/>
			<v:textRect cx="17.3723" cy="447.007" width="22.58" height="11.6036"/>
			<path d="M0 457.15 L0 452.81 L26.06 452.81 L34.74 457.15 L26.06 461.49 L0 461.49 L0 457.15 Z" class="st3"/>
			<text x="8.49" y="449.41" class="st4" v:langID="1042"><v:paragraph v:horizAlign="1"/><v:tabList/>Ans1</text>		</g>
		<g id="shape25-28" v:mID="25" v:groupContext="shape" v:layerMember="0" transform="translate(364.929,-275.616)">
			<title>I/O 포트.46</title>
			<desc>Ans2</desc>
			<v:userDefs>
				<v:ud v:nameU="Form" v:val="VT0(0):26"/>
				<v:ud v:nameU="visVersion" v:val="VT0(15):26"/>
				<v:ud v:nameU="visDescription" v:val="VT4(단방향 또는 양방향 I/O 포트입니다. )"/>
			</v:userDefs>
			<v:textBlock v:margins="rect(1,1,1,1)" v:tabSpace="42.5197"/>
			<v:textRect cx="17.3723" cy="447.007" width="21.88" height="11.6036"/>
			<path d="M0 457.15 L0 452.81 L26.06 452.81 L34.74 457.15 L26.06 461.49 L0 461.49 L0 457.15 Z" class="st3"/>
			<text x="8.49" y="449.41" class="st4" v:langID="1042"><v:paragraph v:horizAlign="1"/><v:tabList/>Ans2</text>		</g>
		<g id="group26-31" transform="translate(425.197,-292.733)" v:mID="26" v:groupContext="group" v:layerMember="0">
			<v:custProps>
				<v:cp v:nameU="Input" v:lbl="입력 수" v:type="1" v:format="2;3;4;5" v:sortKey="2" v:langID="1042" v:val="VT4(2)"/>
				<v:cp v:nameU="Type" v:lbl="게이트 종류" v:type="1" v:format="OR;AND;NOR;NAND;XOR;XNOR" v:sortKey="1" v:langID="1042"
						v:val="VT4(AND)"/>
				<v:cp v:nameU="Out" v:lbl="출력 수" v:type="1" v:format="1;2;3" v:sortKey="3" v:langID="1042" v:val="VT4(1)"/>
				<v:cp v:nameU="Type" v:lbl="" v:prompt="" v:type="0" v:format="" v:sortKey="" v:invis="false" v:ask="false"
						v:langID="1033" v:cal="0" v:val="VT4(OR)"/>
			</v:custProps>
			<v:userDefs>
				<v:ud v:nameU="SubType" v:val="VT0(1):26"/>
				<v:ud v:nameU="Margin" v:val="VT0(0.059055118110236):24"/>
				<v:ud v:nameU="LimitHeight" v:val="VT0(0):26"/>
				<v:ud v:nameU="visVersion" v:val="VT0(15):26"/>
				<v:ud v:nameU="visDescription" v:val="VT4(여러 가지 모양의 논리 게이트를 나타냅니다.)"/>
				<v:ud v:nameU="SubType" v:prompt="" v:val="VT0(0):26"/>
				<v:ud v:nameU="Margin" v:prompt="" v:val="VT0(0.13213042461384):1"/>
			</v:userDefs>
			<title>논리 게이트 2.47</title>
			<desc>G1</desc>
			<g id="shape27-32" v:mID="27" v:groupContext="shape" v:layerMember="0" transform="translate(0,-9.51339)">
				<title>시트.27</title>
				<path d="M0 442.47 L38.05 442.47" class="st5"/>
				<path d="M0 461.49 L38.05 461.49" class="st5"/>
				<path d="M76.11 451.98 L38.05 451.98" class="st5"/>
			</g>
			<g id="shape28-37" v:mID="28" v:groupContext="shape" v:layerMember="0" transform="translate(13.3187,0)">
				<title>시트.28</title>
				<v:userDefs>
					<v:ud v:nameU="X" v:val="VT0(0.029527559055118):24"/>
					<v:ud v:nameU="X" v:prompt="" v:val="VT0(0.06606521230692):1"/>
				</v:userDefs>
				<path d="M49.47 442.47 A51.2404 31.3931 0 0 1 14.84 461.49 L0 461.49 A73.4152 44.9787 -180 0 0 0 423.44 L14.84 423.44
							 A50.5541 30.9726 0 0 1 49.47 442.47 Z" class="st3"/>
			</g>
			<g id="shape29-39" v:mID="29" v:groupContext="shape" v:layerMember="0" transform="translate(0,6.34226)">
				<title>시트.29</title>
			</g>
			<g id="shape30-41" v:mID="30" v:groupContext="shape" v:layerMember="0" transform="translate(51.5295,-4.78126)">
				<title>시트.30</title>
			</g>
			<g id="shape31-43" v:mID="31" v:groupContext="shape" v:layerMember="0" transform="translate(13.3187,0)">
				<title>시트.31</title>
			</g>
			<g id="shape26-45" v:mID="26" v:groupContext="groupContent" v:layerMember="0">
				<v:textBlock v:margins="rect(1,1,1,1)" v:tabSpace="42.5197"/>
				<v:textRect cx="38.0536" cy="467.296" width="14.84" height="11.6036"/>
				<text x="33.04" y="469.7" class="st4" v:langID="1042"><v:paragraph v:horizAlign="1"/><v:tabList/>G1</text>			</g>
		</g>
		<g id="shape38-47" v:mID="38" v:groupContext="shape" v:layerMember="0" transform="translate(751.181,-159.437)">
			<title>I/O 포트.59</title>
			<desc>Unbalance_Input_shaft</desc>
			<v:userDefs>
				<v:ud v:nameU="Form" v:val="VT0(0):26"/>
				<v:ud v:nameU="visVersion" v:val="VT0(15):26"/>
				<v:ud v:nameU="visDescription" v:val="VT4(단방향 또는 양방향 I/O 포트입니다. )"/>
			</v:userDefs>
			<v:textBlock v:margins="rect(1,1,1,1)" v:tabSpace="42.5197"/>
			<v:textRect cx="14.1732" cy="443.199" width="86.18" height="11.6036"/>
			<path d="M0 457.37 L0 453.25 L24.73 453.25 L32.98 457.37 L24.73 461.49 L0 461.49 L0 457.37 Z" class="st3"/>
			<text x="-26.5" y="445.66" class="st4" v:langID="1033"><v:paragraph v:horizAlign="1"/><v:tabList/>Unbalance_Input_shaft</text>		</g>
		<g id="shape42-50" v:mID="42" v:groupContext="shape" v:layerMember="1" transform="translate(399.673,-338.491)">
			<title>동적 연결선.63</title>
			<desc>False</desc>
			<v:textBlock v:margins="rect(4,4,4,4)" v:tabSpace="42.5197"/>
			<v:textRect cx="10.6299" cy="472.235" width="50" height="20.0036"/>
			<path d="M0 461.49 L10.63 461.49 L10.63 478.71 L25.52 478.71" class="st6"/>
			<rect v:rectContext="textBkgnd" x="-0.534721" y="466.235" width="22.3292" height="12.0001" class="st7"/>
			<text x="-0.53" y="475.24" class="st8" v:langID="1042"><v:paragraph v:horizAlign="1"/><v:tabList/>False</text>		</g>
		<g id="shape43-55" v:mID="43" v:groupContext="shape" v:layerMember="1" transform="translate(399.673,-279.959)">
			<title>동적 연결선.64</title>
			<desc>False</desc>
			<v:textBlock v:margins="rect(4,4,4,4)" v:tabSpace="42.5197"/>
			<v:textRect cx="10.6299" cy="448.219" width="50" height="20.0036"/>
			<path d="M0 461.49 L10.63 461.49 L10.63 439.21 L25.52 439.21" class="st6"/>
			<rect v:rectContext="textBkgnd" x="-0.534721" y="442.219" width="22.3292" height="12.0001" class="st7"/>
			<text x="-0.53" y="451.22" class="st8" v:langID="1042"><v:paragraph v:horizAlign="1"/><v:tabList/>False</text>		</g>
		<g id="shape45-60" v:mID="45" v:groupContext="shape" v:layerMember="1" transform="translate(708.661,-156.472)">
			<title>동적 연결선.67</title>
			<desc>True</desc>
			<v:textBlock v:margins="rect(4,4,4,4)" v:tabSpace="42.5197"/>
			<v:textRect cx="21.2598" cy="454.408" width="50" height="20.0036"/>
			<path d="M0 454.41 L42.52 454.41" class="st6"/>
			<rect v:rectContext="textBkgnd" x="11.2573" y="448.408" width="20.005" height="12.0001" class="st7"/>
			<text x="11.26" y="457.41" class="st8" v:langID="1042"><v:paragraph v:horizAlign="1"/><v:tabList/>True</text>		</g>
		<g id="shape46-65" v:mID="46" v:groupContext="shape" transform="translate(18,-36)">
			<title>시트.46</title>
			<desc>Vert 1xRPM / Horiz 1xRPM &#60;=3.5 on Input Shaft</desc>
			<v:textBlock v:margins="rect(4,4,4,4)" v:tabSpace="42.5197"/>
			<v:textRect cx="162.834" cy="450.156" width="325.67" height="22.6772"/>
			<rect x="0" y="438.817" width="325.669" height="22.6772" class="st1"/>
			<text x="54.53" y="453.76" class="st2" v:langID="1033"><v:paragraph v:horizAlign="2"/><v:tabList/>Vert 1xRPM / Horiz 1xRPM &#60;=3.5 on Input Shaft</text>		</g>
		<g id="shape48-68" v:mID="48" v:groupContext="shape" v:layerMember="0" transform="translate(364.929,-41.4871)">
			<title>I/O 포트.48</title>
			<desc>Ans6</desc>
			<v:userDefs>
				<v:ud v:nameU="Form" v:val="VT0(0):26"/>
				<v:ud v:nameU="visVersion" v:val="VT0(15):26"/>
				<v:ud v:nameU="visDescription" v:val="VT4(단방향 또는 양방향 I/O 포트입니다. )"/>
			</v:userDefs>
			<v:textBlock v:margins="rect(1,1,1,1)" v:tabSpace="42.5197"/>
			<v:textRect cx="17.3723" cy="447.007" width="21.88" height="11.6036"/>
			<path d="M0 457.15 L0 452.81 L26.06 452.81 L34.74 457.15 L26.06 461.49 L0 461.49 L0 457.15 Z" class="st3"/>
			<text x="8.49" y="449.41" class="st4" v:langID="1042"><v:paragraph v:horizAlign="1"/><v:tabList/>Ans6</text>		</g>
		<g id="group49-71" transform="translate(425.197,-177.732)" v:mID="49" v:groupContext="group" v:layerMember="0">
			<v:custProps>
				<v:cp v:nameU="Input" v:lbl="입력 수" v:type="1" v:format="2;3;4;5" v:sortKey="2" v:langID="1042" v:val="VT4(2)"/>
				<v:cp v:nameU="Type" v:lbl="게이트 종류" v:type="1" v:format="OR;AND;NOR;NAND;XOR;XNOR" v:sortKey="1" v:langID="1042"
						v:val="VT4(AND)"/>
				<v:cp v:nameU="Out" v:lbl="출력 수" v:type="1" v:format="1;2;3" v:sortKey="3" v:langID="1042" v:val="VT4(1)"/>
				<v:cp v:nameU="Type" v:lbl="" v:prompt="" v:type="0" v:format="" v:sortKey="" v:invis="false" v:ask="false"
						v:langID="1033" v:cal="0" v:val="VT0(0):26"/>
			</v:custProps>
			<v:userDefs>
				<v:ud v:nameU="SubType" v:val="VT0(1):26"/>
				<v:ud v:nameU="Margin" v:val="VT0(0.059055118110236):24"/>
				<v:ud v:nameU="LimitHeight" v:val="VT0(0):26"/>
				<v:ud v:nameU="visVersion" v:val="VT0(15):26"/>
				<v:ud v:nameU="visDescription" v:val="VT4(여러 가지 모양의 논리 게이트를 나타냅니다.)"/>
				<v:ud v:nameU="Margin" v:prompt="" v:val="VT0(0.13213042461384):1"/>
			</v:userDefs>
			<title>논리 게이트 2.49</title>
			<desc>G1</desc>
			<g id="shape50-72" v:mID="50" v:groupContext="shape" v:layerMember="0" transform="translate(0,-9.51339)">
				<title>시트.50</title>
				<path d="M0 442.47 L38.05 442.47" class="st5"/>
				<path d="M0 461.49 L38.05 461.49" class="st5"/>
				<path d="M76.11 451.98 L38.05 451.98" class="st5"/>
			</g>
			<g id="shape51-77" v:mID="51" v:groupContext="shape" v:layerMember="0" transform="translate(13.3187,0)">
				<title>시트.51</title>
				<v:userDefs>
					<v:ud v:nameU="X" v:val="VT0(0.029527559055118):24"/>
					<v:ud v:nameU="X" v:prompt="" v:val="VT0(0.06606521230692):1"/>
				</v:userDefs>
				<path d="M49.47 442.47 A51.2404 31.3931 0 0 1 14.84 461.49 L0 461.49 A73.4152 44.9787 -180 0 0 0 423.44 L14.84 423.44
							 A50.5541 30.9726 0 0 1 49.47 442.47 Z" class="st3"/>
			</g>
			<g id="shape52-79" v:mID="52" v:groupContext="shape" v:layerMember="0" transform="translate(0,6.34226)">
				<title>시트.52</title>
			</g>
			<g id="shape53-81" v:mID="53" v:groupContext="shape" v:layerMember="0" transform="translate(51.5295,-4.78126)">
				<title>시트.53</title>
			</g>
			<g id="shape54-83" v:mID="54" v:groupContext="shape" v:layerMember="0" transform="translate(13.3187,0)">
				<title>시트.54</title>
				<path d="M30.44 461.49 L0 461.49 L0 423.44 L30.44 423.44 A19.0268 19.0268 0 0 1 30.44 461.49 Z" class="st3"/>
			</g>
			<g id="shape49-85" v:mID="49" v:groupContext="groupContent" v:layerMember="0">
				<v:textBlock v:margins="rect(1,1,1,1)" v:tabSpace="42.5197"/>
				<v:textRect cx="38.0536" cy="467.296" width="14.84" height="11.6036"/>
				<text x="33.04" y="469.7" class="st4" v:langID="1042"><v:paragraph v:horizAlign="1"/><v:tabList/>G1</text>			</g>
		</g>
		<g id="shape55-87" v:mID="55" v:groupContext="shape" v:layerMember="1" transform="translate(399.673,-221.427)">
			<title>동적 연결선</title>
			<desc>False</desc>
			<v:textBlock v:margins="rect(4,4,4,4)" v:tabSpace="42.5197"/>
			<v:textRect cx="10.6299" cy="471.204" width="50" height="20.0036"/>
			<path d="M0 461.49 L10.63 461.49 L10.63 476.65 L25.52 476.65" class="st6"/>
			<rect v:rectContext="textBkgnd" x="-0.534721" y="465.204" width="22.3292" height="12.0001" class="st7"/>
			<text x="-0.53" y="474.2" class="st8" v:langID="1042"><v:paragraph v:horizAlign="1"/><v:tabList/>False</text>		</g>
		<g id="shape56-92" v:mID="56" v:groupContext="shape" v:layerMember="1" transform="translate(399.673,-162.894)">
			<title>동적 연결선.56</title>
			<desc>False</desc>
			<v:textBlock v:margins="rect(4,4,4,4)" v:tabSpace="42.5197"/>
			<v:textRect cx="10.6299" cy="447.187" width="50" height="20.0036"/>
			<path d="M0 461.49 L10.63 461.49 L10.63 437.14 L25.52 437.14" class="st6"/>
			<rect v:rectContext="textBkgnd" x="-0.534721" y="441.188" width="22.3292" height="12.0001" class="st7"/>
			<text x="-0.53" y="450.19" class="st8" v:langID="1042"><v:paragraph v:horizAlign="1"/><v:tabList/>False</text>		</g>
		<g id="group57-97" transform="translate(425.197,-59.4929)" v:mID="57" v:groupContext="group" v:layerMember="0">
			<v:custProps>
				<v:cp v:nameU="Input" v:lbl="입력 수" v:type="1" v:format="2;3;4;5" v:sortKey="2" v:langID="1042" v:val="VT4(2)"/>
				<v:cp v:nameU="Type" v:lbl="게이트 종류" v:type="1" v:format="OR;AND;NOR;NAND;XOR;XNOR" v:sortKey="1" v:langID="1042"
						v:val="VT4(AND)"/>
				<v:cp v:nameU="Out" v:lbl="출력 수" v:type="1" v:format="1;2;3" v:sortKey="3" v:langID="1042" v:val="VT4(1)"/>
				<v:cp v:nameU="Type" v:lbl="" v:prompt="" v:type="0" v:format="" v:sortKey="" v:invis="false" v:ask="false"
						v:langID="1033" v:cal="0" v:val="VT0(0):26"/>
			</v:custProps>
			<v:userDefs>
				<v:ud v:nameU="SubType" v:val="VT0(1):26"/>
				<v:ud v:nameU="Margin" v:val="VT0(0.059055118110236):24"/>
				<v:ud v:nameU="LimitHeight" v:val="VT0(0):26"/>
				<v:ud v:nameU="visVersion" v:val="VT0(15):26"/>
				<v:ud v:nameU="visDescription" v:val="VT4(여러 가지 모양의 논리 게이트를 나타냅니다.)"/>
				<v:ud v:nameU="Margin" v:prompt="" v:val="VT0(0.13213042461384):1"/>
			</v:userDefs>
			<title>논리 게이트 2.57</title>
			<desc>G1</desc>
			<g id="shape58-98" v:mID="58" v:groupContext="shape" v:layerMember="0" transform="translate(0,-9.51339)">
				<title>시트.58</title>
				<path d="M0 442.47 L38.05 442.47" class="st5"/>
				<path d="M0 461.49 L38.05 461.49" class="st5"/>
				<path d="M76.11 451.98 L38.05 451.98" class="st5"/>
			</g>
			<g id="shape59-103" v:mID="59" v:groupContext="shape" v:layerMember="0" transform="translate(13.3187,0)">
				<title>시트.59</title>
				<v:userDefs>
					<v:ud v:nameU="X" v:val="VT0(0.029527559055118):24"/>
					<v:ud v:nameU="X" v:prompt="" v:val="VT0(0.06606521230692):1"/>
				</v:userDefs>
				<path d="M49.47 442.47 A51.2404 31.3931 0 0 1 14.84 461.49 L0 461.49 A73.4152 44.9787 -180 0 0 0 423.44 L14.84 423.44
							 A50.5541 30.9726 0 0 1 49.47 442.47 Z" class="st3"/>
			</g>
			<g id="shape60-105" v:mID="60" v:groupContext="shape" v:layerMember="0" transform="translate(0,6.34226)">
				<title>시트.60</title>
			</g>
			<g id="shape61-107" v:mID="61" v:groupContext="shape" v:layerMember="0" transform="translate(51.5295,-4.78126)">
				<title>시트.61</title>
			</g>
			<g id="shape62-109" v:mID="62" v:groupContext="shape" v:layerMember="0" transform="translate(13.3187,0)">
				<title>시트.62</title>
				<path d="M30.44 461.49 L0 461.49 L0 423.44 L30.44 423.44 A19.0268 19.0268 0 0 1 30.44 461.49 Z" class="st3"/>
			</g>
			<g id="shape57-111" v:mID="57" v:groupContext="groupContent" v:layerMember="0">
				<v:textBlock v:margins="rect(1,1,1,1)" v:tabSpace="42.5197"/>
				<v:textRect cx="38.0536" cy="467.296" width="14.84" height="11.6036"/>
				<text x="33.04" y="469.7" class="st4" v:langID="1042"><v:paragraph v:horizAlign="1"/><v:tabList/>G1</text>			</g>
		</g>
		<g id="shape63-113" v:mID="63" v:groupContext="shape" v:layerMember="1" transform="translate(399.673,-104.362)">
			<title>동적 연결선.63</title>
			<desc>False</desc>
			<v:textBlock v:margins="rect(4,4,4,4)" v:tabSpace="42.5197"/>
			<v:textRect cx="10.6299" cy="471.791" width="50" height="20.0036"/>
			<path d="M0 461.49 L10.63 461.49 L10.63 477.82 L25.52 477.82" class="st6"/>
			<rect v:rectContext="textBkgnd" x="-0.534721" y="465.791" width="22.3292" height="12.0001" class="st7"/>
			<text x="-0.53" y="474.79" class="st8" v:langID="1042"><v:paragraph v:horizAlign="1"/><v:tabList/>False</text>		</g>
		<g id="shape64-118" v:mID="64" v:groupContext="shape" v:layerMember="1" transform="translate(399.673,-45.8301)">
			<title>동적 연결선.64</title>
			<desc>False</desc>
			<v:textBlock v:margins="rect(4,4,4,4)" v:tabSpace="42.5197"/>
			<v:textRect cx="10.6299" cy="447.775" width="50" height="20.0036"/>
			<path d="M0 461.49 L10.63 461.49 L10.63 438.32 L25.52 438.32" class="st6"/>
			<rect v:rectContext="textBkgnd" x="-0.534721" y="441.775" width="22.3292" height="12.0001" class="st7"/>
			<text x="-0.53" y="450.78" class="st8" v:langID="1042"><v:paragraph v:horizAlign="1"/><v:tabList/>False</text>		</g>
		<g id="group65-123" transform="translate(538.583,-233.347)" v:mID="65" v:groupContext="group" v:layerMember="0">
			<v:custProps>
				<v:cp v:nameU="Input" v:lbl="입력 수" v:type="1" v:format="2;3;4;5" v:sortKey="2" v:langID="1042" v:val="VT4(2)"/>
				<v:cp v:nameU="Type" v:lbl="게이트 종류" v:type="1" v:format="OR;AND;NOR;NAND;XOR;XNOR" v:sortKey="1" v:langID="1042"
						v:val="VT4(AND)"/>
				<v:cp v:nameU="Out" v:lbl="출력 수" v:type="1" v:format="1;2;3" v:sortKey="3" v:langID="1042" v:val="VT4(1)"/>
				<v:cp v:nameU="Type" v:lbl="" v:prompt="" v:type="0" v:format="" v:sortKey="" v:invis="false" v:ask="false"
						v:langID="1033" v:cal="0" v:val="VT0(0):26"/>
			</v:custProps>
			<v:userDefs>
				<v:ud v:nameU="SubType" v:val="VT0(1):26"/>
				<v:ud v:nameU="Margin" v:val="VT0(0.059055118110236):24"/>
				<v:ud v:nameU="LimitHeight" v:val="VT0(0):26"/>
				<v:ud v:nameU="visVersion" v:val="VT0(15):26"/>
				<v:ud v:nameU="visDescription" v:val="VT4(여러 가지 모양의 논리 게이트를 나타냅니다.)"/>
				<v:ud v:nameU="Margin" v:prompt="" v:val="VT0(0.13213042461384):1"/>
			</v:userDefs>
			<title>논리 게이트 2.65</title>
			<desc>G1</desc>
			<g id="shape66-124" v:mID="66" v:groupContext="shape" v:layerMember="0" transform="translate(0,-9.51339)">
				<title>시트.66</title>
				<path d="M0 442.47 L38.05 442.47" class="st5"/>
				<path d="M0 461.49 L38.05 461.49" class="st5"/>
				<path d="M76.11 451.98 L38.05 451.98" class="st5"/>
			</g>
			<g id="shape67-129" v:mID="67" v:groupContext="shape" v:layerMember="0" transform="translate(13.3187,0)">
				<title>시트.67</title>
				<v:userDefs>
					<v:ud v:nameU="X" v:val="VT0(0.029527559055118):24"/>
					<v:ud v:nameU="X" v:prompt="" v:val="VT0(0.06606521230692):1"/>
				</v:userDefs>
				<path d="M49.47 442.47 A51.2404 31.3931 0 0 1 14.84 461.49 L0 461.49 A73.4152 44.9787 -180 0 0 0 423.44 L14.84 423.44
							 A50.5541 30.9726 0 0 1 49.47 442.47 Z" class="st3"/>
			</g>
			<g id="shape68-131" v:mID="68" v:groupContext="shape" v:layerMember="0" transform="translate(0,6.34226)">
				<title>시트.68</title>
			</g>
			<g id="shape69-133" v:mID="69" v:groupContext="shape" v:layerMember="0" transform="translate(51.5295,-4.78126)">
				<title>시트.69</title>
			</g>
			<g id="shape70-135" v:mID="70" v:groupContext="shape" v:layerMember="0" transform="translate(13.3187,0)">
				<title>시트.70</title>
				<path d="M30.44 461.49 L0 461.49 L0 423.44 L30.44 423.44 A19.0268 19.0268 0 0 1 30.44 461.49 Z" class="st3"/>
			</g>
			<g id="shape65-137" v:mID="65" v:groupContext="groupContent" v:layerMember="0">
				<v:textBlock v:margins="rect(1,1,1,1)" v:tabSpace="42.5197"/>
				<v:textRect cx="38.0536" cy="467.296" width="14.84" height="11.6036"/>
				<text x="33.04" y="469.7" class="st4" v:langID="1042"><v:paragraph v:horizAlign="1"/><v:tabList/>G1</text>			</g>
		</g>
		<g id="group71-139" transform="translate(632.554,-144.532)" v:mID="71" v:groupContext="group" v:layerMember="0">
			<v:custProps>
				<v:cp v:nameU="Input" v:lbl="입력 수" v:type="1" v:format="2;3;4;5" v:sortKey="2" v:langID="1042" v:val="VT4(2)"/>
				<v:cp v:nameU="Type" v:lbl="게이트 종류" v:type="1" v:format="OR;AND;NOR;NAND;XOR;XNOR" v:sortKey="1" v:langID="1042"
						v:val="VT4(AND)"/>
				<v:cp v:nameU="Out" v:lbl="출력 수" v:type="1" v:format="1;2;3" v:sortKey="3" v:langID="1042" v:val="VT4(1)"/>
				<v:cp v:nameU="Type" v:lbl="" v:prompt="" v:type="0" v:format="" v:sortKey="" v:invis="false" v:ask="false"
						v:langID="1033" v:cal="0" v:val="VT0(0):26"/>
			</v:custProps>
			<v:userDefs>
				<v:ud v:nameU="SubType" v:val="VT0(1):26"/>
				<v:ud v:nameU="Margin" v:val="VT0(0.059055118110236):24"/>
				<v:ud v:nameU="LimitHeight" v:val="VT0(0):26"/>
				<v:ud v:nameU="visVersion" v:val="VT0(15):26"/>
				<v:ud v:nameU="visDescription" v:val="VT4(여러 가지 모양의 논리 게이트를 나타냅니다.)"/>
				<v:ud v:nameU="Margin" v:prompt="" v:val="VT0(0.13213042461384):1"/>
			</v:userDefs>
			<title>논리 게이트 2.71</title>
			<desc>G1</desc>
			<g id="shape72-140" v:mID="72" v:groupContext="shape" v:layerMember="0" transform="translate(0,-9.51339)">
				<title>시트.72</title>
				<path d="M0 442.47 L38.05 442.47" class="st5"/>
				<path d="M0 461.49 L38.05 461.49" class="st5"/>
				<path d="M76.11 451.98 L38.05 451.98" class="st5"/>
			</g>
			<g id="shape73-145" v:mID="73" v:groupContext="shape" v:layerMember="0" transform="translate(13.3187,0)">
				<title>시트.73</title>
				<v:userDefs>
					<v:ud v:nameU="X" v:val="VT0(0.029527559055118):24"/>
					<v:ud v:nameU="X" v:prompt="" v:val="VT0(0.06606521230692):1"/>
				</v:userDefs>
				<path d="M49.47 442.47 A51.2404 31.3931 0 0 1 14.84 461.49 L0 461.49 A73.4152 44.9787 -180 0 0 0 423.44 L14.84 423.44
							 A50.5541 30.9726 0 0 1 49.47 442.47 Z" class="st3"/>
			</g>
			<g id="shape74-147" v:mID="74" v:groupContext="shape" v:layerMember="0" transform="translate(0,6.34226)">
				<title>시트.74</title>
			</g>
			<g id="shape75-149" v:mID="75" v:groupContext="shape" v:layerMember="0" transform="translate(51.5295,-4.78126)">
				<title>시트.75</title>
			</g>
			<g id="shape76-151" v:mID="76" v:groupContext="shape" v:layerMember="0" transform="translate(13.3187,0)">
				<title>시트.76</title>
				<path d="M30.44 461.49 L0 461.49 L0 423.44 L30.44 423.44 A19.0268 19.0268 0 0 1 30.44 461.49 Z" class="st3"/>
			</g>
			<g id="shape71-153" v:mID="71" v:groupContext="groupContent" v:layerMember="0">
				<v:textBlock v:margins="rect(1,1,1,1)" v:tabSpace="42.5197"/>
				<v:textRect cx="38.0536" cy="467.296" width="14.84" height="11.6036"/>
				<text x="33.04" y="469.7" class="st4" v:langID="1042"><v:paragraph v:horizAlign="1"/><v:tabList/>G1</text>			</g>
		</g>
		<g id="shape77-155" v:mID="77" v:groupContext="shape" v:layerMember="1" transform="translate(501.304,-311.76)">
			<title>동적 연결선.77</title>
			<desc>False</desc>
			<v:textBlock v:margins="rect(4,4,4,4)" v:tabSpace="42.5197"/>
			<v:textRect cx="10.6299" cy="494.441" width="50" height="20.0036"/>
			<path d="M0 461.49 L10.63 461.49 L10.63 511.37 L37.28 511.37" class="st6"/>
			<rect v:rectContext="textBkgnd" x="-0.534721" y="488.441" width="22.3292" height="12.0001" class="st7"/>
			<text x="-0.53" y="497.44" class="st8" v:langID="1042"><v:paragraph v:horizAlign="1"/><v:tabList/>False</text>		</g>
		<g id="shape78-160" v:mID="78" v:groupContext="shape" v:layerMember="1" transform="translate(501.304,-196.759)">
			<title>동적 연결선.78</title>
			<desc>False</desc>
			<v:textBlock v:margins="rect(4,4,4,4)" v:tabSpace="42.5197"/>
			<v:textRect cx="10.6299" cy="430.435" width="50" height="20.0036"/>
			<path d="M0 461.49 L10.63 461.49 L10.63 415.39 L37.28 415.39" class="st6"/>
			<rect v:rectContext="textBkgnd" x="-0.534721" y="424.435" width="22.3292" height="12.0001" class="st7"/>
			<text x="-0.53" y="433.43" class="st8" v:langID="1042"><v:paragraph v:horizAlign="1"/><v:tabList/>False</text>		</g>
		<g id="shape79-165" v:mID="79" v:groupContext="shape" v:layerMember="1" transform="translate(501.304,-78.5197)">
			<title>동적 연결선.79</title>
			<desc>False</desc>
			<v:textBlock v:margins="rect(4,4,4,4)" v:tabSpace="42.5197"/>
			<v:textRect cx="101.603" cy="459.71" width="50" height="20.0036"/>
			<path d="M0 461.49 L101.6 461.49 L101.6 385.97 L131.25 385.97" class="st6"/>
			<rect v:rectContext="textBkgnd" x="90.4387" y="453.71" width="22.3292" height="12.0001" class="st7"/>
			<text x="90.44" y="462.71" class="st8" v:langID="1042"><v:paragraph v:horizAlign="1"/><v:tabList/>False</text>		</g>
		<g id="shape80-170" v:mID="80" v:groupContext="shape" v:layerMember="1" transform="translate(614.69,-252.373)">
			<title>동적 연결선.80</title>
			<desc>False</desc>
			<v:textBlock v:margins="rect(4,4,4,4)" v:tabSpace="42.5197"/>
			<v:textRect cx="10.6299" cy="499.447" width="50" height="20.0036"/>
			<path d="M0 461.49 L10.63 461.49 L10.63 540.8 L17.86 540.8" class="st6"/>
			<rect v:rectContext="textBkgnd" x="-0.534721" y="493.448" width="22.3292" height="12.0001" class="st7"/>
			<text x="-0.53" y="502.45" class="st8" v:langID="1042"><v:paragraph v:horizAlign="1"/><v:tabList/>False</text>		</g>
		<g id="shape90-175" v:mID="90" v:groupContext="shape" transform="translate(283.89,-418.677)">
			<title>시트.90</title>
			<desc>Gear Fault 01 - Unbalance - Input Shaft</desc>
			<v:textBlock v:margins="rect(4,4,4,4)" v:tabSpace="42.5197"/>
			<v:textRect cx="141.52" cy="450.293" width="283.04" height="22.4037"/>
			<rect x="0" y="439.091" width="283.039" height="22.4037" class="st9"/>
			<text x="8.72" y="454.49" class="st10" v:langID="1033"><v:paragraph v:horizAlign="1"/><v:tabList/>Gear Fault 01 - Unbalance - Input Shaft</text>		</g>
	</g>
</svg>
