<?xml version="1.0" encoding="UTF-8" standalone="no"?>
<!DOCTYPE svg PUBLIC "-//W3C//DTD SVG 1.1//EN" "http://www.w3.org/Graphics/SVG/1.1/DTD/svg11.dtd">
<!-- Microsoft Visio, SVG Export에서 생성되었습니다. Gear__fault_04.svg Gear_ft03 -->
<svg xmlns="http://www.w3.org/2000/svg" xmlns:xlink="http://www.w3.org/1999/xlink" xmlns:ev="http://www.w3.org/2001/xml-events"
		xmlns:v="http://schemas.microsoft.com/visio/2003/SVGExtensions/" width="10.9307in" height="5.6404in"
		viewBox="0 0 787.009 406.109" xml:space="preserve" color-interpolation-filters="sRGB" class="st15">
	<v:documentProperties v:langID="1042" v:metric="true" v:viewMarkup="false">
		<v:userDefs>
			<v:ud v:nameU="msvNoAutoConnect" v:val="VT0(1):26"/>
		</v:userDefs>
	</v:documentProperties>

	<style type="text/css">
	<![CDATA[
		.st1 {stroke:#000000;stroke-linecap:round;stroke-linejoin:round;stroke-width:0.75}
		.st2 {fill:#ffffff;stroke:#000000;stroke-linecap:round;stroke-linejoin:round;stroke-width:0.75}
		.st3 {fill:#000000;font-family:맑은 고딕;font-size:0.666664em}
		.st4 {fill:none;stroke:none;stroke-linecap:round;stroke-linejoin:round;stroke-width:0.75}
		.st5 {fill:#000000;font-family:맑은 고딕;font-size:1.00001em}
		.st6 {font-size:1em}
		.st7 {stroke:#ff0000;stroke-linecap:round;stroke-linejoin:round;stroke-width:1}
		.st8 {fill:#ffffff;stroke:none;stroke-linecap:butt;stroke-width:7.2}
		.st9 {fill:#ff0000;font-family:맑은 고딕;font-size:0.833336em}
		.st10 {stroke:#0070c0;stroke-linecap:round;stroke-linejoin:round;stroke-width:1}
		.st11 {fill:#ffffff;stroke:none;stroke-linecap:butt}
		.st12 {fill:#0070c0;font-family:맑은 고딕;font-size:0.833336em}
		.st13 {fill:#ffffff;stroke:none;stroke-linecap:round;stroke-linejoin:round;stroke-width:0.75}
		.st14 {fill:#000000;font-family:맑은 고딕;font-size:1.16666em;font-weight:bold}
		.st15 {fill:none;fill-rule:evenodd;font-size:12px;overflow:visible;stroke-linecap:square;stroke-miterlimit:3}
	]]>
	</style>

	<g v:mID="29" v:index="4" v:groupContext="foregroundPage">
		<title>Gear_ft04_Bent Output Shaft</title>
		<v:pageProperties v:drawingScale="0.0393701" v:pageScale="0.0393701" v:drawingUnits="24" v:shadowOffsetX="8.50394"
				v:shadowOffsetY="-8.50394"/>
		<v:layer v:name="전기" v:index="0"/>
		<v:layer v:name="연결선" v:index="1"/>
		<g id="group1-1" transform="translate(457.477,-177.189)" v:mID="1" v:groupContext="group" v:layerMember="0">
			<v:custProps>
				<v:cp v:nameU="Input" v:lbl="입력 수" v:type="1" v:format="2;3;4;5" v:sortKey="2" v:langID="1042" v:val="VT4(2)"/>
				<v:cp v:nameU="Type" v:lbl="게이트 종류" v:type="1" v:format="OR;AND;NOR;NAND;XOR;XNOR" v:sortKey="1" v:langID="1042"
						v:val="VT4(AND)"/>
				<v:cp v:nameU="Out" v:lbl="출력 수" v:type="1" v:format="1;2;3" v:sortKey="3" v:langID="1042" v:val="VT4(1)"/>
				<v:cp v:nameU="Type" v:lbl="" v:prompt="" v:type="0" v:format="" v:sortKey="" v:invis="false" v:ask="false"
						v:langID="1033" v:cal="0" v:val="VT4(OR)"/>
			</v:custProps>
			<v:userDefs>
				<v:ud v:nameU="SubType" v:val="VT0(1):26"/>
				<v:ud v:nameU="Margin" v:val="VT0(0.059055118110236):24"/>
				<v:ud v:nameU="LimitHeight" v:val="VT0(0):26"/>
				<v:ud v:nameU="visVersion" v:val="VT0(15):26"/>
				<v:ud v:nameU="visDescription" v:val="VT4(여러 가지 모양의 논리 게이트를 나타냅니다.)"/>
				<v:ud v:nameU="SubType" v:prompt="" v:val="VT0(0):26"/>
				<v:ud v:nameU="Margin" v:prompt="" v:val="VT0(0.10887750927028):1"/>
			</v:userDefs>
			<title>논리 게이트 2.29</title>
			<desc>G1</desc>
			<g id="shape2-2" v:mID="2" v:groupContext="shape" v:layerMember="0" transform="translate(0,-7.83918)">
				<title>시트.2</title>
				<path d="M0 390.43 L31.36 390.43" class="st1"/>
				<path d="M0 406.11 L31.36 406.11" class="st1"/>
				<path d="M62.71 398.27 L31.36 398.27" class="st1"/>
			</g>
			<g id="shape3-7" v:mID="3" v:groupContext="shape" v:layerMember="0" transform="translate(10.9749,0)">
				<title>시트.3</title>
				<v:userDefs>
					<v:ud v:nameU="X" v:val="VT0(0.029527559055118):24"/>
					<v:ud v:nameU="X" v:prompt="" v:val="VT0(0.05443875463514):1"/>
				</v:userDefs>
				<path d="M40.76 390.43 A42.2229 25.8684 0 0 1 12.23 406.11 L0 406.11 A60.4952 37.0632 -180 0 0 0 374.75 L12.23 374.75
							 A41.6574 25.5219 0 0 1 40.76 390.43 Z" class="st2"/>
			</g>
			<g id="shape4-9" v:mID="4" v:groupContext="shape" v:layerMember="0" transform="translate(0,5.22612)">
				<title>시트.4</title>
			</g>
			<g id="shape5-11" v:mID="5" v:groupContext="shape" v:layerMember="0" transform="translate(42.4611,-3.93983)">
				<title>시트.5</title>
			</g>
			<g id="shape6-13" v:mID="6" v:groupContext="shape" v:layerMember="0" transform="translate(10.9749,0)">
				<title>시트.6</title>
			</g>
			<g id="shape1-15" v:mID="1" v:groupContext="groupContent" v:layerMember="0">
				<v:textBlock v:margins="rect(1,1,1,1)" v:tabSpace="42.5197"/>
				<v:textRect cx="31.3567" cy="411.911" width="14.84" height="11.6036"/>
				<text x="26.35" y="414.31" class="st3" v:langID="1042"><v:paragraph v:horizAlign="1"/><v:tabList/>G1</text>			</g>
		</g>
		<g id="shape7-17" v:mID="7" v:groupContext="shape" transform="translate(18.9656,-247.224)">
			<title>시트.7</title>
			<desc>Axial Harmonic Energy &#62; 70% Threshold Ref on Output Shaft</desc>
			<v:textBlock v:margins="rect(4,4,4,4)" v:tabSpace="42.5197"/>
			<v:textRect cx="169.552" cy="394.77" width="339.11" height="22.6772"/>
			<rect x="0" y="383.432" width="339.105" height="22.6772" class="st4"/>
			<text x="30.81" y="391.17" class="st5" v:langID="1033"><v:paragraph v:horizAlign="2"/><v:tabList/>Axial Harmonic Energy &#62; 70% Threshold Ref on Output <tspan
						x="307.47" dy="1.2em" class="st6">Shaft</tspan></text>		</g>
		<g id="shape12-21" v:mID="12" v:groupContext="shape" v:layerMember="0" transform="translate(403.125,-203.433)">
			<title>I/O 포트.36</title>
			<desc>Ans2</desc>
			<v:userDefs>
				<v:ud v:nameU="Form" v:val="VT0(0):26"/>
				<v:ud v:nameU="visVersion" v:val="VT0(15):26"/>
				<v:ud v:nameU="visDescription" v:val="VT4(단방향 또는 양방향 I/O 포트입니다. )"/>
			</v:userDefs>
			<v:textBlock v:margins="rect(1,1,1,1)" v:tabSpace="42.5197"/>
			<v:textRect cx="13.5879" cy="393.513" width="21.88" height="11.6036"/>
			<path d="M0 402.71 L0 399.31 L20.38 399.31 L27.18 402.71 L20.38 406.11 L0 406.11 L0 402.71 Z" class="st2"/>
			<text x="4.71" y="395.91" class="st3" v:langID="1042"><v:paragraph v:horizAlign="1"/><v:tabList/>Ans2</text>		</g>
		<g id="shape13-24" v:mID="13" v:groupContext="shape" v:layerMember="0" transform="translate(403.125,-152.239)">
			<title>I/O 포트.37</title>
			<desc>Ans3</desc>
			<v:userDefs>
				<v:ud v:nameU="Form" v:val="VT0(0):26"/>
				<v:ud v:nameU="visVersion" v:val="VT0(15):26"/>
				<v:ud v:nameU="visDescription" v:val="VT4(단방향 또는 양방향 I/O 포트입니다. )"/>
			</v:userDefs>
			<v:textBlock v:margins="rect(1,1,1,1)" v:tabSpace="42.5197"/>
			<v:textRect cx="13.5879" cy="393.513" width="21.88" height="11.6036"/>
			<path d="M0 402.71 L0 399.31 L20.38 399.31 L27.18 402.71 L20.38 406.11 L0 406.11 L0 402.71 Z" class="st2"/>
			<text x="4.71" y="395.91" class="st3" v:langID="1042"><v:paragraph v:horizAlign="1"/><v:tabList/>Ans3</text>		</g>
		<g id="shape14-27" v:mID="14" v:groupContext="shape" v:layerMember="1" transform="translate(430.301,-210.855)">
			<title>동적 연결선.73</title>
			<desc>False</desc>
			<v:textBlock v:margins="rect(4,4,4,4)" v:tabSpace="42.5197"/>
			<v:textRect cx="10.6299" cy="416.154" width="50" height="20.0036"/>
			<path d="M0 410.13 L10.63 410.13 L10.63 416.26 L27.18 416.26" class="st7"/>
			<rect v:rectContext="textBkgnd" x="-0.534721" y="410.154" width="22.3292" height="12.0001" class="st8"/>
			<text x="-0.53" y="419.15" class="st9" v:langID="1042"><v:paragraph v:horizAlign="1"/><v:tabList/>False</text>		</g>
		<g id="shape15-32" v:mID="15" v:groupContext="shape" v:layerMember="1" transform="translate(430.301,-155.636)">
			<title>동적 연결선.74</title>
			<desc>True</desc>
			<v:textBlock v:margins="rect(4,4,4,4)" v:tabSpace="42.5197"/>
			<v:textRect cx="10.6299" cy="388.455" width="50" height="20.0036"/>
			<path d="M0 406.11 L10.63 406.11 L10.63 376.72 L27.18 376.72" class="st10"/>
			<rect v:rectContext="textBkgnd" x="0.627358" y="382.455" width="20.005" height="12.0001" class="st11"/>
			<text x="0.63" y="391.46" class="st12" v:langID="1042"><v:paragraph v:horizAlign="1"/><v:tabList/>True</text>		</g>
		<g id="group16-37" transform="translate(539.954,-221.131)" v:mID="16" v:groupContext="group" v:layerMember="0">
			<v:custProps>
				<v:cp v:nameU="Input" v:lbl="입력 수" v:type="1" v:format="2;3;4;5" v:sortKey="2" v:langID="1042" v:val="VT4(2)"/>
				<v:cp v:nameU="Type" v:lbl="게이트 종류" v:type="1" v:format="OR;AND;NOR;NAND;XOR;XNOR" v:sortKey="1" v:langID="1042"
						v:val="VT4(AND)"/>
				<v:cp v:nameU="Out" v:lbl="출력 수" v:type="1" v:format="1;2;3" v:sortKey="3" v:langID="1042" v:val="VT4(1)"/>
			</v:custProps>
			<v:userDefs>
				<v:ud v:nameU="SubType" v:val="VT0(1):26"/>
				<v:ud v:nameU="Margin" v:val="VT0(0.059055118110236):24"/>
				<v:ud v:nameU="LimitHeight" v:val="VT0(0):26"/>
				<v:ud v:nameU="visVersion" v:val="VT0(15):26"/>
				<v:ud v:nameU="visDescription" v:val="VT4(여러 가지 모양의 논리 게이트를 나타냅니다.)"/>
				<v:ud v:nameU="Margin" v:prompt="" v:val="VT0(0.10887750927028):1"/>
			</v:userDefs>
			<title>논리 게이트 2.113</title>
			<desc>G3</desc>
			<g id="shape17-38" v:mID="17" v:groupContext="shape" v:layerMember="0" transform="translate(0,-7.83918)">
				<title>시트.17</title>
				<path d="M0 390.43 L31.36 390.43" class="st1"/>
				<path d="M0 406.11 L31.36 406.11" class="st1"/>
				<path d="M62.71 398.27 L31.36 398.27" class="st1"/>
			</g>
			<g id="shape18-43" v:mID="18" v:groupContext="shape" v:layerMember="0" transform="translate(10.9749,0)">
				<title>시트.18</title>
				<v:userDefs>
					<v:ud v:nameU="X" v:val="VT0(0.029527559055118):24"/>
					<v:ud v:nameU="X" v:prompt="" v:val="VT0(0.05443875463514):1"/>
				</v:userDefs>
				<path d="M40.76 390.43 A42.2229 25.8684 0 0 1 12.23 406.11 L0 406.11 A60.4952 37.0632 -180 0 0 0 374.75 L12.23 374.75
							 A41.6574 25.5219 0 0 1 40.76 390.43 Z" class="st2"/>
			</g>
			<g id="shape19-45" v:mID="19" v:groupContext="shape" v:layerMember="0" transform="translate(0,5.22612)">
				<title>시트.19</title>
			</g>
			<g id="shape20-47" v:mID="20" v:groupContext="shape" v:layerMember="0" transform="translate(42.4611,-3.93983)">
				<title>시트.20</title>
			</g>
			<g id="shape21-49" v:mID="21" v:groupContext="shape" v:layerMember="0" transform="translate(10.9749,0)">
				<title>시트.21</title>
				<path d="M25.09 406.11 L0 406.11 L0 374.75 L25.09 374.75 A15.6784 15.6784 0 0 1 25.09 406.11 Z" class="st2"/>
			</g>
			<g id="shape16-51" v:mID="16" v:groupContext="groupContent" v:layerMember="0">
				<v:textBlock v:margins="rect(1,1,1,1)" v:tabSpace="42.5197"/>
				<v:textRect cx="31.3567" cy="411.911" width="14.14" height="11.6036"/>
				<text x="26.35" y="414.31" class="st3" v:langID="1042"><v:paragraph v:horizAlign="1"/><v:tabList/>G3</text>			</g>
		</g>
		<g id="shape44-53" v:mID="44" v:groupContext="shape" v:layerMember="0" transform="translate(403.125,-254.627)">
			<title>I/O 포트.44</title>
			<desc>Ans1</desc>
			<v:userDefs>
				<v:ud v:nameU="Form" v:val="VT0(0):26"/>
				<v:ud v:nameU="visVersion" v:val="VT0(15):26"/>
				<v:ud v:nameU="visDescription" v:val="VT4(단방향 또는 양방향 I/O 포트입니다. )"/>
			</v:userDefs>
			<v:textBlock v:margins="rect(1,1,1,1)" v:tabSpace="42.5197"/>
			<v:textRect cx="13.5879" cy="393.513" width="21.88" height="11.6036"/>
			<path d="M0 402.71 L0 399.31 L20.38 399.31 L27.18 402.71 L20.38 406.11 L0 406.11 L0 402.71 Z" class="st2"/>
			<text x="4.71" y="395.91" class="st3" v:langID="1042"><v:paragraph v:horizAlign="1"/><v:tabList/>Ans1</text>		</g>
		<g id="shape45-56" v:mID="45" v:groupContext="shape" v:layerMember="0" transform="translate(403.125,-101.045)">
			<title>I/O 포트.45</title>
			<desc>Ans4</desc>
			<v:userDefs>
				<v:ud v:nameU="Form" v:val="VT0(0):26"/>
				<v:ud v:nameU="visVersion" v:val="VT0(15):26"/>
				<v:ud v:nameU="visDescription" v:val="VT4(단방향 또는 양방향 I/O 포트입니다. )"/>
			</v:userDefs>
			<v:textBlock v:margins="rect(1,1,1,1)" v:tabSpace="42.5197"/>
			<v:textRect cx="13.5879" cy="393.513" width="21.88" height="11.6036"/>
			<path d="M0 402.71 L0 399.31 L20.38 399.31 L27.18 402.71 L20.38 406.11 L0 406.11 L0 402.71 Z" class="st2"/>
			<text x="4.71" y="395.91" class="st3" v:langID="1042"><v:paragraph v:horizAlign="1"/><v:tabList/>Ans4</text>		</g>
		<g id="shape46-59" v:mID="46" v:groupContext="shape" v:layerMember="0" transform="translate(403.125,-49.8512)">
			<title>I/O 포트.46</title>
			<desc>Ans5</desc>
			<v:userDefs>
				<v:ud v:nameU="Form" v:val="VT0(0):26"/>
				<v:ud v:nameU="visVersion" v:val="VT0(15):26"/>
				<v:ud v:nameU="visDescription" v:val="VT4(단방향 또는 양방향 I/O 포트입니다. )"/>
			</v:userDefs>
			<v:textBlock v:margins="rect(1,1,1,1)" v:tabSpace="42.5197"/>
			<v:textRect cx="13.5879" cy="393.513" width="21.88" height="11.6036"/>
			<path d="M0 402.71 L0 399.31 L20.38 399.31 L27.18 402.71 L20.38 406.11 L0 406.11 L0 402.71 Z" class="st2"/>
			<text x="4.71" y="395.91" class="st3" v:langID="1042"><v:paragraph v:horizAlign="1"/><v:tabList/>Ans5</text>		</g>
		<g id="group47-62" transform="translate(457.477,-70.5234)" v:mID="47" v:groupContext="group" v:layerMember="0">
			<v:custProps>
				<v:cp v:nameU="Input" v:lbl="입력 수" v:type="1" v:format="2;3;4;5" v:sortKey="2" v:langID="1042" v:val="VT4(2)"/>
				<v:cp v:nameU="Type" v:lbl="게이트 종류" v:type="1" v:format="OR;AND;NOR;NAND;XOR;XNOR" v:sortKey="1" v:langID="1042"
						v:val="VT4(AND)"/>
				<v:cp v:nameU="Out" v:lbl="출력 수" v:type="1" v:format="1;2;3" v:sortKey="3" v:langID="1042" v:val="VT4(1)"/>
			</v:custProps>
			<v:userDefs>
				<v:ud v:nameU="SubType" v:val="VT0(1):26"/>
				<v:ud v:nameU="Margin" v:val="VT0(0.059055118110236):24"/>
				<v:ud v:nameU="LimitHeight" v:val="VT0(0):26"/>
				<v:ud v:nameU="visVersion" v:val="VT0(15):26"/>
				<v:ud v:nameU="visDescription" v:val="VT4(여러 가지 모양의 논리 게이트를 나타냅니다.)"/>
				<v:ud v:nameU="Margin" v:prompt="" v:val="VT0(0.10887750927028):1"/>
			</v:userDefs>
			<title>논리 게이트 2.47</title>
			<desc>G2</desc>
			<g id="shape48-63" v:mID="48" v:groupContext="shape" v:layerMember="0" transform="translate(0,-7.83918)">
				<title>시트.48</title>
				<path d="M0 390.43 L31.36 390.43" class="st1"/>
				<path d="M0 406.11 L31.36 406.11" class="st1"/>
				<path d="M62.71 398.27 L31.36 398.27" class="st1"/>
			</g>
			<g id="shape49-68" v:mID="49" v:groupContext="shape" v:layerMember="0" transform="translate(10.9749,0)">
				<title>시트.49</title>
				<v:userDefs>
					<v:ud v:nameU="X" v:val="VT0(0.029527559055118):24"/>
					<v:ud v:nameU="X" v:prompt="" v:val="VT0(0.05443875463514):1"/>
				</v:userDefs>
				<path d="M40.76 390.43 A42.2229 25.8684 0 0 1 12.23 406.11 L0 406.11 A60.4952 37.0632 -180 0 0 0 374.75 L12.23 374.75
							 A41.6574 25.5219 0 0 1 40.76 390.43 Z" class="st2"/>
			</g>
			<g id="shape50-70" v:mID="50" v:groupContext="shape" v:layerMember="0" transform="translate(0,5.22612)">
				<title>시트.50</title>
			</g>
			<g id="shape51-72" v:mID="51" v:groupContext="shape" v:layerMember="0" transform="translate(42.4611,-3.93983)">
				<title>시트.51</title>
			</g>
			<g id="shape52-74" v:mID="52" v:groupContext="shape" v:layerMember="0" transform="translate(10.9749,0)">
				<title>시트.52</title>
				<path d="M25.09 406.11 L0 406.11 L0 374.75 L25.09 374.75 A15.6784 15.6784 0 0 1 25.09 406.11 Z" class="st2"/>
			</g>
			<g id="shape47-76" v:mID="47" v:groupContext="groupContent" v:layerMember="0">
				<v:textBlock v:margins="rect(1,1,1,1)" v:tabSpace="42.5197"/>
				<v:textRect cx="31.3567" cy="411.911" width="14.14" height="11.6036"/>
				<text x="26.35" y="414.31" class="st3" v:langID="1042"><v:paragraph v:horizAlign="1"/><v:tabList/>G2</text>			</g>
		</g>
		<g id="group53-78" transform="translate(631.174,-139.958)" v:mID="53" v:groupContext="group" v:layerMember="0">
			<v:custProps>
				<v:cp v:nameU="Input" v:lbl="입력 수" v:type="1" v:format="2;3;4;5" v:sortKey="2" v:langID="1042" v:val="VT4(2)"/>
				<v:cp v:nameU="Type" v:lbl="게이트 종류" v:type="1" v:format="OR;AND;NOR;NAND;XOR;XNOR" v:sortKey="1" v:langID="1042"
						v:val="VT4(AND)"/>
				<v:cp v:nameU="Out" v:lbl="출력 수" v:type="1" v:format="1;2;3" v:sortKey="3" v:langID="1042" v:val="VT4(1)"/>
			</v:custProps>
			<v:userDefs>
				<v:ud v:nameU="SubType" v:val="VT0(1):26"/>
				<v:ud v:nameU="Margin" v:val="VT0(0.059055118110236):24"/>
				<v:ud v:nameU="LimitHeight" v:val="VT0(0):26"/>
				<v:ud v:nameU="visVersion" v:val="VT0(15):26"/>
				<v:ud v:nameU="visDescription" v:val="VT4(여러 가지 모양의 논리 게이트를 나타냅니다.)"/>
				<v:ud v:nameU="Margin" v:prompt="" v:val="VT0(0.10887750927028):1"/>
			</v:userDefs>
			<title>논리 게이트 2.53</title>
			<desc>G4</desc>
			<g id="shape54-79" v:mID="54" v:groupContext="shape" v:layerMember="0" transform="translate(0,-7.83918)">
				<title>시트.54</title>
				<path d="M0 390.43 L31.36 390.43" class="st1"/>
				<path d="M0 406.11 L31.36 406.11" class="st1"/>
				<path d="M62.71 398.27 L31.36 398.27" class="st1"/>
			</g>
			<g id="shape55-84" v:mID="55" v:groupContext="shape" v:layerMember="0" transform="translate(10.9749,0)">
				<title>시트.55</title>
				<v:userDefs>
					<v:ud v:nameU="X" v:val="VT0(0.029527559055118):24"/>
					<v:ud v:nameU="X" v:prompt="" v:val="VT0(0.05443875463514):1"/>
				</v:userDefs>
				<path d="M40.76 390.43 A42.2229 25.8684 0 0 1 12.23 406.11 L0 406.11 A60.4952 37.0632 -180 0 0 0 374.75 L12.23 374.75
							 A41.6574 25.5219 0 0 1 40.76 390.43 Z" class="st2"/>
			</g>
			<g id="shape56-86" v:mID="56" v:groupContext="shape" v:layerMember="0" transform="translate(0,5.22612)">
				<title>시트.56</title>
			</g>
			<g id="shape57-88" v:mID="57" v:groupContext="shape" v:layerMember="0" transform="translate(42.4611,-3.93983)">
				<title>시트.57</title>
			</g>
			<g id="shape58-90" v:mID="58" v:groupContext="shape" v:layerMember="0" transform="translate(10.9749,0)">
				<title>시트.58</title>
				<path d="M25.09 406.11 L0 406.11 L0 374.75 L25.09 374.75 A15.6784 15.6784 0 0 1 25.09 406.11 Z" class="st2"/>
			</g>
			<g id="shape53-92" v:mID="53" v:groupContext="groupContent" v:layerMember="0">
				<v:textBlock v:margins="rect(1,1,1,1)" v:tabSpace="42.5197"/>
				<v:textRect cx="31.3567" cy="411.911" width="14.14" height="11.6036"/>
				<text x="26.35" y="414.31" class="st3" v:langID="1042"><v:paragraph v:horizAlign="1"/><v:tabList/>G4</text>			</g>
		</g>
		<g id="shape59-94" v:mID="59" v:groupContext="shape" v:layerMember="0" transform="translate(724.611,-152.239)">
			<title>I/O 포트.59</title>
			<desc>Bent Output Shaft</desc>
			<v:userDefs>
				<v:ud v:nameU="Form" v:val="VT0(0):26"/>
				<v:ud v:nameU="visVersion" v:val="VT0(15):26"/>
				<v:ud v:nameU="visDescription" v:val="VT4(단방향 또는 양방향 I/O 포트입니다. )"/>
			</v:userDefs>
			<v:textBlock v:margins="rect(1,1,1,1)" v:tabSpace="42.5197"/>
			<v:textRect cx="8.92189" cy="417.108" width="70.96" height="11.6036"/>
			<path d="M0 402.71 L0 399.31 L20.38 399.31 L27.18 402.71 L20.38 406.11 L0 406.11 L0 402.71 Z" class="st2"/>
			<text x="-24.15" y="419.51" class="st3" v:langID="1033"><v:paragraph v:horizAlign="1"/><v:tabList/>Bent Output Shaft</text>		</g>
		<g id="shape60-97" v:mID="60" v:groupContext="shape" v:layerMember="1" transform="translate(430.301,-258.423)">
			<title>동적 연결선</title>
			<desc>True</desc>
			<v:textBlock v:margins="rect(4,4,4,4)" v:tabSpace="42.5197"/>
			<v:textRect cx="48.1388" cy="419.883" width="50" height="20.0036"/>
			<path d="M0 406.51 L10.63 406.51 L10.63 419.88 L109.65 419.88" class="st10"/>
			<rect v:rectContext="textBkgnd" x="38.1363" y="413.884" width="20.005" height="12.0001" class="st8"/>
			<text x="38.14" y="422.88" class="st12" v:langID="1042"><v:paragraph v:horizAlign="1"/><v:tabList/>True</text>		</g>
		<g id="shape61-102" v:mID="61" v:groupContext="shape" v:layerMember="1" transform="translate(520.19,-192.867)">
			<title>동적 연결선.61</title>
			<desc>True</desc>
			<v:textBlock v:margins="rect(4,4,4,4)" v:tabSpace="42.5197"/>
			<v:textRect cx="10.6299" cy="388.805" width="50" height="20.0036"/>
			<path d="M0 406.11 L10.63 406.11 L10.63 370.01 L19.76 370.01" class="st10"/>
			<rect v:rectContext="textBkgnd" x="0.627358" y="382.806" width="20.005" height="12.0001" class="st8"/>
			<text x="0.63" y="391.81" class="st12" v:langID="1042"><v:paragraph v:horizAlign="1"/><v:tabList/>True</text>		</g>
		<g id="shape62-107" v:mID="62" v:groupContext="shape" v:layerMember="1" transform="translate(602.668,-236.809)">
			<title>동적 연결선.62</title>
			<desc>True</desc>
			<v:textBlock v:margins="rect(4,4,4,4)" v:tabSpace="42.5197"/>
			<v:textRect cx="10.6299" cy="446.399" width="50" height="20.0036"/>
			<path d="M0 406.11 L10.63 406.11 L10.63 479.44 L28.51 479.44" class="st10"/>
			<rect v:rectContext="textBkgnd" x="0.627358" y="440.399" width="20.005" height="12.0001" class="st8"/>
			<text x="0.63" y="449.4" class="st12" v:langID="1042"><v:paragraph v:horizAlign="1"/><v:tabList/>True</text>		</g>
		<g id="shape63-112" v:mID="63" v:groupContext="shape" v:layerMember="1" transform="translate(430.301,-106.328)">
			<title>동적 연결선.63</title>
			<desc>True</desc>
			<v:textBlock v:margins="rect(4,4,4,4)" v:tabSpace="42.5197"/>
			<v:textRect cx="10.6299" cy="416.154" width="50" height="20.0036"/>
			<path d="M0 407.99 L10.63 407.99 L10.63 418.4 L27.18 418.4" class="st10"/>
			<rect v:rectContext="textBkgnd" x="0.627358" y="410.154" width="20.005" height="12.0001" class="st8"/>
			<text x="0.63" y="419.15" class="st12" v:langID="1042"><v:paragraph v:horizAlign="1"/><v:tabList/>True</text>		</g>
		<g id="shape64-117" v:mID="64" v:groupContext="shape" v:layerMember="1" transform="translate(430.301,-53.2482)">
			<title>동적 연결선.64</title>
			<desc>True</desc>
			<v:textBlock v:margins="rect(4,4,4,4)" v:tabSpace="42.5197"/>
			<v:textRect cx="10.6299" cy="390.594" width="50" height="20.0036"/>
			<path d="M0 406.11 L10.63 406.11 L10.63 380.99 L27.18 380.99" class="st10"/>
			<rect v:rectContext="textBkgnd" x="0.627358" y="384.594" width="20.005" height="12.0001" class="st8"/>
			<text x="0.63" y="393.59" class="st12" v:langID="1042"><v:paragraph v:horizAlign="1"/><v:tabList/>True</text>		</g>
		<g id="shape66-122" v:mID="66" v:groupContext="shape" v:layerMember="1" transform="translate(520.19,-86.2018)">
			<title>동적 연결선.66</title>
			<desc>True</desc>
			<v:textBlock v:margins="rect(4,4,4,4)" v:tabSpace="42.5197"/>
			<v:textRect cx="24.6943" cy="344.514" width="50" height="20.0036"/>
			<path d="M0 406.11 L10.63 406.11 L10.63 344.51 L110.98 344.51" class="st10"/>
			<rect v:rectContext="textBkgnd" x="14.6917" y="338.514" width="20.005" height="12.0001" class="st8"/>
			<text x="14.69" y="347.51" class="st12" v:langID="1042"><v:paragraph v:horizAlign="1"/><v:tabList/>True</text>		</g>
		<g id="shape67-127" v:mID="67" v:groupContext="shape" v:layerMember="1" transform="translate(693.887,-148.55)">
			<title>동적 연결선.67</title>
			<desc>True</desc>
			<v:textBlock v:margins="rect(4,4,4,4)" v:tabSpace="42.5197"/>
			<v:textRect cx="15.3616" cy="399.022" width="50" height="20.0036"/>
			<path d="M0 399.02 L30.72 399.02" class="st10"/>
			<rect v:rectContext="textBkgnd" x="5.35906" y="393.023" width="20.005" height="12.0001" class="st8"/>
			<text x="5.36" y="402.02" class="st12" v:langID="1042"><v:paragraph v:horizAlign="1"/><v:tabList/>True</text>		</g>
		<g id="shape68-132" v:mID="68" v:groupContext="shape" transform="translate(18.9656,-195.896)">
			<title>시트.68</title>
			<desc>Axial Harmonic Energy &#62; 50% Horiz Harmonic Energy</desc>
			<v:textBlock v:margins="rect(4,4,4,4)" v:tabSpace="42.5197"/>
			<v:textRect cx="169.552" cy="394.77" width="339.11" height="22.6772"/>
			<rect x="0" y="383.432" width="339.105" height="22.6772" class="st4"/>
			<text x="40.8" y="398.37" class="st5" v:langID="1033"><v:paragraph v:horizAlign="2"/><v:tabList/>Axial Harmonic Energy &#62; 50% Horiz Harmonic Energy</text>		</g>
		<g id="shape69-135" v:mID="69" v:groupContext="shape" transform="translate(18.9656,-144.567)">
			<title>시트.69</title>
			<desc>Axial Harmonic Energy &#62; 50% Vert Harmonic Energy</desc>
			<v:textBlock v:margins="rect(4,4,4,4)" v:tabSpace="42.5197"/>
			<v:textRect cx="169.552" cy="394.77" width="339.11" height="22.6772"/>
			<rect x="0" y="383.432" width="339.105" height="22.6772" class="st4"/>
			<text x="47.01" y="398.37" class="st5" v:langID="1033"><v:paragraph v:horizAlign="2"/><v:tabList/>Axial Harmonic Energy &#62; 50% Vert Harmonic Energy</text>		</g>
		<g id="shape70-138" v:mID="70" v:groupContext="shape" transform="translate(18.9656,-93.2383)">
			<title>시트.70</title>
			<desc>Axial 1xRPM / Vert 1xRPM &#60;=5.0 on Output Shaft</desc>
			<v:textBlock v:margins="rect(4,4,4,4)" v:tabSpace="42.5197"/>
			<v:textRect cx="169.552" cy="394.77" width="339.11" height="22.6772"/>
			<rect x="0" y="383.432" width="339.105" height="22.6772" class="st4"/>
			<text x="60.79" y="398.37" class="st5" v:langID="1033"><v:paragraph v:horizAlign="2"/><v:tabList/>Axial 1xRPM / Vert 1xRPM &#60;=5.0 on Output Shaft</text>		</g>
		<g id="shape71-141" v:mID="71" v:groupContext="shape" transform="translate(18.375,-41.9096)">
			<title>시트.71</title>
			<desc>Axial 1xRPM / Horiz 1xRPM &#60;=5.0 on Output Shaft</desc>
			<v:textBlock v:margins="rect(4,4,4,4)" v:tabSpace="42.5197"/>
			<v:textRect cx="169.552" cy="394.77" width="339.11" height="22.6772"/>
			<rect x="0" y="383.432" width="339.105" height="22.6772" class="st4"/>
			<text x="54.58" y="398.37" class="st5" v:langID="1033"><v:paragraph v:horizAlign="2"/><v:tabList/>Axial 1xRPM / Horiz 1xRPM &#60;=5.0 on Output Shaft</text>		</g>
		<g id="shape72-144" v:mID="72" v:groupContext="shape" transform="translate(257.074,-363.35)">
			<title>시트.72</title>
			<desc>Gear Fault 04 - Bent Output Shaft</desc>
			<v:textBlock v:margins="rect(4,4,4,4)" v:tabSpace="42.5197"/>
			<v:textRect cx="119.495" cy="394.907" width="238.99" height="22.4037"/>
			<rect x="0" y="383.705" width="238.989" height="22.4037" class="st13"/>
			<text x="5.64" y="399.11" class="st14" v:langID="1033"><v:paragraph v:horizAlign="1"/><v:tabList/>Gear Fault 04 - Bent Output Shaft</text>		</g>
	</g>
</svg>
