<?xml version="1.0" encoding="UTF-8" standalone="no"?>
<!DOCTYPE svg PUBLIC "-//W3C//DTD SVG 1.1//EN" "http://www.w3.org/Graphics/SVG/1.1/DTD/svg11.dtd">
<!-- Microsoft Visio, SVG Export에서 생성되었습니다. Gear__fault_08.svg Gear_ft08_ -->
<svg xmlns="http://www.w3.org/2000/svg" xmlns:xlink="http://www.w3.org/1999/xlink" xmlns:ev="http://www.w3.org/2001/xml-events"
		xmlns:v="http://schemas.microsoft.com/visio/2003/SVGExtensions/" width="11.3355in" height="6.99554in"
		viewBox="0 0 816.156 503.679" xml:space="preserve" color-interpolation-filters="sRGB" class="st12">
	<v:documentProperties v:langID="1042" v:metric="true" v:viewMarkup="false">
		<v:userDefs>
			<v:ud v:nameU="msvNoAutoConnect" v:val="VT0(1):26"/>
		</v:userDefs>
	</v:documentProperties>

	<style type="text/css">
	<![CDATA[
		.st1 {stroke:#000000;stroke-linecap:round;stroke-linejoin:round;stroke-width:0.75}
		.st2 {fill:#ffffff;stroke:#000000;stroke-linecap:round;stroke-linejoin:round;stroke-width:0.75}
		.st3 {fill:#000000;font-family:맑은 고딕;font-size:0.666664em}
		.st4 {fill:none;stroke:none;stroke-linecap:round;stroke-linejoin:round;stroke-width:0.75}
		.st5 {fill:#000000;font-family:맑은 고딕;font-size:1.00001em}
		.st6 {stroke:#0070c0;stroke-linecap:round;stroke-linejoin:round;stroke-width:1}
		.st7 {fill:#ffffff;stroke:none;stroke-linecap:butt;stroke-width:7.2}
		.st8 {fill:#0070c0;font-family:맑은 고딕;font-size:0.666664em}
		.st9 {fill:#0070c0;font-family:맑은 고딕;font-size:0.833336em}
		.st10 {fill:#ffffff;stroke:none;stroke-linecap:round;stroke-linejoin:round;stroke-width:0.75}
		.st11 {fill:#000000;font-family:맑은 고딕;font-size:1.16666em;font-weight:bold}
		.st12 {fill:none;fill-rule:evenodd;font-size:12px;overflow:visible;stroke-linecap:square;stroke-miterlimit:3}
	]]>
	</style>

	<g v:mID="33" v:index="8" v:groupContext="foregroundPage">
		<title>Gear_ft08_Looseness - Structural (Type A)</title>
		<v:pageProperties v:drawingScale="0.0393701" v:pageScale="0.0393701" v:drawingUnits="24" v:shadowOffsetX="8.50394"
				v:shadowOffsetY="-8.50394"/>
		<v:layer v:name="전기" v:index="0"/>
		<v:layer v:name="연결선" v:index="1"/>
		<g id="group1-1" transform="translate(405.003,-319.465)" v:mID="1" v:groupContext="group" v:layerMember="0">
			<v:custProps>
				<v:cp v:nameU="Input" v:lbl="입력 수" v:type="1" v:format="2;3;4;5" v:sortKey="2" v:langID="1042" v:val="VT4(2)"/>
				<v:cp v:nameU="Type" v:lbl="게이트 종류" v:type="1" v:format="OR;AND;NOR;NAND;XOR;XNOR" v:sortKey="1" v:langID="1042"
						v:val="VT4(AND)"/>
				<v:cp v:nameU="Out" v:lbl="출력 수" v:type="1" v:format="1;2;3" v:sortKey="3" v:langID="1042" v:val="VT4(1)"/>
				<v:cp v:nameU="Type" v:lbl="" v:prompt="" v:type="0" v:format="" v:sortKey="" v:invis="false" v:ask="false"
						v:langID="1033" v:cal="0" v:val="VT4(OR)"/>
			</v:custProps>
			<v:userDefs>
				<v:ud v:nameU="SubType" v:val="VT0(1):26"/>
				<v:ud v:nameU="Margin" v:val="VT0(0.059055118110236):24"/>
				<v:ud v:nameU="LimitHeight" v:val="VT0(0):26"/>
				<v:ud v:nameU="visVersion" v:val="VT0(15):26"/>
				<v:ud v:nameU="visDescription" v:val="VT4(여러 가지 모양의 논리 게이트를 나타냅니다.)"/>
				<v:ud v:nameU="SubType" v:prompt="" v:val="VT0(0):26"/>
				<v:ud v:nameU="Margin" v:prompt="" v:val="VT0(0.10887750927028):1"/>
			</v:userDefs>
			<title>논리 게이트 2.29</title>
			<desc>G1</desc>
			<g id="shape2-2" v:mID="2" v:groupContext="shape" v:layerMember="0" transform="translate(0,-7.83918)">
				<title>시트.2</title>
				<path d="M0 488 L31.36 488" class="st1"/>
				<path d="M0 503.68 L31.36 503.68" class="st1"/>
				<path d="M62.71 495.84 L31.36 495.84" class="st1"/>
			</g>
			<g id="shape3-7" v:mID="3" v:groupContext="shape" v:layerMember="0" transform="translate(10.9749,0)">
				<title>시트.3</title>
				<v:userDefs>
					<v:ud v:nameU="X" v:val="VT0(0.029527559055118):24"/>
					<v:ud v:nameU="X" v:prompt="" v:val="VT0(0.05443875463514):1"/>
				</v:userDefs>
				<path d="M40.76 488 A42.2229 25.8684 0 0 1 12.23 503.68 L0 503.68 A60.4952 37.0632 -180 0 0 0 472.32 L12.23 472.32
							 A41.6574 25.5219 0 0 1 40.76 488 Z" class="st2"/>
			</g>
			<g id="shape4-9" v:mID="4" v:groupContext="shape" v:layerMember="0" transform="translate(0,5.22612)">
				<title>시트.4</title>
			</g>
			<g id="shape5-11" v:mID="5" v:groupContext="shape" v:layerMember="0" transform="translate(42.4611,-3.93983)">
				<title>시트.5</title>
			</g>
			<g id="shape6-13" v:mID="6" v:groupContext="shape" v:layerMember="0" transform="translate(10.9749,0)">
				<title>시트.6</title>
			</g>
			<g id="shape1-15" v:mID="1" v:groupContext="groupContent" v:layerMember="0">
				<v:textBlock v:margins="rect(1,1,1,1)" v:tabSpace="42.5197"/>
				<v:textRect cx="31.3567" cy="509.481" width="14.84" height="11.6036"/>
				<text x="26.35" y="511.88" class="st3" v:langID="1042"><v:paragraph v:horizAlign="1"/><v:tabList/>G1</text>			</g>
		</g>
		<g id="shape7-17" v:mID="7" v:groupContext="shape" transform="translate(18,-343.087)">
			<title>시트.7</title>
			<desc>Horiz 1xRPM &#62; 80% Overall Alarm on Input Shaft</desc>
			<v:textBlock v:margins="rect(4,4,4,4)" v:tabSpace="42.5197"/>
			<v:textRect cx="149.006" cy="492.341" width="298.02" height="22.6772"/>
			<rect x="0" y="481.002" width="298.013" height="22.6772" class="st4"/>
			<text x="22.56" y="495.94" class="st5" v:langID="1033"><v:paragraph v:horizAlign="2"/><v:tabList/>Horiz 1xRPM &#62; 80% Overall Alarm on Input Shaft</text>		</g>
		<g id="shape11-20" v:mID="11" v:groupContext="shape" v:layerMember="1" transform="translate(359.131,-307.924)">
			<title>동적 연결선.74</title>
			<desc>True</desc>
			<v:textBlock v:margins="rect(4,4,4,4)" v:tabSpace="42.5197"/>
			<v:textRect cx="13.2464" cy="484.3" width="40" height="17.6036"/>
			<path d="M0 503.68 L10.63 503.68 L10.63 484.3 L45.87 484.3" class="st6"/>
			<rect v:rectContext="textBkgnd" x="5.24461" y="479.5" width="16.0038" height="9.59985" class="st7"/>
			<text x="5.24" y="486.7" class="st8" v:langID="1042"><v:paragraph v:horizAlign="1"/><v:tabList/>True</text>		</g>
		<g id="group12-25" transform="translate(496.063,-273.935)" v:mID="12" v:groupContext="group" v:layerMember="0">
			<v:custProps>
				<v:cp v:nameU="Input" v:lbl="입력 수" v:type="1" v:format="2;3;4;5" v:sortKey="2" v:langID="1042" v:val="VT4(2)"/>
				<v:cp v:nameU="Type" v:lbl="게이트 종류" v:type="1" v:format="OR;AND;NOR;NAND;XOR;XNOR" v:sortKey="1" v:langID="1042"
						v:val="VT4(AND)"/>
				<v:cp v:nameU="Out" v:lbl="출력 수" v:type="1" v:format="1;2;3" v:sortKey="3" v:langID="1042" v:val="VT4(1)"/>
			</v:custProps>
			<v:userDefs>
				<v:ud v:nameU="SubType" v:val="VT0(1):26"/>
				<v:ud v:nameU="Margin" v:val="VT0(0.059055118110236):24"/>
				<v:ud v:nameU="LimitHeight" v:val="VT0(0):26"/>
				<v:ud v:nameU="visVersion" v:val="VT0(15):26"/>
				<v:ud v:nameU="visDescription" v:val="VT4(여러 가지 모양의 논리 게이트를 나타냅니다.)"/>
				<v:ud v:nameU="Margin" v:prompt="" v:val="VT0(0.10887750927028):1"/>
			</v:userDefs>
			<title>논리 게이트 2.113</title>
			<desc>G4</desc>
			<g id="shape13-26" v:mID="13" v:groupContext="shape" v:layerMember="0" transform="translate(0,-7.83918)">
				<title>시트.13</title>
				<path d="M0 488 L31.36 488" class="st1"/>
				<path d="M0 503.68 L31.36 503.68" class="st1"/>
				<path d="M62.71 495.84 L31.36 495.84" class="st1"/>
			</g>
			<g id="shape14-31" v:mID="14" v:groupContext="shape" v:layerMember="0" transform="translate(10.9749,0)">
				<title>시트.14</title>
				<v:userDefs>
					<v:ud v:nameU="X" v:val="VT0(0.029527559055118):24"/>
					<v:ud v:nameU="X" v:prompt="" v:val="VT0(0.05443875463514):1"/>
				</v:userDefs>
				<path d="M40.76 488 A42.2229 25.8684 0 0 1 12.23 503.68 L0 503.68 A60.4952 37.0632 -180 0 0 0 472.32 L12.23 472.32
							 A41.6574 25.5219 0 0 1 40.76 488 Z" class="st2"/>
			</g>
			<g id="shape15-33" v:mID="15" v:groupContext="shape" v:layerMember="0" transform="translate(0,5.22612)">
				<title>시트.15</title>
			</g>
			<g id="shape16-35" v:mID="16" v:groupContext="shape" v:layerMember="0" transform="translate(42.4611,-3.93983)">
				<title>시트.16</title>
			</g>
			<g id="shape17-37" v:mID="17" v:groupContext="shape" v:layerMember="0" transform="translate(10.9749,0)">
				<title>시트.17</title>
				<path d="M25.09 503.68 L0 503.68 L0 472.32 L25.09 472.32 A15.6784 15.6784 0 0 1 25.09 503.68 Z" class="st2"/>
			</g>
			<g id="shape12-39" v:mID="12" v:groupContext="groupContent" v:layerMember="0">
				<v:textBlock v:margins="rect(1,1,1,1)" v:tabSpace="42.5197"/>
				<v:textRect cx="31.3567" cy="509.481" width="14.14" height="11.6036"/>
				<text x="26.35" y="511.88" class="st3" v:langID="1042"><v:paragraph v:horizAlign="1"/><v:tabList/>G4</text>			</g>
		</g>
		<g id="group22-41" transform="translate(405.003,-176.227)" v:mID="22" v:groupContext="group" v:layerMember="0">
			<v:custProps>
				<v:cp v:nameU="Input" v:lbl="입력 수" v:type="1" v:format="2;3;4;5" v:sortKey="2" v:langID="1042" v:val="VT4(2)"/>
				<v:cp v:nameU="Type" v:lbl="게이트 종류" v:type="1" v:format="OR;AND;NOR;NAND;XOR;XNOR" v:sortKey="1" v:langID="1042"
						v:val="VT4(AND)"/>
				<v:cp v:nameU="Out" v:lbl="출력 수" v:type="1" v:format="1;2;3" v:sortKey="3" v:langID="1042" v:val="VT4(1)"/>
			</v:custProps>
			<v:userDefs>
				<v:ud v:nameU="SubType" v:val="VT0(1):26"/>
				<v:ud v:nameU="Margin" v:val="VT0(0.059055118110236):24"/>
				<v:ud v:nameU="LimitHeight" v:val="VT0(0):26"/>
				<v:ud v:nameU="visVersion" v:val="VT0(15):26"/>
				<v:ud v:nameU="visDescription" v:val="VT4(여러 가지 모양의 논리 게이트를 나타냅니다.)"/>
				<v:ud v:nameU="Margin" v:prompt="" v:val="VT0(0.10887750927028):1"/>
			</v:userDefs>
			<title>논리 게이트 2.47</title>
			<desc>G2</desc>
			<g id="shape23-42" v:mID="23" v:groupContext="shape" v:layerMember="0" transform="translate(0,-7.83918)">
				<title>시트.23</title>
				<path d="M0 488 L31.36 488" class="st1"/>
				<path d="M0 503.68 L31.36 503.68" class="st1"/>
				<path d="M62.71 495.84 L31.36 495.84" class="st1"/>
			</g>
			<g id="shape24-47" v:mID="24" v:groupContext="shape" v:layerMember="0" transform="translate(10.9749,0)">
				<title>시트.24</title>
				<v:userDefs>
					<v:ud v:nameU="X" v:val="VT0(0.029527559055118):24"/>
					<v:ud v:nameU="X" v:prompt="" v:val="VT0(0.05443875463514):1"/>
				</v:userDefs>
				<path d="M40.76 488 A42.2229 25.8684 0 0 1 12.23 503.68 L0 503.68 A60.4952 37.0632 -180 0 0 0 472.32 L12.23 472.32
							 A41.6574 25.5219 0 0 1 40.76 488 Z" class="st2"/>
			</g>
			<g id="shape25-49" v:mID="25" v:groupContext="shape" v:layerMember="0" transform="translate(0,5.22612)">
				<title>시트.25</title>
			</g>
			<g id="shape26-51" v:mID="26" v:groupContext="shape" v:layerMember="0" transform="translate(42.4611,-3.93983)">
				<title>시트.26</title>
			</g>
			<g id="shape27-53" v:mID="27" v:groupContext="shape" v:layerMember="0" transform="translate(10.9749,0)">
				<title>시트.27</title>
				<path d="M25.09 503.68 L0 503.68 L0 472.32 L25.09 472.32 A15.6784 15.6784 0 0 1 25.09 503.68 Z" class="st2"/>
			</g>
			<g id="shape22-55" v:mID="22" v:groupContext="groupContent" v:layerMember="0">
				<v:textBlock v:margins="rect(1,1,1,1)" v:tabSpace="42.5197"/>
				<v:textRect cx="31.3567" cy="509.481" width="14.14" height="11.6036"/>
				<text x="26.35" y="511.88" class="st3" v:langID="1042"><v:paragraph v:horizAlign="1"/><v:tabList/>G2</text>			</g>
		</g>
		<g id="shape34-57" v:mID="34" v:groupContext="shape" v:layerMember="0" transform="translate(715.501,-226.275)">
			<title>I/O 포트.34</title>
			<desc>Looseness - Structural (Type A)</desc>
			<v:userDefs>
				<v:ud v:nameU="Form" v:val="VT0(0):26"/>
				<v:ud v:nameU="visVersion" v:val="VT0(15):26"/>
				<v:ud v:nameU="visDescription" v:val="VT4(단방향 또는 양방향 I/O 포트입니다. )"/>
			</v:userDefs>
			<v:textBlock v:margins="rect(1,1,1,1)" v:tabSpace="42.5197"/>
			<v:textRect cx="14.4199" cy="513.954" width="118.47" height="11.6036"/>
			<path d="M0 500.28 L0 496.89 L20.38 496.89 L27.18 500.28 L20.38 503.68 L0 503.68 L0 500.28 Z" class="st2"/>
			<text x="-42.41" y="516.35" class="st3" v:langID="1033"><v:paragraph v:horizAlign="1"/><v:tabList/>Looseness - Structural (Type A)</text>		</g>
		<g id="shape35-60" v:mID="35" v:groupContext="shape" v:layerMember="1" transform="translate(467.717,-335.143)">
			<title>동적 연결선</title>
			<desc>True</desc>
			<v:textBlock v:margins="rect(4,4,4,4)" v:tabSpace="42.5197"/>
			<v:textRect cx="0" cy="536.698" width="50" height="20.0036"/>
			<path d="M0 503.68 L0 541.37 L28.35 541.37" class="st6"/>
			<rect v:rectContext="textBkgnd" x="-10.0026" y="530.698" width="20.005" height="12.0001" class="st7"/>
			<text x="-10" y="539.7" class="st9" v:langID="1042"><v:paragraph v:horizAlign="1"/><v:tabList/>True</text>		</g>
		<g id="shape42-65" v:mID="42" v:groupContext="shape" transform="translate(18,-295.213)">
			<title>시트.42</title>
			<desc>Vert 1xRPM &#62; 80% Overall Alarm on Input Shaft</desc>
			<v:textBlock v:margins="rect(4,4,4,4)" v:tabSpace="42.5197"/>
			<v:textRect cx="149.006" cy="492.341" width="298.02" height="22.6772"/>
			<rect x="0" y="481.002" width="298.013" height="22.6772" class="st4"/>
			<text x="28.78" y="495.94" class="st5" v:langID="1033"><v:paragraph v:horizAlign="2"/><v:tabList/>Vert 1xRPM &#62; 80% Overall Alarm on Input Shaft</text>		</g>
		<g id="shape43-68" v:mID="43" v:groupContext="shape" transform="translate(18,-247.339)">
			<title>시트.43</title>
			<desc>Vert 1xRPM &#62; 1.5*Horiz 1xRPM on Input Shaft</desc>
			<v:textBlock v:margins="rect(4,4,4,4)" v:tabSpace="42.5197"/>
			<v:textRect cx="149.006" cy="492.341" width="298.02" height="22.6772"/>
			<rect x="0" y="481.002" width="298.013" height="22.6772" class="st4"/>
			<text x="39.16" y="495.94" class="st5" v:langID="1033"><v:paragraph v:horizAlign="2"/><v:tabList/>Vert 1xRPM &#62; 1.5*Horiz 1xRPM on Input Shaft</text>		</g>
		<g id="shape44-71" v:mID="44" v:groupContext="shape" transform="translate(18,-199.465)">
			<title>시트.44</title>
			<desc>Axial Harmonic Energy &#60;= 70% Threshold Ref</desc>
			<v:textBlock v:margins="rect(4,4,4,4)" v:tabSpace="42.5197"/>
			<v:textRect cx="149.006" cy="492.341" width="298.02" height="22.6772"/>
			<rect x="0" y="481.002" width="298.013" height="22.6772" class="st4"/>
			<text x="42.52" y="495.94" class="st5" v:langID="1033"><v:paragraph v:horizAlign="2"/><v:tabList/>Axial Harmonic Energy &#60;= 70% Threshold Ref</text>		</g>
		<g id="shape45-74" v:mID="45" v:groupContext="shape" transform="translate(18,-151.591)">
			<title>시트.45</title>
			<desc>2xRPM Vib. &#60;= 0.444 x Overall Alarm on Input Shaft</desc>
			<v:textBlock v:margins="rect(4,4,4,4)" v:tabSpace="42.5197"/>
			<v:textRect cx="149.006" cy="492.341" width="298.02" height="22.6772"/>
			<rect x="0" y="481.002" width="298.013" height="22.6772" class="st4"/>
			<text x="6.78" y="495.94" class="st5" v:langID="1033"><v:paragraph v:horizAlign="2"/><v:tabList/>2xRPM Vib. &#60;= 0.444 x Overall Alarm on Input Shaft</text>		</g>
		<g id="shape46-77" v:mID="46" v:groupContext="shape" transform="translate(18,-103.717)">
			<title>시트.46</title>
			<desc>3xRPM Vib. &#60;= 0.333 x Overall Alarm on Input Shaft</desc>
			<v:textBlock v:margins="rect(4,4,4,4)" v:tabSpace="42.5197"/>
			<v:textRect cx="149.006" cy="492.341" width="298.02" height="22.6772"/>
			<rect x="0" y="481.002" width="298.013" height="22.6772" class="st4"/>
			<text x="6.78" y="495.94" class="st5" v:langID="1033"><v:paragraph v:horizAlign="2"/><v:tabList/>3xRPM Vib. &#60;= 0.333 x Overall Alarm on Input Shaft</text>		</g>
		<g id="shape47-80" v:mID="47" v:groupContext="shape" transform="translate(18,-55.8425)">
			<title>시트.47</title>
			<desc>4xRPM Vib. &#60;= 0.222 x Overall Alarm on Input Shaft</desc>
			<v:textBlock v:margins="rect(4,4,4,4)" v:tabSpace="42.5197"/>
			<v:textRect cx="149.006" cy="492.341" width="298.02" height="22.6772"/>
			<rect x="0" y="481.002" width="298.013" height="22.6772" class="st4"/>
			<text x="6.78" y="495.94" class="st5" v:langID="1033"><v:paragraph v:horizAlign="2"/><v:tabList/>4xRPM Vib. &#60;= 0.222 x Overall Alarm on Input Shaft</text>		</g>
		<g id="shape52-83" v:mID="52" v:groupContext="shape" v:layerMember="0" transform="translate(331.955,-304.527)">
			<title>I/O 포트.87</title>
			<desc>Ans2</desc>
			<v:userDefs>
				<v:ud v:nameU="Form" v:val="VT0(0):26"/>
				<v:ud v:nameU="visVersion" v:val="VT0(15):26"/>
				<v:ud v:nameU="visDescription" v:val="VT4(단방향 또는 양방향 I/O 포트입니다. )"/>
			</v:userDefs>
			<v:textBlock v:margins="rect(1,1,1,1)" v:tabSpace="42.5197"/>
			<v:textRect cx="13.5879" cy="491.083" width="21.88" height="11.6036"/>
			<path d="M0 500.28 L0 496.89 L20.38 496.89 L27.18 500.28 L20.38 503.68 L0 503.68 L0 500.28 Z" class="st2"/>
			<text x="4.71" y="493.48" class="st3" v:langID="1042"><v:paragraph v:horizAlign="1"/><v:tabList/>Ans2</text>		</g>
		<g id="shape53-86" v:mID="53" v:groupContext="shape" v:layerMember="0" transform="translate(331.955,-256.491)">
			<title>I/O 포트.88</title>
			<desc>Ans3</desc>
			<v:userDefs>
				<v:ud v:nameU="Form" v:val="VT0(0):26"/>
				<v:ud v:nameU="visVersion" v:val="VT0(15):26"/>
				<v:ud v:nameU="visDescription" v:val="VT4(단방향 또는 양방향 I/O 포트입니다. )"/>
			</v:userDefs>
			<v:textBlock v:margins="rect(1,1,1,1)" v:tabSpace="42.5197"/>
			<v:textRect cx="13.5879" cy="491.083" width="21.88" height="11.6036"/>
			<path d="M0 500.28 L0 496.89 L20.38 496.89 L27.18 500.28 L20.38 503.68 L0 503.68 L0 500.28 Z" class="st2"/>
			<text x="4.71" y="493.48" class="st3" v:langID="1042"><v:paragraph v:horizAlign="1"/><v:tabList/>Ans3</text>		</g>
		<g id="shape54-89" v:mID="54" v:groupContext="shape" v:layerMember="0" transform="translate(331.955,-352.563)">
			<title>I/O 포트.89</title>
			<desc>Ans1</desc>
			<v:userDefs>
				<v:ud v:nameU="Form" v:val="VT0(0):26"/>
				<v:ud v:nameU="visVersion" v:val="VT0(15):26"/>
				<v:ud v:nameU="visDescription" v:val="VT4(단방향 또는 양방향 I/O 포트입니다. )"/>
			</v:userDefs>
			<v:textBlock v:margins="rect(1,1,1,1)" v:tabSpace="42.5197"/>
			<v:textRect cx="13.5879" cy="491.083" width="22.58" height="11.6036"/>
			<path d="M0 500.28 L0 496.89 L20.38 496.89 L27.18 500.28 L20.38 503.68 L0 503.68 L0 500.28 Z" class="st2"/>
			<text x="4.71" y="493.48" class="st3" v:langID="1042"><v:paragraph v:horizAlign="1"/><v:tabList/>Ans1</text>		</g>
		<g id="shape55-92" v:mID="55" v:groupContext="shape" v:layerMember="0" transform="translate(331.955,-208.455)">
			<title>I/O 포트.90</title>
			<desc>Ans4</desc>
			<v:userDefs>
				<v:ud v:nameU="Form" v:val="VT0(0):26"/>
				<v:ud v:nameU="visVersion" v:val="VT0(15):26"/>
				<v:ud v:nameU="visDescription" v:val="VT4(단방향 또는 양방향 I/O 포트입니다. )"/>
			</v:userDefs>
			<v:textBlock v:margins="rect(1,1,1,1)" v:tabSpace="42.5197"/>
			<v:textRect cx="13.5879" cy="491.083" width="21.88" height="11.6036"/>
			<path d="M0 500.28 L0 496.89 L20.38 496.89 L27.18 500.28 L20.38 503.68 L0 503.68 L0 500.28 Z" class="st2"/>
			<text x="4.71" y="493.48" class="st3" v:langID="1042"><v:paragraph v:horizAlign="1"/><v:tabList/>Ans4</text>		</g>
		<g id="shape56-95" v:mID="56" v:groupContext="shape" v:layerMember="0" transform="translate(331.955,-160.419)">
			<title>I/O 포트.91</title>
			<desc>Ans5</desc>
			<v:userDefs>
				<v:ud v:nameU="Form" v:val="VT0(0):26"/>
				<v:ud v:nameU="visVersion" v:val="VT0(15):26"/>
				<v:ud v:nameU="visDescription" v:val="VT4(단방향 또는 양방향 I/O 포트입니다. )"/>
			</v:userDefs>
			<v:textBlock v:margins="rect(1,1,1,1)" v:tabSpace="42.5197"/>
			<v:textRect cx="13.5879" cy="491.083" width="21.88" height="11.6036"/>
			<path d="M0 500.28 L0 496.89 L20.38 496.89 L27.18 500.28 L20.38 503.68 L0 503.68 L0 500.28 Z" class="st2"/>
			<text x="4.71" y="493.48" class="st3" v:langID="1042"><v:paragraph v:horizAlign="1"/><v:tabList/>Ans5</text>		</g>
		<g id="shape57-98" v:mID="57" v:groupContext="shape" v:layerMember="0" transform="translate(331.955,-64.3465)">
			<title>I/O 포트.92</title>
			<desc>Ans7</desc>
			<v:userDefs>
				<v:ud v:nameU="Form" v:val="VT0(0):26"/>
				<v:ud v:nameU="visVersion" v:val="VT0(15):26"/>
				<v:ud v:nameU="visDescription" v:val="VT4(단방향 또는 양방향 I/O 포트입니다. )"/>
			</v:userDefs>
			<v:textBlock v:margins="rect(1,1,1,1)" v:tabSpace="42.5197"/>
			<v:textRect cx="13.5879" cy="491.083" width="21.88" height="11.6036"/>
			<path d="M0 500.28 L0 496.89 L20.38 496.89 L27.18 500.28 L20.38 503.68 L0 503.68 L0 500.28 Z" class="st2"/>
			<text x="4.71" y="493.48" class="st3" v:langID="1042"><v:paragraph v:horizAlign="1"/><v:tabList/>Ans7</text>		</g>
		<g id="shape59-101" v:mID="59" v:groupContext="shape" v:layerMember="0" transform="translate(331.955,-112.383)">
			<title>I/O 포트.94</title>
			<desc>Ans6</desc>
			<v:userDefs>
				<v:ud v:nameU="Form" v:val="VT0(0):26"/>
				<v:ud v:nameU="visVersion" v:val="VT0(15):26"/>
				<v:ud v:nameU="visDescription" v:val="VT4(단방향 또는 양방향 I/O 포트입니다. )"/>
			</v:userDefs>
			<v:textBlock v:margins="rect(1,1,1,1)" v:tabSpace="42.5197"/>
			<v:textRect cx="13.5879" cy="491.083" width="21.88" height="11.6036"/>
			<path d="M0 500.28 L0 496.89 L20.38 496.89 L27.18 500.28 L20.38 503.68 L0 503.68 L0 500.28 Z" class="st2"/>
			<text x="4.71" y="493.48" class="st3" v:langID="1042"><v:paragraph v:horizAlign="1"/><v:tabList/>Ans6</text>		</g>
		<g id="shape63-104" v:mID="63" v:groupContext="shape" v:layerMember="1" transform="translate(359.131,-356.558)">
			<title>동적 연결선.63</title>
			<desc>True</desc>
			<v:textBlock v:margins="rect(4,4,4,4)" v:tabSpace="42.5197"/>
			<v:textRect cx="16.4471" cy="517.255" width="40" height="17.6036"/>
			<path d="M0 504.28 L10.63 504.28 L10.63 517.25 L45.87 517.25" class="st6"/>
			<rect v:rectContext="textBkgnd" x="8.44531" y="512.455" width="16.0038" height="9.59985" class="st7"/>
			<text x="8.45" y="519.65" class="st8" v:langID="1042"><v:paragraph v:horizAlign="1"/><v:tabList/>True</text>		</g>
		<g id="shape64-109" v:mID="64" v:groupContext="shape" v:layerMember="1" transform="translate(359.131,-259.888)">
			<title>동적 연결선.64</title>
			<desc>False</desc>
			<v:textBlock v:margins="rect(4,4,4,4)" v:tabSpace="42.5197"/>
			<v:textRect cx="62.5229" cy="486.793" width="40" height="17.6036"/>
			<path d="M0 503.68 L62.52 503.68 L62.52 481.79 L136.93 481.79" class="st1"/>
			<rect v:rectContext="textBkgnd" x="53.5914" y="481.993" width="17.8632" height="9.59985" class="st7"/>
			<text x="53.59" y="489.19" class="st3" v:langID="1042"><v:paragraph v:horizAlign="1"/><v:tabList/>False</text>		</g>
		<g id="group65-114" transform="translate(405.003,-81.4724)" v:mID="65" v:groupContext="group" v:layerMember="0">
			<v:custProps>
				<v:cp v:nameU="Input" v:lbl="입력 수" v:type="1" v:format="2;3;4;5" v:sortKey="2" v:langID="1042" v:val="VT4(2)"/>
				<v:cp v:nameU="Type" v:lbl="게이트 종류" v:type="1" v:format="OR;AND;NOR;NAND;XOR;XNOR" v:sortKey="1" v:langID="1042"
						v:val="VT4(AND)"/>
				<v:cp v:nameU="Out" v:lbl="출력 수" v:type="1" v:format="1;2;3" v:sortKey="3" v:langID="1042" v:val="VT4(1)"/>
			</v:custProps>
			<v:userDefs>
				<v:ud v:nameU="SubType" v:val="VT0(1):26"/>
				<v:ud v:nameU="Margin" v:val="VT0(0.059055118110236):24"/>
				<v:ud v:nameU="LimitHeight" v:val="VT0(0):26"/>
				<v:ud v:nameU="visVersion" v:val="VT0(15):26"/>
				<v:ud v:nameU="visDescription" v:val="VT4(여러 가지 모양의 논리 게이트를 나타냅니다.)"/>
				<v:ud v:nameU="Margin" v:prompt="" v:val="VT0(0.10887750927028):1"/>
			</v:userDefs>
			<title>논리 게이트 2.65</title>
			<desc>G3</desc>
			<g id="shape66-115" v:mID="66" v:groupContext="shape" v:layerMember="0" transform="translate(0,-7.83918)">
				<title>시트.66</title>
				<path d="M0 488 L31.36 488" class="st1"/>
				<path d="M0 503.68 L31.36 503.68" class="st1"/>
				<path d="M62.71 495.84 L31.36 495.84" class="st1"/>
			</g>
			<g id="shape67-120" v:mID="67" v:groupContext="shape" v:layerMember="0" transform="translate(10.9749,0)">
				<title>시트.67</title>
				<v:userDefs>
					<v:ud v:nameU="X" v:val="VT0(0.029527559055118):24"/>
					<v:ud v:nameU="X" v:prompt="" v:val="VT0(0.05443875463514):1"/>
				</v:userDefs>
				<path d="M40.76 488 A42.2229 25.8684 0 0 1 12.23 503.68 L0 503.68 A60.4952 37.0632 -180 0 0 0 472.32 L12.23 472.32
							 A41.6574 25.5219 0 0 1 40.76 488 Z" class="st2"/>
			</g>
			<g id="shape68-122" v:mID="68" v:groupContext="shape" v:layerMember="0" transform="translate(0,5.22612)">
				<title>시트.68</title>
			</g>
			<g id="shape69-124" v:mID="69" v:groupContext="shape" v:layerMember="0" transform="translate(42.4611,-3.93983)">
				<title>시트.69</title>
			</g>
			<g id="shape70-126" v:mID="70" v:groupContext="shape" v:layerMember="0" transform="translate(10.9749,0)">
				<title>시트.70</title>
				<path d="M25.09 503.68 L0 503.68 L0 472.32 L25.09 472.32 A15.6784 15.6784 0 0 1 25.09 503.68 Z" class="st2"/>
			</g>
			<g id="shape65-128" v:mID="65" v:groupContext="groupContent" v:layerMember="0">
				<v:textBlock v:margins="rect(1,1,1,1)" v:tabSpace="42.5197"/>
				<v:textRect cx="31.3567" cy="509.481" width="14.14" height="11.6036"/>
				<text x="26.35" y="511.88" class="st3" v:langID="1042"><v:paragraph v:horizAlign="1"/><v:tabList/>G3</text>			</g>
		</g>
		<g id="shape71-130" v:mID="71" v:groupContext="shape" v:layerMember="1" transform="translate(359.131,-212.885)">
			<title>동적 연결선.71</title>
			<desc>False</desc>
			<v:textBlock v:margins="rect(4,4,4,4)" v:tabSpace="42.5197"/>
			<v:textRect cx="16.8827" cy="516.819" width="40" height="17.6036"/>
			<path d="M0 504.71 L10.63 504.71 L10.63 516.82 L45.87 516.82" class="st1"/>
			<rect v:rectContext="textBkgnd" x="7.9511" y="512.02" width="17.8632" height="9.59985" class="st7"/>
			<text x="7.95" y="519.22" class="st3" v:langID="1042"><v:paragraph v:horizAlign="1"/><v:tabList/>False</text>		</g>
		<g id="shape72-135" v:mID="72" v:groupContext="shape" v:layerMember="1" transform="translate(359.131,-163.816)">
			<title>동적 연결선.72</title>
			<desc>False</desc>
			<v:textBlock v:margins="rect(4,4,4,4)" v:tabSpace="42.5197"/>
			<v:textRect cx="12.8109" cy="483.429" width="40" height="17.6036"/>
			<path d="M0 503.68 L10.63 503.68 L10.63 483.43 L45.87 483.43" class="st1"/>
			<rect v:rectContext="textBkgnd" x="3.87939" y="478.629" width="17.8632" height="9.59985" class="st7"/>
			<text x="3.88" y="485.83" class="st3" v:langID="1042"><v:paragraph v:horizAlign="1"/><v:tabList/>False</text>		</g>
		<g id="shape73-140" v:mID="73" v:groupContext="shape" v:layerMember="1" transform="translate(359.131,-117.471)">
			<title>동적 연결선.73</title>
			<desc>False</desc>
			<v:textBlock v:margins="rect(4,4,4,4)" v:tabSpace="42.5197"/>
			<v:textRect cx="17.5414" cy="516.161" width="40" height="17.6036"/>
			<path d="M0 505.37 L10.63 505.37 L10.63 516.16 L45.87 516.16" class="st1"/>
			<rect v:rectContext="textBkgnd" x="8.60989" y="511.361" width="17.8632" height="9.59985" class="st7"/>
			<text x="8.61" y="518.56" class="st3" v:langID="1042"><v:paragraph v:horizAlign="1"/><v:tabList/>False</text>		</g>
		<g id="shape74-145" v:mID="74" v:groupContext="shape" v:layerMember="1" transform="translate(359.131,-67.7434)">
			<title>동적 연결선.74</title>
			<desc>False</desc>
			<v:textBlock v:margins="rect(4,4,4,4)" v:tabSpace="42.5197"/>
			<v:textRect cx="12.1521" cy="482.111" width="40" height="17.6036"/>
			<path d="M0 503.68 L10.63 503.68 L10.63 482.11 L45.87 482.11" class="st1"/>
			<rect v:rectContext="textBkgnd" x="3.2206" y="477.311" width="17.8632" height="9.59985" class="st7"/>
			<text x="3.22" y="484.51" class="st3" v:langID="1042"><v:paragraph v:horizAlign="1"/><v:tabList/>False</text>		</g>
		<g id="group75-150" transform="translate(496.063,-134.089)" v:mID="75" v:groupContext="group" v:layerMember="0">
			<v:custProps>
				<v:cp v:nameU="Input" v:lbl="입력 수" v:type="1" v:format="2;3;4;5" v:sortKey="2" v:langID="1042" v:val="VT4(2)"/>
				<v:cp v:nameU="Type" v:lbl="게이트 종류" v:type="1" v:format="OR;AND;NOR;NAND;XOR;XNOR" v:sortKey="1" v:langID="1042"
						v:val="VT4(AND)"/>
				<v:cp v:nameU="Out" v:lbl="출력 수" v:type="1" v:format="1;2;3" v:sortKey="3" v:langID="1042" v:val="VT4(1)"/>
			</v:custProps>
			<v:userDefs>
				<v:ud v:nameU="SubType" v:val="VT0(1):26"/>
				<v:ud v:nameU="Margin" v:val="VT0(0.059055118110236):24"/>
				<v:ud v:nameU="LimitHeight" v:val="VT0(0):26"/>
				<v:ud v:nameU="visVersion" v:val="VT0(15):26"/>
				<v:ud v:nameU="visDescription" v:val="VT4(여러 가지 모양의 논리 게이트를 나타냅니다.)"/>
				<v:ud v:nameU="Margin" v:prompt="" v:val="VT0(0.10887750927028):1"/>
			</v:userDefs>
			<title>논리 게이트 2.75</title>
			<desc>G5</desc>
			<g id="shape76-151" v:mID="76" v:groupContext="shape" v:layerMember="0" transform="translate(0,-7.83918)">
				<title>시트.76</title>
				<path d="M0 488 L31.36 488" class="st1"/>
				<path d="M0 503.68 L31.36 503.68" class="st1"/>
				<path d="M62.71 495.84 L31.36 495.84" class="st1"/>
			</g>
			<g id="shape77-156" v:mID="77" v:groupContext="shape" v:layerMember="0" transform="translate(10.9749,0)">
				<title>시트.77</title>
				<v:userDefs>
					<v:ud v:nameU="X" v:val="VT0(0.029527559055118):24"/>
					<v:ud v:nameU="X" v:prompt="" v:val="VT0(0.05443875463514):1"/>
				</v:userDefs>
				<path d="M40.76 488 A42.2229 25.8684 0 0 1 12.23 503.68 L0 503.68 A60.4952 37.0632 -180 0 0 0 472.32 L12.23 472.32
							 A41.6574 25.5219 0 0 1 40.76 488 Z" class="st2"/>
			</g>
			<g id="shape78-158" v:mID="78" v:groupContext="shape" v:layerMember="0" transform="translate(0,5.22612)">
				<title>시트.78</title>
			</g>
			<g id="shape79-160" v:mID="79" v:groupContext="shape" v:layerMember="0" transform="translate(42.4611,-3.93983)">
				<title>시트.79</title>
			</g>
			<g id="shape80-162" v:mID="80" v:groupContext="shape" v:layerMember="0" transform="translate(10.9749,0)">
				<title>시트.80</title>
				<path d="M25.09 503.68 L0 503.68 L0 472.32 L25.09 472.32 A15.6784 15.6784 0 0 1 25.09 503.68 Z" class="st2"/>
			</g>
			<g id="shape75-164" v:mID="75" v:groupContext="groupContent" v:layerMember="0">
				<v:textBlock v:margins="rect(1,1,1,1)" v:tabSpace="42.5197"/>
				<v:textRect cx="31.3567" cy="509.481" width="14.14" height="11.6036"/>
				<text x="26.35" y="511.88" class="st3" v:langID="1042"><v:paragraph v:horizAlign="1"/><v:tabList/>G5</text>			</g>
		</g>
		<g id="group81-166" transform="translate(593.196,-213.993)" v:mID="81" v:groupContext="group" v:layerMember="0">
			<v:custProps>
				<v:cp v:nameU="Input" v:lbl="입력 수" v:type="1" v:format="2;3;4;5" v:sortKey="2" v:langID="1042" v:val="VT4(2)"/>
				<v:cp v:nameU="Type" v:lbl="게이트 종류" v:type="1" v:format="OR;AND;NOR;NAND;XOR;XNOR" v:sortKey="1" v:langID="1042"
						v:val="VT4(AND)"/>
				<v:cp v:nameU="Out" v:lbl="출력 수" v:type="1" v:format="1;2;3" v:sortKey="3" v:langID="1042" v:val="VT4(1)"/>
			</v:custProps>
			<v:userDefs>
				<v:ud v:nameU="SubType" v:val="VT0(1):26"/>
				<v:ud v:nameU="Margin" v:val="VT0(0.059055118110236):24"/>
				<v:ud v:nameU="LimitHeight" v:val="VT0(0):26"/>
				<v:ud v:nameU="visVersion" v:val="VT0(15):26"/>
				<v:ud v:nameU="visDescription" v:val="VT4(여러 가지 모양의 논리 게이트를 나타냅니다.)"/>
				<v:ud v:nameU="Margin" v:prompt="" v:val="VT0(0.10887750927028):1"/>
			</v:userDefs>
			<title>논리 게이트 2.81</title>
			<desc>G6</desc>
			<g id="shape82-167" v:mID="82" v:groupContext="shape" v:layerMember="0" transform="translate(0,-7.83918)">
				<title>시트.82</title>
				<path d="M0 488 L31.36 488" class="st1"/>
				<path d="M0 503.68 L31.36 503.68" class="st1"/>
				<path d="M62.71 495.84 L31.36 495.84" class="st1"/>
			</g>
			<g id="shape83-172" v:mID="83" v:groupContext="shape" v:layerMember="0" transform="translate(10.9749,0)">
				<title>시트.83</title>
				<v:userDefs>
					<v:ud v:nameU="X" v:val="VT0(0.029527559055118):24"/>
					<v:ud v:nameU="X" v:prompt="" v:val="VT0(0.05443875463514):1"/>
				</v:userDefs>
				<path d="M40.76 488 A42.2229 25.8684 0 0 1 12.23 503.68 L0 503.68 A60.4952 37.0632 -180 0 0 0 472.32 L12.23 472.32
							 A41.6574 25.5219 0 0 1 40.76 488 Z" class="st2"/>
			</g>
			<g id="shape84-174" v:mID="84" v:groupContext="shape" v:layerMember="0" transform="translate(0,5.22612)">
				<title>시트.84</title>
			</g>
			<g id="shape85-176" v:mID="85" v:groupContext="shape" v:layerMember="0" transform="translate(42.4611,-3.93983)">
				<title>시트.85</title>
			</g>
			<g id="shape86-178" v:mID="86" v:groupContext="shape" v:layerMember="0" transform="translate(10.9749,0)">
				<title>시트.86</title>
				<path d="M25.09 503.68 L0 503.68 L0 472.32 L25.09 472.32 A15.6784 15.6784 0 0 1 25.09 503.68 Z" class="st2"/>
			</g>
			<g id="shape81-180" v:mID="81" v:groupContext="groupContent" v:layerMember="0">
				<v:textBlock v:margins="rect(1,1,1,1)" v:tabSpace="42.5197"/>
				<v:textRect cx="31.3567" cy="509.481" width="14.14" height="11.6036"/>
				<text x="26.35" y="511.88" class="st3" v:langID="1042"><v:paragraph v:horizAlign="1"/><v:tabList/>G6</text>			</g>
		</g>
		<g id="shape87-182" v:mID="87" v:groupContext="shape" v:layerMember="1" transform="translate(467.717,-97.1508)">
			<title>동적 연결선.87</title>
			<desc>False</desc>
			<v:textBlock v:margins="rect(4,4,4,4)" v:tabSpace="42.5197"/>
			<v:textRect cx="10.6299" cy="477.747" width="40" height="17.6036"/>
			<path d="M0 503.68 L10.63 503.68 L10.63 458.9 L28.35 458.9" class="st1"/>
			<rect v:rectContext="textBkgnd" x="1.69837" y="472.947" width="17.8632" height="9.59985" class="st7"/>
			<text x="1.7" y="480.15" class="st3" v:langID="1042"><v:paragraph v:horizAlign="1"/><v:tabList/>False</text>		</g>
		<g id="shape88-187" v:mID="88" v:groupContext="shape" v:layerMember="1" transform="translate(467.717,-191.906)">
			<title>동적 연결선.88</title>
			<desc>False</desc>
			<v:textBlock v:margins="rect(4,4,4,4)" v:tabSpace="42.5197"/>
			<v:textRect cx="10.6299" cy="524.372" width="40" height="17.6036"/>
			<path d="M0 503.68 L10.63 503.68 L10.63 537.98 L28.35 537.98" class="st1"/>
			<rect v:rectContext="textBkgnd" x="1.69837" y="519.572" width="17.8632" height="9.59985" class="st7"/>
			<text x="1.7" y="526.77" class="st3" v:langID="1042"><v:paragraph v:horizAlign="1"/><v:tabList/>False</text>		</g>
		<g id="shape89-192" v:mID="89" v:groupContext="shape" v:layerMember="1" transform="translate(558.776,-149.767)">
			<title>동적 연결선.89</title>
			<desc>False</desc>
			<v:textBlock v:margins="rect(4,4,4,4)" v:tabSpace="42.5197"/>
			<v:textRect cx="10.6299" cy="461.067" width="40" height="17.6036"/>
			<path d="M0 503.68 L10.63 503.68 L10.63 431.61 L34.42 431.61" class="st1"/>
			<rect v:rectContext="textBkgnd" x="1.69837" y="456.267" width="17.8632" height="9.59985" class="st7"/>
			<text x="1.7" y="463.47" class="st3" v:langID="1042"><v:paragraph v:horizAlign="1"/><v:tabList/>False</text>		</g>
		<g id="shape90-197" v:mID="90" v:groupContext="shape" v:layerMember="1" transform="translate(558.776,-289.613)">
			<title>동적 연결선.90</title>
			<desc>False</desc>
			<v:textBlock v:margins="rect(4,4,4,4)" v:tabSpace="42.5197"/>
			<v:textRect cx="10.6299" cy="536.31" width="40" height="17.6036"/>
			<path d="M0 503.68 L10.63 503.68 L10.63 555.78 L34.42 555.78" class="st1"/>
			<rect v:rectContext="textBkgnd" x="1.69837" y="531.51" width="17.8632" height="9.59985" class="st7"/>
			<text x="1.7" y="538.71" class="st3" v:langID="1042"><v:paragraph v:horizAlign="1"/><v:tabList/>False</text>		</g>
		<g id="shape91-202" v:mID="91" v:groupContext="shape" v:layerMember="1" transform="translate(655.909,-222.585)">
			<title>동적 연결선.91</title>
			<desc>False</desc>
			<v:textBlock v:margins="rect(4,4,4,4)" v:tabSpace="42.5197"/>
			<v:textRect cx="29.7961" cy="496.593" width="40" height="17.6036"/>
			<path d="M0 496.59 L59.59 496.59" class="st1"/>
			<rect v:rectContext="textBkgnd" x="20.8646" y="491.793" width="17.8632" height="9.59985" class="st7"/>
			<text x="20.86" y="498.99" class="st3" v:langID="1042"><v:paragraph v:horizAlign="1"/><v:tabList/>False</text>		</g>
		<g id="shape92-207" v:mID="92" v:groupContext="shape" transform="translate(255.118,-461.197)">
			<title>시트.92</title>
			<desc>Gear Fault 08 - Looseness - Structural (Type A)</desc>
			<v:textBlock v:margins="rect(4,4,4,4)" v:tabSpace="42.5197"/>
			<v:textRect cx="165.774" cy="492.477" width="331.55" height="22.4037"/>
			<rect x="0" y="481.275" width="331.548" height="22.4037" class="st10"/>
			<text x="7.97" y="496.68" class="st11" v:langID="1033"><v:paragraph v:horizAlign="1"/><v:tabList/>Gear Fault 08 - Looseness - Structural (Type A)</text>		</g>
	</g>
</svg>
