<?xml version="1.0" encoding="UTF-8" standalone="no"?>
<!DOCTYPE svg PUBLIC "-//W3C//DTD SVG 1.1//EN" "http://www.w3.org/Graphics/SVG/1.1/DTD/svg11.dtd">
<!-- Microsoft Visio, SVG Export에서 생성되었습니다. Gear__fault_02.svg Fan_Bent Input Shaft -->
<svg xmlns="http://www.w3.org/2000/svg" xmlns:xlink="http://www.w3.org/1999/xlink" xmlns:ev="http://www.w3.org/2001/xml-events"
		xmlns:v="http://schemas.microsoft.com/visio/2003/SVGExtensions/" width="11.7244in" height="6.27382in"
		viewBox="0 0 844.159 451.715" xml:space="preserve" color-interpolation-filters="sRGB" class="st13">
	<v:documentProperties v:langID="1042" v:metric="true" v:viewMarkup="false">
		<v:userDefs>
			<v:ud v:nameU="msvNoAutoConnect" v:val="VT0(1):26"/>
		</v:userDefs>
	</v:documentProperties>

	<style type="text/css">
	<![CDATA[
		.st1 {stroke:#000000;stroke-linecap:round;stroke-linejoin:round;stroke-width:0.75}
		.st2 {fill:#ffffff;stroke:#000000;stroke-linecap:round;stroke-linejoin:round;stroke-width:0.75}
		.st3 {fill:#000000;font-family:맑은 고딕;font-size:0.666664em}
		.st4 {fill:none;stroke:none;stroke-linecap:round;stroke-linejoin:round;stroke-width:0.75}
		.st5 {fill:#000000;font-family:맑은 고딕;font-size:1.00001em}
		.st6 {stroke:#ff0000;stroke-linecap:round;stroke-linejoin:round;stroke-width:1}
		.st7 {fill:#ffffff;stroke:none;stroke-linecap:butt;stroke-width:7.2}
		.st8 {fill:#ff0000;font-family:맑은 고딕;font-size:0.833336em}
		.st9 {stroke:#0070c0;stroke-linecap:round;stroke-linejoin:round;stroke-width:1}
		.st10 {fill:#0070c0;font-family:맑은 고딕;font-size:0.833336em}
		.st11 {fill:#ffffff;stroke:none;stroke-linecap:round;stroke-linejoin:round;stroke-width:0.75}
		.st12 {fill:#000000;font-family:맑은 고딕;font-size:1.16666em;font-weight:bold}
		.st13 {fill:none;fill-rule:evenodd;font-size:12px;overflow:visible;stroke-linecap:square;stroke-miterlimit:3}
	]]>
	</style>

	<g v:mID="6" v:index="2" v:groupContext="foregroundPage">
		<title>Gear_ft02_Bent Input Shaft</title>
		<v:pageProperties v:drawingScale="0.0393701" v:pageScale="0.0393701" v:drawingUnits="24" v:shadowOffsetX="8.50394"
				v:shadowOffsetY="-8.50394"/>
		<v:layer v:name="전기" v:index="0"/>
		<v:layer v:name="연결선" v:index="1"/>
		<g id="group1-1" transform="translate(438.368,-188.251)" v:mID="1" v:groupContext="group" v:layerMember="0">
			<v:custProps>
				<v:cp v:nameU="Input" v:lbl="입력 수" v:type="1" v:format="2;3;4;5" v:sortKey="2" v:langID="1042" v:val="VT4(2)"/>
				<v:cp v:nameU="Type" v:lbl="게이트 종류" v:type="1" v:format="OR;AND;NOR;NAND;XOR;XNOR" v:sortKey="1" v:langID="1042"
						v:val="VT4(AND)"/>
				<v:cp v:nameU="Out" v:lbl="출력 수" v:type="1" v:format="1;2;3" v:sortKey="3" v:langID="1042" v:val="VT4(1)"/>
				<v:cp v:nameU="Type" v:lbl="" v:prompt="" v:type="0" v:format="" v:sortKey="" v:invis="false" v:ask="false"
						v:langID="1033" v:cal="0" v:val="VT4(OR)"/>
			</v:custProps>
			<v:userDefs>
				<v:ud v:nameU="SubType" v:val="VT0(1):26"/>
				<v:ud v:nameU="Margin" v:val="VT0(0.059055118110236):24"/>
				<v:ud v:nameU="LimitHeight" v:val="VT0(0):26"/>
				<v:ud v:nameU="visVersion" v:val="VT0(15):26"/>
				<v:ud v:nameU="visDescription" v:val="VT4(여러 가지 모양의 논리 게이트를 나타냅니다.)"/>
				<v:ud v:nameU="SubType" v:prompt="" v:val="VT0(0):26"/>
				<v:ud v:nameU="Margin" v:prompt="" v:val="VT0(0.13920134983127):1"/>
			</v:userDefs>
			<title>논리 게이트 2.29</title>
			<desc>G1</desc>
			<g id="shape2-2" v:mID="2" v:groupContext="shape" v:layerMember="0" transform="translate(0,-10.0225)">
				<title>시트.2</title>
				<path d="M0 431.67 L40.09 431.67" class="st1"/>
				<path d="M0 451.72 L40.09 451.72" class="st1"/>
				<path d="M80.18 441.69 L40.09 441.69" class="st1"/>
			</g>
			<g id="shape3-7" v:mID="3" v:groupContext="shape" v:layerMember="0" transform="translate(14.0315,0)">
				<title>시트.3</title>
				<v:userDefs>
					<v:ud v:nameU="X" v:val="VT0(0.029527559055118):24"/>
					<v:ud v:nameU="X" v:prompt="" v:val="VT0(0.069600674915635):1"/>
				</v:userDefs>
				<path d="M52.12 431.67 A53.9825 33.0731 0 0 1 15.64 451.72 L0 451.72 A77.344 47.3857 -180 0 0 0 411.63 L15.64 411.63
							 A53.2595 32.6301 0 0 1 52.12 431.67 Z" class="st2"/>
			</g>
			<g id="shape4-9" v:mID="4" v:groupContext="shape" v:layerMember="0" transform="translate(0,6.68166)">
				<title>시트.4</title>
			</g>
			<g id="shape5-11" v:mID="5" v:groupContext="shape" v:layerMember="0" transform="translate(54.2871,-5.03713)">
				<title>시트.5</title>
			</g>
			<g id="shape6-13" v:mID="6" v:groupContext="shape" v:layerMember="0" transform="translate(14.0315,0)">
				<title>시트.6</title>
			</g>
			<g id="shape1-15" v:mID="1" v:groupContext="groupContent" v:layerMember="0">
				<v:textBlock v:margins="rect(1,1,1,1)" v:tabSpace="42.5197"/>
				<v:textRect cx="40.09" cy="457.517" width="14.84" height="11.6036"/>
				<text x="35.08" y="459.92" class="st3" v:langID="1042"><v:paragraph v:horizAlign="1"/><v:tabList/>G1</text>			</g>
		</g>
		<g id="shape7-17" v:mID="7" v:groupContext="shape" transform="translate(47.1467,-281.07)">
			<title>시트.7</title>
			<desc>Axial Harmonic Energy &#62; 70% Threshold Ref on...</desc>
			<v:textBlock v:margins="rect(4,4,4,4)" v:tabSpace="42.5197"/>
			<v:textRect cx="141.52" cy="440.377" width="283.04" height="22.6772"/>
			<rect x="0" y="429.038" width="283.039" height="22.6772" class="st4"/>
			<text x="9.73" y="443.98" class="st5" v:langID="1033"><v:paragraph v:horizAlign="2"/><v:tabList/>Axial Harmonic Energy &#62; 70% Threshold Ref on...</text>		</g>
		<g id="shape8-20" v:mID="8" v:groupContext="shape" transform="translate(18.375,-214.809)">
			<title>시트.8</title>
			<desc>Axial Harmonic Energy &#62; 50% Horiz Harmonic Energy</desc>
			<v:textBlock v:margins="rect(4,4,4,4)" v:tabSpace="42.5197"/>
			<v:textRect cx="155.906" cy="440.377" width="311.82" height="22.6772"/>
			<rect x="0" y="429.038" width="311.811" height="22.6772" class="st4"/>
			<text x="13.51" y="443.98" class="st5" v:langID="1033"><v:paragraph v:horizAlign="2"/><v:tabList/>Axial Harmonic Energy &#62; 50% Horiz Harmonic Energy</text>		</g>
		<g id="shape9-23" v:mID="9" v:groupContext="shape" transform="translate(27.2069,-148.548)">
			<title>시트.9</title>
			<desc>Axial Harmonic Energy &#62; 50% Vert Harmonic Energy</desc>
			<v:textBlock v:margins="rect(4,4,4,4)" v:tabSpace="42.5197"/>
			<v:textRect cx="151.49" cy="440.377" width="302.98" height="22.6772"/>
			<rect x="0" y="429.038" width="302.979" height="22.6772" class="st4"/>
			<text x="10.88" y="443.98" class="st5" v:langID="1033"><v:paragraph v:horizAlign="2"/><v:tabList/>Axial Harmonic Energy &#62; 50% Vert Harmonic Energy</text>		</g>
		<g id="shape10-26" v:mID="10" v:groupContext="shape" transform="translate(47.1467,-84.0488)">
			<title>시트.10</title>
			<desc>Axial 1xRPM / Vert 1xRPM &#60;= 5.0 on Input Shaft</desc>
			<v:textBlock v:margins="rect(4,4,4,4)" v:tabSpace="42.5197"/>
			<v:textRect cx="141.52" cy="440.377" width="283.04" height="22.6772"/>
			<rect x="0" y="429.038" width="283.039" height="22.6772" class="st4"/>
			<text x="10.69" y="443.98" class="st5" v:langID="1033"><v:paragraph v:horizAlign="2"/><v:tabList/>Axial 1xRPM / Vert 1xRPM &#60;= 5.0 on Input Shaft</text>		</g>
		<g id="shape11-29" v:mID="11" v:groupContext="shape" transform="translate(40.0109,-18.375)">
			<title>시트.11</title>
			<desc>Axial 1xRPM / Horiz 1xRPM &#60;= 5.0 on Input Shaft</desc>
			<v:textBlock v:margins="rect(4,4,4,4)" v:tabSpace="42.5197"/>
			<v:textRect cx="145.088" cy="440.377" width="290.18" height="22.6772"/>
			<rect x="0" y="429.038" width="290.175" height="22.6772" class="st4"/>
			<text x="11.61" y="443.98" class="st5" v:langID="1033"><v:paragraph v:horizAlign="2"/><v:tabList/>Axial 1xRPM / Horiz 1xRPM &#60;= 5.0 on Input Shaft</text>		</g>
		<g id="shape12-32" v:mID="12" v:groupContext="shape" v:layerMember="0" transform="translate(368.879,-221.805)">
			<title>I/O 포트.36</title>
			<desc>Ans2</desc>
			<v:userDefs>
				<v:ud v:nameU="Form" v:val="VT0(0):26"/>
				<v:ud v:nameU="visVersion" v:val="VT0(15):26"/>
				<v:ud v:nameU="visDescription" v:val="VT4(단방향 또는 양방향 I/O 포트입니다. )"/>
			</v:userDefs>
			<v:textBlock v:margins="rect(1,1,1,1)" v:tabSpace="42.5197"/>
			<v:textRect cx="17.3723" cy="437.227" width="21.88" height="11.6036"/>
			<path d="M0 447.37 L0 443.03 L26.06 443.03 L34.74 447.37 L26.06 451.72 L0 451.72 L0 447.37 Z" class="st2"/>
			<text x="8.49" y="439.63" class="st3" v:langID="1042"><v:paragraph v:horizAlign="1"/><v:tabList/>Ans2</text>		</g>
		<g id="shape13-35" v:mID="13" v:groupContext="shape" v:layerMember="0" transform="translate(368.879,-156.353)">
			<title>I/O 포트.37</title>
			<desc>Ans3</desc>
			<v:userDefs>
				<v:ud v:nameU="Form" v:val="VT0(0):26"/>
				<v:ud v:nameU="visVersion" v:val="VT0(15):26"/>
				<v:ud v:nameU="visDescription" v:val="VT4(단방향 또는 양방향 I/O 포트입니다. )"/>
			</v:userDefs>
			<v:textBlock v:margins="rect(1,1,1,1)" v:tabSpace="42.5197"/>
			<v:textRect cx="17.3723" cy="437.227" width="21.88" height="11.6036"/>
			<path d="M0 447.37 L0 443.03 L26.06 443.03 L34.74 447.37 L26.06 451.72 L0 451.72 L0 447.37 Z" class="st2"/>
			<text x="8.49" y="439.63" class="st3" v:langID="1042"><v:paragraph v:horizAlign="1"/><v:tabList/>Ans3</text>		</g>
		<g id="shape14-38" v:mID="14" v:groupContext="shape" v:layerMember="1" transform="translate(403.624,-229.32)">
			<title>동적 연결선.73</title>
			<desc>False</desc>
			<v:textBlock v:margins="rect(4,4,4,4)" v:tabSpace="42.5197"/>
			<v:textRect cx="13.4577" cy="462.716" width="50" height="20.0036"/>
			<path d="M0 454.89 L10.63 454.89 L10.63 462.72 L34.74 462.72" class="st6"/>
			<rect v:rectContext="textBkgnd" x="2.29303" y="456.717" width="22.3292" height="12.0001" class="st7"/>
			<text x="2.29" y="465.72" class="st8" v:langID="1042"><v:paragraph v:horizAlign="1"/><v:tabList/>False</text>		</g>
		<g id="shape15-43" v:mID="15" v:groupContext="shape" v:layerMember="1" transform="translate(403.624,-160.696)">
			<title>동적 연결선.74</title>
			<desc>True</desc>
			<v:textBlock v:margins="rect(4,4,4,4)" v:tabSpace="42.5197"/>
			<v:textRect cx="10.6299" cy="426.184" width="50" height="20.0036"/>
			<path d="M0 451.72 L10.63 451.72 L10.63 414.14 L34.74 414.14" class="st9"/>
			<rect v:rectContext="textBkgnd" x="0.627358" y="420.184" width="20.005" height="12.0001" class="st7"/>
			<text x="0.63" y="429.18" class="st10" v:langID="1042"><v:paragraph v:horizAlign="1"/><v:tabList/>True</text>		</g>
		<g id="group16-48" transform="translate(543.817,-244.431)" v:mID="16" v:groupContext="group" v:layerMember="0">
			<v:custProps>
				<v:cp v:nameU="Input" v:lbl="입력 수" v:type="1" v:format="2;3;4;5" v:sortKey="2" v:langID="1042" v:val="VT4(2)"/>
				<v:cp v:nameU="Type" v:lbl="게이트 종류" v:type="1" v:format="OR;AND;NOR;NAND;XOR;XNOR" v:sortKey="1" v:langID="1042"
						v:val="VT4(AND)"/>
				<v:cp v:nameU="Out" v:lbl="출력 수" v:type="1" v:format="1;2;3" v:sortKey="3" v:langID="1042" v:val="VT4(1)"/>
			</v:custProps>
			<v:userDefs>
				<v:ud v:nameU="SubType" v:val="VT0(1):26"/>
				<v:ud v:nameU="Margin" v:val="VT0(0.059055118110236):24"/>
				<v:ud v:nameU="LimitHeight" v:val="VT0(0):26"/>
				<v:ud v:nameU="visVersion" v:val="VT0(15):26"/>
				<v:ud v:nameU="visDescription" v:val="VT4(여러 가지 모양의 논리 게이트를 나타냅니다.)"/>
				<v:ud v:nameU="Margin" v:prompt="" v:val="VT0(0.13920134983127):1"/>
			</v:userDefs>
			<title>논리 게이트 2.113</title>
			<desc>G3</desc>
			<g id="shape17-49" v:mID="17" v:groupContext="shape" v:layerMember="0" transform="translate(0,-10.0225)">
				<title>시트.17</title>
				<path d="M0 431.67 L40.09 431.67" class="st1"/>
				<path d="M0 451.72 L40.09 451.72" class="st1"/>
				<path d="M80.18 441.69 L40.09 441.69" class="st1"/>
			</g>
			<g id="shape18-54" v:mID="18" v:groupContext="shape" v:layerMember="0" transform="translate(14.0315,0)">
				<title>시트.18</title>
				<v:userDefs>
					<v:ud v:nameU="X" v:val="VT0(0.029527559055118):24"/>
					<v:ud v:nameU="X" v:prompt="" v:val="VT0(0.069600674915635):1"/>
				</v:userDefs>
				<path d="M52.12 431.67 A53.9825 33.0731 0 0 1 15.64 451.72 L0 451.72 A77.344 47.3857 -180 0 0 0 411.63 L15.64 411.63
							 A53.2595 32.6301 0 0 1 52.12 431.67 Z" class="st2"/>
			</g>
			<g id="shape19-56" v:mID="19" v:groupContext="shape" v:layerMember="0" transform="translate(0,6.68166)">
				<title>시트.19</title>
			</g>
			<g id="shape20-58" v:mID="20" v:groupContext="shape" v:layerMember="0" transform="translate(54.2871,-5.03713)">
				<title>시트.20</title>
			</g>
			<g id="shape21-60" v:mID="21" v:groupContext="shape" v:layerMember="0" transform="translate(14.0315,0)">
				<title>시트.21</title>
				<path d="M32.07 451.72 L0 451.72 L0 411.63 L32.07 411.63 A20.045 20.045 0 0 1 32.07 451.72 Z" class="st2"/>
			</g>
			<g id="shape16-62" v:mID="16" v:groupContext="groupContent" v:layerMember="0">
				<v:textBlock v:margins="rect(1,1,1,1)" v:tabSpace="42.5197"/>
				<v:textRect cx="40.09" cy="457.517" width="14.14" height="11.6036"/>
				<text x="35.08" y="459.92" class="st3" v:langID="1042"><v:paragraph v:horizAlign="1"/><v:tabList/>G3</text>			</g>
		</g>
		<g id="shape44-64" v:mID="44" v:groupContext="shape" v:layerMember="0" transform="translate(368.879,-287.257)">
			<title>I/O 포트.44</title>
			<desc>Ans1</desc>
			<v:userDefs>
				<v:ud v:nameU="Form" v:val="VT0(0):26"/>
				<v:ud v:nameU="visVersion" v:val="VT0(15):26"/>
				<v:ud v:nameU="visDescription" v:val="VT4(단방향 또는 양방향 I/O 포트입니다. )"/>
			</v:userDefs>
			<v:textBlock v:margins="rect(1,1,1,1)" v:tabSpace="42.5197"/>
			<v:textRect cx="17.3723" cy="437.227" width="22.58" height="11.6036"/>
			<path d="M0 447.37 L0 443.03 L26.06 443.03 L34.74 447.37 L26.06 451.72 L0 451.72 L0 447.37 Z" class="st2"/>
			<text x="8.49" y="439.63" class="st3" v:langID="1042"><v:paragraph v:horizAlign="1"/><v:tabList/>Ans1</text>		</g>
		<g id="shape45-67" v:mID="45" v:groupContext="shape" v:layerMember="0" transform="translate(368.879,-90.9003)">
			<title>I/O 포트.45</title>
			<desc>Ans4</desc>
			<v:userDefs>
				<v:ud v:nameU="Form" v:val="VT0(0):26"/>
				<v:ud v:nameU="visVersion" v:val="VT0(15):26"/>
				<v:ud v:nameU="visDescription" v:val="VT4(단방향 또는 양방향 I/O 포트입니다. )"/>
			</v:userDefs>
			<v:textBlock v:margins="rect(1,1,1,1)" v:tabSpace="42.5197"/>
			<v:textRect cx="17.3723" cy="437.227" width="21.88" height="11.6036"/>
			<path d="M0 447.37 L0 443.03 L26.06 443.03 L34.74 447.37 L26.06 451.72 L0 451.72 L0 447.37 Z" class="st2"/>
			<text x="8.49" y="439.63" class="st3" v:langID="1042"><v:paragraph v:horizAlign="1"/><v:tabList/>Ans4</text>		</g>
		<g id="shape46-70" v:mID="46" v:groupContext="shape" v:layerMember="0" transform="translate(368.879,-25.4481)">
			<title>I/O 포트.46</title>
			<desc>Ans5</desc>
			<v:userDefs>
				<v:ud v:nameU="Form" v:val="VT0(0):26"/>
				<v:ud v:nameU="visVersion" v:val="VT0(15):26"/>
				<v:ud v:nameU="visDescription" v:val="VT4(단방향 또는 양방향 I/O 포트입니다. )"/>
			</v:userDefs>
			<v:textBlock v:margins="rect(1,1,1,1)" v:tabSpace="42.5197"/>
			<v:textRect cx="17.3723" cy="437.227" width="21.88" height="11.6036"/>
			<path d="M0 447.37 L0 443.03 L26.06 443.03 L34.74 447.37 L26.06 451.72 L0 451.72 L0 447.37 Z" class="st2"/>
			<text x="8.49" y="439.63" class="st3" v:langID="1042"><v:paragraph v:horizAlign="1"/><v:tabList/>Ans5</text>		</g>
		<g id="group47-73" transform="translate(438.368,-51.8778)" v:mID="47" v:groupContext="group" v:layerMember="0">
			<v:custProps>
				<v:cp v:nameU="Input" v:lbl="입력 수" v:type="1" v:format="2;3;4;5" v:sortKey="2" v:langID="1042" v:val="VT4(2)"/>
				<v:cp v:nameU="Type" v:lbl="게이트 종류" v:type="1" v:format="OR;AND;NOR;NAND;XOR;XNOR" v:sortKey="1" v:langID="1042"
						v:val="VT4(AND)"/>
				<v:cp v:nameU="Out" v:lbl="출력 수" v:type="1" v:format="1;2;3" v:sortKey="3" v:langID="1042" v:val="VT4(1)"/>
			</v:custProps>
			<v:userDefs>
				<v:ud v:nameU="SubType" v:val="VT0(1):26"/>
				<v:ud v:nameU="Margin" v:val="VT0(0.059055118110236):24"/>
				<v:ud v:nameU="LimitHeight" v:val="VT0(0):26"/>
				<v:ud v:nameU="visVersion" v:val="VT0(15):26"/>
				<v:ud v:nameU="visDescription" v:val="VT4(여러 가지 모양의 논리 게이트를 나타냅니다.)"/>
				<v:ud v:nameU="Margin" v:prompt="" v:val="VT0(0.13920134983127):1"/>
			</v:userDefs>
			<title>논리 게이트 2.47</title>
			<desc>G2</desc>
			<g id="shape48-74" v:mID="48" v:groupContext="shape" v:layerMember="0" transform="translate(0,-10.0225)">
				<title>시트.48</title>
				<path d="M0 431.67 L40.09 431.67" class="st1"/>
				<path d="M0 451.72 L40.09 451.72" class="st1"/>
				<path d="M80.18 441.69 L40.09 441.69" class="st1"/>
			</g>
			<g id="shape49-79" v:mID="49" v:groupContext="shape" v:layerMember="0" transform="translate(14.0315,0)">
				<title>시트.49</title>
				<v:userDefs>
					<v:ud v:nameU="X" v:val="VT0(0.029527559055118):24"/>
					<v:ud v:nameU="X" v:prompt="" v:val="VT0(0.069600674915635):1"/>
				</v:userDefs>
				<path d="M52.12 431.67 A53.9825 33.0731 0 0 1 15.64 451.72 L0 451.72 A77.344 47.3857 -180 0 0 0 411.63 L15.64 411.63
							 A53.2595 32.6301 0 0 1 52.12 431.67 Z" class="st2"/>
			</g>
			<g id="shape50-81" v:mID="50" v:groupContext="shape" v:layerMember="0" transform="translate(0,6.68166)">
				<title>시트.50</title>
			</g>
			<g id="shape51-83" v:mID="51" v:groupContext="shape" v:layerMember="0" transform="translate(54.2871,-5.03713)">
				<title>시트.51</title>
			</g>
			<g id="shape52-85" v:mID="52" v:groupContext="shape" v:layerMember="0" transform="translate(14.0315,0)">
				<title>시트.52</title>
				<path d="M32.07 451.72 L0 451.72 L0 411.63 L32.07 411.63 A20.045 20.045 0 0 1 32.07 451.72 Z" class="st2"/>
			</g>
			<g id="shape47-87" v:mID="47" v:groupContext="groupContent" v:layerMember="0">
				<v:textBlock v:margins="rect(1,1,1,1)" v:tabSpace="42.5197"/>
				<v:textRect cx="40.09" cy="457.517" width="14.14" height="11.6036"/>
				<text x="35.08" y="459.92" class="st3" v:langID="1042"><v:paragraph v:horizAlign="1"/><v:tabList/>G2</text>			</g>
		</g>
		<g id="group53-89" transform="translate(660.442,-140.651)" v:mID="53" v:groupContext="group" v:layerMember="0">
			<v:custProps>
				<v:cp v:nameU="Input" v:lbl="입력 수" v:type="1" v:format="2;3;4;5" v:sortKey="2" v:langID="1042" v:val="VT4(2)"/>
				<v:cp v:nameU="Type" v:lbl="게이트 종류" v:type="1" v:format="OR;AND;NOR;NAND;XOR;XNOR" v:sortKey="1" v:langID="1042"
						v:val="VT4(AND)"/>
				<v:cp v:nameU="Out" v:lbl="출력 수" v:type="1" v:format="1;2;3" v:sortKey="3" v:langID="1042" v:val="VT4(1)"/>
			</v:custProps>
			<v:userDefs>
				<v:ud v:nameU="SubType" v:val="VT0(1):26"/>
				<v:ud v:nameU="Margin" v:val="VT0(0.059055118110236):24"/>
				<v:ud v:nameU="LimitHeight" v:val="VT0(0):26"/>
				<v:ud v:nameU="visVersion" v:val="VT0(15):26"/>
				<v:ud v:nameU="visDescription" v:val="VT4(여러 가지 모양의 논리 게이트를 나타냅니다.)"/>
				<v:ud v:nameU="Margin" v:prompt="" v:val="VT0(0.13920134983127):1"/>
			</v:userDefs>
			<title>논리 게이트 2.53</title>
			<desc>G4</desc>
			<g id="shape54-90" v:mID="54" v:groupContext="shape" v:layerMember="0" transform="translate(0,-10.0225)">
				<title>시트.54</title>
				<path d="M0 431.67 L40.09 431.67" class="st1"/>
				<path d="M0 451.72 L40.09 451.72" class="st1"/>
				<path d="M80.18 441.69 L40.09 441.69" class="st1"/>
			</g>
			<g id="shape55-95" v:mID="55" v:groupContext="shape" v:layerMember="0" transform="translate(14.0315,0)">
				<title>시트.55</title>
				<v:userDefs>
					<v:ud v:nameU="X" v:val="VT0(0.029527559055118):24"/>
					<v:ud v:nameU="X" v:prompt="" v:val="VT0(0.069600674915635):1"/>
				</v:userDefs>
				<path d="M52.12 431.67 A53.9825 33.0731 0 0 1 15.64 451.72 L0 451.72 A77.344 47.3857 -180 0 0 0 411.63 L15.64 411.63
							 A53.2595 32.6301 0 0 1 52.12 431.67 Z" class="st2"/>
			</g>
			<g id="shape56-97" v:mID="56" v:groupContext="shape" v:layerMember="0" transform="translate(0,6.68166)">
				<title>시트.56</title>
			</g>
			<g id="shape57-99" v:mID="57" v:groupContext="shape" v:layerMember="0" transform="translate(54.2871,-5.03713)">
				<title>시트.57</title>
			</g>
			<g id="shape58-101" v:mID="58" v:groupContext="shape" v:layerMember="0" transform="translate(14.0315,0)">
				<title>시트.58</title>
				<path d="M32.07 451.72 L0 451.72 L0 411.63 L32.07 411.63 A20.045 20.045 0 0 1 32.07 451.72 Z" class="st2"/>
			</g>
			<g id="shape53-103" v:mID="53" v:groupContext="groupContent" v:layerMember="0">
				<v:textBlock v:margins="rect(1,1,1,1)" v:tabSpace="42.5197"/>
				<v:textRect cx="40.09" cy="457.517" width="14.14" height="11.6036"/>
				<text x="35.08" y="459.92" class="st3" v:langID="1042"><v:paragraph v:horizAlign="1"/><v:tabList/>G4</text>			</g>
		</g>
		<g id="shape59-105" v:mID="59" v:groupContext="shape" v:layerMember="0" transform="translate(779.903,-156.353)">
			<title>I/O 포트.59</title>
			<desc>Bent Input Shaft</desc>
			<v:userDefs>
				<v:ud v:nameU="Form" v:val="VT0(0):26"/>
				<v:ud v:nameU="visVersion" v:val="VT0(15):26"/>
				<v:ud v:nameU="visDescription" v:val="VT4(단방향 또는 양방향 I/O 포트입니다. )"/>
			</v:userDefs>
			<v:textBlock v:margins="rect(1,1,1,1)" v:tabSpace="42.5197"/>
			<v:textRect cx="14.1732" cy="461.027" width="64.17" height="11.6036"/>
			<path d="M0 447.37 L0 443.03 L26.06 443.03 L34.74 447.37 L26.06 451.72 L0 451.72 L0 447.37 Z" class="st2"/>
			<text x="-15.5" y="463.43" class="st3" v:langID="1033"><v:paragraph v:horizAlign="1"/><v:tabList/>Bent Input Shaft</text>		</g>
		<g id="shape60-108" v:mID="60" v:groupContext="shape" v:layerMember="1" transform="translate(403.624,-291.6)">
			<title>동적 연결선</title>
			<desc>True</desc>
			<v:textBlock v:margins="rect(4,4,4,4)" v:tabSpace="42.5197"/>
			<v:textRect cx="61.5461" cy="468.816" width="50" height="20.0036"/>
			<path d="M0 451.72 L10.63 451.72 L10.63 468.82 L140.19 468.82" class="st9"/>
			<rect v:rectContext="textBkgnd" x="51.5436" y="462.817" width="20.005" height="12.0001" class="st7"/>
			<text x="51.54" y="471.82" class="st10" v:langID="1042"><v:paragraph v:horizAlign="1"/><v:tabList/>True</text>		</g>
		<g id="shape61-113" v:mID="61" v:groupContext="shape" v:layerMember="1" transform="translate(518.548,-208.296)">
			<title>동적 연결선.61</title>
			<desc>True</desc>
			<v:textBlock v:margins="rect(4,4,4,4)" v:tabSpace="42.5197"/>
			<v:textRect cx="10.6299" cy="426.632" width="50" height="20.0036"/>
			<path d="M0 451.72 L10.63 451.72 L10.63 405.56 L25.27 405.56" class="st9"/>
			<rect v:rectContext="textBkgnd" x="0.627358" y="420.632" width="20.005" height="12.0001" class="st7"/>
			<text x="0.63" y="429.63" class="st10" v:langID="1042"><v:paragraph v:horizAlign="1"/><v:tabList/>True</text>		</g>
		<g id="shape62-118" v:mID="62" v:groupContext="shape" v:layerMember="1" transform="translate(623.997,-264.476)">
			<title>동적 연결선.62</title>
			<desc>True</desc>
			<v:textBlock v:margins="rect(4,4,4,4)" v:tabSpace="42.5197"/>
			<v:textRect cx="10.6299" cy="506.187" width="50" height="20.0036"/>
			<path d="M0 451.72 L10.63 451.72 L10.63 545.47 L36.45 545.47" class="st9"/>
			<rect v:rectContext="textBkgnd" x="0.627358" y="500.187" width="20.005" height="12.0001" class="st7"/>
			<text x="0.63" y="509.19" class="st10" v:langID="1042"><v:paragraph v:horizAlign="1"/><v:tabList/>True</text>		</g>
		<g id="shape63-123" v:mID="63" v:groupContext="shape" v:layerMember="1" transform="translate(403.624,-95.681)">
			<title>동적 연결선.63</title>
			<desc>True</desc>
			<v:textBlock v:margins="rect(4,4,4,4)" v:tabSpace="42.5197"/>
			<v:textRect cx="10.7233" cy="465.451" width="50" height="20.0036"/>
			<path d="M0 452.15 L10.63 452.15 L10.63 465.45 L34.74 465.45" class="st9"/>
			<rect v:rectContext="textBkgnd" x="0.720721" y="459.451" width="20.005" height="12.0001" class="st7"/>
			<text x="0.72" y="468.45" class="st10" v:langID="1042"><v:paragraph v:horizAlign="1"/><v:tabList/>True</text>		</g>
		<g id="shape64-128" v:mID="64" v:groupContext="shape" v:layerMember="1" transform="translate(403.624,-29.7912)">
			<title>동적 연결선.64</title>
			<desc>True</desc>
			<v:textBlock v:margins="rect(4,4,4,4)" v:tabSpace="42.5197"/>
			<v:textRect cx="10.6299" cy="428.918" width="50" height="20.0036"/>
			<path d="M0 451.72 L10.63 451.72 L10.63 419.61 L34.74 419.61" class="st9"/>
			<rect v:rectContext="textBkgnd" x="0.627358" y="422.918" width="20.005" height="12.0001" class="st7"/>
			<text x="0.63" y="431.92" class="st10" v:langID="1042"><v:paragraph v:horizAlign="1"/><v:tabList/>True</text>		</g>
		<g id="shape66-133" v:mID="66" v:groupContext="shape" v:layerMember="1" transform="translate(518.548,-71.9228)">
			<title>동적 연결선.66</title>
			<desc>True</desc>
			<v:textBlock v:margins="rect(4,4,4,4)" v:tabSpace="42.5197"/>
			<v:textRect cx="31.572" cy="372.965" width="50" height="20.0036"/>
			<path d="M0 451.72 L10.63 451.72 L10.63 372.96 L141.89 372.96" class="st9"/>
			<rect v:rectContext="textBkgnd" x="21.5694" y="366.965" width="20.005" height="12.0001" class="st7"/>
			<text x="21.57" y="375.97" class="st10" v:langID="1042"><v:paragraph v:horizAlign="1"/><v:tabList/>True</text>		</g>
		<g id="shape67-138" v:mID="67" v:groupContext="shape" v:layerMember="1" transform="translate(740.622,-153.609)">
			<title>동적 연결선.67</title>
			<desc>True</desc>
			<v:textBlock v:margins="rect(4,4,4,4)" v:tabSpace="42.5197"/>
			<v:textRect cx="19.64" cy="444.629" width="50" height="20.0036"/>
			<path d="M0 444.63 L39.28 444.63" class="st9"/>
			<rect v:rectContext="textBkgnd" x="9.63748" y="438.629" width="20.005" height="12.0001" class="st7"/>
			<text x="9.64" y="447.63" class="st10" v:langID="1042"><v:paragraph v:horizAlign="1"/><v:tabList/>True</text>		</g>
		<g id="shape68-143" v:mID="68" v:groupContext="shape" transform="translate(297.638,-407.475)">
			<title>시트.68</title>
			<desc>Gear Fault 02 - Bent Input Shaft</desc>
			<v:textBlock v:margins="rect(4,4,4,4)" v:tabSpace="42.5197"/>
			<v:textRect cx="120.079" cy="440.513" width="240.16" height="22.4037"/>
			<rect x="0" y="429.311" width="240.159" height="22.4037" class="st11"/>
			<text x="12.18" y="444.71" class="st12" v:langID="1033"><v:paragraph v:horizAlign="1"/><v:tabList/>Gear Fault 02 - Bent Input Shaft</text>		</g>
	</g>
</svg>
