<?xml version="1.0" encoding="UTF-8" standalone="no"?>
<!DOCTYPE svg PUBLIC "-//W3C//DTD SVG 1.1//EN" "http://www.w3.org/Graphics/SVG/1.1/DTD/svg11.dtd">
<!-- Microsoft Visio, SVG Export에서 생성되었습니다. Motor_Fault_02.svg Motor_Fault_02_Bent Shaft -->
<svg xmlns="http://www.w3.org/2000/svg" xmlns:xlink="http://www.w3.org/1999/xlink" xmlns:ev="http://www.w3.org/2001/xml-events"
		xmlns:v="http://schemas.microsoft.com/visio/2003/SVGExtensions/" width="11.6929in" height="8.26772in"
		viewBox="0 0 841.89 595.276" xml:space="preserve" color-interpolation-filters="sRGB" class="st12">
	<v:documentProperties v:langID="1042" v:metric="true" v:viewMarkup="false">
		<v:userDefs>
			<v:ud v:nameU="msvNoAutoConnect" v:val="VT0(1):26"/>
		</v:userDefs>
	</v:documentProperties>

	<style type="text/css">
	<![CDATA[
		.st1 {fill:#ffffff;stroke:none;stroke-linecap:round;stroke-linejoin:round;stroke-width:0.75}
		.st2 {fill:#000000;font-family:맑은 고딕;font-size:1.16666em;font-weight:bold}
		.st3 {fill:none;stroke:none;stroke-linecap:round;stroke-linejoin:round;stroke-width:0.75}
		.st4 {fill:#000000;font-family:맑은 고딕;font-size:1.00001em}
		.st5 {stroke:#000000;stroke-linecap:round;stroke-linejoin:round;stroke-width:0.75}
		.st6 {fill:#ffffff;stroke:#000000;stroke-linecap:round;stroke-linejoin:round;stroke-width:0.75}
		.st7 {fill:#000000;font-family:맑은 고딕;font-size:0.666664em}
		.st8 {stroke:#7f7f7f;stroke-linecap:round;stroke-linejoin:round;stroke-width:1}
		.st9 {fill:#ffffff;stroke:none;stroke-linecap:butt;stroke-width:7.2}
		.st10 {fill:#7f7f7f;font-family:맑은 고딕;font-size:0.666664em}
		.st11 {fill:#ffffff;stroke:#000000;stroke-linecap:round;stroke-linejoin:round;stroke-width:1}
		.st12 {fill:none;fill-rule:evenodd;font-size:12px;overflow:visible;stroke-linecap:square;stroke-miterlimit:3}
	]]>
	</style>

	<g v:mID="24" v:index="2" v:groupContext="foregroundPage">
		<title>Motor_Fault_02_Bent Shaft</title>
		<v:pageProperties v:drawingScale="0.0393701" v:pageScale="0.0393701" v:drawingUnits="24" v:shadowOffsetX="8.50394"
				v:shadowOffsetY="-8.50394"/>
		<v:layer v:name="전기" v:index="0"/>
		<v:layer v:name="연결선" v:index="1"/>
		<g id="shape1-1" v:mID="1" v:groupContext="shape" transform="translate(127.559,-552.179)">
			<title>시트.1</title>
			<desc>Motor Fault 02 - Bent Shaft</desc>
			<v:textBlock v:margins="rect(4,4,4,4)" v:tabSpace="42.5197"/>
			<v:textRect cx="286.299" cy="584.074" width="572.6" height="22.4037"/>
			<rect x="0" y="572.872" width="572.598" height="22.4037" class="st1"/>
			<text x="193.21" y="588.27" class="st2" v:langID="1033"><v:paragraph v:horizAlign="1"/><v:tabList/>Motor Fault 02 - Bent Shaft</text>		</g>
		<g id="shape2-4" v:mID="2" v:groupContext="shape" transform="translate(21.1864,-410.173)">
			<title>시트.2</title>
			<desc>Axial Harmonic Energy &#62; 70% Threshold Ref</desc>
			<v:textBlock v:margins="rect(4,4,4,4)" v:tabSpace="42.5197"/>
			<v:textRect cx="159.449" cy="583.937" width="318.9" height="22.6772"/>
			<rect x="0" y="572.598" width="318.898" height="22.6772" class="st3"/>
			<text x="71.81" y="587.54" class="st4" v:langID="1033"><v:paragraph v:horizAlign="2"/><v:tabList/>Axial Harmonic Energy &#62; 70% Threshold Ref</text>		</g>
		<g id="shape3-7" v:mID="3" v:groupContext="shape" transform="translate(21.1864,-329.641)">
			<title>시트.3</title>
			<desc>Axial Harmonic Energy &#62; 50% Horiz Harmonic Energy</desc>
			<v:textBlock v:margins="rect(4,4,4,4)" v:tabSpace="42.5197"/>
			<v:textRect cx="159.449" cy="583.937" width="318.9" height="22.6772"/>
			<rect x="0" y="572.598" width="318.898" height="22.6772" class="st3"/>
			<text x="20.59" y="587.54" class="st4" v:langID="1033"><v:paragraph v:horizAlign="2"/><v:tabList/>Axial Harmonic Energy &#62; 50% Horiz Harmonic Energy</text>		</g>
		<g id="shape4-10" v:mID="4" v:groupContext="shape" transform="translate(21.1864,-249.109)">
			<title>시트.4</title>
			<desc>Axial Harmonic Energy &#62; 50% Vert Harmonic Energy</desc>
			<v:textBlock v:margins="rect(4,4,4,4)" v:tabSpace="42.5197"/>
			<v:textRect cx="159.449" cy="583.937" width="318.9" height="22.6772"/>
			<rect x="0" y="572.598" width="318.898" height="22.6772" class="st3"/>
			<text x="26.8" y="587.54" class="st4" v:langID="1033"><v:paragraph v:horizAlign="2"/><v:tabList/>Axial Harmonic Energy &#62; 50% Vert Harmonic Energy</text>		</g>
		<g id="shape5-13" v:mID="5" v:groupContext="shape" transform="translate(21.1864,-168.576)">
			<title>시트.5</title>
			<desc>Axial 1xRPM / Vert 1xRPM &#60;= 5.0</desc>
			<v:textBlock v:margins="rect(4,4,4,4)" v:tabSpace="42.5197"/>
			<v:textRect cx="159.449" cy="583.937" width="318.9" height="22.6772"/>
			<rect x="0" y="572.598" width="318.898" height="22.6772" class="st3"/>
			<text x="129.42" y="587.54" class="st4" v:langID="1033"><v:paragraph v:horizAlign="2"/><v:tabList/>Axial 1xRPM / Vert 1xRPM &#60;= 5.0</text>		</g>
		<g id="shape6-16" v:mID="6" v:groupContext="shape" transform="translate(21.1864,-88.0441)">
			<title>시트.6</title>
			<desc>Axial 1xRPM / Horiz 1xRPM &#60;= 5.0</desc>
			<v:textBlock v:margins="rect(4,4,4,4)" v:tabSpace="42.5197"/>
			<v:textRect cx="159.449" cy="583.937" width="318.9" height="22.6772"/>
			<rect x="0" y="572.598" width="318.898" height="22.6772" class="st3"/>
			<text x="123.21" y="587.54" class="st4" v:langID="1033"><v:paragraph v:horizAlign="2"/><v:tabList/>Axial 1xRPM / Horiz 1xRPM &#60;= 5.0</text>		</g>
		<g id="group7-19" transform="translate(438.734,-292.32)" v:mID="7" v:groupContext="group" v:layerMember="0">
			<v:custProps>
				<v:cp v:nameU="Input" v:lbl="입력 수" v:type="1" v:format="2;3;4;5" v:sortKey="2" v:langID="1042" v:val="VT4(2)"/>
				<v:cp v:nameU="Type" v:lbl="게이트 종류" v:type="1" v:format="OR;AND;NOR;NAND;XOR;XNOR" v:sortKey="1" v:langID="1042"
						v:val="VT4(AND)"/>
				<v:cp v:nameU="Out" v:lbl="출력 수" v:type="1" v:format="1;2;3" v:sortKey="3" v:langID="1042" v:val="VT4(1)"/>
				<v:cp v:nameU="Type" v:lbl="" v:prompt="" v:type="0" v:format="" v:sortKey="" v:invis="false" v:ask="false"
						v:langID="1033" v:cal="0" v:val="VT4(OR)"/>
			</v:custProps>
			<v:userDefs>
				<v:ud v:nameU="SubType" v:val="VT0(1):26"/>
				<v:ud v:nameU="Margin" v:val="VT0(0.059055118110236):24"/>
				<v:ud v:nameU="LimitHeight" v:val="VT0(0):26"/>
				<v:ud v:nameU="visVersion" v:val="VT0(15):26"/>
				<v:ud v:nameU="visDescription" v:val="VT4(여러 가지 모양의 논리 게이트를 나타냅니다.)"/>
				<v:ud v:nameU="SubType" v:prompt="" v:val="VT0(0):26"/>
				<v:ud v:nameU="Margin" v:prompt="" v:val="VT0(0.1346628390844):1"/>
			</v:userDefs>
			<title>논리 게이트 2.23</title>
			<desc>G2</desc>
			<g id="shape8-20" v:mID="8" v:groupContext="shape" v:layerMember="0" transform="translate(0,-9.69572)">
				<title>시트.8</title>
				<path d="M0 575.88 L38.78 575.88" class="st5"/>
				<path d="M0 595.28 L38.78 595.28" class="st5"/>
				<path d="M77.57 585.58 L38.78 585.58" class="st5"/>
			</g>
			<g id="shape9-25" v:mID="9" v:groupContext="shape" v:layerMember="0" transform="translate(13.574,0)">
				<title>시트.9</title>
				<v:userDefs>
					<v:ud v:nameU="X" v:val="VT0(0.029527559055118):24"/>
					<v:ud v:nameU="X" v:prompt="" v:val="VT0(0.067331419542201):1"/>
				</v:userDefs>
				<path d="M50.42 575.89 A52.2225 31.9947 0 0 1 15.13 595.28 L0 595.28 A74.8223 45.8408 -180 0 0 0 556.49 L15.13 556.49
							 A51.5231 31.5662 0 0 1 50.42 575.89 Z" class="st6"/>
			</g>
			<g id="shape10-27" v:mID="10" v:groupContext="shape" v:layerMember="0" transform="translate(0,6.46382)">
				<title>시트.10</title>
			</g>
			<g id="shape11-29" v:mID="11" v:groupContext="shape" v:layerMember="0" transform="translate(52.5171,-4.8729)">
				<title>시트.11</title>
			</g>
			<g id="shape12-31" v:mID="12" v:groupContext="shape" v:layerMember="0" transform="translate(13.574,0)">
				<title>시트.12</title>
			</g>
			<g id="shape7-33" v:mID="7" v:groupContext="groupContent" v:layerMember="0">
				<v:textBlock v:margins="rect(1,1,1,1)" v:tabSpace="42.5197"/>
				<v:textRect cx="38.7829" cy="601.077" width="14.84" height="11.6036"/>
				<text x="33.77" y="603.48" class="st7" v:langID="1042"><v:paragraph v:horizAlign="1"/><v:tabList/>G2</text>			</g>
		</g>
		<g id="shape13-35" v:mID="13" v:groupContext="shape" v:layerMember="0" transform="translate(357.517,-415.83)">
			<title>I/O 포트.35</title>
			<desc>Ans2</desc>
			<v:userDefs>
				<v:ud v:nameU="Form" v:val="VT0(0):26"/>
				<v:ud v:nameU="visVersion" v:val="VT0(15):26"/>
				<v:ud v:nameU="visDescription" v:val="VT4(단방향 또는 양방향 I/O 포트입니다. )"/>
			</v:userDefs>
			<v:textBlock v:margins="rect(1,1,1,1)" v:tabSpace="42.5197"/>
			<v:textRect cx="16.8059" cy="581.071" width="21.88" height="11.6036"/>
			<path d="M0 591.07 L0 586.87 L25.21 586.87 L33.61 591.07 L25.21 595.28 L0 595.28 L0 591.07 Z" class="st6"/>
			<text x="7.93" y="583.47" class="st7" v:langID="1042"><v:paragraph v:horizAlign="1"/><v:tabList/>Ans2</text>		</g>
		<g id="shape14-38" v:mID="14" v:groupContext="shape" v:layerMember="0" transform="translate(357.517,-337.599)">
			<title>I/O 포트.36</title>
			<desc>Ans3</desc>
			<v:userDefs>
				<v:ud v:nameU="Form" v:val="VT0(0):26"/>
				<v:ud v:nameU="visVersion" v:val="VT0(15):26"/>
				<v:ud v:nameU="visDescription" v:val="VT4(단방향 또는 양방향 I/O 포트입니다. )"/>
			</v:userDefs>
			<v:textBlock v:margins="rect(1,1,1,1)" v:tabSpace="42.5197"/>
			<v:textRect cx="16.8059" cy="581.071" width="21.88" height="11.6036"/>
			<path d="M0 591.07 L0 586.87 L25.21 586.87 L33.61 591.07 L25.21 595.28 L0 595.28 L0 591.07 Z" class="st6"/>
			<text x="7.93" y="583.47" class="st7" v:langID="1042"><v:paragraph v:horizAlign="1"/><v:tabList/>Ans3</text>		</g>
		<g id="shape15-41" v:mID="15" v:groupContext="shape" v:layerMember="0" transform="translate(357.517,-259.367)">
			<title>I/O 포트.37</title>
			<desc>Ans4</desc>
			<v:userDefs>
				<v:ud v:nameU="Form" v:val="VT0(0):26"/>
				<v:ud v:nameU="visVersion" v:val="VT0(15):26"/>
				<v:ud v:nameU="visDescription" v:val="VT4(단방향 또는 양방향 I/O 포트입니다. )"/>
			</v:userDefs>
			<v:textBlock v:margins="rect(1,1,1,1)" v:tabSpace="42.5197"/>
			<v:textRect cx="16.8059" cy="581.071" width="21.88" height="11.6036"/>
			<path d="M0 591.07 L0 586.87 L25.21 586.87 L33.61 591.07 L25.21 595.28 L0 595.28 L0 591.07 Z" class="st6"/>
			<text x="7.93" y="583.47" class="st7" v:langID="1042"><v:paragraph v:horizAlign="1"/><v:tabList/>Ans4</text>		</g>
		<g id="shape16-44" v:mID="16" v:groupContext="shape" v:layerMember="0" transform="translate(357.517,-181.135)">
			<title>I/O 포트.38</title>
			<desc>Ans5</desc>
			<v:userDefs>
				<v:ud v:nameU="Form" v:val="VT0(0):26"/>
				<v:ud v:nameU="visVersion" v:val="VT0(15):26"/>
				<v:ud v:nameU="visDescription" v:val="VT4(단방향 또는 양방향 I/O 포트입니다. )"/>
			</v:userDefs>
			<v:textBlock v:margins="rect(1,1,1,1)" v:tabSpace="42.5197"/>
			<v:textRect cx="16.8059" cy="581.071" width="21.88" height="11.6036"/>
			<path d="M0 591.07 L0 586.87 L25.21 586.87 L33.61 591.07 L25.21 595.28 L0 595.28 L0 591.07 Z" class="st6"/>
			<text x="7.93" y="583.47" class="st7" v:langID="1042"><v:paragraph v:horizAlign="1"/><v:tabList/>Ans5</text>		</g>
		<g id="shape17-47" v:mID="17" v:groupContext="shape" v:layerMember="0" transform="translate(357.517,-102.904)">
			<title>I/O 포트.39</title>
			<desc>Ans6</desc>
			<v:userDefs>
				<v:ud v:nameU="Form" v:val="VT0(0):26"/>
				<v:ud v:nameU="visVersion" v:val="VT0(15):26"/>
				<v:ud v:nameU="visDescription" v:val="VT4(단방향 또는 양방향 I/O 포트입니다. )"/>
			</v:userDefs>
			<v:textBlock v:margins="rect(1,1,1,1)" v:tabSpace="42.5197"/>
			<v:textRect cx="16.8059" cy="581.071" width="21.88" height="11.6036"/>
			<path d="M0 591.07 L0 586.87 L25.21 586.87 L33.61 591.07 L25.21 595.28 L0 595.28 L0 591.07 Z" class="st6"/>
			<text x="7.93" y="583.47" class="st7" v:langID="1042"><v:paragraph v:horizAlign="1"/><v:tabList/>Ans6</text>		</g>
		<g id="group18-50" transform="translate(438.734,-131.345)" v:mID="18" v:groupContext="group" v:layerMember="0">
			<v:custProps>
				<v:cp v:nameU="Input" v:lbl="입력 수" v:type="1" v:format="2;3;4;5" v:sortKey="2" v:langID="1042" v:val="VT4(2)"/>
				<v:cp v:nameU="Type" v:lbl="게이트 종류" v:type="1" v:format="OR;AND;NOR;NAND;XOR;XNOR" v:sortKey="1" v:langID="1042"
						v:val="VT4(AND)"/>
				<v:cp v:nameU="Out" v:lbl="출력 수" v:type="1" v:format="1;2;3" v:sortKey="3" v:langID="1042" v:val="VT4(1)"/>
			</v:custProps>
			<v:userDefs>
				<v:ud v:nameU="SubType" v:val="VT0(1):26"/>
				<v:ud v:nameU="Margin" v:val="VT0(0.059055118110236):24"/>
				<v:ud v:nameU="LimitHeight" v:val="VT0(0):26"/>
				<v:ud v:nameU="visVersion" v:val="VT0(15):26"/>
				<v:ud v:nameU="visDescription" v:val="VT4(여러 가지 모양의 논리 게이트를 나타냅니다.)"/>
				<v:ud v:nameU="Margin" v:prompt="" v:val="VT0(0.1346628390844):1"/>
			</v:userDefs>
			<title>논리 게이트 2.40</title>
			<desc>G3</desc>
			<g id="shape19-51" v:mID="19" v:groupContext="shape" v:layerMember="0" transform="translate(0,-9.69572)">
				<title>시트.19</title>
				<path d="M0 575.88 L38.78 575.88" class="st5"/>
				<path d="M0 595.28 L38.78 595.28" class="st5"/>
				<path d="M77.57 585.58 L38.78 585.58" class="st5"/>
			</g>
			<g id="shape20-56" v:mID="20" v:groupContext="shape" v:layerMember="0" transform="translate(13.574,0)">
				<title>시트.20</title>
				<v:userDefs>
					<v:ud v:nameU="X" v:val="VT0(0.029527559055118):24"/>
					<v:ud v:nameU="X" v:prompt="" v:val="VT0(0.067331419542201):1"/>
				</v:userDefs>
				<path d="M50.42 575.89 A52.2225 31.9947 0 0 1 15.13 595.28 L0 595.28 A74.8223 45.8408 -180 0 0 0 556.49 L15.13 556.49
							 A51.5231 31.5662 0 0 1 50.42 575.89 Z" class="st6"/>
			</g>
			<g id="shape21-58" v:mID="21" v:groupContext="shape" v:layerMember="0" transform="translate(0,6.46382)">
				<title>시트.21</title>
			</g>
			<g id="shape22-60" v:mID="22" v:groupContext="shape" v:layerMember="0" transform="translate(52.5171,-4.8729)">
				<title>시트.22</title>
			</g>
			<g id="shape23-62" v:mID="23" v:groupContext="shape" v:layerMember="0" transform="translate(13.574,0)">
				<title>시트.23</title>
				<path d="M31.03 595.28 L0 595.28 L0 556.49 L31.03 556.49 A19.3914 19.3914 0 0 1 31.03 595.28 Z" class="st6"/>
			</g>
			<g id="shape18-64" v:mID="18" v:groupContext="groupContent" v:layerMember="0">
				<v:textBlock v:margins="rect(1,1,1,1)" v:tabSpace="42.5197"/>
				<v:textRect cx="38.7829" cy="601.077" width="14.14" height="11.6036"/>
				<text x="33.77" y="603.48" class="st7" v:langID="1042"><v:paragraph v:horizAlign="1"/><v:tabList/>G3</text>			</g>
		</g>
		<g id="group24-66" transform="translate(531.333,-371.799)" v:mID="24" v:groupContext="group" v:layerMember="0">
			<v:custProps>
				<v:cp v:nameU="Input" v:lbl="입력 수" v:type="1" v:format="2;3;4;5" v:sortKey="2" v:langID="1042" v:val="VT4(2)"/>
				<v:cp v:nameU="Type" v:lbl="게이트 종류" v:type="1" v:format="OR;AND;NOR;NAND;XOR;XNOR" v:sortKey="1" v:langID="1042"
						v:val="VT4(AND)"/>
				<v:cp v:nameU="Out" v:lbl="출력 수" v:type="1" v:format="1;2;3" v:sortKey="3" v:langID="1042" v:val="VT4(1)"/>
			</v:custProps>
			<v:userDefs>
				<v:ud v:nameU="SubType" v:val="VT0(1):26"/>
				<v:ud v:nameU="Margin" v:val="VT0(0.059055118110236):24"/>
				<v:ud v:nameU="LimitHeight" v:val="VT0(0):26"/>
				<v:ud v:nameU="visVersion" v:val="VT0(15):26"/>
				<v:ud v:nameU="visDescription" v:val="VT4(여러 가지 모양의 논리 게이트를 나타냅니다.)"/>
				<v:ud v:nameU="Margin" v:prompt="" v:val="VT0(0.1346628390844):1"/>
			</v:userDefs>
			<title>논리 게이트 2.46</title>
			<desc>G4</desc>
			<g id="shape25-67" v:mID="25" v:groupContext="shape" v:layerMember="0" transform="translate(0,-9.69572)">
				<title>시트.25</title>
				<path d="M0 575.88 L38.78 575.88" class="st5"/>
				<path d="M0 595.28 L38.78 595.28" class="st5"/>
				<path d="M77.57 585.58 L38.78 585.58" class="st5"/>
			</g>
			<g id="shape26-72" v:mID="26" v:groupContext="shape" v:layerMember="0" transform="translate(13.574,0)">
				<title>시트.26</title>
				<v:userDefs>
					<v:ud v:nameU="X" v:val="VT0(0.029527559055118):24"/>
					<v:ud v:nameU="X" v:prompt="" v:val="VT0(0.067331419542201):1"/>
				</v:userDefs>
				<path d="M50.42 575.89 A52.2225 31.9947 0 0 1 15.13 595.28 L0 595.28 A74.8223 45.8408 -180 0 0 0 556.49 L15.13 556.49
							 A51.5231 31.5662 0 0 1 50.42 575.89 Z" class="st6"/>
			</g>
			<g id="shape27-74" v:mID="27" v:groupContext="shape" v:layerMember="0" transform="translate(0,6.46382)">
				<title>시트.27</title>
			</g>
			<g id="shape28-76" v:mID="28" v:groupContext="shape" v:layerMember="0" transform="translate(52.5171,-4.8729)">
				<title>시트.28</title>
			</g>
			<g id="shape29-78" v:mID="29" v:groupContext="shape" v:layerMember="0" transform="translate(13.574,0)">
				<title>시트.29</title>
				<path d="M31.03 595.28 L0 595.28 L0 556.49 L31.03 556.49 A19.3914 19.3914 0 0 1 31.03 595.28 Z" class="st6"/>
			</g>
			<g id="shape24-80" v:mID="24" v:groupContext="groupContent" v:layerMember="0">
				<v:textBlock v:margins="rect(1,1,1,1)" v:tabSpace="42.5197"/>
				<v:textRect cx="38.7829" cy="601.077" width="14.14" height="11.6036"/>
				<text x="33.77" y="603.48" class="st7" v:langID="1042"><v:paragraph v:horizAlign="1"/><v:tabList/>G4</text>			</g>
		</g>
		<g id="group30-82" transform="translate(626.808,-228.987)" v:mID="30" v:groupContext="group" v:layerMember="0">
			<v:custProps>
				<v:cp v:nameU="Input" v:lbl="입력 수" v:type="1" v:format="2;3;4;5" v:sortKey="2" v:langID="1042" v:val="VT4(2)"/>
				<v:cp v:nameU="Type" v:lbl="게이트 종류" v:type="1" v:format="OR;AND;NOR;NAND;XOR;XNOR" v:sortKey="1" v:langID="1042"
						v:val="VT4(AND)"/>
				<v:cp v:nameU="Out" v:lbl="출력 수" v:type="1" v:format="1;2;3" v:sortKey="3" v:langID="1042" v:val="VT4(1)"/>
			</v:custProps>
			<v:userDefs>
				<v:ud v:nameU="SubType" v:val="VT0(1):26"/>
				<v:ud v:nameU="Margin" v:val="VT0(0.059055118110236):24"/>
				<v:ud v:nameU="LimitHeight" v:val="VT0(0):26"/>
				<v:ud v:nameU="visVersion" v:val="VT0(15):26"/>
				<v:ud v:nameU="visDescription" v:val="VT4(여러 가지 모양의 논리 게이트를 나타냅니다.)"/>
				<v:ud v:nameU="Margin" v:prompt="" v:val="VT0(0.1346628390844):1"/>
			</v:userDefs>
			<title>논리 게이트 2.52</title>
			<desc>G5</desc>
			<g id="shape31-83" v:mID="31" v:groupContext="shape" v:layerMember="0" transform="translate(0,-9.69572)">
				<title>시트.31</title>
				<path d="M0 575.88 L38.78 575.88" class="st5"/>
				<path d="M0 595.28 L38.78 595.28" class="st5"/>
				<path d="M77.57 585.58 L38.78 585.58" class="st5"/>
			</g>
			<g id="shape32-88" v:mID="32" v:groupContext="shape" v:layerMember="0" transform="translate(13.574,0)">
				<title>시트.32</title>
				<v:userDefs>
					<v:ud v:nameU="X" v:val="VT0(0.029527559055118):24"/>
					<v:ud v:nameU="X" v:prompt="" v:val="VT0(0.067331419542201):1"/>
				</v:userDefs>
				<path d="M50.42 575.89 A52.2225 31.9947 0 0 1 15.13 595.28 L0 595.28 A74.8223 45.8408 -180 0 0 0 556.49 L15.13 556.49
							 A51.5231 31.5662 0 0 1 50.42 575.89 Z" class="st6"/>
			</g>
			<g id="shape33-90" v:mID="33" v:groupContext="shape" v:layerMember="0" transform="translate(0,6.46382)">
				<title>시트.33</title>
			</g>
			<g id="shape34-92" v:mID="34" v:groupContext="shape" v:layerMember="0" transform="translate(52.5171,-4.8729)">
				<title>시트.34</title>
			</g>
			<g id="shape35-94" v:mID="35" v:groupContext="shape" v:layerMember="0" transform="translate(13.574,0)">
				<title>시트.35</title>
				<path d="M31.03 595.28 L0 595.28 L0 556.49 L31.03 556.49 A19.3914 19.3914 0 0 1 31.03 595.28 Z" class="st6"/>
			</g>
			<g id="shape30-96" v:mID="30" v:groupContext="groupContent" v:layerMember="0">
				<v:textBlock v:margins="rect(1,1,1,1)" v:tabSpace="42.5197"/>
				<v:textRect cx="38.7829" cy="601.077" width="14.14" height="11.6036"/>
				<text x="33.77" y="603.48" class="st7" v:langID="1042"><v:paragraph v:horizAlign="1"/><v:tabList/>G5</text>			</g>
		</g>
		<g id="shape36-98" v:mID="36" v:groupContext="shape" v:layerMember="1" transform="translate(391.129,-341.8)">
			<title>동적 연결선.60</title>
			<desc>Fault</desc>
			<v:textBlock v:margins="rect(4,4,4,4)" v:tabSpace="42.5197"/>
			<v:textRect cx="13.6059" cy="615.669" width="40" height="17.6036"/>
			<path d="M0 595.28 L10.63 595.28 L10.63 615.67 L47.6 615.67" class="st8"/>
			<rect v:rectContext="textBkgnd" x="4.85589" y="610.753" width="17.5001" height="9.83084" class="st9"/>
			<text x="4.86" y="618.13" class="st10" v:langID="1042"><v:paragraph v:horizAlign="1"/><v:tabList/>Fault</text>		</g>
		<g id="shape37-103" v:mID="37" v:groupContext="shape" v:layerMember="1" transform="translate(391.129,-263.568)">
			<title>동적 연결선.61</title>
			<desc>Fault</desc>
			<v:textBlock v:margins="rect(4,4,4,4)" v:tabSpace="42.5197"/>
			<v:textRect cx="10.6299" cy="562.88" width="40" height="17.6036"/>
			<path d="M0 595.28 L10.63 595.28 L10.63 556.83 L47.6 556.83" class="st8"/>
			<rect v:rectContext="textBkgnd" x="1.87992" y="557.964" width="17.5001" height="9.83084" class="st9"/>
			<text x="1.88" y="565.34" class="st10" v:langID="1042"><v:paragraph v:horizAlign="1"/><v:tabList/>Fault</text>		</g>
		<g id="shape38-108" v:mID="38" v:groupContext="shape" v:layerMember="1" transform="translate(391.129,-185.337)">
			<title>동적 연결선.62</title>
			<desc>Fault</desc>
			<v:textBlock v:margins="rect(4,4,4,4)" v:tabSpace="42.5197"/>
			<v:textRect cx="11.3498" cy="620.181" width="40" height="17.6036"/>
			<path d="M0 595.28 L10.63 595.28 L10.63 620.18 L47.6 620.18" class="st8"/>
			<rect v:rectContext="textBkgnd" x="2.59981" y="615.265" width="17.5001" height="9.83084" class="st9"/>
			<text x="2.6" y="622.64" class="st10" v:langID="1042"><v:paragraph v:horizAlign="1"/><v:tabList/>Fault</text>		</g>
		<g id="shape39-113" v:mID="39" v:groupContext="shape" v:layerMember="1" transform="translate(391.129,-107.105)">
			<title>동적 연결선.63</title>
			<desc>Fault</desc>
			<v:textBlock v:margins="rect(4,4,4,4)" v:tabSpace="42.5197"/>
			<v:textRect cx="10.6299" cy="565.136" width="40" height="17.6036"/>
			<path d="M0 595.28 L10.63 595.28 L10.63 561.34 L47.6 561.34" class="st8"/>
			<rect v:rectContext="textBkgnd" x="1.87992" y="560.22" width="17.5001" height="9.83084" class="st9"/>
			<text x="1.88" y="567.59" class="st10" v:langID="1042"><v:paragraph v:horizAlign="1"/><v:tabList/>Fault</text>		</g>
		<g id="shape40-118" v:mID="40" v:groupContext="shape" v:layerMember="1" transform="translate(516.299,-311.711)">
			<title>동적 연결선.64</title>
			<desc>Fault</desc>
			<v:textBlock v:margins="rect(4,4,4,4)" v:tabSpace="42.5197"/>
			<v:textRect cx="5.31496" cy="558.182" width="40" height="17.6036"/>
			<path d="M0 595.28 L5.31 595.28 L5.31 525.49 L15.03 525.49" class="st8"/>
			<rect v:rectContext="textBkgnd" x="-3.43504" y="553.267" width="17.5001" height="9.83084" class="st9"/>
			<text x="-3.44" y="560.64" class="st10" v:langID="1042"><v:paragraph v:horizAlign="1"/><v:tabList/>Fault</text>		</g>
		<g id="shape41-123" v:mID="41" v:groupContext="shape" v:layerMember="1" transform="translate(391.129,-420.032)">
			<title>동적 연결선.65</title>
			<desc>Fault</desc>
			<v:textBlock v:margins="rect(4,4,4,4)" v:tabSpace="42.5197"/>
			<v:textRect cx="79.6748" cy="595.276" width="40" height="17.6036"/>
			<path d="M0 595.28 L84.55 595.28 L84.55 614.42 L140.2 614.42" class="st8"/>
			<rect v:rectContext="textBkgnd" x="70.9248" y="590.36" width="17.5001" height="9.83084" class="st9"/>
			<text x="70.92" y="597.73" class="st10" v:langID="1042"><v:paragraph v:horizAlign="1"/><v:tabList/>Fault</text>		</g>
		<g id="shape42-128" v:mID="42" v:groupContext="shape" v:layerMember="1" transform="translate(516.299,-150.736)">
			<title>동적 연결선.66</title>
			<desc>Fault</desc>
			<v:textBlock v:margins="rect(4,4,4,4)" v:tabSpace="42.5197"/>
			<v:textRect cx="11.2812" cy="507.329" width="40" height="17.6036"/>
			<path d="M0 595.28 L10.63 595.28 L10.63 507.33 L110.51 507.33" class="st8"/>
			<rect v:rectContext="textBkgnd" x="2.53115" y="502.414" width="17.5001" height="9.83084" class="st9"/>
			<text x="2.53" y="509.79" class="st10" v:langID="1042"><v:paragraph v:horizAlign="1"/><v:tabList/>Fault</text>		</g>
		<g id="shape43-133" v:mID="43" v:groupContext="shape" v:layerMember="1" transform="translate(608.898,-391.19)">
			<title>동적 연결선.67</title>
			<desc>Fault</desc>
			<v:textBlock v:margins="rect(4,4,4,4)" v:tabSpace="42.5197"/>
			<v:textRect cx="10.6299" cy="660.159" width="40" height="17.6036"/>
			<path d="M0 595.28 L10.63 595.28 L10.63 728.39 L17.91 728.39" class="st8"/>
			<rect v:rectContext="textBkgnd" x="1.87992" y="655.243" width="17.5001" height="9.83084" class="st9"/>
			<text x="1.88" y="662.62" class="st10" v:langID="1042"><v:paragraph v:horizAlign="1"/><v:tabList/>Fault</text>		</g>
		<g id="shape44-138" v:mID="44" v:groupContext="shape" v:layerMember="1" transform="translate(704.374,-241.292)">
			<title>동적 연결선.78</title>
			<desc>Fault</desc>
			<v:textBlock v:margins="rect(4,4,4,4)" v:tabSpace="42.5197"/>
			<v:textRect cx="37.8535" cy="588.189" width="40" height="17.6036"/>
			<path d="M0 588.19 L75.71 588.19" class="st8"/>
			<rect v:rectContext="textBkgnd" x="29.1035" y="583.274" width="17.5001" height="9.83084" class="st9"/>
			<text x="29.1" y="590.65" class="st10" v:langID="1042"><v:paragraph v:horizAlign="1"/><v:tabList/>Fault</text>		</g>
		<g id="shape45-143" v:mID="45" v:groupContext="shape" v:layerMember="0" transform="translate(780.081,-244.177)">
			<title>I/O 포트</title>
			<desc>Bent Shaft</desc>
			<v:userDefs>
				<v:ud v:nameU="Form" v:val="VT0(0):26"/>
				<v:ud v:nameU="visVersion" v:val="VT0(15):26"/>
				<v:ud v:nameU="visDescription" v:val="VT4(단방향 또는 양방향 I/O 포트입니다. )"/>
			</v:userDefs>
			<v:textBlock v:margins="rect(1,1,1,1)" v:tabSpace="42.5197"/>
			<v:textRect cx="20.4902" cy="606.701" width="42.39" height="11.6036"/>
			<path d="M0 591.07 L0 586.87 L25.21 586.87 L33.61 591.07 L25.21 595.28 L0 595.28 L0 591.07 Z" class="st11"/>
			<text x="1.71" y="609.1" class="st7" v:langID="1033"><v:paragraph v:horizAlign="1"/><v:tabList/>Bent Shaft</text>		</g>
	</g>
</svg>
