<?xml version="1.0" encoding="UTF-8" standalone="no"?>
<!DOCTYPE svg PUBLIC "-//W3C//DTD SVG 1.1//EN" "http://www.w3.org/Graphics/SVG/1.1/DTD/svg11.dtd">
<!-- Microsoft Visio, SVG Export에서 생성되었습니다. Motor_Fault_24.svg Motor_Fault_24_Motor Stator Problem -->
<svg xmlns="http://www.w3.org/2000/svg" xmlns:xlink="http://www.w3.org/1999/xlink" xmlns:ev="http://www.w3.org/2001/xml-events"
		xmlns:v="http://schemas.microsoft.com/visio/2003/SVGExtensions/" width="11.6929in" height="8.26772in"
		viewBox="0 0 841.89 595.276" xml:space="preserve" color-interpolation-filters="sRGB" class="st13">
	<v:documentProperties v:langID="1042" v:metric="true" v:viewMarkup="false">
		<v:userDefs>
			<v:ud v:nameU="msvNoAutoConnect" v:val="VT0(1):26"/>
		</v:userDefs>
	</v:documentProperties>

	<style type="text/css">
	<![CDATA[
		.st1 {fill:#ffffff;stroke:none;stroke-linecap:round;stroke-linejoin:round;stroke-width:0.75}
		.st2 {fill:#000000;font-family:맑은 고딕;font-size:1.16666em;font-weight:bold}
		.st3 {fill:#000000;font-family:맑은 고딕;font-size:1.00001em}
		.st4 {font-size:1em}
		.st5 {stroke:#000000;stroke-linecap:round;stroke-linejoin:round;stroke-width:0.75}
		.st6 {fill:#ffffff;stroke:#000000;stroke-linecap:round;stroke-linejoin:round;stroke-width:0.75}
		.st7 {fill:#000000;font-family:맑은 고딕;font-size:0.666664em}
		.st8 {stroke:#ff0000;stroke-linecap:round;stroke-linejoin:round;stroke-width:1}
		.st9 {fill:#ffffff;stroke:none;stroke-linecap:butt;stroke-width:7.2}
		.st10 {fill:#ff0000;font-family:맑은 고딕;font-size:0.833336em}
		.st11 {stroke:#0070c0;stroke-linecap:round;stroke-linejoin:round;stroke-width:1}
		.st12 {fill:#0070c0;font-family:맑은 고딕;font-size:0.833336em}
		.st13 {fill:none;fill-rule:evenodd;font-size:12px;overflow:visible;stroke-linecap:square;stroke-miterlimit:3}
	]]>
	</style>

	<g v:mID="46" v:index="24" v:groupContext="foregroundPage">
		<title>Motor_Fault_24_Motor Stator Problem</title>
		<v:pageProperties v:drawingScale="0.0393701" v:pageScale="0.0393701" v:drawingUnits="24" v:shadowOffsetX="8.50394"
				v:shadowOffsetY="-8.50394"/>
		<v:layer v:name="전기" v:index="0"/>
		<v:layer v:name="연결선" v:index="1"/>
		<g id="shape1-1" v:mID="1" v:groupContext="shape" transform="translate(127.559,-552.179)">
			<title>시트.1</title>
			<desc>Motor Fault 24 - Motor Stator Problem</desc>
			<v:textBlock v:margins="rect(4,4,4,4)" v:tabSpace="42.5197"/>
			<v:textRect cx="286.299" cy="584.074" width="572.6" height="22.4037"/>
			<rect x="0" y="572.872" width="572.598" height="22.4037" class="st1"/>
			<text x="154.2" y="588.27" class="st2" v:langID="1033"><v:paragraph v:horizAlign="1"/><v:tabList/>Motor Fault 24 - Motor Stator Problem</text>		</g>
		<g id="shape3-4" v:mID="3" v:groupContext="shape" transform="translate(70.8661,-353.754)">
			<title>시트.3</title>
			<desc>Component or Segment Type = Motor, AC, Induction</desc>
			<v:textBlock v:margins="rect(4,4,4,4)" v:tabSpace="42.5197"/>
			<v:textRect cx="127.043" cy="584.074" width="254.09" height="22.4037"/>
			<rect x="0" y="572.872" width="254.087" height="22.4037" class="st1"/>
			<text x="12.05" y="580.47" class="st3" v:langID="1033"><v:paragraph v:horizAlign="2"/><v:tabList/>Component or Segment Type = Motor, AC, <tspan
						x="198.86" dy="1.2em" class="st4">Induction</tspan></text>		</g>
		<g id="shape4-8" v:mID="4" v:groupContext="shape" transform="translate(70.8661,-303.157)">
			<title>시트.4</title>
			<desc>2 x Line_Frequency &#62; 0.05 in/sec</desc>
			<v:textBlock v:margins="rect(4,4,4,4)" v:tabSpace="42.5197"/>
			<v:textRect cx="127.043" cy="584.074" width="254.09" height="22.4037"/>
			<rect x="0" y="572.872" width="254.087" height="22.4037" class="st1"/>
			<text x="71.08" y="587.67" class="st3" v:langID="1033"><v:paragraph v:horizAlign="2"/><v:tabList/>2 x Line_Frequency &#62; 0.05 in/sec</text>		</g>
		<g id="shape5-11" v:mID="5" v:groupContext="shape" transform="translate(70.8661,-252.56)">
			<title>시트.5</title>
			<desc>2 x Line_Frequency &#62; 1.27 mm/sec</desc>
			<v:textBlock v:margins="rect(4,4,4,4)" v:tabSpace="42.5197"/>
			<v:textRect cx="127.043" cy="584.074" width="254.09" height="22.4037"/>
			<rect x="0" y="572.872" width="254.087" height="22.4037" class="st1"/>
			<text x="59.85" y="587.67" class="st3" v:langID="1033"><v:paragraph v:horizAlign="2"/><v:tabList/>2 x Line_Frequency &#62; 1.27 mm/sec</text>		</g>
		<g id="shape6-14" v:mID="6" v:groupContext="shape" transform="translate(122.939,-201.963)">
			<title>시트.6</title>
			<desc>Pole Pass Freq. can be determined from spectrum resolution</desc>
			<v:textBlock v:margins="rect(4,4,4,4)" v:tabSpace="42.5197"/>
			<v:textRect cx="101.007" cy="584.074" width="202.02" height="22.4037"/>
			<rect x="0" y="572.872" width="202.014" height="22.4037" class="st1"/>
			<text x="8.5" y="580.47" class="st3" v:langID="1033"><v:paragraph v:horizAlign="2"/><v:tabList/>Pole Pass Freq. can be determined <tspan
						x="59.26" dy="1.2em" class="st4">from spectrum resolution</tspan></text>		</g>
		<g id="shape7-18" v:mID="7" v:groupContext="shape" transform="translate(124.597,-151.367)">
			<title>시트.7</title>
			<desc>Amplitude at Pole Pass Freq. is less than 10% of 0.05 in/sec</desc>
			<v:textBlock v:margins="rect(4,4,4,4)" v:tabSpace="42.5197"/>
			<v:textRect cx="100.178" cy="584.074" width="200.36" height="22.4037"/>
			<rect x="0" y="572.872" width="200.356" height="22.4037" class="st1"/>
			<text x="27.05" y="580.47" class="st3" v:langID="1033"><v:paragraph v:horizAlign="2"/><v:tabList/>Amplitude at Pole Pass Freq. is <tspan
						x="42.6" dy="1.2em" class="st4">less than </tspan>10% of 0.05 in/sec</text>		</g>
		<g id="shape8-22" v:mID="8" v:groupContext="shape" transform="translate(118.386,-100.77)">
			<title>시트.8</title>
			<desc>Amplitude at Pole Pass Freq. is less than 10% of 1.27 mm/sec</desc>
			<v:textBlock v:margins="rect(4,4,4,4)" v:tabSpace="42.5197"/>
			<v:textRect cx="103.283" cy="584.074" width="206.57" height="22.4037"/>
			<rect x="0" y="572.872" width="206.566" height="22.4037" class="st1"/>
			<text x="9.27" y="580.47" class="st3" v:langID="1033"><v:paragraph v:horizAlign="2"/><v:tabList/>Amplitude at Pole Pass Freq. is less <tspan
						x="61.58" dy="1.2em" class="st4">than </tspan>10% of 1.27 mm/sec</text>		</g>
		<g id="group9-26" transform="translate(395.158,-285.779)" v:mID="9" v:groupContext="group" v:layerMember="0">
			<v:custProps>
				<v:cp v:nameU="Input" v:lbl="입력 수" v:type="1" v:format="2;3;4;5" v:sortKey="2" v:langID="1042" v:val="VT4(2)"/>
				<v:cp v:nameU="Type" v:lbl="게이트 종류" v:type="1" v:format="OR;AND;NOR;NAND;XOR;XNOR" v:sortKey="1" v:langID="1042"
						v:val="VT4(AND)"/>
				<v:cp v:nameU="Out" v:lbl="출력 수" v:type="1" v:format="1;2;3" v:sortKey="3" v:langID="1042" v:val="VT4(1)"/>
				<v:cp v:nameU="Type" v:lbl="" v:prompt="" v:type="0" v:format="" v:sortKey="" v:invis="false" v:ask="false"
						v:langID="1033" v:cal="0" v:val="VT4(OR)"/>
			</v:custProps>
			<v:userDefs>
				<v:ud v:nameU="SubType" v:val="VT0(1):26"/>
				<v:ud v:nameU="Margin" v:val="VT0(0.059055118110236):24"/>
				<v:ud v:nameU="LimitHeight" v:val="VT0(0):26"/>
				<v:ud v:nameU="visVersion" v:val="VT0(15):26"/>
				<v:ud v:nameU="visDescription" v:val="VT4(여러 가지 모양의 논리 게이트를 나타냅니다.)"/>
				<v:ud v:nameU="SubType" v:prompt="" v:val="VT0(0):26"/>
				<v:ud v:nameU="Margin" v:prompt="" v:val="VT0(0.10887750927028):1"/>
			</v:userDefs>
			<title>논리 게이트 2.29</title>
			<desc>G1</desc>
			<g id="shape10-27" v:mID="10" v:groupContext="shape" v:layerMember="0" transform="translate(0,-7.83918)">
				<title>시트.10</title>
				<path d="M0 579.6 L31.36 579.6" class="st5"/>
				<path d="M0 595.28 L31.36 595.28" class="st5"/>
				<path d="M62.71 587.44 L31.36 587.44" class="st5"/>
			</g>
			<g id="shape11-32" v:mID="11" v:groupContext="shape" v:layerMember="0" transform="translate(10.9749,0)">
				<title>시트.11</title>
				<v:userDefs>
					<v:ud v:nameU="X" v:val="VT0(0.029527559055118):24"/>
					<v:ud v:nameU="X" v:prompt="" v:val="VT0(0.05443875463514):1"/>
				</v:userDefs>
				<path d="M40.76 579.6 A42.2229 25.8684 0 0 1 12.23 595.28 L0 595.28 A60.4952 37.0632 -180 0 0 0 563.92 L12.23 563.92
							 A41.6574 25.5219 0 0 1 40.76 579.6 Z" class="st6"/>
			</g>
			<g id="shape12-34" v:mID="12" v:groupContext="shape" v:layerMember="0" transform="translate(0,5.22612)">
				<title>시트.12</title>
			</g>
			<g id="shape13-36" v:mID="13" v:groupContext="shape" v:layerMember="0" transform="translate(42.4611,-3.93983)">
				<title>시트.13</title>
			</g>
			<g id="shape14-38" v:mID="14" v:groupContext="shape" v:layerMember="0" transform="translate(10.9749,0)">
				<title>시트.14</title>
			</g>
			<g id="shape9-40" v:mID="9" v:groupContext="groupContent" v:layerMember="0">
				<v:textBlock v:margins="rect(1,1,1,1)" v:tabSpace="42.5197"/>
				<v:textRect cx="31.3567" cy="601.077" width="14.84" height="11.6036"/>
				<text x="26.35" y="603.48" class="st7" v:langID="1042"><v:paragraph v:horizAlign="1"/><v:tabList/>G1</text>			</g>
		</g>
		<g id="shape15-42" v:mID="15" v:groupContext="shape" v:layerMember="0" transform="translate(340.807,-312.024)">
			<title>I/O 포트.36</title>
			<desc>Ans3</desc>
			<v:userDefs>
				<v:ud v:nameU="Form" v:val="VT0(0):26"/>
				<v:ud v:nameU="visVersion" v:val="VT0(15):26"/>
				<v:ud v:nameU="visDescription" v:val="VT4(단방향 또는 양방향 I/O 포트입니다. )"/>
			</v:userDefs>
			<v:textBlock v:margins="rect(1,1,1,1)" v:tabSpace="42.5197"/>
			<v:textRect cx="13.5879" cy="582.68" width="21.88" height="11.6036"/>
			<path d="M0 591.88 L0 588.48 L20.38 588.48 L27.18 591.88 L20.38 595.28 L0 595.28 L0 591.88 Z" class="st6"/>
			<text x="4.71" y="585.08" class="st7" v:langID="1042"><v:paragraph v:horizAlign="1"/><v:tabList/>Ans3</text>		</g>
		<g id="shape16-45" v:mID="16" v:groupContext="shape" v:layerMember="0" transform="translate(340.807,-260.83)">
			<title>I/O 포트.37</title>
			<desc>Ans4</desc>
			<v:userDefs>
				<v:ud v:nameU="Form" v:val="VT0(0):26"/>
				<v:ud v:nameU="visVersion" v:val="VT0(15):26"/>
				<v:ud v:nameU="visDescription" v:val="VT4(단방향 또는 양방향 I/O 포트입니다. )"/>
			</v:userDefs>
			<v:textBlock v:margins="rect(1,1,1,1)" v:tabSpace="42.5197"/>
			<v:textRect cx="13.5879" cy="582.68" width="21.88" height="11.6036"/>
			<path d="M0 591.88 L0 588.48 L20.38 588.48 L27.18 591.88 L20.38 595.28 L0 595.28 L0 591.88 Z" class="st6"/>
			<text x="4.71" y="585.08" class="st7" v:langID="1042"><v:paragraph v:horizAlign="1"/><v:tabList/>Ans4</text>		</g>
		<g id="shape17-48" v:mID="17" v:groupContext="shape" v:layerMember="1" transform="translate(367.983,-319.445)">
			<title>동적 연결선.73</title>
			<desc>True</desc>
			<v:textBlock v:margins="rect(4,4,4,4)" v:tabSpace="42.5197"/>
			<v:textRect cx="10.6299" cy="605.32" width="50" height="20.0036"/>
			<path d="M0 599.3 L10.63 599.3 L10.63 605.42 L27.18 605.42" class="st8"/>
			<rect v:rectContext="textBkgnd" x="0.627358" y="599.32" width="20.005" height="12.0001" class="st9"/>
			<text x="0.63" y="608.32" class="st10" v:langID="1042"><v:paragraph v:horizAlign="1"/><v:tabList/>True</text>		</g>
		<g id="shape18-53" v:mID="18" v:groupContext="shape" v:layerMember="1" transform="translate(367.983,-264.227)">
			<title>동적 연결선.74</title>
			<desc>False</desc>
			<v:textBlock v:margins="rect(4,4,4,4)" v:tabSpace="42.5197"/>
			<v:textRect cx="10.6299" cy="577.622" width="50" height="20.0036"/>
			<path d="M0 595.28 L10.63 595.28 L10.63 565.88 L27.18 565.88" class="st11"/>
			<rect v:rectContext="textBkgnd" x="-0.534721" y="571.477" width="22.3292" height="12.289" class="st9"/>
			<text x="-0.53" y="580.69" class="st12" v:langID="1042"><v:paragraph v:horizAlign="1"/><v:tabList/>False</text>		</g>
		<g id="group19-58" transform="translate(477.636,-324.531)" v:mID="19" v:groupContext="group" v:layerMember="0">
			<v:custProps>
				<v:cp v:nameU="Input" v:lbl="입력 수" v:type="1" v:format="2;3;4;5" v:sortKey="2" v:langID="1042" v:val="VT4(2)"/>
				<v:cp v:nameU="Type" v:lbl="게이트 종류" v:type="1" v:format="OR;AND;NOR;NAND;XOR;XNOR" v:sortKey="1" v:langID="1042"
						v:val="VT4(AND)"/>
				<v:cp v:nameU="Out" v:lbl="출력 수" v:type="1" v:format="1;2;3" v:sortKey="3" v:langID="1042" v:val="VT4(1)"/>
			</v:custProps>
			<v:userDefs>
				<v:ud v:nameU="SubType" v:val="VT0(1):26"/>
				<v:ud v:nameU="Margin" v:val="VT0(0.059055118110236):24"/>
				<v:ud v:nameU="LimitHeight" v:val="VT0(0):26"/>
				<v:ud v:nameU="visVersion" v:val="VT0(15):26"/>
				<v:ud v:nameU="visDescription" v:val="VT4(여러 가지 모양의 논리 게이트를 나타냅니다.)"/>
				<v:ud v:nameU="Margin" v:prompt="" v:val="VT0(0.10887750927028):1"/>
			</v:userDefs>
			<title>논리 게이트 2.113</title>
			<desc>G3</desc>
			<g id="shape20-59" v:mID="20" v:groupContext="shape" v:layerMember="0" transform="translate(0,-7.83918)">
				<title>시트.20</title>
				<path d="M0 579.6 L31.36 579.6" class="st5"/>
				<path d="M0 595.28 L31.36 595.28" class="st5"/>
				<path d="M62.71 587.44 L31.36 587.44" class="st5"/>
			</g>
			<g id="shape21-64" v:mID="21" v:groupContext="shape" v:layerMember="0" transform="translate(10.9749,0)">
				<title>시트.21</title>
				<v:userDefs>
					<v:ud v:nameU="X" v:val="VT0(0.029527559055118):24"/>
					<v:ud v:nameU="X" v:prompt="" v:val="VT0(0.05443875463514):1"/>
				</v:userDefs>
				<path d="M40.76 579.6 A42.2229 25.8684 0 0 1 12.23 595.28 L0 595.28 A60.4952 37.0632 -180 0 0 0 563.92 L12.23 563.92
							 A41.6574 25.5219 0 0 1 40.76 579.6 Z" class="st6"/>
			</g>
			<g id="shape22-66" v:mID="22" v:groupContext="shape" v:layerMember="0" transform="translate(0,5.22612)">
				<title>시트.22</title>
			</g>
			<g id="shape23-68" v:mID="23" v:groupContext="shape" v:layerMember="0" transform="translate(42.4611,-3.93983)">
				<title>시트.23</title>
			</g>
			<g id="shape24-70" v:mID="24" v:groupContext="shape" v:layerMember="0" transform="translate(10.9749,0)">
				<title>시트.24</title>
				<path d="M25.09 595.28 L0 595.28 L0 563.92 L25.09 563.92 A15.6784 15.6784 0 0 1 25.09 595.28 Z" class="st6"/>
			</g>
			<g id="shape19-72" v:mID="19" v:groupContext="groupContent" v:layerMember="0">
				<v:textBlock v:margins="rect(1,1,1,1)" v:tabSpace="42.5197"/>
				<v:textRect cx="31.3567" cy="601.077" width="14.14" height="11.6036"/>
				<text x="26.35" y="603.48" class="st7" v:langID="1042"><v:paragraph v:horizAlign="1"/><v:tabList/>G3</text>			</g>
		</g>
		<g id="shape25-74" v:mID="25" v:groupContext="shape" v:layerMember="0" transform="translate(340.807,-363.218)">
			<title>I/O 포트.25</title>
			<desc>Ans2</desc>
			<v:userDefs>
				<v:ud v:nameU="Form" v:val="VT0(0):26"/>
				<v:ud v:nameU="visVersion" v:val="VT0(15):26"/>
				<v:ud v:nameU="visDescription" v:val="VT4(단방향 또는 양방향 I/O 포트입니다. )"/>
			</v:userDefs>
			<v:textBlock v:margins="rect(1,1,1,1)" v:tabSpace="42.5197"/>
			<v:textRect cx="13.5879" cy="582.68" width="21.88" height="11.6036"/>
			<path d="M0 591.88 L0 588.48 L20.38 588.48 L27.18 591.88 L20.38 595.28 L0 595.28 L0 591.88 Z" class="st6"/>
			<text x="4.71" y="585.08" class="st7" v:langID="1042"><v:paragraph v:horizAlign="1"/><v:tabList/>Ans2</text>		</g>
		<g id="shape26-77" v:mID="26" v:groupContext="shape" v:layerMember="1" transform="translate(367.983,-366.615)">
			<title>동적 연결선</title>
			<desc>False</desc>
			<v:textBlock v:margins="rect(4,4,4,4)" v:tabSpace="42.5197"/>
			<v:textRect cx="64.1096" cy="595.276" width="50" height="20.0036"/>
			<path d="M0 595.28 L65.93 595.28 L65.93 613.84 L109.65 613.84" class="st11"/>
			<rect v:rectContext="textBkgnd" x="52.945" y="589.276" width="22.3292" height="12.0001" class="st9"/>
			<text x="52.94" y="598.28" class="st12" v:langID="1042"><v:paragraph v:horizAlign="1"/><v:tabList/>False</text>		</g>
		<g id="shape27-82" v:mID="27" v:groupContext="shape" v:layerMember="1" transform="translate(457.872,-301.458)">
			<title>동적 연결선.27</title>
			<desc>False</desc>
			<v:textBlock v:margins="rect(4,4,4,4)" v:tabSpace="42.5197"/>
			<v:textRect cx="10.6299" cy="580.567" width="50" height="20.0036"/>
			<path d="M0 595.28 L10.63 595.28 L10.63 564.36 L19.76 564.36" class="st11"/>
			<rect v:rectContext="textBkgnd" x="-0.534721" y="574.567" width="22.3292" height="12.0001" class="st9"/>
			<text x="-0.53" y="583.57" class="st12" v:langID="1042"><v:paragraph v:horizAlign="1"/><v:tabList/>False</text>		</g>
		<g id="group28-87" transform="translate(396.136,-134.908)" v:mID="28" v:groupContext="group" v:layerMember="0">
			<v:custProps>
				<v:cp v:nameU="Input" v:lbl="입력 수" v:type="1" v:format="2;3;4;5" v:sortKey="2" v:langID="1042" v:val="VT4(2)"/>
				<v:cp v:nameU="Type" v:lbl="게이트 종류" v:type="1" v:format="OR;AND;NOR;NAND;XOR;XNOR" v:sortKey="1" v:langID="1042"
						v:val="VT4(AND)"/>
				<v:cp v:nameU="Out" v:lbl="출력 수" v:type="1" v:format="1;2;3" v:sortKey="3" v:langID="1042" v:val="VT4(1)"/>
				<v:cp v:nameU="Type" v:lbl="" v:prompt="" v:type="0" v:format="" v:sortKey="" v:invis="false" v:ask="false"
						v:langID="1033" v:cal="0" v:val="VT4(OR)"/>
			</v:custProps>
			<v:userDefs>
				<v:ud v:nameU="SubType" v:val="VT0(1):26"/>
				<v:ud v:nameU="Margin" v:val="VT0(0.059055118110236):24"/>
				<v:ud v:nameU="LimitHeight" v:val="VT0(0):26"/>
				<v:ud v:nameU="visVersion" v:val="VT0(15):26"/>
				<v:ud v:nameU="visDescription" v:val="VT4(여러 가지 모양의 논리 게이트를 나타냅니다.)"/>
				<v:ud v:nameU="SubType" v:prompt="" v:val="VT0(0):26"/>
				<v:ud v:nameU="Margin" v:prompt="" v:val="VT0(0.10887750927028):1"/>
			</v:userDefs>
			<title>논리 게이트 2.28</title>
			<desc>G1</desc>
			<g id="shape29-88" v:mID="29" v:groupContext="shape" v:layerMember="0" transform="translate(0,-7.83918)">
				<title>시트.29</title>
				<path d="M0 579.6 L31.36 579.6" class="st5"/>
				<path d="M0 595.28 L31.36 595.28" class="st5"/>
				<path d="M62.71 587.44 L31.36 587.44" class="st5"/>
			</g>
			<g id="shape30-93" v:mID="30" v:groupContext="shape" v:layerMember="0" transform="translate(10.9749,0)">
				<title>시트.30</title>
				<v:userDefs>
					<v:ud v:nameU="X" v:val="VT0(0.029527559055118):24"/>
					<v:ud v:nameU="X" v:prompt="" v:val="VT0(0.05443875463514):1"/>
				</v:userDefs>
				<path d="M40.76 579.6 A42.2229 25.8684 0 0 1 12.23 595.28 L0 595.28 A60.4952 37.0632 -180 0 0 0 563.92 L12.23 563.92
							 A41.6574 25.5219 0 0 1 40.76 579.6 Z" class="st6"/>
			</g>
			<g id="shape31-95" v:mID="31" v:groupContext="shape" v:layerMember="0" transform="translate(0,5.22612)">
				<title>시트.31</title>
			</g>
			<g id="shape32-97" v:mID="32" v:groupContext="shape" v:layerMember="0" transform="translate(42.4611,-3.93983)">
				<title>시트.32</title>
			</g>
			<g id="shape33-99" v:mID="33" v:groupContext="shape" v:layerMember="0" transform="translate(10.9749,0)">
				<title>시트.33</title>
			</g>
			<g id="shape28-101" v:mID="28" v:groupContext="groupContent" v:layerMember="0">
				<v:textBlock v:margins="rect(1,1,1,1)" v:tabSpace="42.5197"/>
				<v:textRect cx="31.3567" cy="601.077" width="14.84" height="11.6036"/>
				<text x="26.35" y="603.48" class="st7" v:langID="1042"><v:paragraph v:horizAlign="1"/><v:tabList/>G1</text>			</g>
		</g>
		<g id="shape34-103" v:mID="34" v:groupContext="shape" v:layerMember="0" transform="translate(341.784,-161.153)">
			<title>I/O 포트.34</title>
			<desc>Ans6</desc>
			<v:userDefs>
				<v:ud v:nameU="Form" v:val="VT0(0):26"/>
				<v:ud v:nameU="visVersion" v:val="VT0(15):26"/>
				<v:ud v:nameU="visDescription" v:val="VT4(단방향 또는 양방향 I/O 포트입니다. )"/>
			</v:userDefs>
			<v:textBlock v:margins="rect(1,1,1,1)" v:tabSpace="42.5197"/>
			<v:textRect cx="13.5879" cy="582.68" width="21.88" height="11.6036"/>
			<path d="M0 591.88 L0 588.48 L20.38 588.48 L27.18 591.88 L20.38 595.28 L0 595.28 L0 591.88 Z" class="st6"/>
			<text x="4.71" y="585.08" class="st7" v:langID="1042"><v:paragraph v:horizAlign="1"/><v:tabList/>Ans6</text>		</g>
		<g id="shape35-106" v:mID="35" v:groupContext="shape" v:layerMember="0" transform="translate(341.784,-109.959)">
			<title>I/O 포트.35</title>
			<desc>Ans7</desc>
			<v:userDefs>
				<v:ud v:nameU="Form" v:val="VT0(0):26"/>
				<v:ud v:nameU="visVersion" v:val="VT0(15):26"/>
				<v:ud v:nameU="visDescription" v:val="VT4(단방향 또는 양방향 I/O 포트입니다. )"/>
			</v:userDefs>
			<v:textBlock v:margins="rect(1,1,1,1)" v:tabSpace="42.5197"/>
			<v:textRect cx="13.5879" cy="582.68" width="21.88" height="11.6036"/>
			<path d="M0 591.88 L0 588.48 L20.38 588.48 L27.18 591.88 L20.38 595.28 L0 595.28 L0 591.88 Z" class="st6"/>
			<text x="4.71" y="585.08" class="st7" v:langID="1042"><v:paragraph v:horizAlign="1"/><v:tabList/>Ans7</text>		</g>
		<g id="shape36-109" v:mID="36" v:groupContext="shape" v:layerMember="1" transform="translate(368.96,-168.574)">
			<title>동적 연결선.36</title>
			<desc>True</desc>
			<v:textBlock v:margins="rect(4,4,4,4)" v:tabSpace="42.5197"/>
			<v:textRect cx="10.6299" cy="605.32" width="50" height="20.0036"/>
			<path d="M0 599.3 L10.63 599.3 L10.63 605.42 L27.18 605.42" class="st8"/>
			<rect v:rectContext="textBkgnd" x="0.627358" y="599.32" width="20.005" height="12.0001" class="st9"/>
			<text x="0.63" y="608.32" class="st10" v:langID="1042"><v:paragraph v:horizAlign="1"/><v:tabList/>True</text>		</g>
		<g id="shape37-114" v:mID="37" v:groupContext="shape" v:layerMember="1" transform="translate(368.96,-113.356)">
			<title>동적 연결선.37</title>
			<desc>True</desc>
			<v:textBlock v:margins="rect(4,4,4,4)" v:tabSpace="42.5197"/>
			<v:textRect cx="10.6299" cy="577.622" width="50" height="20.0036"/>
			<path d="M0 595.28 L10.63 595.28 L10.63 565.88 L27.18 565.88" class="st11"/>
			<rect v:rectContext="textBkgnd" x="0.627358" y="571.622" width="20.005" height="12.0001" class="st9"/>
			<text x="0.63" y="580.62" class="st12" v:langID="1042"><v:paragraph v:horizAlign="1"/><v:tabList/>True</text>		</g>
		<g id="group38-119" transform="translate(478.614,-178.85)" v:mID="38" v:groupContext="group" v:layerMember="0">
			<v:custProps>
				<v:cp v:nameU="Input" v:lbl="입력 수" v:type="1" v:format="2;3;4;5" v:sortKey="2" v:langID="1042" v:val="VT4(2)"/>
				<v:cp v:nameU="Type" v:lbl="게이트 종류" v:type="1" v:format="OR;AND;NOR;NAND;XOR;XNOR" v:sortKey="1" v:langID="1042"
						v:val="VT4(AND)"/>
				<v:cp v:nameU="Out" v:lbl="출력 수" v:type="1" v:format="1;2;3" v:sortKey="3" v:langID="1042" v:val="VT4(1)"/>
			</v:custProps>
			<v:userDefs>
				<v:ud v:nameU="SubType" v:val="VT0(1):26"/>
				<v:ud v:nameU="Margin" v:val="VT0(0.059055118110236):24"/>
				<v:ud v:nameU="LimitHeight" v:val="VT0(0):26"/>
				<v:ud v:nameU="visVersion" v:val="VT0(15):26"/>
				<v:ud v:nameU="visDescription" v:val="VT4(여러 가지 모양의 논리 게이트를 나타냅니다.)"/>
				<v:ud v:nameU="Margin" v:prompt="" v:val="VT0(0.10887750927028):1"/>
			</v:userDefs>
			<title>논리 게이트 2.38</title>
			<desc>G3</desc>
			<g id="shape39-120" v:mID="39" v:groupContext="shape" v:layerMember="0" transform="translate(0,-7.83918)">
				<title>시트.39</title>
				<path d="M0 579.6 L31.36 579.6" class="st5"/>
				<path d="M0 595.28 L31.36 595.28" class="st5"/>
				<path d="M62.71 587.44 L31.36 587.44" class="st5"/>
			</g>
			<g id="shape40-125" v:mID="40" v:groupContext="shape" v:layerMember="0" transform="translate(10.9749,0)">
				<title>시트.40</title>
				<v:userDefs>
					<v:ud v:nameU="X" v:val="VT0(0.029527559055118):24"/>
					<v:ud v:nameU="X" v:prompt="" v:val="VT0(0.05443875463514):1"/>
				</v:userDefs>
				<path d="M40.76 579.6 A42.2229 25.8684 0 0 1 12.23 595.28 L0 595.28 A60.4952 37.0632 -180 0 0 0 563.92 L12.23 563.92
							 A41.6574 25.5219 0 0 1 40.76 579.6 Z" class="st6"/>
			</g>
			<g id="shape41-127" v:mID="41" v:groupContext="shape" v:layerMember="0" transform="translate(0,5.22612)">
				<title>시트.41</title>
			</g>
			<g id="shape42-129" v:mID="42" v:groupContext="shape" v:layerMember="0" transform="translate(42.4611,-3.93983)">
				<title>시트.42</title>
			</g>
			<g id="shape43-131" v:mID="43" v:groupContext="shape" v:layerMember="0" transform="translate(10.9749,0)">
				<title>시트.43</title>
				<path d="M25.09 595.28 L0 595.28 L0 563.92 L25.09 563.92 A15.6784 15.6784 0 0 1 25.09 595.28 Z" class="st6"/>
			</g>
			<g id="shape38-133" v:mID="38" v:groupContext="groupContent" v:layerMember="0">
				<v:textBlock v:margins="rect(1,1,1,1)" v:tabSpace="42.5197"/>
				<v:textRect cx="31.3567" cy="601.077" width="14.14" height="11.6036"/>
				<text x="26.35" y="603.48" class="st7" v:langID="1042"><v:paragraph v:horizAlign="1"/><v:tabList/>G3</text>			</g>
		</g>
		<g id="shape44-135" v:mID="44" v:groupContext="shape" v:layerMember="0" transform="translate(341.784,-212.347)">
			<title>I/O port.44</title>
			<desc>Ans5</desc>
			<v:userDefs>
				<v:ud v:nameU="Form" v:val="VT0(0):26"/>
				<v:ud v:nameU="visVersion" v:val="VT0(15):26"/>
				<v:ud v:nameU="visDescription" v:val="VT4(단방향 또는 양방향 I/O 포트입니다. )"/>
			</v:userDefs>
			<v:textBlock v:margins="rect(1,1,1,1)" v:tabSpace="42.5197"/>
			<v:textRect cx="13.5879" cy="582.68" width="21.88" height="11.6036"/>
			<path d="M0 591.88 L0 588.48 L20.38 588.48 L27.18 591.88 L20.38 595.28 L0 595.28 L0 591.88 Z" class="st6"/>
			<text x="4.71" y="585.08" class="st7" v:langID="1042"><v:paragraph v:horizAlign="1"/><v:tabList/>Ans5</text>		</g>
		<g id="shape45-138" v:mID="45" v:groupContext="shape" v:layerMember="1" transform="translate(368.96,-216.142)">
			<title>동적 연결선.45</title>
			<desc>False</desc>
			<v:textBlock v:margins="rect(4,4,4,4)" v:tabSpace="42.5197"/>
			<v:textRect cx="48.1388" cy="609.05" width="50" height="20.0036"/>
			<path d="M0 595.67 L10.63 595.67 L10.63 609.05 L109.65 609.05" class="st11"/>
			<rect v:rectContext="textBkgnd" x="36.9742" y="603.05" width="22.3292" height="12.0001" class="st9"/>
			<text x="36.97" y="612.05" class="st12" v:langID="1042"><v:paragraph v:horizAlign="1"/><v:tabList/>False</text>		</g>
		<g id="shape46-143" v:mID="46" v:groupContext="shape" v:layerMember="1" transform="translate(458.849,-150.587)">
			<title>동적 연결선.46</title>
			<desc>False</desc>
			<v:textBlock v:margins="rect(4,4,4,4)" v:tabSpace="42.5197"/>
			<v:textRect cx="10.6299" cy="577.972" width="50" height="20.0036"/>
			<path d="M0 595.28 L10.63 595.28 L10.63 559.17 L19.76 559.17" class="st11"/>
			<rect v:rectContext="textBkgnd" x="-0.534721" y="571.972" width="22.3292" height="12.0001" class="st9"/>
			<text x="-0.53" y="580.97" class="st12" v:langID="1042"><v:paragraph v:horizAlign="1"/><v:tabList/>False</text>		</g>
		<g id="group53-148" transform="translate(625.249,-255.17)" v:mID="53" v:groupContext="group" v:layerMember="0">
			<v:custProps>
				<v:cp v:nameU="Input" v:lbl="입력 수" v:type="1" v:format="2;3;4;5" v:sortKey="2" v:langID="1042" v:val="VT4(2)"/>
				<v:cp v:nameU="Type" v:lbl="게이트 종류" v:type="1" v:format="OR;AND;NOR;NAND;XOR;XNOR" v:sortKey="1" v:langID="1042"
						v:val="VT4(AND)"/>
				<v:cp v:nameU="Out" v:lbl="출력 수" v:type="1" v:format="1;2;3" v:sortKey="3" v:langID="1042" v:val="VT4(1)"/>
			</v:custProps>
			<v:userDefs>
				<v:ud v:nameU="SubType" v:val="VT0(1):26"/>
				<v:ud v:nameU="Margin" v:val="VT0(0.059055118110236):24"/>
				<v:ud v:nameU="LimitHeight" v:val="VT0(0):26"/>
				<v:ud v:nameU="visVersion" v:val="VT0(15):26"/>
				<v:ud v:nameU="visDescription" v:val="VT4(여러 가지 모양의 논리 게이트를 나타냅니다.)"/>
				<v:ud v:nameU="Margin" v:prompt="" v:val="VT0(0.10887750927028):1"/>
			</v:userDefs>
			<title>논리 게이트 2.53</title>
			<desc>G3</desc>
			<g id="shape54-149" v:mID="54" v:groupContext="shape" v:layerMember="0" transform="translate(0,-7.83918)">
				<title>시트.54</title>
				<path d="M0 579.6 L31.36 579.6" class="st5"/>
				<path d="M0 595.28 L31.36 595.28" class="st5"/>
				<path d="M62.71 587.44 L31.36 587.44" class="st5"/>
			</g>
			<g id="shape55-154" v:mID="55" v:groupContext="shape" v:layerMember="0" transform="translate(10.9749,0)">
				<title>시트.55</title>
				<v:userDefs>
					<v:ud v:nameU="X" v:val="VT0(0.029527559055118):24"/>
					<v:ud v:nameU="X" v:prompt="" v:val="VT0(0.05443875463514):1"/>
				</v:userDefs>
				<path d="M40.76 579.6 A42.2229 25.8684 0 0 1 12.23 595.28 L0 595.28 A60.4952 37.0632 -180 0 0 0 563.92 L12.23 563.92
							 A41.6574 25.5219 0 0 1 40.76 579.6 Z" class="st6"/>
			</g>
			<g id="shape56-156" v:mID="56" v:groupContext="shape" v:layerMember="0" transform="translate(0,5.22612)">
				<title>시트.56</title>
			</g>
			<g id="shape57-158" v:mID="57" v:groupContext="shape" v:layerMember="0" transform="translate(42.4611,-3.93983)">
				<title>시트.57</title>
			</g>
			<g id="shape58-160" v:mID="58" v:groupContext="shape" v:layerMember="0" transform="translate(10.9749,0)">
				<title>시트.58</title>
				<path d="M25.09 595.28 L0 595.28 L0 563.92 L25.09 563.92 A15.6784 15.6784 0 0 1 25.09 595.28 Z" class="st6"/>
			</g>
			<g id="shape53-162" v:mID="53" v:groupContext="groupContent" v:layerMember="0">
				<v:textBlock v:margins="rect(1,1,1,1)" v:tabSpace="42.5197"/>
				<v:textRect cx="31.3567" cy="601.077" width="14.14" height="11.6036"/>
				<text x="26.35" y="603.48" class="st7" v:langID="1042"><v:paragraph v:horizAlign="1"/><v:tabList/>G3</text>			</g>
		</g>
		<g id="shape60-164" v:mID="60" v:groupContext="shape" v:layerMember="0" transform="translate(725.632,-267.452)">
			<title>I/O 포트.60</title>
			<desc>Motor Stator Problem</desc>
			<v:userDefs>
				<v:ud v:nameU="Form" v:val="VT0(0):26"/>
				<v:ud v:nameU="visVersion" v:val="VT0(15):26"/>
				<v:ud v:nameU="visDescription" v:val="VT4(단방향 또는 양방향 I/O 포트입니다. )"/>
			</v:userDefs>
			<v:textBlock v:margins="rect(1,1,1,1)" v:tabSpace="42.5197"/>
			<v:textRect cx="13.5879" cy="582.68" width="84.17" height="11.6036"/>
			<path d="M0 591.88 L0 588.48 L20.38 588.48 L27.18 591.88 L20.38 595.28 L0 595.28 L0 591.88 Z" class="st6"/>
			<text x="-26.44" y="585.08" class="st7" v:langID="1033"><v:paragraph v:horizAlign="1"/><v:tabList/>Motor Stator Problem</text>		</g>
		<g id="shape62-167" v:mID="62" v:groupContext="shape" v:layerMember="1" transform="translate(540.349,-340.21)">
			<title>동적 연결선.62</title>
			<desc>False</desc>
			<v:textBlock v:margins="rect(4,4,4,4)" v:tabSpace="42.5197"/>
			<v:textRect cx="49.4662" cy="619.02" width="50" height="20.0036"/>
			<path d="M0 595.28 L49.47 595.28 L49.47 656.8 L84.9 656.8" class="st11"/>
			<rect v:rectContext="textBkgnd" x="38.3015" y="613.02" width="22.3292" height="12.0001" class="st9"/>
			<text x="38.3" y="622.02" class="st12" v:langID="1042"><v:paragraph v:horizAlign="1"/><v:tabList/>False</text>		</g>
		<g id="shape63-172" v:mID="63" v:groupContext="shape" v:layerMember="1" transform="translate(541.327,-194.528)">
			<title>동적 연결선.63</title>
			<desc>False</desc>
			<v:textBlock v:margins="rect(4,4,4,4)" v:tabSpace="42.5197"/>
			<v:textRect cx="10.6299" cy="529.704" width="50" height="20.0036"/>
			<path d="M0 595.28 L10.63 595.28 L10.63 526.79 L83.92 526.79" class="st11"/>
			<rect v:rectContext="textBkgnd" x="-0.534721" y="523.704" width="22.3292" height="12.0001" class="st9"/>
			<text x="-0.53" y="532.7" class="st12" v:langID="1042"><v:paragraph v:horizAlign="1"/><v:tabList/>False</text>		</g>
		<g id="shape65-177" v:mID="65" v:groupContext="shape" v:layerMember="1" transform="translate(687.962,-263.762)">
			<title>동적 연결선.65</title>
			<path d="M0 588.19 L37.67 588.19" class="st11"/>
		</g>
	</g>
</svg>
