<?xml version="1.0" encoding="UTF-8" standalone="no"?>
<!DOCTYPE svg PUBLIC "-//W3C//DTD SVG 1.1//EN" "http://www.w3.org/Graphics/SVG/1.1/DTD/svg11.dtd">
<!-- Microsoft Visio, SVG Export에서 생성되었습니다. Pump__Fault_01.svg Pump_Fault_01_Unbalance -->
<svg xmlns="http://www.w3.org/2000/svg" xmlns:xlink="http://www.w3.org/1999/xlink" xmlns:ev="http://www.w3.org/2001/xml-events"
		xmlns:v="http://schemas.microsoft.com/visio/2003/SVGExtensions/" width="9.70982in" height="6.88837in"
		viewBox="0 0 699.107 495.963" xml:space="preserve" color-interpolation-filters="sRGB" class="st15">
	<v:documentProperties v:langID="1042" v:metric="true" v:viewMarkup="false">
		<v:userDefs>
			<v:ud v:nameU="msvNoAutoConnect" v:val="VT0(1):26"/>
		</v:userDefs>
	</v:documentProperties>

	<style type="text/css">
	<![CDATA[
		.st1 {fill:none;stroke:none;stroke-linecap:round;stroke-linejoin:round;stroke-width:0.75}
		.st2 {fill:#000000;font-family:맑은 고딕;font-size:1.00001em}
		.st3 {fill:#ffffff;stroke:#000000;stroke-linecap:round;stroke-linejoin:round;stroke-width:0.75}
		.st4 {fill:#000000;font-family:맑은 고딕;font-size:0.666664em}
		.st5 {stroke:#000000;stroke-linecap:round;stroke-linejoin:round;stroke-width:0.75}
		.st6 {stroke:#ff0000;stroke-linecap:round;stroke-linejoin:round;stroke-width:1}
		.st7 {fill:#ffffff;stroke:none;stroke-linecap:butt;stroke-width:7.2}
		.st8 {fill:#ff0000;font-family:맑은 고딕;font-size:0.833336em}
		.st9 {stroke:#0070c0;stroke-linecap:round;stroke-linejoin:round;stroke-width:1}
		.st10 {fill:#0070c0;font-family:맑은 고딕;font-size:0.833336em}
		.st11 {stroke:#000000;stroke-linecap:round;stroke-linejoin:round;stroke-width:1}
		.st12 {fill:#ffffff;stroke:#000000;stroke-linecap:round;stroke-linejoin:round;stroke-width:1}
		.st13 {fill:#ffffff;stroke:none;stroke-linecap:round;stroke-linejoin:round;stroke-width:0.75}
		.st14 {fill:#000000;font-family:맑은 고딕;font-size:1.16666em;font-weight:bold}
		.st15 {fill:none;fill-rule:evenodd;font-size:12px;overflow:visible;stroke-linecap:square;stroke-miterlimit:3}
	]]>
	</style>

	<g v:mID="23" v:index="1" v:groupContext="foregroundPage">
		<title>Pump_Fault_01_Unbalance</title>
		<v:pageProperties v:drawingScale="0.0393701" v:pageScale="0.0393701" v:drawingUnits="24" v:shadowOffsetX="8.50394"
				v:shadowOffsetY="-8.50394"/>
		<v:layer v:name="전기" v:index="0"/>
		<v:layer v:name="연결선" v:index="1"/>
		<g id="shape2-1" v:mID="2" v:groupContext="shape" transform="translate(18.375,-346.485)">
			<title>시트.2</title>
			<desc>Horiz 1xRPM &#62; Unbalance Thresh</desc>
			<v:textBlock v:margins="rect(4,4,4,4)" v:tabSpace="42.5197"/>
			<v:textRect cx="113.386" cy="484.624" width="226.78" height="22.6772"/>
			<rect x="0" y="473.285" width="226.772" height="22.6772" class="st1"/>
			<text x="21.16" y="488.22" class="st2" v:langID="1033"><v:paragraph v:horizAlign="1"/><v:tabList/>Horiz 1xRPM &#62; Unbalance Thresh</text>		</g>
		<g id="shape3-4" v:mID="3" v:groupContext="shape" transform="translate(18.375,-280.863)">
			<title>시트.3</title>
			<desc>Vert 1xRPM &#62; Unbalance Thresh</desc>
			<v:textBlock v:margins="rect(4,4,4,4)" v:tabSpace="42.5197"/>
			<v:textRect cx="113.386" cy="484.624" width="226.78" height="22.6772"/>
			<rect x="0" y="473.285" width="226.772" height="22.6772" class="st1"/>
			<text x="24.26" y="488.22" class="st2" v:langID="1033"><v:paragraph v:horizAlign="1"/><v:tabList/>Vert 1xRPM &#62; Unbalance Thresh</text>		</g>
		<g id="shape4-7" v:mID="4" v:groupContext="shape" transform="translate(18.375,-215.241)">
			<title>시트.4</title>
			<desc>Axial 1xRPM &#60;= 50% Horiz 1xRPM</desc>
			<v:textBlock v:margins="rect(4,4,4,4)" v:tabSpace="42.5197"/>
			<v:textRect cx="113.386" cy="484.624" width="226.78" height="22.6772"/>
			<rect x="0" y="473.285" width="226.772" height="22.6772" class="st1"/>
			<text x="18.32" y="488.22" class="st2" v:langID="1033"><v:paragraph v:horizAlign="1"/><v:tabList/>Axial 1xRPM &#60;= 50% Horiz 1xRPM</text>		</g>
		<g id="shape5-10" v:mID="5" v:groupContext="shape" transform="translate(18.375,-149.619)">
			<title>시트.5</title>
			<desc>Axial 1xRPM &#60;= 50% Vert 1xRPM</desc>
			<v:textBlock v:margins="rect(4,4,4,4)" v:tabSpace="42.5197"/>
			<v:textRect cx="113.386" cy="484.624" width="226.78" height="22.6772"/>
			<rect x="0" y="473.285" width="226.772" height="22.6772" class="st1"/>
			<text x="21.43" y="488.22" class="st2" v:langID="1033"><v:paragraph v:horizAlign="1"/><v:tabList/>Axial 1xRPM &#60;= 50% Vert 1xRPM</text>		</g>
		<g id="shape6-13" v:mID="6" v:groupContext="shape" transform="translate(18.375,-83.997)">
			<title>시트.6</title>
			<desc>Horiz 1xRPM / Vert 1xRPM &#60;= 5.0</desc>
			<v:textBlock v:margins="rect(4,4,4,4)" v:tabSpace="42.5197"/>
			<v:textRect cx="113.386" cy="484.624" width="226.78" height="22.6772"/>
			<rect x="0" y="473.285" width="226.772" height="22.6772" class="st1"/>
			<text x="19.15" y="488.22" class="st2" v:langID="1033"><v:paragraph v:horizAlign="1"/><v:tabList/>Horiz 1xRPM / Vert 1xRPM &#60;= 5.0</text>		</g>
		<g id="shape7-16" v:mID="7" v:groupContext="shape" transform="translate(18.375,-18.375)">
			<title>시트.7</title>
			<desc>Vert 1xRPM / Horiz 1xRPM &#60;= 3.5</desc>
			<v:textBlock v:margins="rect(4,4,4,4)" v:tabSpace="42.5197"/>
			<v:textRect cx="113.386" cy="484.624" width="226.78" height="22.6772"/>
			<rect x="0" y="473.285" width="226.772" height="22.6772" class="st1"/>
			<text x="19.15" y="488.22" class="st2" v:langID="1033"><v:paragraph v:horizAlign="1"/><v:tabList/>Vert 1xRPM / Horiz 1xRPM &#60;= 3.5</text>		</g>
		<g id="shape8-19" v:mID="8" v:groupContext="shape" v:layerMember="0" transform="translate(266.406,-356.761)">
			<title>I/O 포트.8</title>
			<desc>Ans1</desc>
			<v:userDefs>
				<v:ud v:nameU="Form" v:val="VT0(0):26"/>
				<v:ud v:nameU="visVersion" v:val="VT0(15):26"/>
				<v:ud v:nameU="visDescription" v:val="VT4(단방향 또는 양방향 I/O 포트입니다. )"/>
			</v:userDefs>
			<v:textBlock v:margins="rect(1,1,1,1)" v:tabSpace="42.5197"/>
			<v:textRect cx="14.1732" cy="483.074" width="22.58" height="11.6036"/>
			<path d="M0 492.42 L0 488.88 L21.26 488.88 L28.35 492.42 L21.26 495.96 L0 495.96 L0 492.42 Z" class="st3"/>
			<text x="5.29" y="485.47" class="st4" v:langID="1042"><v:paragraph v:horizAlign="1"/><v:tabList/>Ans1</text>		</g>
		<g id="group9-22" transform="translate(334.9,-186.622)" v:mID="9" v:groupContext="group" v:layerMember="0">
			<v:custProps>
				<v:cp v:nameU="Input" v:lbl="입력 수" v:type="1" v:format="2;3;4;5" v:sortKey="2" v:langID="1042" v:val="VT4(2)"/>
				<v:cp v:nameU="Type" v:lbl="게이트 종류" v:type="1" v:format="OR;AND;NOR;NAND;XOR;XNOR" v:sortKey="1" v:langID="1042"
						v:val="VT4(AND)"/>
				<v:cp v:nameU="Out" v:lbl="출력 수" v:type="1" v:format="1;2;3" v:sortKey="3" v:langID="1042" v:val="VT4(1)"/>
			</v:custProps>
			<v:userDefs>
				<v:ud v:nameU="SubType" v:val="VT0(1):26"/>
				<v:ud v:nameU="Margin" v:val="VT0(0.059055118110236):24"/>
				<v:ud v:nameU="LimitHeight" v:val="VT0(0):26"/>
				<v:ud v:nameU="visVersion" v:val="VT0(15):26"/>
				<v:ud v:nameU="visDescription" v:val="VT4(여러 가지 모양의 논리 게이트를 나타냅니다.)"/>
				<v:ud v:nameU="Margin" v:prompt="" v:val="VT0(0.11356753482738):1"/>
			</v:userDefs>
			<title>논리 게이트 2.23</title>
			<desc>G2</desc>
			<g id="shape10-23" v:mID="10" v:groupContext="shape" v:layerMember="0" transform="translate(0,-8.17686)">
				<title>시트.10</title>
				<path d="M0 479.61 L32.71 479.61" class="st5"/>
				<path d="M0 495.96 L32.71 495.96" class="st5"/>
				<path d="M65.41 487.79 L32.71 487.79" class="st5"/>
			</g>
			<g id="shape11-28" v:mID="11" v:groupContext="shape" v:layerMember="0" transform="translate(11.4476,5.68434E-014)">
				<title>시트.11</title>
				<v:userDefs>
					<v:ud v:nameU="X" v:val="VT0(0.029527559055118):24"/>
					<v:ud v:nameU="X" v:prompt="" v:val="VT0(0.056783767413689):1"/>
				</v:userDefs>
				<path d="M42.52 479.61 A44.0417 26.9827 0 0 1 12.76 495.96 L0 495.96 A63.1011 38.6597 -180 0 0 0 463.26 L12.76 463.26
							 A43.4518 26.6213 0 0 1 42.52 479.61 Z" class="st3"/>
			</g>
			<g id="shape12-30" v:mID="12" v:groupContext="shape" v:layerMember="0" transform="translate(0,5.45124)">
				<title>시트.12</title>
			</g>
			<g id="shape13-32" v:mID="13" v:groupContext="shape" v:layerMember="0" transform="translate(44.2902,-4.10954)">
				<title>시트.13</title>
			</g>
			<g id="shape14-34" v:mID="14" v:groupContext="shape" v:layerMember="0" transform="translate(11.4476,5.68434E-014)">
				<title>시트.14</title>
				<path d="M26.17 495.96 L0 495.96 L0 463.26 L26.17 463.26 A16.3537 16.3537 0 0 1 26.17 495.96 Z" class="st3"/>
			</g>
			<g id="shape9-36" v:mID="9" v:groupContext="groupContent" v:layerMember="0">
				<v:textBlock v:margins="rect(1,1,1,1)" v:tabSpace="42.5197"/>
				<v:textRect cx="32.7075" cy="501.764" width="14.84" height="11.6036"/>
				<text x="27.7" y="504.16" class="st4" v:langID="1042"><v:paragraph v:horizAlign="1"/><v:tabList/>G2</text>			</g>
		</g>
		<g id="group15-38" transform="translate(334.9,-314.388)" v:mID="15" v:groupContext="group" v:layerMember="0">
			<v:custProps>
				<v:cp v:nameU="Input" v:lbl="입력 수" v:type="1" v:format="2;3;4;5" v:sortKey="2" v:langID="1042" v:val="VT4(2)"/>
				<v:cp v:nameU="Type" v:lbl="게이트 종류" v:type="1" v:format="OR;AND;NOR;NAND;XOR;XNOR" v:sortKey="1" v:langID="1042"
						v:val="VT4(AND)"/>
				<v:cp v:nameU="Out" v:lbl="출력 수" v:type="1" v:format="1;2;3" v:sortKey="3" v:langID="1042" v:val="VT4(1)"/>
				<v:cp v:nameU="Type" v:lbl="" v:prompt="" v:type="0" v:format="" v:sortKey="" v:invis="false" v:ask="false"
						v:langID="1033" v:cal="0" v:val="VT4(OR)"/>
			</v:custProps>
			<v:userDefs>
				<v:ud v:nameU="SubType" v:val="VT0(1):26"/>
				<v:ud v:nameU="Margin" v:val="VT0(0.059055118110236):24"/>
				<v:ud v:nameU="LimitHeight" v:val="VT0(0):26"/>
				<v:ud v:nameU="visVersion" v:val="VT0(15):26"/>
				<v:ud v:nameU="visDescription" v:val="VT4(여러 가지 모양의 논리 게이트를 나타냅니다.)"/>
				<v:ud v:nameU="SubType" v:prompt="" v:val="VT0(0):26"/>
				<v:ud v:nameU="Margin" v:prompt="" v:val="VT0(0.11356753482738):1"/>
			</v:userDefs>
			<title>논리 게이트 2.29</title>
			<desc>G1</desc>
			<g id="shape16-39" v:mID="16" v:groupContext="shape" v:layerMember="0" transform="translate(0,-8.17686)">
				<title>시트.16</title>
				<path d="M0 479.61 L32.71 479.61" class="st5"/>
				<path d="M0 495.96 L32.71 495.96" class="st5"/>
				<path d="M65.41 487.79 L32.71 487.79" class="st5"/>
			</g>
			<g id="shape17-44" v:mID="17" v:groupContext="shape" v:layerMember="0" transform="translate(11.4476,5.68434E-014)">
				<title>시트.17</title>
				<v:userDefs>
					<v:ud v:nameU="X" v:val="VT0(0.029527559055118):24"/>
					<v:ud v:nameU="X" v:prompt="" v:val="VT0(0.056783767413689):1"/>
				</v:userDefs>
				<path d="M42.52 479.61 A44.0417 26.9827 0 0 1 12.76 495.96 L0 495.96 A63.1011 38.6597 -180 0 0 0 463.26 L12.76 463.26
							 A43.4518 26.6213 0 0 1 42.52 479.61 Z" class="st3"/>
			</g>
			<g id="shape18-46" v:mID="18" v:groupContext="shape" v:layerMember="0" transform="translate(0,5.45124)">
				<title>시트.18</title>
			</g>
			<g id="shape19-48" v:mID="19" v:groupContext="shape" v:layerMember="0" transform="translate(44.2902,-4.10954)">
				<title>시트.19</title>
			</g>
			<g id="shape20-50" v:mID="20" v:groupContext="shape" v:layerMember="0" transform="translate(11.4476,5.68434E-014)">
				<title>시트.20</title>
			</g>
			<g id="shape15-52" v:mID="15" v:groupContext="groupContent" v:layerMember="0">
				<v:textBlock v:margins="rect(1,1,1,1)" v:tabSpace="42.5197"/>
				<v:textRect cx="32.7075" cy="501.764" width="14.84" height="11.6036"/>
				<text x="27.7" y="504.16" class="st4" v:langID="1042"><v:paragraph v:horizAlign="1"/><v:tabList/>G1</text>			</g>
		</g>
		<g id="shape21-54" v:mID="21" v:groupContext="shape" v:layerMember="0" transform="translate(266.406,-290.784)">
			<title>I/O 포트.35</title>
			<desc>Ans2</desc>
			<v:userDefs>
				<v:ud v:nameU="Form" v:val="VT0(0):26"/>
				<v:ud v:nameU="visVersion" v:val="VT0(15):26"/>
				<v:ud v:nameU="visDescription" v:val="VT4(단방향 또는 양방향 I/O 포트입니다. )"/>
			</v:userDefs>
			<v:textBlock v:margins="rect(1,1,1,1)" v:tabSpace="42.5197"/>
			<v:textRect cx="14.1732" cy="483.074" width="21.88" height="11.6036"/>
			<path d="M0 492.42 L0 488.88 L21.26 488.88 L28.35 492.42 L21.26 495.96 L0 495.96 L0 492.42 Z" class="st3"/>
			<text x="5.29" y="485.47" class="st4" v:langID="1042"><v:paragraph v:horizAlign="1"/><v:tabList/>Ans2</text>		</g>
		<g id="shape22-57" v:mID="22" v:groupContext="shape" v:layerMember="0" transform="translate(266.406,-224.808)">
			<title>I/O 포트.36</title>
			<desc>Ans3</desc>
			<v:userDefs>
				<v:ud v:nameU="Form" v:val="VT0(0):26"/>
				<v:ud v:nameU="visVersion" v:val="VT0(15):26"/>
				<v:ud v:nameU="visDescription" v:val="VT4(단방향 또는 양방향 I/O 포트입니다. )"/>
			</v:userDefs>
			<v:textBlock v:margins="rect(1,1,1,1)" v:tabSpace="42.5197"/>
			<v:textRect cx="14.1732" cy="483.074" width="21.88" height="11.6036"/>
			<path d="M0 492.42 L0 488.88 L21.26 488.88 L28.35 492.42 L21.26 495.96 L0 495.96 L0 492.42 Z" class="st3"/>
			<text x="5.29" y="485.47" class="st4" v:langID="1042"><v:paragraph v:horizAlign="1"/><v:tabList/>Ans3</text>		</g>
		<g id="shape23-60" v:mID="23" v:groupContext="shape" v:layerMember="0" transform="translate(266.406,-158.832)">
			<title>I/O 포트.37</title>
			<desc>Ans4</desc>
			<v:userDefs>
				<v:ud v:nameU="Form" v:val="VT0(0):26"/>
				<v:ud v:nameU="visVersion" v:val="VT0(15):26"/>
				<v:ud v:nameU="visDescription" v:val="VT4(단방향 또는 양방향 I/O 포트입니다. )"/>
			</v:userDefs>
			<v:textBlock v:margins="rect(1,1,1,1)" v:tabSpace="42.5197"/>
			<v:textRect cx="14.1732" cy="483.074" width="21.88" height="11.6036"/>
			<path d="M0 492.42 L0 488.88 L21.26 488.88 L28.35 492.42 L21.26 495.96 L0 495.96 L0 492.42 Z" class="st3"/>
			<text x="5.29" y="485.47" class="st4" v:langID="1042"><v:paragraph v:horizAlign="1"/><v:tabList/>Ans4</text>		</g>
		<g id="shape24-63" v:mID="24" v:groupContext="shape" v:layerMember="0" transform="translate(266.406,-92.8553)">
			<title>I/O 포트.38</title>
			<desc>Ans5</desc>
			<v:userDefs>
				<v:ud v:nameU="Form" v:val="VT0(0):26"/>
				<v:ud v:nameU="visVersion" v:val="VT0(15):26"/>
				<v:ud v:nameU="visDescription" v:val="VT4(단방향 또는 양방향 I/O 포트입니다. )"/>
			</v:userDefs>
			<v:textBlock v:margins="rect(1,1,1,1)" v:tabSpace="42.5197"/>
			<v:textRect cx="14.1732" cy="483.074" width="21.88" height="11.6036"/>
			<path d="M0 492.42 L0 488.88 L21.26 488.88 L28.35 492.42 L21.26 495.96 L0 495.96 L0 492.42 Z" class="st3"/>
			<text x="5.29" y="485.47" class="st4" v:langID="1042"><v:paragraph v:horizAlign="1"/><v:tabList/>Ans5</text>		</g>
		<g id="shape25-66" v:mID="25" v:groupContext="shape" v:layerMember="0" transform="translate(266.406,-26.8789)">
			<title>I/O 포트.39</title>
			<desc>Ans6</desc>
			<v:userDefs>
				<v:ud v:nameU="Form" v:val="VT0(0):26"/>
				<v:ud v:nameU="visVersion" v:val="VT0(15):26"/>
				<v:ud v:nameU="visDescription" v:val="VT4(단방향 또는 양방향 I/O 포트입니다. )"/>
			</v:userDefs>
			<v:textBlock v:margins="rect(1,1,1,1)" v:tabSpace="42.5197"/>
			<v:textRect cx="14.1732" cy="483.074" width="21.88" height="11.6036"/>
			<path d="M0 492.42 L0 488.88 L21.26 488.88 L28.35 492.42 L21.26 495.96 L0 495.96 L0 492.42 Z" class="st3"/>
			<text x="5.29" y="485.47" class="st4" v:langID="1042"><v:paragraph v:horizAlign="1"/><v:tabList/>Ans6</text>		</g>
		<g id="group26-69" transform="translate(334.9,-50.8644)" v:mID="26" v:groupContext="group" v:layerMember="0">
			<v:custProps>
				<v:cp v:nameU="Input" v:lbl="입력 수" v:type="1" v:format="2;3;4;5" v:sortKey="2" v:langID="1042" v:val="VT4(2)"/>
				<v:cp v:nameU="Type" v:lbl="게이트 종류" v:type="1" v:format="OR;AND;NOR;NAND;XOR;XNOR" v:sortKey="1" v:langID="1042"
						v:val="VT4(AND)"/>
				<v:cp v:nameU="Out" v:lbl="출력 수" v:type="1" v:format="1;2;3" v:sortKey="3" v:langID="1042" v:val="VT4(1)"/>
			</v:custProps>
			<v:userDefs>
				<v:ud v:nameU="SubType" v:val="VT0(1):26"/>
				<v:ud v:nameU="Margin" v:val="VT0(0.059055118110236):24"/>
				<v:ud v:nameU="LimitHeight" v:val="VT0(0):26"/>
				<v:ud v:nameU="visVersion" v:val="VT0(15):26"/>
				<v:ud v:nameU="visDescription" v:val="VT4(여러 가지 모양의 논리 게이트를 나타냅니다.)"/>
				<v:ud v:nameU="Margin" v:prompt="" v:val="VT0(0.11356753482738):1"/>
			</v:userDefs>
			<title>논리 게이트 2.40</title>
			<desc>G3</desc>
			<g id="shape27-70" v:mID="27" v:groupContext="shape" v:layerMember="0" transform="translate(0,-8.17686)">
				<title>시트.27</title>
				<path d="M0 479.61 L32.71 479.61" class="st5"/>
				<path d="M0 495.96 L32.71 495.96" class="st5"/>
				<path d="M65.41 487.79 L32.71 487.79" class="st5"/>
			</g>
			<g id="shape28-75" v:mID="28" v:groupContext="shape" v:layerMember="0" transform="translate(11.4476,5.68434E-014)">
				<title>시트.28</title>
				<v:userDefs>
					<v:ud v:nameU="X" v:val="VT0(0.029527559055118):24"/>
					<v:ud v:nameU="X" v:prompt="" v:val="VT0(0.056783767413689):1"/>
				</v:userDefs>
				<path d="M42.52 479.61 A44.0417 26.9827 0 0 1 12.76 495.96 L0 495.96 A63.1011 38.6597 -180 0 0 0 463.26 L12.76 463.26
							 A43.4518 26.6213 0 0 1 42.52 479.61 Z" class="st3"/>
			</g>
			<g id="shape29-77" v:mID="29" v:groupContext="shape" v:layerMember="0" transform="translate(0,5.45124)">
				<title>시트.29</title>
			</g>
			<g id="shape30-79" v:mID="30" v:groupContext="shape" v:layerMember="0" transform="translate(44.2902,-4.10954)">
				<title>시트.30</title>
			</g>
			<g id="shape31-81" v:mID="31" v:groupContext="shape" v:layerMember="0" transform="translate(11.4476,5.68434E-014)">
				<title>시트.31</title>
				<path d="M26.17 495.96 L0 495.96 L0 463.26 L26.17 463.26 A16.3537 16.3537 0 0 1 26.17 495.96 Z" class="st3"/>
			</g>
			<g id="shape26-83" v:mID="26" v:groupContext="groupContent" v:layerMember="0">
				<v:textBlock v:margins="rect(1,1,1,1)" v:tabSpace="42.5197"/>
				<v:textRect cx="32.7075" cy="501.764" width="14.14" height="11.6036"/>
				<text x="27.7" y="504.16" class="st4" v:langID="1042"><v:paragraph v:horizAlign="1"/><v:tabList/>G3</text>			</g>
		</g>
		<g id="group32-85" transform="translate(440.462,-253.651)" v:mID="32" v:groupContext="group" v:layerMember="0">
			<v:custProps>
				<v:cp v:nameU="Input" v:lbl="입력 수" v:type="1" v:format="2;3;4;5" v:sortKey="2" v:langID="1042" v:val="VT4(2)"/>
				<v:cp v:nameU="Type" v:lbl="게이트 종류" v:type="1" v:format="OR;AND;NOR;NAND;XOR;XNOR" v:sortKey="1" v:langID="1042"
						v:val="VT4(AND)"/>
				<v:cp v:nameU="Out" v:lbl="출력 수" v:type="1" v:format="1;2;3" v:sortKey="3" v:langID="1042" v:val="VT4(1)"/>
			</v:custProps>
			<v:userDefs>
				<v:ud v:nameU="SubType" v:val="VT0(1):26"/>
				<v:ud v:nameU="Margin" v:val="VT0(0.059055118110236):24"/>
				<v:ud v:nameU="LimitHeight" v:val="VT0(0):26"/>
				<v:ud v:nameU="visVersion" v:val="VT0(15):26"/>
				<v:ud v:nameU="visDescription" v:val="VT4(여러 가지 모양의 논리 게이트를 나타냅니다.)"/>
				<v:ud v:nameU="Margin" v:prompt="" v:val="VT0(0.11356753482738):1"/>
			</v:userDefs>
			<title>논리 게이트 2.46</title>
			<desc>G4</desc>
			<g id="shape33-86" v:mID="33" v:groupContext="shape" v:layerMember="0" transform="translate(0,-8.17686)">
				<title>시트.33</title>
				<path d="M0 479.61 L32.71 479.61" class="st5"/>
				<path d="M0 495.96 L32.71 495.96" class="st5"/>
				<path d="M65.41 487.79 L32.71 487.79" class="st5"/>
			</g>
			<g id="shape34-91" v:mID="34" v:groupContext="shape" v:layerMember="0" transform="translate(11.4476,5.68434E-014)">
				<title>시트.34</title>
				<v:userDefs>
					<v:ud v:nameU="X" v:val="VT0(0.029527559055118):24"/>
					<v:ud v:nameU="X" v:prompt="" v:val="VT0(0.056783767413689):1"/>
				</v:userDefs>
				<path d="M42.52 479.61 A44.0417 26.9827 0 0 1 12.76 495.96 L0 495.96 A63.1011 38.6597 -180 0 0 0 463.26 L12.76 463.26
							 A43.4518 26.6213 0 0 1 42.52 479.61 Z" class="st3"/>
			</g>
			<g id="shape35-93" v:mID="35" v:groupContext="shape" v:layerMember="0" transform="translate(0,5.45124)">
				<title>시트.35</title>
			</g>
			<g id="shape36-95" v:mID="36" v:groupContext="shape" v:layerMember="0" transform="translate(44.2902,-4.10954)">
				<title>시트.36</title>
			</g>
			<g id="shape37-97" v:mID="37" v:groupContext="shape" v:layerMember="0" transform="translate(11.4476,5.68434E-014)">
				<title>시트.37</title>
				<path d="M26.17 495.96 L0 495.96 L0 463.26 L26.17 463.26 A16.3537 16.3537 0 0 1 26.17 495.96 Z" class="st3"/>
			</g>
			<g id="shape32-99" v:mID="32" v:groupContext="groupContent" v:layerMember="0">
				<v:textBlock v:margins="rect(1,1,1,1)" v:tabSpace="42.5197"/>
				<v:textRect cx="32.7075" cy="501.764" width="14.14" height="11.6036"/>
				<text x="27.7" y="504.16" class="st4" v:langID="1042"><v:paragraph v:horizAlign="1"/><v:tabList/>G4</text>			</g>
		</g>
		<g id="group38-101" transform="translate(551.86,-133.211)" v:mID="38" v:groupContext="group" v:layerMember="0">
			<v:custProps>
				<v:cp v:nameU="Input" v:lbl="입력 수" v:type="1" v:format="2;3;4;5" v:sortKey="2" v:langID="1042" v:val="VT4(2)"/>
				<v:cp v:nameU="Type" v:lbl="게이트 종류" v:type="1" v:format="OR;AND;NOR;NAND;XOR;XNOR" v:sortKey="1" v:langID="1042"
						v:val="VT4(AND)"/>
				<v:cp v:nameU="Out" v:lbl="출력 수" v:type="1" v:format="1;2;3" v:sortKey="3" v:langID="1042" v:val="VT4(1)"/>
			</v:custProps>
			<v:userDefs>
				<v:ud v:nameU="SubType" v:val="VT0(1):26"/>
				<v:ud v:nameU="Margin" v:val="VT0(0.059055118110236):24"/>
				<v:ud v:nameU="LimitHeight" v:val="VT0(0):26"/>
				<v:ud v:nameU="visVersion" v:val="VT0(15):26"/>
				<v:ud v:nameU="visDescription" v:val="VT4(여러 가지 모양의 논리 게이트를 나타냅니다.)"/>
				<v:ud v:nameU="Margin" v:prompt="" v:val="VT0(0.11356753482738):1"/>
			</v:userDefs>
			<title>논리 게이트 2.52</title>
			<desc>G5</desc>
			<g id="shape39-102" v:mID="39" v:groupContext="shape" v:layerMember="0" transform="translate(0,-8.17686)">
				<title>시트.39</title>
				<path d="M0 479.61 L32.71 479.61" class="st5"/>
				<path d="M0 495.96 L32.71 495.96" class="st5"/>
				<path d="M65.41 487.79 L32.71 487.79" class="st5"/>
			</g>
			<g id="shape40-107" v:mID="40" v:groupContext="shape" v:layerMember="0" transform="translate(11.4476,5.68434E-014)">
				<title>시트.40</title>
				<v:userDefs>
					<v:ud v:nameU="X" v:val="VT0(0.029527559055118):24"/>
					<v:ud v:nameU="X" v:prompt="" v:val="VT0(0.056783767413689):1"/>
				</v:userDefs>
				<path d="M42.52 479.61 A44.0417 26.9827 0 0 1 12.76 495.96 L0 495.96 A63.1011 38.6597 -180 0 0 0 463.26 L12.76 463.26
							 A43.4518 26.6213 0 0 1 42.52 479.61 Z" class="st3"/>
			</g>
			<g id="shape41-109" v:mID="41" v:groupContext="shape" v:layerMember="0" transform="translate(0,5.45124)">
				<title>시트.41</title>
			</g>
			<g id="shape42-111" v:mID="42" v:groupContext="shape" v:layerMember="0" transform="translate(44.2902,-4.10954)">
				<title>시트.42</title>
			</g>
			<g id="shape43-113" v:mID="43" v:groupContext="shape" v:layerMember="0" transform="translate(11.4476,5.68434E-014)">
				<title>시트.43</title>
				<path d="M26.17 495.96 L0 495.96 L0 463.26 L26.17 463.26 A16.3537 16.3537 0 0 1 26.17 495.96 Z" class="st3"/>
			</g>
			<g id="shape38-115" v:mID="38" v:groupContext="groupContent" v:layerMember="0">
				<v:textBlock v:margins="rect(1,1,1,1)" v:tabSpace="42.5197"/>
				<v:textRect cx="32.7075" cy="501.764" width="14.14" height="11.6036"/>
				<text x="27.7" y="504.16" class="st4" v:langID="1042"><v:paragraph v:horizAlign="1"/><v:tabList/>G5</text>			</g>
		</g>
		<g id="shape44-117" v:mID="44" v:groupContext="shape" v:layerMember="1" transform="translate(294.753,-360.304)">
			<title>동적 연결선</title>
			<desc>True</desc>
			<v:textBlock v:margins="rect(4,4,4,4)" v:tabSpace="42.5197"/>
			<v:textRect cx="10.6299" cy="516.099" width="50" height="20.0036"/>
			<path d="M0 495.96 L10.63 495.96 L10.63 517.35 L40.15 517.35" class="st6"/>
			<rect v:rectContext="textBkgnd" x="0.627358" y="510.099" width="20.005" height="12.0001" class="st7"/>
			<text x="0.63" y="519.1" class="st8" v:langID="1042"><v:paragraph v:horizAlign="1"/><v:tabList/>True</text>		</g>
		<g id="shape45-122" v:mID="45" v:groupContext="shape" v:layerMember="1" transform="translate(294.753,-294.328)">
			<title>동적 연결선.59</title>
			<desc>False</desc>
			<v:textBlock v:margins="rect(4,4,4,4)" v:tabSpace="42.5197"/>
			<v:textRect cx="10.6299" cy="472.4" width="50" height="20.0036"/>
			<path d="M0 495.96 L10.63 495.96 L10.63 467.72 L40.15 467.72" class="st9"/>
			<rect v:rectContext="textBkgnd" x="-0.534721" y="466.4" width="22.3292" height="12.0001" class="st7"/>
			<text x="-0.53" y="475.4" class="st10" v:langID="1042"><v:paragraph v:horizAlign="1"/><v:tabList/>False</text>		</g>
		<g id="shape46-127" v:mID="46" v:groupContext="shape" v:layerMember="1" transform="translate(294.753,-228.351)">
			<title>동적 연결선.60</title>
			<desc>False</desc>
			<v:textBlock v:margins="rect(4,4,4,4)" v:tabSpace="42.5197"/>
			<v:textRect cx="11.4745" cy="513.161" width="50" height="20.0036"/>
			<path d="M0 495.96 L10.63 495.96 L10.63 513.16 L40.15 513.16" class="st9"/>
			<rect v:rectContext="textBkgnd" x="0.309849" y="507.161" width="22.3292" height="12.0001" class="st7"/>
			<text x="0.31" y="516.16" class="st10" v:langID="1042"><v:paragraph v:horizAlign="1"/><v:tabList/>False</text>		</g>
		<g id="shape47-132" v:mID="47" v:groupContext="shape" v:layerMember="1" transform="translate(294.753,-162.375)">
			<title>동적 연결선.61</title>
			<desc>False</desc>
			<v:textBlock v:margins="rect(4,4,4,4)" v:tabSpace="42.5197"/>
			<v:textRect cx="10.6299" cy="470.307" width="50" height="20.0036"/>
			<path d="M0 495.96 L10.63 495.96 L10.63 463.54 L40.15 463.54" class="st9"/>
			<rect v:rectContext="textBkgnd" x="-0.534721" y="464.307" width="22.3292" height="12.0001" class="st7"/>
			<text x="-0.53" y="473.31" class="st10" v:langID="1042"><v:paragraph v:horizAlign="1"/><v:tabList/>False</text>		</g>
		<g id="shape48-137" v:mID="48" v:groupContext="shape" v:layerMember="1" transform="translate(294.753,-96.3986)">
			<title>동적 연결선.62</title>
			<desc>False</desc>
			<v:textBlock v:margins="rect(4,4,4,4)" v:tabSpace="42.5197"/>
			<v:textRect cx="10.6299" cy="515.908" width="50" height="20.0036"/>
			<path d="M0 495.96 L10.63 495.96 L10.63 516.97 L40.15 516.97" class="st9"/>
			<rect v:rectContext="textBkgnd" x="-0.534721" y="509.908" width="22.3292" height="12.0001" class="st7"/>
			<text x="-0.53" y="518.91" class="st10" v:langID="1042"><v:paragraph v:horizAlign="1"/><v:tabList/>False</text>		</g>
		<g id="shape49-142" v:mID="49" v:groupContext="shape" v:layerMember="1" transform="translate(294.753,-30.4222)">
			<title>동적 연결선.63</title>
			<desc>False</desc>
			<v:textBlock v:margins="rect(4,4,4,4)" v:tabSpace="42.5197"/>
			<v:textRect cx="10.6299" cy="472.209" width="50" height="20.0036"/>
			<path d="M0 495.96 L10.63 495.96 L10.63 467.34 L40.15 467.34" class="st11"/>
			<rect v:rectContext="textBkgnd" x="-0.534721" y="466.21" width="22.3292" height="12.0001" class="st7"/>
			<text x="-0.53" y="475.21" class="st10" v:langID="1042"><v:paragraph v:horizAlign="1"/><v:tabList/>False</text>		</g>
		<g id="shape50-147" v:mID="50" v:groupContext="shape" v:layerMember="1" transform="translate(400.315,-202.976)">
			<title>동적 연결선.64</title>
			<desc>False</desc>
			<v:textBlock v:margins="rect(4,4,4,4)" v:tabSpace="42.5197"/>
			<v:textRect cx="10.6299" cy="457.093" width="50" height="20.0036"/>
			<path d="M0 495.96 L10.63 495.96 L10.63 437.11 L40.15 437.11" class="st9"/>
			<rect v:rectContext="textBkgnd" x="-0.534721" y="451.093" width="22.3292" height="12.0001" class="st7"/>
			<text x="-0.53" y="460.09" class="st10" v:langID="1042"><v:paragraph v:horizAlign="1"/><v:tabList/>False</text>		</g>
		<g id="shape51-152" v:mID="51" v:groupContext="shape" v:layerMember="1" transform="translate(400.315,-330.742)">
			<title>동적 연결선.65</title>
			<desc>False</desc>
			<v:textBlock v:margins="rect(4,4,4,4)" v:tabSpace="42.5197"/>
			<v:textRect cx="10.6299" cy="531.687" width="50" height="20.0036"/>
			<path d="M0 495.96 L10.63 495.96 L10.63 548.52 L40.15 548.52" class="st9"/>
			<rect v:rectContext="textBkgnd" x="-0.534721" y="525.687" width="22.3292" height="12.0001" class="st7"/>
			<text x="-0.53" y="534.69" class="st10" v:langID="1042"><v:paragraph v:horizAlign="1"/><v:tabList/>False</text>		</g>
		<g id="shape52-157" v:mID="52" v:groupContext="shape" v:layerMember="1" transform="translate(400.315,-67.2181)">
			<title>동적 연결선.66</title>
			<desc>False</desc>
			<v:textBlock v:margins="rect(4,4,4,4)" v:tabSpace="42.5197"/>
			<v:textRect cx="38.6875" cy="421.793" width="50" height="20.0036"/>
			<path d="M0 495.96 L10.63 495.96 L10.63 421.79 L151.54 421.79" class="st9"/>
			<rect v:rectContext="textBkgnd" x="27.5228" y="415.793" width="22.3292" height="12.0001" class="st7"/>
			<text x="27.52" y="424.79" class="st10" v:langID="1042"><v:paragraph v:horizAlign="1"/><v:tabList/>False</text>		</g>
		<g id="shape53-162" v:mID="53" v:groupContext="shape" v:layerMember="1" transform="translate(505.877,-270.004)">
			<title>동적 연결선.67</title>
			<desc>False</desc>
			<v:textBlock v:margins="rect(4,4,4,4)" v:tabSpace="42.5197"/>
			<v:textRect cx="10.6299" cy="564.455" width="50" height="20.0036"/>
			<path d="M0 495.96 L10.63 495.96 L10.63 608.23 L45.98 608.23" class="st9"/>
			<rect v:rectContext="textBkgnd" x="-0.534721" y="558.455" width="22.3292" height="12.0001" class="st7"/>
			<text x="-0.53" y="567.46" class="st10" v:langID="1042"><v:paragraph v:horizAlign="1"/><v:tabList/>False</text>		</g>
		<g id="shape54-167" v:mID="54" v:groupContext="shape" v:layerMember="1" transform="translate(617.275,-142.478)">
			<title>동적 연결선.78</title>
			<desc>False</desc>
			<v:textBlock v:margins="rect(4,4,4,4)" v:tabSpace="42.5197"/>
			<v:textRect cx="13.5929" cy="488.876" width="50" height="20.0036"/>
			<path d="M0 488.88 L27.19 488.88" class="st9"/>
			<rect v:rectContext="textBkgnd" x="2.42829" y="482.876" width="22.3292" height="12.0001" class="st7"/>
			<text x="2.43" y="491.88" class="st10" v:langID="1042"><v:paragraph v:horizAlign="1"/><v:tabList/>False</text>		</g>
		<g id="shape55-172" v:mID="55" v:groupContext="shape" v:layerMember="0" transform="translate(644.46,-146.021)">
			<title>I/O 포트</title>
			<desc>Unbalance</desc>
			<v:userDefs>
				<v:ud v:nameU="Form" v:val="VT0(0):26"/>
				<v:ud v:nameU="visVersion" v:val="VT0(15):26"/>
				<v:ud v:nameU="visDescription" v:val="VT4(단방향 또는 양방향 I/O 포트입니다. )"/>
			</v:userDefs>
			<v:textBlock v:margins="rect(1,1,1,1)" v:tabSpace="42.5197"/>
			<v:textRect cx="15.2248" cy="507.388" width="42.85" height="11.6036"/>
			<path d="M0 492.42 L0 488.88 L21.26 488.88 L28.35 492.42 L21.26 495.96 L0 495.96 L0 492.42 Z" class="st12"/>
			<text x="-3.79" y="509.79" class="st4" v:langID="1042"><v:paragraph v:horizAlign="1"/><v:tabList/>Unbalance</text>		</g>
		<g id="shape56-175" v:mID="56" v:groupContext="shape" transform="translate(213.674,-452.966)">
			<title>시트.56</title>
			<desc>Pump Fault 01 - Unbalance</desc>
			<v:textBlock v:margins="rect(4,4,4,4)" v:tabSpace="42.5197"/>
			<v:textRect cx="119.935" cy="484.761" width="239.87" height="22.4037"/>
			<rect x="0" y="473.559" width="239.869" height="22.4037" class="st13"/>
			<text x="28.53" y="488.96" class="st14" v:langID="1033"><v:paragraph v:horizAlign="1"/><v:tabList/>Pump Fault 01 - Unbalance</text>		</g>
	</g>
</svg>
