<?xml version="1.0" encoding="UTF-8" standalone="no"?>
<!DOCTYPE svg PUBLIC "-//W3C//DTD SVG 1.1//EN" "http://www.w3.org/Graphics/SVG/1.1/DTD/svg11.dtd">
<!-- Microsoft Visio, SVG Export에서 생성되었습니다. Turbine_Fault_05.svg Turbine_Fault_05_Radial Resonance -->
<svg xmlns="http://www.w3.org/2000/svg" xmlns:xlink="http://www.w3.org/1999/xlink" xmlns:ev="http://www.w3.org/2001/xml-events"
		xmlns:v="http://schemas.microsoft.com/visio/2003/SVGExtensions/" width="11.6929in" height="8.26772in"
		viewBox="0 0 841.89 595.276" xml:space="preserve" color-interpolation-filters="sRGB" class="st13">
	<v:documentProperties v:langID="1042" v:metric="true" v:viewMarkup="false">
		<v:userDefs>
			<v:ud v:nameU="msvNoAutoConnect" v:val="VT0(1):26"/>
		</v:userDefs>
	</v:documentProperties>

	<style type="text/css">
	<![CDATA[
		.st1 {fill:#ffffff;stroke:none;stroke-linecap:round;stroke-linejoin:round;stroke-width:0.75}
		.st2 {fill:#000000;font-family:맑은 고딕;font-size:1.16666em;font-weight:bold}
		.st3 {stroke:#000000;stroke-linecap:round;stroke-linejoin:round;stroke-width:0.75}
		.st4 {fill:#ffffff;stroke:#000000;stroke-linecap:round;stroke-linejoin:round;stroke-width:0.75}
		.st5 {fill:#000000;font-family:맑은 고딕;font-size:0.666664em}
		.st6 {fill:none;stroke:none;stroke-linecap:round;stroke-linejoin:round;stroke-width:0.75}
		.st7 {fill:#000000;font-family:맑은 고딕;font-size:1.00001em}
		.st8 {stroke:#ff0000;stroke-linecap:round;stroke-linejoin:round;stroke-width:1}
		.st9 {fill:#ffffff;stroke:none;stroke-linecap:butt;stroke-width:7.2}
		.st10 {fill:#ff0000;font-family:맑은 고딕;font-size:0.833336em}
		.st11 {stroke:#0070c0;stroke-linecap:round;stroke-linejoin:round;stroke-width:1}
		.st12 {fill:#0070c0;font-family:맑은 고딕;font-size:0.833336em}
		.st13 {fill:none;fill-rule:evenodd;font-size:12px;overflow:visible;stroke-linecap:square;stroke-miterlimit:3}
	]]>
	</style>

	<g v:mID="7" v:index="5" v:groupContext="foregroundPage">
		<title>Turbine_Fault_05_Radial Resonance</title>
		<v:pageProperties v:drawingScale="0.0393701" v:pageScale="0.0393701" v:drawingUnits="24" v:shadowOffsetX="8.50394"
				v:shadowOffsetY="-8.50394"/>
		<v:layer v:name="전기" v:index="0"/>
		<v:layer v:name="연결선" v:index="1"/>
		<g id="shape1-1" v:mID="1" v:groupContext="shape" transform="translate(141.732,-552.756)">
			<title>시트.1</title>
			<desc>Turbine Fault 05 - Radial Resonance</desc>
			<v:textBlock v:margins="rect(4,4,4,4)" v:tabSpace="42.5197"/>
			<v:textRect cx="269.307" cy="584.074" width="538.62" height="22.4037"/>
			<rect x="0" y="572.872" width="538.615" height="22.4037" class="st1"/>
			<text x="148.17" y="588.27" class="st2" v:langID="1033"><v:paragraph v:horizAlign="1"/><v:tabList/>Turbine Fault 05 - Radial Resonance</text>		</g>
		<g id="group2-4" transform="translate(354.039,-357.916)" v:mID="2" v:groupContext="group" v:layerMember="0">
			<v:custProps>
				<v:cp v:nameU="Input" v:lbl="입력 수" v:type="1" v:format="2;3;4;5" v:sortKey="2" v:langID="1042" v:val="VT4(2)"/>
				<v:cp v:nameU="Type" v:lbl="게이트 종류" v:type="1" v:format="OR;AND;NOR;NAND;XOR;XNOR" v:sortKey="1" v:langID="1042"
						v:val="VT4(AND)"/>
				<v:cp v:nameU="Out" v:lbl="출력 수" v:type="1" v:format="1;2;3" v:sortKey="3" v:langID="1042" v:val="VT4(1)"/>
				<v:cp v:nameU="Type" v:lbl="" v:prompt="" v:type="0" v:format="" v:sortKey="" v:invis="false" v:ask="false"
						v:langID="1033" v:cal="0" v:val="VT4(OR)"/>
			</v:custProps>
			<v:userDefs>
				<v:ud v:nameU="SubType" v:val="VT0(1):26"/>
				<v:ud v:nameU="Margin" v:val="VT0(0.059055118110236):24"/>
				<v:ud v:nameU="LimitHeight" v:val="VT0(0):26"/>
				<v:ud v:nameU="visVersion" v:val="VT0(15):26"/>
				<v:ud v:nameU="visDescription" v:val="VT4(여러 가지 모양의 논리 게이트를 나타냅니다.)"/>
				<v:ud v:nameU="SubType" v:prompt="" v:val="VT0(0):26"/>
				<v:ud v:nameU="Margin" v:prompt="" v:val="VT0(0.13920134983127):1"/>
			</v:userDefs>
			<title>논리 게이트 2.29</title>
			<desc>G1</desc>
			<g id="shape3-5" v:mID="3" v:groupContext="shape" v:layerMember="0" transform="translate(0,-10.0225)">
				<title>시트.3</title>
				<path d="M0 575.23 L40.09 575.23" class="st3"/>
				<path d="M0 595.28 L40.09 595.28" class="st3"/>
				<path d="M80.18 585.25 L40.09 585.25" class="st3"/>
			</g>
			<g id="shape4-10" v:mID="4" v:groupContext="shape" v:layerMember="0" transform="translate(14.0315,0)">
				<title>시트.4</title>
				<v:userDefs>
					<v:ud v:nameU="X" v:val="VT0(0.029527559055118):24"/>
					<v:ud v:nameU="X" v:prompt="" v:val="VT0(0.069600674915635):1"/>
				</v:userDefs>
				<path d="M52.12 575.23 A53.9825 33.0731 0 0 1 15.64 595.28 L0 595.28 A77.344 47.3857 -180 0 0 0 555.19 L15.64 555.19
							 A53.2595 32.6301 0 0 1 52.12 575.23 Z" class="st4"/>
			</g>
			<g id="shape5-12" v:mID="5" v:groupContext="shape" v:layerMember="0" transform="translate(0,6.68166)">
				<title>시트.5</title>
			</g>
			<g id="shape6-14" v:mID="6" v:groupContext="shape" v:layerMember="0" transform="translate(54.2871,-5.03713)">
				<title>시트.6</title>
			</g>
			<g id="shape7-16" v:mID="7" v:groupContext="shape" v:layerMember="0" transform="translate(14.0315,0)">
				<title>시트.7</title>
			</g>
			<g id="shape2-18" v:mID="2" v:groupContext="groupContent" v:layerMember="0">
				<v:textBlock v:margins="rect(1,1,1,1)" v:tabSpace="42.5197"/>
				<v:textRect cx="40.09" cy="601.077" width="14.84" height="11.6036"/>
				<text x="35.08" y="603.48" class="st5" v:langID="1042"><v:paragraph v:horizAlign="1"/><v:tabList/>G1</text>			</g>
		</g>
		<g id="shape8-20" v:mID="8" v:groupContext="shape" transform="translate(44.3413,-450.736)">
			<title>시트.8</title>
			<desc>Overall Amplitude &#62; 0.8xOverall Alarm</desc>
			<v:textBlock v:margins="rect(4,4,4,4)" v:tabSpace="42.5197"/>
			<v:textRect cx="110.891" cy="583.937" width="221.79" height="22.6772"/>
			<rect x="0" y="572.598" width="221.783" height="22.6772" class="st6"/>
			<text x="7.01" y="587.54" class="st7" v:langID="1033"><v:paragraph v:horizAlign="2"/><v:tabList/>Overall Amplitude &#62; 0.8xOverall Alarm</text>		</g>
		<g id="shape9-23" v:mID="9" v:groupContext="shape" transform="translate(44.3413,-385.062)">
			<title>시트.9</title>
			<desc>Horiz Overall / Vert Overall &#62; 4.0</desc>
			<v:textBlock v:margins="rect(4,4,4,4)" v:tabSpace="42.5197"/>
			<v:textRect cx="110.891" cy="583.937" width="221.79" height="22.6772"/>
			<rect x="0" y="572.598" width="221.783" height="22.6772" class="st6"/>
			<text x="36.55" y="587.54" class="st7" v:langID="1033"><v:paragraph v:horizAlign="2"/><v:tabList/>Horiz Overall / Vert Overall &#62; 4.0</text>		</g>
		<g id="shape10-26" v:mID="10" v:groupContext="shape" transform="translate(44.3413,-319.388)">
			<title>시트.10</title>
			<desc>Vert Overall / Horiz Overall &#62; 3.0</desc>
			<v:textBlock v:margins="rect(4,4,4,4)" v:tabSpace="42.5197"/>
			<v:textRect cx="110.891" cy="583.937" width="221.79" height="22.6772"/>
			<rect x="0" y="572.598" width="221.783" height="22.6772" class="st6"/>
			<text x="36.55" y="587.54" class="st7" v:langID="1033"><v:paragraph v:horizAlign="2"/><v:tabList/>Vert Overall / Horiz Overall &#62; 3.0</text>		</g>
		<g id="shape11-29" v:mID="11" v:groupContext="shape" transform="translate(44.3413,-253.714)">
			<title>시트.11</title>
			<desc>Horiz 1xRPM &#60;= 90% Overall Alarm</desc>
			<v:textBlock v:margins="rect(4,4,4,4)" v:tabSpace="42.5197"/>
			<v:textRect cx="110.891" cy="583.937" width="221.79" height="22.6772"/>
			<rect x="0" y="572.598" width="221.783" height="22.6772" class="st6"/>
			<text x="20.8" y="587.54" class="st7" v:langID="1033"><v:paragraph v:horizAlign="2"/><v:tabList/>Horiz 1xRPM &#60;= 90% Overall Alarm</text>		</g>
		<g id="shape12-32" v:mID="12" v:groupContext="shape" transform="translate(44.3413,-188.04)">
			<title>시트.12</title>
			<desc>Vert 1xRPM &#60;= 90% Overall Alarm</desc>
			<v:textBlock v:margins="rect(4,4,4,4)" v:tabSpace="42.5197"/>
			<v:textRect cx="110.891" cy="583.937" width="221.79" height="22.6772"/>
			<rect x="0" y="572.598" width="221.783" height="22.6772" class="st6"/>
			<text x="27.01" y="587.54" class="st7" v:langID="1033"><v:paragraph v:horizAlign="2"/><v:tabList/>Vert 1xRPM &#60;= 90% Overall Alarm</text>		</g>
		<g id="shape13-35" v:mID="13" v:groupContext="shape" transform="translate(44.3413,-122.367)">
			<title>시트.13</title>
			<desc>Horiz 1xRPM / Vert 1xRPM &#60;= 5.0</desc>
			<v:textBlock v:margins="rect(4,4,4,4)" v:tabSpace="42.5197"/>
			<v:textRect cx="110.891" cy="583.937" width="221.79" height="22.6772"/>
			<rect x="0" y="572.598" width="221.783" height="22.6772" class="st6"/>
			<text x="29.3" y="587.54" class="st7" v:langID="1033"><v:paragraph v:horizAlign="2"/><v:tabList/>Horiz 1xRPM / Vert 1xRPM &#60;= 5.0</text>		</g>
		<g id="shape14-38" v:mID="14" v:groupContext="shape" transform="translate(44.3413,-56.6929)">
			<title>시트.14</title>
			<desc>Vert 1xRPM / Horiz 1xRPM &#60;= 3.5</desc>
			<v:textBlock v:margins="rect(4,4,4,4)" v:tabSpace="42.5197"/>
			<v:textRect cx="110.891" cy="583.937" width="221.79" height="22.6772"/>
			<rect x="0" y="572.598" width="221.783" height="22.6772" class="st6"/>
			<text x="29.3" y="587.54" class="st7" v:langID="1033"><v:paragraph v:horizAlign="2"/><v:tabList/>Vert 1xRPM / Horiz 1xRPM &#60;= 3.5</text>		</g>
		<g id="shape15-41" v:mID="15" v:groupContext="shape" v:layerMember="0" transform="translate(284.549,-391.47)">
			<title>I/O 포트.36</title>
			<desc>Ans2</desc>
			<v:userDefs>
				<v:ud v:nameU="Form" v:val="VT0(0):26"/>
				<v:ud v:nameU="visVersion" v:val="VT0(15):26"/>
				<v:ud v:nameU="visDescription" v:val="VT4(단방향 또는 양방향 I/O 포트입니다. )"/>
			</v:userDefs>
			<v:textBlock v:margins="rect(1,1,1,1)" v:tabSpace="42.5197"/>
			<v:textRect cx="17.3723" cy="580.788" width="21.88" height="11.6036"/>
			<path d="M0 590.93 L0 586.59 L26.06 586.59 L34.74 590.93 L26.06 595.28 L0 595.28 L0 590.93 Z" class="st4"/>
			<text x="8.49" y="583.19" class="st5" v:langID="1042"><v:paragraph v:horizAlign="1"/><v:tabList/>Ans2</text>		</g>
		<g id="shape16-44" v:mID="16" v:groupContext="shape" v:layerMember="0" transform="translate(284.549,-326.018)">
			<title>I/O 포트.37</title>
			<desc>Ans3</desc>
			<v:userDefs>
				<v:ud v:nameU="Form" v:val="VT0(0):26"/>
				<v:ud v:nameU="visVersion" v:val="VT0(15):26"/>
				<v:ud v:nameU="visDescription" v:val="VT4(단방향 또는 양방향 I/O 포트입니다. )"/>
			</v:userDefs>
			<v:textBlock v:margins="rect(1,1,1,1)" v:tabSpace="42.5197"/>
			<v:textRect cx="17.3723" cy="580.788" width="21.88" height="11.6036"/>
			<path d="M0 590.93 L0 586.59 L26.06 586.59 L34.74 590.93 L26.06 595.28 L0 595.28 L0 590.93 Z" class="st4"/>
			<text x="8.49" y="583.19" class="st5" v:langID="1042"><v:paragraph v:horizAlign="1"/><v:tabList/>Ans3</text>		</g>
		<g id="group17-47" transform="translate(354.039,-216.877)" v:mID="17" v:groupContext="group" v:layerMember="0">
			<v:custProps>
				<v:cp v:nameU="Input" v:lbl="입력 수" v:type="1" v:format="2;3;4;5" v:sortKey="2" v:langID="1042" v:val="VT4(2)"/>
				<v:cp v:nameU="Type" v:lbl="게이트 종류" v:type="1" v:format="OR;AND;NOR;NAND;XOR;XNOR" v:sortKey="1" v:langID="1042"
						v:val="VT4(AND)"/>
				<v:cp v:nameU="Out" v:lbl="출력 수" v:type="1" v:format="1;2;3" v:sortKey="3" v:langID="1042" v:val="VT4(1)"/>
			</v:custProps>
			<v:userDefs>
				<v:ud v:nameU="SubType" v:val="VT0(1):26"/>
				<v:ud v:nameU="Margin" v:val="VT0(0.059055118110236):24"/>
				<v:ud v:nameU="LimitHeight" v:val="VT0(0):26"/>
				<v:ud v:nameU="visVersion" v:val="VT0(15):26"/>
				<v:ud v:nameU="visDescription" v:val="VT4(여러 가지 모양의 논리 게이트를 나타냅니다.)"/>
				<v:ud v:nameU="Margin" v:prompt="" v:val="VT0(0.13920134983127):1"/>
			</v:userDefs>
			<title>논리 게이트 2.55</title>
			<desc>G2</desc>
			<g id="shape18-48" v:mID="18" v:groupContext="shape" v:layerMember="0" transform="translate(0,-10.0225)">
				<title>시트.18</title>
				<path d="M0 575.23 L40.09 575.23" class="st3"/>
				<path d="M0 595.28 L40.09 595.28" class="st3"/>
				<path d="M80.18 585.25 L40.09 585.25" class="st3"/>
			</g>
			<g id="shape19-53" v:mID="19" v:groupContext="shape" v:layerMember="0" transform="translate(14.0315,0)">
				<title>시트.19</title>
				<v:userDefs>
					<v:ud v:nameU="X" v:val="VT0(0.029527559055118):24"/>
					<v:ud v:nameU="X" v:prompt="" v:val="VT0(0.069600674915635):1"/>
				</v:userDefs>
				<path d="M52.12 575.23 A53.9825 33.0731 0 0 1 15.64 595.28 L0 595.28 A77.344 47.3857 -180 0 0 0 555.19 L15.64 555.19
							 A53.2595 32.6301 0 0 1 52.12 575.23 Z" class="st4"/>
			</g>
			<g id="shape20-55" v:mID="20" v:groupContext="shape" v:layerMember="0" transform="translate(0,6.68166)">
				<title>시트.20</title>
			</g>
			<g id="shape21-57" v:mID="21" v:groupContext="shape" v:layerMember="0" transform="translate(54.2871,-5.03713)">
				<title>시트.21</title>
			</g>
			<g id="shape22-59" v:mID="22" v:groupContext="shape" v:layerMember="0" transform="translate(14.0315,0)">
				<title>시트.22</title>
				<path d="M32.07 595.28 L0 595.28 L0 555.19 L32.07 555.19 A20.045 20.045 0 0 1 32.07 595.28 Z" class="st4"/>
			</g>
			<g id="shape17-61" v:mID="17" v:groupContext="groupContent" v:layerMember="0">
				<v:textBlock v:margins="rect(1,1,1,1)" v:tabSpace="42.5197"/>
				<v:textRect cx="40.09" cy="601.077" width="14.14" height="11.6036"/>
				<text x="35.08" y="603.48" class="st5" v:langID="1042"><v:paragraph v:horizAlign="1"/><v:tabList/>G2</text>			</g>
		</g>
		<g id="shape23-63" v:mID="23" v:groupContext="shape" v:layerMember="1" transform="translate(319.294,-398.985)">
			<title>동적 연결선.73</title>
			<desc>False</desc>
			<v:textBlock v:margins="rect(4,4,4,4)" v:tabSpace="42.5197"/>
			<v:textRect cx="13.4577" cy="606.277" width="50" height="20.0036"/>
			<path d="M0 598.45 L10.63 598.45 L10.63 606.28 L34.74 606.28" class="st8"/>
			<rect v:rectContext="textBkgnd" x="2.29303" y="600.277" width="22.3292" height="12.0001" class="st9"/>
			<text x="2.29" y="609.28" class="st10" v:langID="1042"><v:paragraph v:horizAlign="1"/><v:tabList/>False</text>		</g>
		<g id="shape24-68" v:mID="24" v:groupContext="shape" v:layerMember="1" transform="translate(319.294,-330.361)">
			<title>동적 연결선.74</title>
			<desc>True</desc>
			<v:textBlock v:margins="rect(4,4,4,4)" v:tabSpace="42.5197"/>
			<v:textRect cx="10.6299" cy="569.744" width="50" height="20.0036"/>
			<path d="M0 595.28 L10.63 595.28 L10.63 557.7 L34.74 557.7" class="st11"/>
			<rect v:rectContext="textBkgnd" x="0.627358" y="563.744" width="20.005" height="12.0001" class="st9"/>
			<text x="0.63" y="572.74" class="st12" v:langID="1042"><v:paragraph v:horizAlign="1"/><v:tabList/>True</text>		</g>
		<g id="shape25-73" v:mID="25" v:groupContext="shape" v:layerMember="0" transform="translate(284.549,-456.922)">
			<title>I/O 포트.96</title>
			<desc>Ans1</desc>
			<v:userDefs>
				<v:ud v:nameU="Form" v:val="VT0(0):26"/>
				<v:ud v:nameU="visVersion" v:val="VT0(15):26"/>
				<v:ud v:nameU="visDescription" v:val="VT4(단방향 또는 양방향 I/O 포트입니다. )"/>
			</v:userDefs>
			<v:textBlock v:margins="rect(1,1,1,1)" v:tabSpace="42.5197"/>
			<v:textRect cx="17.3723" cy="580.788" width="22.58" height="11.6036"/>
			<path d="M0 590.93 L0 586.59 L26.06 586.59 L34.74 590.93 L26.06 595.28 L0 595.28 L0 590.93 Z" class="st4"/>
			<text x="8.49" y="583.19" class="st5" v:langID="1042"><v:paragraph v:horizAlign="1"/><v:tabList/>Ans1</text>		</g>
		<g id="shape26-76" v:mID="26" v:groupContext="shape" v:layerMember="0" transform="translate(284.549,-260.566)">
			<title>I/O 포트.97</title>
			<desc>Ans4</desc>
			<v:userDefs>
				<v:ud v:nameU="Form" v:val="VT0(0):26"/>
				<v:ud v:nameU="visVersion" v:val="VT0(15):26"/>
				<v:ud v:nameU="visDescription" v:val="VT4(단방향 또는 양방향 I/O 포트입니다. )"/>
			</v:userDefs>
			<v:textBlock v:margins="rect(1,1,1,1)" v:tabSpace="42.5197"/>
			<v:textRect cx="17.3723" cy="580.788" width="21.88" height="11.6036"/>
			<path d="M0 590.93 L0 586.59 L26.06 586.59 L34.74 590.93 L26.06 595.28 L0 595.28 L0 590.93 Z" class="st4"/>
			<text x="8.49" y="583.19" class="st5" v:langID="1042"><v:paragraph v:horizAlign="1"/><v:tabList/>Ans4</text>		</g>
		<g id="shape27-79" v:mID="27" v:groupContext="shape" v:layerMember="0" transform="translate(284.549,-195.114)">
			<title>I/O 포트.98</title>
			<desc>Ans5</desc>
			<v:userDefs>
				<v:ud v:nameU="Form" v:val="VT0(0):26"/>
				<v:ud v:nameU="visVersion" v:val="VT0(15):26"/>
				<v:ud v:nameU="visDescription" v:val="VT4(단방향 또는 양방향 I/O 포트입니다. )"/>
			</v:userDefs>
			<v:textBlock v:margins="rect(1,1,1,1)" v:tabSpace="42.5197"/>
			<v:textRect cx="17.3723" cy="580.788" width="21.88" height="11.6036"/>
			<path d="M0 590.93 L0 586.59 L26.06 586.59 L34.74 590.93 L26.06 595.28 L0 595.28 L0 590.93 Z" class="st4"/>
			<text x="8.49" y="583.19" class="st5" v:langID="1042"><v:paragraph v:horizAlign="1"/><v:tabList/>Ans5</text>		</g>
		<g id="shape28-82" v:mID="28" v:groupContext="shape" v:layerMember="0" transform="translate(284.549,-129.661)">
			<title>I/O 포트.99</title>
			<desc>Ans6</desc>
			<v:userDefs>
				<v:ud v:nameU="Form" v:val="VT0(0):26"/>
				<v:ud v:nameU="visVersion" v:val="VT0(15):26"/>
				<v:ud v:nameU="visDescription" v:val="VT4(단방향 또는 양방향 I/O 포트입니다. )"/>
			</v:userDefs>
			<v:textBlock v:margins="rect(1,1,1,1)" v:tabSpace="42.5197"/>
			<v:textRect cx="17.3723" cy="580.788" width="21.88" height="11.6036"/>
			<path d="M0 590.93 L0 586.59 L26.06 586.59 L34.74 590.93 L26.06 595.28 L0 595.28 L0 590.93 Z" class="st4"/>
			<text x="8.49" y="583.19" class="st5" v:langID="1042"><v:paragraph v:horizAlign="1"/><v:tabList/>Ans6</text>		</g>
		<g id="shape29-85" v:mID="29" v:groupContext="shape" v:layerMember="0" transform="translate(284.549,-64.2092)">
			<title>I/O 포트.100</title>
			<desc>Ans7</desc>
			<v:userDefs>
				<v:ud v:nameU="Form" v:val="VT0(0):26"/>
				<v:ud v:nameU="visVersion" v:val="VT0(15):26"/>
				<v:ud v:nameU="visDescription" v:val="VT4(단방향 또는 양방향 I/O 포트입니다. )"/>
			</v:userDefs>
			<v:textBlock v:margins="rect(1,1,1,1)" v:tabSpace="42.5197"/>
			<v:textRect cx="17.3723" cy="580.788" width="21.88" height="11.6036"/>
			<path d="M0 590.93 L0 586.59 L26.06 586.59 L34.74 590.93 L26.06 595.28 L0 595.28 L0 590.93 Z" class="st4"/>
			<text x="8.49" y="583.19" class="st5" v:langID="1042"><v:paragraph v:horizAlign="1"/><v:tabList/>Ans7</text>		</g>
		<g id="group30-88" transform="translate(354.039,-89.3183)" v:mID="30" v:groupContext="group" v:layerMember="0">
			<v:custProps>
				<v:cp v:nameU="Input" v:lbl="입력 수" v:type="1" v:format="2;3;4;5" v:sortKey="2" v:langID="1042" v:val="VT4(2)"/>
				<v:cp v:nameU="Type" v:lbl="게이트 종류" v:type="1" v:format="OR;AND;NOR;NAND;XOR;XNOR" v:sortKey="1" v:langID="1042"
						v:val="VT4(AND)"/>
				<v:cp v:nameU="Out" v:lbl="출력 수" v:type="1" v:format="1;2;3" v:sortKey="3" v:langID="1042" v:val="VT4(1)"/>
			</v:custProps>
			<v:userDefs>
				<v:ud v:nameU="SubType" v:val="VT0(1):26"/>
				<v:ud v:nameU="Margin" v:val="VT0(0.059055118110236):24"/>
				<v:ud v:nameU="LimitHeight" v:val="VT0(0):26"/>
				<v:ud v:nameU="visVersion" v:val="VT0(15):26"/>
				<v:ud v:nameU="visDescription" v:val="VT4(여러 가지 모양의 논리 게이트를 나타냅니다.)"/>
				<v:ud v:nameU="Margin" v:prompt="" v:val="VT0(0.13920134983127):1"/>
			</v:userDefs>
			<title>논리 게이트 2.101</title>
			<desc>G3</desc>
			<g id="shape31-89" v:mID="31" v:groupContext="shape" v:layerMember="0" transform="translate(0,-10.0225)">
				<title>시트.31</title>
				<path d="M0 575.23 L40.09 575.23" class="st3"/>
				<path d="M0 595.28 L40.09 595.28" class="st3"/>
				<path d="M80.18 585.25 L40.09 585.25" class="st3"/>
			</g>
			<g id="shape32-94" v:mID="32" v:groupContext="shape" v:layerMember="0" transform="translate(14.0315,0)">
				<title>시트.32</title>
				<v:userDefs>
					<v:ud v:nameU="X" v:val="VT0(0.029527559055118):24"/>
					<v:ud v:nameU="X" v:prompt="" v:val="VT0(0.069600674915635):1"/>
				</v:userDefs>
				<path d="M52.12 575.23 A53.9825 33.0731 0 0 1 15.64 595.28 L0 595.28 A77.344 47.3857 -180 0 0 0 555.19 L15.64 555.19
							 A53.2595 32.6301 0 0 1 52.12 575.23 Z" class="st4"/>
			</g>
			<g id="shape33-96" v:mID="33" v:groupContext="shape" v:layerMember="0" transform="translate(0,6.68166)">
				<title>시트.33</title>
			</g>
			<g id="shape34-98" v:mID="34" v:groupContext="shape" v:layerMember="0" transform="translate(54.2871,-5.03713)">
				<title>시트.34</title>
			</g>
			<g id="shape35-100" v:mID="35" v:groupContext="shape" v:layerMember="0" transform="translate(14.0315,0)">
				<title>시트.35</title>
				<path d="M32.07 595.28 L0 595.28 L0 555.19 L32.07 555.19 A20.045 20.045 0 0 1 32.07 595.28 Z" class="st4"/>
			</g>
			<g id="shape30-102" v:mID="30" v:groupContext="groupContent" v:layerMember="0">
				<v:textBlock v:margins="rect(1,1,1,1)" v:tabSpace="42.5197"/>
				<v:textRect cx="40.09" cy="601.077" width="14.14" height="11.6036"/>
				<text x="35.08" y="603.48" class="st5" v:langID="1042"><v:paragraph v:horizAlign="1"/><v:tabList/>G3</text>			</g>
		</g>
		<g id="group36-104" transform="translate(487.907,-150.668)" v:mID="36" v:groupContext="group" v:layerMember="0">
			<v:custProps>
				<v:cp v:nameU="Input" v:lbl="입력 수" v:type="1" v:format="2;3;4;5" v:sortKey="2" v:langID="1042" v:val="VT4(2)"/>
				<v:cp v:nameU="Type" v:lbl="게이트 종류" v:type="1" v:format="OR;AND;NOR;NAND;XOR;XNOR" v:sortKey="1" v:langID="1042"
						v:val="VT4(AND)"/>
				<v:cp v:nameU="Out" v:lbl="출력 수" v:type="1" v:format="1;2;3" v:sortKey="3" v:langID="1042" v:val="VT4(1)"/>
			</v:custProps>
			<v:userDefs>
				<v:ud v:nameU="SubType" v:val="VT0(1):26"/>
				<v:ud v:nameU="Margin" v:val="VT0(0.059055118110236):24"/>
				<v:ud v:nameU="LimitHeight" v:val="VT0(0):26"/>
				<v:ud v:nameU="visVersion" v:val="VT0(15):26"/>
				<v:ud v:nameU="visDescription" v:val="VT4(여러 가지 모양의 논리 게이트를 나타냅니다.)"/>
				<v:ud v:nameU="Margin" v:prompt="" v:val="VT0(0.13920134983127):1"/>
			</v:userDefs>
			<title>논리 게이트 2.107</title>
			<desc>G5</desc>
			<g id="shape37-105" v:mID="37" v:groupContext="shape" v:layerMember="0" transform="translate(0,-10.0225)">
				<title>시트.37</title>
				<path d="M0 575.23 L40.09 575.23" class="st3"/>
				<path d="M0 595.28 L40.09 595.28" class="st3"/>
				<path d="M80.18 585.25 L40.09 585.25" class="st3"/>
			</g>
			<g id="shape38-110" v:mID="38" v:groupContext="shape" v:layerMember="0" transform="translate(14.0315,0)">
				<title>시트.38</title>
				<v:userDefs>
					<v:ud v:nameU="X" v:val="VT0(0.029527559055118):24"/>
					<v:ud v:nameU="X" v:prompt="" v:val="VT0(0.069600674915635):1"/>
				</v:userDefs>
				<path d="M52.12 575.23 A53.9825 33.0731 0 0 1 15.64 595.28 L0 595.28 A77.344 47.3857 -180 0 0 0 555.19 L15.64 555.19
							 A53.2595 32.6301 0 0 1 52.12 575.23 Z" class="st4"/>
			</g>
			<g id="shape39-112" v:mID="39" v:groupContext="shape" v:layerMember="0" transform="translate(0,6.68166)">
				<title>시트.39</title>
			</g>
			<g id="shape40-114" v:mID="40" v:groupContext="shape" v:layerMember="0" transform="translate(54.2871,-5.03713)">
				<title>시트.40</title>
			</g>
			<g id="shape41-116" v:mID="41" v:groupContext="shape" v:layerMember="0" transform="translate(14.0315,0)">
				<title>시트.41</title>
				<path d="M32.07 595.28 L0 595.28 L0 555.19 L32.07 555.19 A20.045 20.045 0 0 1 32.07 595.28 Z" class="st4"/>
			</g>
			<g id="shape36-118" v:mID="36" v:groupContext="groupContent" v:layerMember="0">
				<v:textBlock v:margins="rect(1,1,1,1)" v:tabSpace="42.5197"/>
				<v:textRect cx="40.09" cy="601.077" width="14.14" height="11.6036"/>
				<text x="35.08" y="603.48" class="st5" v:langID="1042"><v:paragraph v:horizAlign="1"/><v:tabList/>G5</text>			</g>
		</g>
		<g id="group42-120" transform="translate(458.403,-404.976)" v:mID="42" v:groupContext="group" v:layerMember="0">
			<v:custProps>
				<v:cp v:nameU="Input" v:lbl="입력 수" v:type="1" v:format="2;3;4;5" v:sortKey="2" v:langID="1042" v:val="VT4(2)"/>
				<v:cp v:nameU="Type" v:lbl="게이트 종류" v:type="1" v:format="OR;AND;NOR;NAND;XOR;XNOR" v:sortKey="1" v:langID="1042"
						v:val="VT4(AND)"/>
				<v:cp v:nameU="Out" v:lbl="출력 수" v:type="1" v:format="1;2;3" v:sortKey="3" v:langID="1042" v:val="VT4(1)"/>
			</v:custProps>
			<v:userDefs>
				<v:ud v:nameU="SubType" v:val="VT0(1):26"/>
				<v:ud v:nameU="Margin" v:val="VT0(0.059055118110236):24"/>
				<v:ud v:nameU="LimitHeight" v:val="VT0(0):26"/>
				<v:ud v:nameU="visVersion" v:val="VT0(15):26"/>
				<v:ud v:nameU="visDescription" v:val="VT4(여러 가지 모양의 논리 게이트를 나타냅니다.)"/>
				<v:ud v:nameU="Margin" v:prompt="" v:val="VT0(0.13920134983127):1"/>
			</v:userDefs>
			<title>논리 게이트 2.113</title>
			<desc>G4</desc>
			<g id="shape43-121" v:mID="43" v:groupContext="shape" v:layerMember="0" transform="translate(0,-10.0225)">
				<title>시트.43</title>
				<path d="M0 575.23 L40.09 575.23" class="st3"/>
				<path d="M0 595.28 L40.09 595.28" class="st3"/>
				<path d="M80.18 585.25 L40.09 585.25" class="st3"/>
			</g>
			<g id="shape44-126" v:mID="44" v:groupContext="shape" v:layerMember="0" transform="translate(14.0315,0)">
				<title>시트.44</title>
				<v:userDefs>
					<v:ud v:nameU="X" v:val="VT0(0.029527559055118):24"/>
					<v:ud v:nameU="X" v:prompt="" v:val="VT0(0.069600674915635):1"/>
				</v:userDefs>
				<path d="M52.12 575.23 A53.9825 33.0731 0 0 1 15.64 595.28 L0 595.28 A77.344 47.3857 -180 0 0 0 555.19 L15.64 555.19
							 A53.2595 32.6301 0 0 1 52.12 575.23 Z" class="st4"/>
			</g>
			<g id="shape45-128" v:mID="45" v:groupContext="shape" v:layerMember="0" transform="translate(0,6.68166)">
				<title>시트.45</title>
			</g>
			<g id="shape46-130" v:mID="46" v:groupContext="shape" v:layerMember="0" transform="translate(54.2871,-5.03713)">
				<title>시트.46</title>
			</g>
			<g id="shape47-132" v:mID="47" v:groupContext="shape" v:layerMember="0" transform="translate(14.0315,0)">
				<title>시트.47</title>
				<path d="M32.07 595.28 L0 595.28 L0 555.19 L32.07 555.19 A20.045 20.045 0 0 1 32.07 595.28 Z" class="st4"/>
			</g>
			<g id="shape42-134" v:mID="42" v:groupContext="groupContent" v:layerMember="0">
				<v:textBlock v:margins="rect(1,1,1,1)" v:tabSpace="42.5197"/>
				<v:textRect cx="40.09" cy="601.077" width="14.14" height="11.6036"/>
				<text x="35.08" y="603.48" class="st5" v:langID="1042"><v:paragraph v:horizAlign="1"/><v:tabList/>G4</text>			</g>
		</g>
		<g id="group48-136" transform="translate(620.657,-285.264)" v:mID="48" v:groupContext="group" v:layerMember="0">
			<v:custProps>
				<v:cp v:nameU="Input" v:lbl="입력 수" v:type="1" v:format="2;3;4;5" v:sortKey="2" v:langID="1042" v:val="VT4(2)"/>
				<v:cp v:nameU="Type" v:lbl="게이트 종류" v:type="1" v:format="OR;AND;NOR;NAND;XOR;XNOR" v:sortKey="1" v:langID="1042"
						v:val="VT4(AND)"/>
				<v:cp v:nameU="Out" v:lbl="출력 수" v:type="1" v:format="1;2;3" v:sortKey="3" v:langID="1042" v:val="VT4(1)"/>
			</v:custProps>
			<v:userDefs>
				<v:ud v:nameU="SubType" v:val="VT0(1):26"/>
				<v:ud v:nameU="Margin" v:val="VT0(0.059055118110236):24"/>
				<v:ud v:nameU="LimitHeight" v:val="VT0(0):26"/>
				<v:ud v:nameU="visVersion" v:val="VT0(15):26"/>
				<v:ud v:nameU="visDescription" v:val="VT4(여러 가지 모양의 논리 게이트를 나타냅니다.)"/>
				<v:ud v:nameU="Margin" v:prompt="" v:val="VT0(0.13920134983127):1"/>
			</v:userDefs>
			<title>논리 게이트 2.119</title>
			<desc>G6</desc>
			<g id="shape49-137" v:mID="49" v:groupContext="shape" v:layerMember="0" transform="translate(0,-10.0225)">
				<title>시트.49</title>
				<path d="M0 575.23 L40.09 575.23" class="st3"/>
				<path d="M0 595.28 L40.09 595.28" class="st3"/>
				<path d="M80.18 585.25 L40.09 585.25" class="st3"/>
			</g>
			<g id="shape50-142" v:mID="50" v:groupContext="shape" v:layerMember="0" transform="translate(14.0315,0)">
				<title>시트.50</title>
				<v:userDefs>
					<v:ud v:nameU="X" v:val="VT0(0.029527559055118):24"/>
					<v:ud v:nameU="X" v:prompt="" v:val="VT0(0.069600674915635):1"/>
				</v:userDefs>
				<path d="M52.12 575.23 A53.9825 33.0731 0 0 1 15.64 595.28 L0 595.28 A77.344 47.3857 -180 0 0 0 555.19 L15.64 555.19
							 A53.2595 32.6301 0 0 1 52.12 575.23 Z" class="st4"/>
			</g>
			<g id="shape51-144" v:mID="51" v:groupContext="shape" v:layerMember="0" transform="translate(0,6.68166)">
				<title>시트.51</title>
			</g>
			<g id="shape52-146" v:mID="52" v:groupContext="shape" v:layerMember="0" transform="translate(54.2871,-5.03713)">
				<title>시트.52</title>
			</g>
			<g id="shape53-148" v:mID="53" v:groupContext="shape" v:layerMember="0" transform="translate(14.0315,0)">
				<title>시트.53</title>
				<path d="M32.07 595.28 L0 595.28 L0 555.19 L32.07 555.19 A20.045 20.045 0 0 1 32.07 595.28 Z" class="st4"/>
			</g>
			<g id="shape48-150" v:mID="48" v:groupContext="groupContent" v:layerMember="0">
				<v:textBlock v:margins="rect(1,1,1,1)" v:tabSpace="42.5197"/>
				<v:textRect cx="40.09" cy="601.077" width="14.14" height="11.6036"/>
				<text x="35.08" y="603.48" class="st5" v:langID="1042"><v:paragraph v:horizAlign="1"/><v:tabList/>G6</text>			</g>
		</g>
		<g id="shape54-152" v:mID="54" v:groupContext="shape" v:layerMember="0" transform="translate(745.868,-300.966)">
			<title>I/O 포트.125</title>
			<desc>Radial Resonance</desc>
			<v:userDefs>
				<v:ud v:nameU="Form" v:val="VT0(0):26"/>
				<v:ud v:nameU="visVersion" v:val="VT0(15):26"/>
				<v:ud v:nameU="visDescription" v:val="VT4(단방향 또는 양방향 I/O 포트입니다. )"/>
			</v:userDefs>
			<v:textBlock v:margins="rect(1,1,1,1)" v:tabSpace="42.5197"/>
			<v:textRect cx="17.3723" cy="580.788" width="68.48" height="11.6036"/>
			<path d="M0 590.93 L0 586.59 L26.06 586.59 L34.74 590.93 L26.06 595.28 L0 595.28 L0 590.93 Z" class="st4"/>
			<text x="-14.46" y="583.25" class="st5" v:langID="1033"><v:paragraph v:horizAlign="1"/><v:tabList/>Radial Resonance</text>		</g>
		<g id="shape55-155" v:mID="55" v:groupContext="shape" v:layerMember="1" transform="translate(319.294,-461.265)">
			<title>동적 연결선</title>
			<desc>True</desc>
			<v:textBlock v:margins="rect(4,4,4,4)" v:tabSpace="42.5197"/>
			<v:textRect cx="77.5565" cy="600.384" width="50" height="20.0036"/>
			<path d="M0 595.28 L77.56 595.28 L77.56 621.5 L139.11 621.5" class="st11"/>
			<rect v:rectContext="textBkgnd" x="67.554" y="594.385" width="20.005" height="12.0001" class="st9"/>
			<text x="67.55" y="603.38" class="st12" v:langID="1042"><v:paragraph v:horizAlign="1"/><v:tabList/>True</text>		</g>
		<g id="shape56-160" v:mID="56" v:groupContext="shape" v:layerMember="1" transform="translate(434.218,-377.961)">
			<title>동적 연결선.127</title>
			<desc>True</desc>
			<v:textBlock v:margins="rect(4,4,4,4)" v:tabSpace="42.5197"/>
			<v:textRect cx="10.6299" cy="575.295" width="50" height="20.0036"/>
			<path d="M0 595.28 L10.63 595.28 L10.63 558.24 L24.18 558.24" class="st11"/>
			<rect v:rectContext="textBkgnd" x="0.627358" y="569.295" width="20.005" height="12.0001" class="st9"/>
			<text x="0.63" y="578.29" class="st12" v:langID="1042"><v:paragraph v:horizAlign="1"/><v:tabList/>True</text>		</g>
		<g id="shape57-165" v:mID="57" v:groupContext="shape" v:layerMember="1" transform="translate(319.294,-264.909)">
			<title>동적 연결선.128</title>
			<desc>True</desc>
			<v:textBlock v:margins="rect(4,4,4,4)" v:tabSpace="42.5197"/>
			<v:textRect cx="10.6299" cy="611" width="50" height="20.0036"/>
			<path d="M0 595.28 L10.63 595.28 L10.63 613.24 L34.74 613.24" class="st11"/>
			<rect v:rectContext="textBkgnd" x="0.627358" y="605" width="20.005" height="12.0001" class="st9"/>
			<text x="0.63" y="614" class="st12" v:langID="1042"><v:paragraph v:horizAlign="1"/><v:tabList/>True</text>		</g>
		<g id="shape58-170" v:mID="58" v:groupContext="shape" v:layerMember="1" transform="translate(319.294,-199.457)">
			<title>동적 연결선.129</title>
			<desc>True</desc>
			<v:textBlock v:margins="rect(4,4,4,4)" v:tabSpace="42.5197"/>
			<v:textRect cx="10.6299" cy="574.812" width="50" height="20.0036"/>
			<path d="M0 595.28 L10.63 595.28 L10.63 567.83 L34.74 567.83" class="st11"/>
			<rect v:rectContext="textBkgnd" x="0.627358" y="568.812" width="20.005" height="12.0001" class="st9"/>
			<text x="0.63" y="577.81" class="st12" v:langID="1042"><v:paragraph v:horizAlign="1"/><v:tabList/>True</text>		</g>
		<g id="shape59-175" v:mID="59" v:groupContext="shape" v:layerMember="1" transform="translate(319.294,-134.004)">
			<title>동적 연결선.130</title>
			<desc>True</desc>
			<v:textBlock v:margins="rect(4,4,4,4)" v:tabSpace="42.5197"/>
			<v:textRect cx="10.6299" cy="609.327" width="50" height="20.0036"/>
			<path d="M0 595.28 L10.63 595.28 L10.63 609.89 L34.74 609.89" class="st11"/>
			<rect v:rectContext="textBkgnd" x="0.627358" y="603.328" width="20.005" height="12.0001" class="st9"/>
			<text x="0.63" y="612.33" class="st12" v:langID="1042"><v:paragraph v:horizAlign="1"/><v:tabList/>True</text>		</g>
		<g id="shape60-180" v:mID="60" v:groupContext="shape" v:layerMember="1" transform="translate(319.294,-68.5523)">
			<title>동적 연결선.131</title>
			<desc>True</desc>
			<v:textBlock v:margins="rect(4,4,4,4)" v:tabSpace="42.5197"/>
			<v:textRect cx="10.6299" cy="573.139" width="50" height="20.0036"/>
			<path d="M0 595.28 L10.63 595.28 L10.63 564.49 L34.74 564.49" class="st11"/>
			<rect v:rectContext="textBkgnd" x="0.627358" y="567.139" width="20.005" height="12.0001" class="st9"/>
			<text x="0.63" y="576.14" class="st12" v:langID="1042"><v:paragraph v:horizAlign="1"/><v:tabList/>True</text>		</g>
		<g id="shape61-185" v:mID="61" v:groupContext="shape" v:layerMember="1" transform="translate(434.218,-109.363)">
			<title>동적 연결선.132</title>
			<desc>True</desc>
			<v:textBlock v:margins="rect(4,4,4,4)" v:tabSpace="42.5197"/>
			<v:textRect cx="10.6299" cy="553.398" width="50" height="20.0036"/>
			<path d="M0 595.28 L10.63 595.28 L10.63 543.95 L53.69 543.95" class="st11"/>
			<rect v:rectContext="textBkgnd" x="0.627358" y="547.398" width="20.005" height="12.0001" class="st9"/>
			<text x="0.63" y="556.4" class="st12" v:langID="1042"><v:paragraph v:horizAlign="1"/><v:tabList/>True</text>		</g>
		<g id="shape62-190" v:mID="62" v:groupContext="shape" v:layerMember="1" transform="translate(434.218,-236.922)">
			<title>동적 연결선.133</title>
			<desc>True</desc>
			<v:textBlock v:margins="rect(4,4,4,4)" v:tabSpace="42.5197"/>
			<v:textRect cx="10.6299" cy="639.583" width="50" height="20.0036"/>
			<path d="M0 595.28 L10.63 595.28 L10.63 651.46 L53.69 651.46" class="st11"/>
			<rect v:rectContext="textBkgnd" x="0.627358" y="633.583" width="20.005" height="12.0001" class="st9"/>
			<text x="0.63" y="642.58" class="st12" v:langID="1042"><v:paragraph v:horizAlign="1"/><v:tabList/>True</text>		</g>
		<g id="shape63-195" v:mID="63" v:groupContext="shape" v:layerMember="1" transform="translate(568.087,-170.713)">
			<title>동적 연결선.134</title>
			<desc>True</desc>
			<v:textBlock v:margins="rect(4,4,4,4)" v:tabSpace="42.5197"/>
			<v:textRect cx="10.6299" cy="517.333" width="50" height="20.0036"/>
			<path d="M0 595.28 L10.63 595.28 L10.63 470.7 L52.57 470.7" class="st11"/>
			<rect v:rectContext="textBkgnd" x="0.627358" y="511.334" width="20.005" height="12.0001" class="st9"/>
			<text x="0.63" y="520.33" class="st12" v:langID="1042"><v:paragraph v:horizAlign="1"/><v:tabList/>True</text>		</g>
		<g id="shape64-200" v:mID="64" v:groupContext="shape" v:layerMember="1" transform="translate(538.583,-425.021)">
			<title>동적 연결선.135</title>
			<desc>True</desc>
			<v:textBlock v:margins="rect(4,4,4,4)" v:tabSpace="42.5197"/>
			<v:textRect cx="10.6299" cy="680.528" width="50" height="20.0036"/>
			<path d="M0 595.28 L10.63 595.28 L10.63 704.97 L82.07 704.97" class="st11"/>
			<rect v:rectContext="textBkgnd" x="0.627358" y="674.528" width="20.005" height="12.0001" class="st9"/>
			<text x="0.63" y="683.53" class="st12" v:langID="1042"><v:paragraph v:horizAlign="1"/><v:tabList/>True</text>		</g>
		<g id="shape65-205" v:mID="65" v:groupContext="shape" v:layerMember="1" transform="translate(700.837,-298.223)">
			<title>동적 연결선.136</title>
			<desc>True</desc>
			<v:textBlock v:margins="rect(4,4,4,4)" v:tabSpace="42.5197"/>
			<v:textRect cx="22.5152" cy="588.189" width="50" height="20.0036"/>
			<path d="M0 588.19 L45.03 588.19" class="st11"/>
			<rect v:rectContext="textBkgnd" x="12.5126" y="582.189" width="20.005" height="12.0001" class="st9"/>
			<text x="12.51" y="591.19" class="st12" v:langID="1042"><v:paragraph v:horizAlign="1"/><v:tabList/>True</text>		</g>
	</g>
</svg>
