<?xml version="1.0" encoding="UTF-8" standalone="no"?>
<!DOCTYPE svg PUBLIC "-//W3C//DTD SVG 1.1//EN" "http://www.w3.org/Graphics/SVG/1.1/DTD/svg11.dtd">
<!-- Microsoft Visio, SVG Export에서 생성되었습니다. Turbine_Fault_01.svg Turbine_Fault_01_Unbalance -->
<svg xmlns="http://www.w3.org/2000/svg" xmlns:xlink="http://www.w3.org/1999/xlink" xmlns:ev="http://www.w3.org/2001/xml-events"
		xmlns:v="http://schemas.microsoft.com/visio/2003/SVGExtensions/" width="11.6929in" height="8.26772in"
		viewBox="0 0 841.89 595.276" xml:space="preserve" color-interpolation-filters="sRGB" class="st15">
	<v:documentProperties v:langID="1042" v:metric="true" v:viewMarkup="false">
		<v:userDefs>
			<v:ud v:nameU="msvNoAutoConnect" v:val="VT0(1):26"/>
		</v:userDefs>
	</v:documentProperties>

	<style type="text/css">
	<![CDATA[
		.st1 {fill:#ffffff;stroke:none;stroke-linecap:round;stroke-linejoin:round;stroke-width:0.75}
		.st2 {fill:#000000;font-family:맑은 고딕;font-size:1.16666em;font-weight:bold}
		.st3 {fill:none;stroke:none;stroke-linecap:round;stroke-linejoin:round;stroke-width:0.75}
		.st4 {fill:#000000;font-family:맑은 고딕;font-size:1.00001em}
		.st5 {fill:#ffffff;stroke:#000000;stroke-linecap:round;stroke-linejoin:round;stroke-width:0.75}
		.st6 {fill:#000000;font-family:맑은 고딕;font-size:0.666664em}
		.st7 {stroke:#000000;stroke-linecap:round;stroke-linejoin:round;stroke-width:0.75}
		.st8 {stroke:#ff0000;stroke-linecap:round;stroke-linejoin:round;stroke-width:1}
		.st9 {fill:#ffffff;stroke:none;stroke-linecap:butt;stroke-width:7.2}
		.st10 {fill:#ff0000;font-family:맑은 고딕;font-size:0.833336em}
		.st11 {stroke:#0070c0;stroke-linecap:round;stroke-linejoin:round;stroke-width:1}
		.st12 {fill:#0070c0;font-family:맑은 고딕;font-size:0.833336em}
		.st13 {stroke:#000000;stroke-linecap:round;stroke-linejoin:round;stroke-width:1}
		.st14 {fill:#ffffff;stroke:#000000;stroke-linecap:round;stroke-linejoin:round;stroke-width:1}
		.st15 {fill:none;fill-rule:evenodd;font-size:12px;overflow:visible;stroke-linecap:square;stroke-miterlimit:3}
	]]>
	</style>

	<g v:mID="0" v:index="1" v:groupContext="foregroundPage">
		<title>Turbine_Fault_01_Unbalance</title>
		<v:pageProperties v:drawingScale="0.0393701" v:pageScale="0.0393701" v:drawingUnits="24" v:shadowOffsetX="8.50394"
				v:shadowOffsetY="-8.50394"/>
		<v:layer v:name="전기" v:index="0"/>
		<v:layer v:name="연결선" v:index="1"/>
		<g id="shape1-1" v:mID="1" v:groupContext="shape" transform="translate(290.551,-552.756)">
			<title>시트.1</title>
			<desc>Turbine Fault 01 - Unbalance</desc>
			<v:textBlock v:margins="rect(4,4,4,4)" v:tabSpace="42.5197"/>
			<v:textRect cx="106.299" cy="584.074" width="212.6" height="22.4037"/>
			<rect x="0" y="572.872" width="212.598" height="22.4037" class="st1"/>
			<text x="8.8" y="588.27" class="st2" v:langID="1033"><v:paragraph v:horizAlign="1"/><v:tabList/>Turbine Fault 01 - Unbalance</text>		</g>
		<g id="shape2-4" v:mID="2" v:groupContext="shape" transform="translate(85.0394,-413.15)">
			<title>시트.2</title>
			<desc>Horiz 1xRPM &#62; Unbalance Thresh</desc>
			<v:textBlock v:margins="rect(4,4,4,4)" v:tabSpace="42.5197"/>
			<v:textRect cx="113.386" cy="583.937" width="226.78" height="22.6772"/>
			<rect x="0" y="572.598" width="226.772" height="22.6772" class="st3"/>
			<text x="21.16" y="587.54" class="st4" v:langID="1033"><v:paragraph v:horizAlign="1"/><v:tabList/>Horiz 1xRPM &#62; Unbalance Thresh</text>		</g>
		<g id="shape3-7" v:mID="3" v:groupContext="shape" transform="translate(85.0394,-347.528)">
			<title>시트.3</title>
			<desc>Vert 1xRPM &#62; Unbalance Thresh</desc>
			<v:textBlock v:margins="rect(4,4,4,4)" v:tabSpace="42.5197"/>
			<v:textRect cx="113.386" cy="583.937" width="226.78" height="22.6772"/>
			<rect x="0" y="572.598" width="226.772" height="22.6772" class="st3"/>
			<text x="24.26" y="587.54" class="st4" v:langID="1033"><v:paragraph v:horizAlign="1"/><v:tabList/>Vert 1xRPM &#62; Unbalance Thresh</text>		</g>
		<g id="shape4-10" v:mID="4" v:groupContext="shape" transform="translate(85.0394,-281.906)">
			<title>시트.4</title>
			<desc>Axial 1xRPM &#60;= 50% Horiz 1xRPM</desc>
			<v:textBlock v:margins="rect(4,4,4,4)" v:tabSpace="42.5197"/>
			<v:textRect cx="113.386" cy="583.937" width="226.78" height="22.6772"/>
			<rect x="0" y="572.598" width="226.772" height="22.6772" class="st3"/>
			<text x="18.32" y="587.54" class="st4" v:langID="1033"><v:paragraph v:horizAlign="1"/><v:tabList/>Axial 1xRPM &#60;= 50% Horiz 1xRPM</text>		</g>
		<g id="shape5-13" v:mID="5" v:groupContext="shape" transform="translate(85.0394,-216.283)">
			<title>시트.5</title>
			<desc>Axial 1xRPM &#60;= 50% Vert 1xRPM</desc>
			<v:textBlock v:margins="rect(4,4,4,4)" v:tabSpace="42.5197"/>
			<v:textRect cx="113.386" cy="583.937" width="226.78" height="22.6772"/>
			<rect x="0" y="572.598" width="226.772" height="22.6772" class="st3"/>
			<text x="21.43" y="587.54" class="st4" v:langID="1033"><v:paragraph v:horizAlign="1"/><v:tabList/>Axial 1xRPM &#60;= 50% Vert 1xRPM</text>		</g>
		<g id="shape6-16" v:mID="6" v:groupContext="shape" transform="translate(85.0394,-150.661)">
			<title>시트.6</title>
			<desc>Horiz 1xRPM / Vert 1xRPM &#60;= 5.0</desc>
			<v:textBlock v:margins="rect(4,4,4,4)" v:tabSpace="42.5197"/>
			<v:textRect cx="113.386" cy="583.937" width="226.78" height="22.6772"/>
			<rect x="0" y="572.598" width="226.772" height="22.6772" class="st3"/>
			<text x="19.15" y="587.54" class="st4" v:langID="1033"><v:paragraph v:horizAlign="1"/><v:tabList/>Horiz 1xRPM / Vert 1xRPM &#60;= 5.0</text>		</g>
		<g id="shape7-19" v:mID="7" v:groupContext="shape" transform="translate(85.0394,-85.0394)">
			<title>시트.7</title>
			<desc>Vert 1xRPM / Horiz 1xRPM &#60;= 3.5</desc>
			<v:textBlock v:margins="rect(4,4,4,4)" v:tabSpace="42.5197"/>
			<v:textRect cx="113.386" cy="583.937" width="226.78" height="22.6772"/>
			<rect x="0" y="572.598" width="226.772" height="22.6772" class="st3"/>
			<text x="19.15" y="587.54" class="st4" v:langID="1033"><v:paragraph v:horizAlign="1"/><v:tabList/>Vert 1xRPM / Horiz 1xRPM &#60;= 3.5</text>		</g>
		<g id="shape8-22" v:mID="8" v:groupContext="shape" v:layerMember="0" transform="translate(333.071,-423.425)">
			<title>I/O 포트.8</title>
			<desc>Ans1</desc>
			<v:userDefs>
				<v:ud v:nameU="Form" v:val="VT0(0):26"/>
				<v:ud v:nameU="visVersion" v:val="VT0(15):26"/>
				<v:ud v:nameU="visDescription" v:val="VT4(단방향 또는 양방향 I/O 포트입니다. )"/>
			</v:userDefs>
			<v:textBlock v:margins="rect(1,1,1,1)" v:tabSpace="42.5197"/>
			<v:textRect cx="14.1732" cy="582.387" width="22.58" height="11.6036"/>
			<path d="M0 591.73 L0 588.19 L21.26 588.19 L28.35 591.73 L21.26 595.28 L0 595.28 L0 591.73 Z" class="st5"/>
			<text x="5.29" y="584.79" class="st6" v:langID="1042"><v:paragraph v:horizAlign="1"/><v:tabList/>Ans1</text>		</g>
		<g id="group9-25" transform="translate(401.565,-253.287)" v:mID="9" v:groupContext="group" v:layerMember="0">
			<v:custProps>
				<v:cp v:nameU="Input" v:lbl="입력 수" v:type="1" v:format="2;3;4;5" v:sortKey="2" v:langID="1042" v:val="VT4(2)"/>
				<v:cp v:nameU="Type" v:lbl="게이트 종류" v:type="1" v:format="OR;AND;NOR;NAND;XOR;XNOR" v:sortKey="1" v:langID="1042"
						v:val="VT4(AND)"/>
				<v:cp v:nameU="Out" v:lbl="출력 수" v:type="1" v:format="1;2;3" v:sortKey="3" v:langID="1042" v:val="VT4(1)"/>
			</v:custProps>
			<v:userDefs>
				<v:ud v:nameU="SubType" v:val="VT0(1):26"/>
				<v:ud v:nameU="Margin" v:val="VT0(0.059055118110236):24"/>
				<v:ud v:nameU="LimitHeight" v:val="VT0(0):26"/>
				<v:ud v:nameU="visVersion" v:val="VT0(15):26"/>
				<v:ud v:nameU="visDescription" v:val="VT4(여러 가지 모양의 논리 게이트를 나타냅니다.)"/>
				<v:ud v:nameU="Margin" v:prompt="" v:val="VT0(0.11356753482738):1"/>
			</v:userDefs>
			<title>논리 게이트 2.23</title>
			<desc>G2</desc>
			<g id="shape10-26" v:mID="10" v:groupContext="shape" v:layerMember="0" transform="translate(0,-8.17686)">
				<title>시트.10</title>
				<path d="M0 578.92 L32.71 578.92" class="st7"/>
				<path d="M0 595.28 L32.71 595.28" class="st7"/>
				<path d="M65.41 587.1 L32.71 587.1" class="st7"/>
			</g>
			<g id="shape11-31" v:mID="11" v:groupContext="shape" v:layerMember="0" transform="translate(11.4476,0)">
				<title>시트.11</title>
				<v:userDefs>
					<v:ud v:nameU="X" v:val="VT0(0.029527559055118):24"/>
					<v:ud v:nameU="X" v:prompt="" v:val="VT0(0.056783767413689):1"/>
				</v:userDefs>
				<path d="M42.52 578.92 A44.0417 26.9827 0 0 1 12.76 595.28 L0 595.28 A63.1011 38.6597 -180 0 0 0 562.57 L12.76 562.57
							 A43.4518 26.6213 0 0 1 42.52 578.92 Z" class="st5"/>
			</g>
			<g id="shape12-33" v:mID="12" v:groupContext="shape" v:layerMember="0" transform="translate(0,5.45124)">
				<title>시트.12</title>
			</g>
			<g id="shape13-35" v:mID="13" v:groupContext="shape" v:layerMember="0" transform="translate(44.2902,-4.10954)">
				<title>시트.13</title>
			</g>
			<g id="shape14-37" v:mID="14" v:groupContext="shape" v:layerMember="0" transform="translate(11.4476,0)">
				<title>시트.14</title>
				<path d="M26.17 595.28 L0 595.28 L0 562.57 L26.17 562.57 A16.3537 16.3537 0 0 1 26.17 595.28 Z" class="st5"/>
			</g>
			<g id="shape9-39" v:mID="9" v:groupContext="groupContent" v:layerMember="0">
				<v:textBlock v:margins="rect(1,1,1,1)" v:tabSpace="42.5197"/>
				<v:textRect cx="32.7075" cy="601.077" width="14.84" height="11.6036"/>
				<text x="27.7" y="603.48" class="st6" v:langID="1042"><v:paragraph v:horizAlign="1"/><v:tabList/>G2</text>			</g>
		</g>
		<g id="group15-41" transform="translate(401.565,-381.053)" v:mID="15" v:groupContext="group" v:layerMember="0">
			<v:custProps>
				<v:cp v:nameU="Input" v:lbl="입력 수" v:type="1" v:format="2;3;4;5" v:sortKey="2" v:langID="1042" v:val="VT4(2)"/>
				<v:cp v:nameU="Type" v:lbl="게이트 종류" v:type="1" v:format="OR;AND;NOR;NAND;XOR;XNOR" v:sortKey="1" v:langID="1042"
						v:val="VT4(AND)"/>
				<v:cp v:nameU="Out" v:lbl="출력 수" v:type="1" v:format="1;2;3" v:sortKey="3" v:langID="1042" v:val="VT4(1)"/>
				<v:cp v:nameU="Type" v:lbl="" v:prompt="" v:type="0" v:format="" v:sortKey="" v:invis="false" v:ask="false"
						v:langID="1033" v:cal="0" v:val="VT4(OR)"/>
			</v:custProps>
			<v:userDefs>
				<v:ud v:nameU="SubType" v:val="VT0(1):26"/>
				<v:ud v:nameU="Margin" v:val="VT0(0.059055118110236):24"/>
				<v:ud v:nameU="LimitHeight" v:val="VT0(0):26"/>
				<v:ud v:nameU="visVersion" v:val="VT0(15):26"/>
				<v:ud v:nameU="visDescription" v:val="VT4(여러 가지 모양의 논리 게이트를 나타냅니다.)"/>
				<v:ud v:nameU="SubType" v:prompt="" v:val="VT0(0):26"/>
				<v:ud v:nameU="Margin" v:prompt="" v:val="VT0(0.11356753482738):1"/>
			</v:userDefs>
			<title>논리 게이트 2.29</title>
			<desc>G1</desc>
			<g id="shape16-42" v:mID="16" v:groupContext="shape" v:layerMember="0" transform="translate(0,-8.17686)">
				<title>시트.16</title>
				<path d="M0 578.92 L32.71 578.92" class="st7"/>
				<path d="M0 595.28 L32.71 595.28" class="st7"/>
				<path d="M65.41 587.1 L32.71 587.1" class="st7"/>
			</g>
			<g id="shape17-47" v:mID="17" v:groupContext="shape" v:layerMember="0" transform="translate(11.4476,0)">
				<title>시트.17</title>
				<v:userDefs>
					<v:ud v:nameU="X" v:val="VT0(0.029527559055118):24"/>
					<v:ud v:nameU="X" v:prompt="" v:val="VT0(0.056783767413689):1"/>
				</v:userDefs>
				<path d="M42.52 578.92 A44.0417 26.9827 0 0 1 12.76 595.28 L0 595.28 A63.1011 38.6597 -180 0 0 0 562.57 L12.76 562.57
							 A43.4518 26.6213 0 0 1 42.52 578.92 Z" class="st5"/>
			</g>
			<g id="shape18-49" v:mID="18" v:groupContext="shape" v:layerMember="0" transform="translate(0,5.45124)">
				<title>시트.18</title>
			</g>
			<g id="shape19-51" v:mID="19" v:groupContext="shape" v:layerMember="0" transform="translate(44.2902,-4.10954)">
				<title>시트.19</title>
			</g>
			<g id="shape20-53" v:mID="20" v:groupContext="shape" v:layerMember="0" transform="translate(11.4476,0)">
				<title>시트.20</title>
			</g>
			<g id="shape15-55" v:mID="15" v:groupContext="groupContent" v:layerMember="0">
				<v:textBlock v:margins="rect(1,1,1,1)" v:tabSpace="42.5197"/>
				<v:textRect cx="32.7075" cy="601.077" width="14.84" height="11.6036"/>
				<text x="27.7" y="603.48" class="st6" v:langID="1042"><v:paragraph v:horizAlign="1"/><v:tabList/>G1</text>			</g>
		</g>
		<g id="shape21-57" v:mID="21" v:groupContext="shape" v:layerMember="0" transform="translate(333.071,-357.449)">
			<title>I/O 포트.35</title>
			<desc>Ans2</desc>
			<v:userDefs>
				<v:ud v:nameU="Form" v:val="VT0(0):26"/>
				<v:ud v:nameU="visVersion" v:val="VT0(15):26"/>
				<v:ud v:nameU="visDescription" v:val="VT4(단방향 또는 양방향 I/O 포트입니다. )"/>
			</v:userDefs>
			<v:textBlock v:margins="rect(1,1,1,1)" v:tabSpace="42.5197"/>
			<v:textRect cx="14.1732" cy="582.387" width="21.88" height="11.6036"/>
			<path d="M0 591.73 L0 588.19 L21.26 588.19 L28.35 591.73 L21.26 595.28 L0 595.28 L0 591.73 Z" class="st5"/>
			<text x="5.29" y="584.79" class="st6" v:langID="1042"><v:paragraph v:horizAlign="1"/><v:tabList/>Ans2</text>		</g>
		<g id="shape22-60" v:mID="22" v:groupContext="shape" v:layerMember="0" transform="translate(333.071,-291.472)">
			<title>I/O 포트.36</title>
			<desc>Ans3</desc>
			<v:userDefs>
				<v:ud v:nameU="Form" v:val="VT0(0):26"/>
				<v:ud v:nameU="visVersion" v:val="VT0(15):26"/>
				<v:ud v:nameU="visDescription" v:val="VT4(단방향 또는 양방향 I/O 포트입니다. )"/>
			</v:userDefs>
			<v:textBlock v:margins="rect(1,1,1,1)" v:tabSpace="42.5197"/>
			<v:textRect cx="14.1732" cy="582.387" width="21.88" height="11.6036"/>
			<path d="M0 591.73 L0 588.19 L21.26 588.19 L28.35 591.73 L21.26 595.28 L0 595.28 L0 591.73 Z" class="st5"/>
			<text x="5.29" y="584.79" class="st6" v:langID="1042"><v:paragraph v:horizAlign="1"/><v:tabList/>Ans3</text>		</g>
		<g id="shape23-63" v:mID="23" v:groupContext="shape" v:layerMember="0" transform="translate(333.071,-225.496)">
			<title>I/O 포트.37</title>
			<desc>Ans4</desc>
			<v:userDefs>
				<v:ud v:nameU="Form" v:val="VT0(0):26"/>
				<v:ud v:nameU="visVersion" v:val="VT0(15):26"/>
				<v:ud v:nameU="visDescription" v:val="VT4(단방향 또는 양방향 I/O 포트입니다. )"/>
			</v:userDefs>
			<v:textBlock v:margins="rect(1,1,1,1)" v:tabSpace="42.5197"/>
			<v:textRect cx="14.1732" cy="582.387" width="21.88" height="11.6036"/>
			<path d="M0 591.73 L0 588.19 L21.26 588.19 L28.35 591.73 L21.26 595.28 L0 595.28 L0 591.73 Z" class="st5"/>
			<text x="5.29" y="584.79" class="st6" v:langID="1042"><v:paragraph v:horizAlign="1"/><v:tabList/>Ans4</text>		</g>
		<g id="shape24-66" v:mID="24" v:groupContext="shape" v:layerMember="0" transform="translate(333.071,-159.52)">
			<title>I/O 포트.38</title>
			<desc>Ans5</desc>
			<v:userDefs>
				<v:ud v:nameU="Form" v:val="VT0(0):26"/>
				<v:ud v:nameU="visVersion" v:val="VT0(15):26"/>
				<v:ud v:nameU="visDescription" v:val="VT4(단방향 또는 양방향 I/O 포트입니다. )"/>
			</v:userDefs>
			<v:textBlock v:margins="rect(1,1,1,1)" v:tabSpace="42.5197"/>
			<v:textRect cx="14.1732" cy="582.387" width="21.88" height="11.6036"/>
			<path d="M0 591.73 L0 588.19 L21.26 588.19 L28.35 591.73 L21.26 595.28 L0 595.28 L0 591.73 Z" class="st5"/>
			<text x="5.29" y="584.79" class="st6" v:langID="1042"><v:paragraph v:horizAlign="1"/><v:tabList/>Ans5</text>		</g>
		<g id="shape25-69" v:mID="25" v:groupContext="shape" v:layerMember="0" transform="translate(333.071,-93.5433)">
			<title>I/O 포트.39</title>
			<desc>Ans6</desc>
			<v:userDefs>
				<v:ud v:nameU="Form" v:val="VT0(0):26"/>
				<v:ud v:nameU="visVersion" v:val="VT0(15):26"/>
				<v:ud v:nameU="visDescription" v:val="VT4(단방향 또는 양방향 I/O 포트입니다. )"/>
			</v:userDefs>
			<v:textBlock v:margins="rect(1,1,1,1)" v:tabSpace="42.5197"/>
			<v:textRect cx="14.1732" cy="582.387" width="21.88" height="11.6036"/>
			<path d="M0 591.73 L0 588.19 L21.26 588.19 L28.35 591.73 L21.26 595.28 L0 595.28 L0 591.73 Z" class="st5"/>
			<text x="5.29" y="584.79" class="st6" v:langID="1042"><v:paragraph v:horizAlign="1"/><v:tabList/>Ans6</text>		</g>
		<g id="group26-72" transform="translate(401.565,-117.529)" v:mID="26" v:groupContext="group" v:layerMember="0">
			<v:custProps>
				<v:cp v:nameU="Input" v:lbl="입력 수" v:type="1" v:format="2;3;4;5" v:sortKey="2" v:langID="1042" v:val="VT4(2)"/>
				<v:cp v:nameU="Type" v:lbl="게이트 종류" v:type="1" v:format="OR;AND;NOR;NAND;XOR;XNOR" v:sortKey="1" v:langID="1042"
						v:val="VT4(AND)"/>
				<v:cp v:nameU="Out" v:lbl="출력 수" v:type="1" v:format="1;2;3" v:sortKey="3" v:langID="1042" v:val="VT4(1)"/>
			</v:custProps>
			<v:userDefs>
				<v:ud v:nameU="SubType" v:val="VT0(1):26"/>
				<v:ud v:nameU="Margin" v:val="VT0(0.059055118110236):24"/>
				<v:ud v:nameU="LimitHeight" v:val="VT0(0):26"/>
				<v:ud v:nameU="visVersion" v:val="VT0(15):26"/>
				<v:ud v:nameU="visDescription" v:val="VT4(여러 가지 모양의 논리 게이트를 나타냅니다.)"/>
				<v:ud v:nameU="Margin" v:prompt="" v:val="VT0(0.11356753482738):1"/>
			</v:userDefs>
			<title>논리 게이트 2.40</title>
			<desc>G3</desc>
			<g id="shape27-73" v:mID="27" v:groupContext="shape" v:layerMember="0" transform="translate(0,-8.17686)">
				<title>시트.27</title>
				<path d="M0 578.92 L32.71 578.92" class="st7"/>
				<path d="M0 595.28 L32.71 595.28" class="st7"/>
				<path d="M65.41 587.1 L32.71 587.1" class="st7"/>
			</g>
			<g id="shape28-78" v:mID="28" v:groupContext="shape" v:layerMember="0" transform="translate(11.4476,0)">
				<title>시트.28</title>
				<v:userDefs>
					<v:ud v:nameU="X" v:val="VT0(0.029527559055118):24"/>
					<v:ud v:nameU="X" v:prompt="" v:val="VT0(0.056783767413689):1"/>
				</v:userDefs>
				<path d="M42.52 578.92 A44.0417 26.9827 0 0 1 12.76 595.28 L0 595.28 A63.1011 38.6597 -180 0 0 0 562.57 L12.76 562.57
							 A43.4518 26.6213 0 0 1 42.52 578.92 Z" class="st5"/>
			</g>
			<g id="shape29-80" v:mID="29" v:groupContext="shape" v:layerMember="0" transform="translate(0,5.45124)">
				<title>시트.29</title>
			</g>
			<g id="shape30-82" v:mID="30" v:groupContext="shape" v:layerMember="0" transform="translate(44.2902,-4.10954)">
				<title>시트.30</title>
			</g>
			<g id="shape31-84" v:mID="31" v:groupContext="shape" v:layerMember="0" transform="translate(11.4476,0)">
				<title>시트.31</title>
				<path d="M26.17 595.28 L0 595.28 L0 562.57 L26.17 562.57 A16.3537 16.3537 0 0 1 26.17 595.28 Z" class="st5"/>
			</g>
			<g id="shape26-86" v:mID="26" v:groupContext="groupContent" v:layerMember="0">
				<v:textBlock v:margins="rect(1,1,1,1)" v:tabSpace="42.5197"/>
				<v:textRect cx="32.7075" cy="601.077" width="14.14" height="11.6036"/>
				<text x="27.7" y="603.48" class="st6" v:langID="1042"><v:paragraph v:horizAlign="1"/><v:tabList/>G3</text>			</g>
		</g>
		<g id="group32-88" transform="translate(507.127,-320.315)" v:mID="32" v:groupContext="group" v:layerMember="0">
			<v:custProps>
				<v:cp v:nameU="Input" v:lbl="입력 수" v:type="1" v:format="2;3;4;5" v:sortKey="2" v:langID="1042" v:val="VT4(2)"/>
				<v:cp v:nameU="Type" v:lbl="게이트 종류" v:type="1" v:format="OR;AND;NOR;NAND;XOR;XNOR" v:sortKey="1" v:langID="1042"
						v:val="VT4(AND)"/>
				<v:cp v:nameU="Out" v:lbl="출력 수" v:type="1" v:format="1;2;3" v:sortKey="3" v:langID="1042" v:val="VT4(1)"/>
			</v:custProps>
			<v:userDefs>
				<v:ud v:nameU="SubType" v:val="VT0(1):26"/>
				<v:ud v:nameU="Margin" v:val="VT0(0.059055118110236):24"/>
				<v:ud v:nameU="LimitHeight" v:val="VT0(0):26"/>
				<v:ud v:nameU="visVersion" v:val="VT0(15):26"/>
				<v:ud v:nameU="visDescription" v:val="VT4(여러 가지 모양의 논리 게이트를 나타냅니다.)"/>
				<v:ud v:nameU="Margin" v:prompt="" v:val="VT0(0.11356753482738):1"/>
			</v:userDefs>
			<title>논리 게이트 2.46</title>
			<desc>G4</desc>
			<g id="shape33-89" v:mID="33" v:groupContext="shape" v:layerMember="0" transform="translate(0,-8.17686)">
				<title>시트.33</title>
				<path d="M0 578.92 L32.71 578.92" class="st7"/>
				<path d="M0 595.28 L32.71 595.28" class="st7"/>
				<path d="M65.41 587.1 L32.71 587.1" class="st7"/>
			</g>
			<g id="shape34-94" v:mID="34" v:groupContext="shape" v:layerMember="0" transform="translate(11.4476,0)">
				<title>시트.34</title>
				<v:userDefs>
					<v:ud v:nameU="X" v:val="VT0(0.029527559055118):24"/>
					<v:ud v:nameU="X" v:prompt="" v:val="VT0(0.056783767413689):1"/>
				</v:userDefs>
				<path d="M42.52 578.92 A44.0417 26.9827 0 0 1 12.76 595.28 L0 595.28 A63.1011 38.6597 -180 0 0 0 562.57 L12.76 562.57
							 A43.4518 26.6213 0 0 1 42.52 578.92 Z" class="st5"/>
			</g>
			<g id="shape35-96" v:mID="35" v:groupContext="shape" v:layerMember="0" transform="translate(0,5.45124)">
				<title>시트.35</title>
			</g>
			<g id="shape36-98" v:mID="36" v:groupContext="shape" v:layerMember="0" transform="translate(44.2902,-4.10954)">
				<title>시트.36</title>
			</g>
			<g id="shape37-100" v:mID="37" v:groupContext="shape" v:layerMember="0" transform="translate(11.4476,0)">
				<title>시트.37</title>
				<path d="M26.17 595.28 L0 595.28 L0 562.57 L26.17 562.57 A16.3537 16.3537 0 0 1 26.17 595.28 Z" class="st5"/>
			</g>
			<g id="shape32-102" v:mID="32" v:groupContext="groupContent" v:layerMember="0">
				<v:textBlock v:margins="rect(1,1,1,1)" v:tabSpace="42.5197"/>
				<v:textRect cx="32.7075" cy="601.077" width="14.14" height="11.6036"/>
				<text x="27.7" y="603.48" class="st6" v:langID="1042"><v:paragraph v:horizAlign="1"/><v:tabList/>G4</text>			</g>
		</g>
		<g id="group38-104" transform="translate(618.524,-199.875)" v:mID="38" v:groupContext="group" v:layerMember="0">
			<v:custProps>
				<v:cp v:nameU="Input" v:lbl="입력 수" v:type="1" v:format="2;3;4;5" v:sortKey="2" v:langID="1042" v:val="VT4(2)"/>
				<v:cp v:nameU="Type" v:lbl="게이트 종류" v:type="1" v:format="OR;AND;NOR;NAND;XOR;XNOR" v:sortKey="1" v:langID="1042"
						v:val="VT4(AND)"/>
				<v:cp v:nameU="Out" v:lbl="출력 수" v:type="1" v:format="1;2;3" v:sortKey="3" v:langID="1042" v:val="VT4(1)"/>
			</v:custProps>
			<v:userDefs>
				<v:ud v:nameU="SubType" v:val="VT0(1):26"/>
				<v:ud v:nameU="Margin" v:val="VT0(0.059055118110236):24"/>
				<v:ud v:nameU="LimitHeight" v:val="VT0(0):26"/>
				<v:ud v:nameU="visVersion" v:val="VT0(15):26"/>
				<v:ud v:nameU="visDescription" v:val="VT4(여러 가지 모양의 논리 게이트를 나타냅니다.)"/>
				<v:ud v:nameU="Margin" v:prompt="" v:val="VT0(0.11356753482738):1"/>
			</v:userDefs>
			<title>논리 게이트 2.52</title>
			<desc>G5</desc>
			<g id="shape39-105" v:mID="39" v:groupContext="shape" v:layerMember="0" transform="translate(0,-8.17686)">
				<title>시트.39</title>
				<path d="M0 578.92 L32.71 578.92" class="st7"/>
				<path d="M0 595.28 L32.71 595.28" class="st7"/>
				<path d="M65.41 587.1 L32.71 587.1" class="st7"/>
			</g>
			<g id="shape40-110" v:mID="40" v:groupContext="shape" v:layerMember="0" transform="translate(11.4476,0)">
				<title>시트.40</title>
				<v:userDefs>
					<v:ud v:nameU="X" v:val="VT0(0.029527559055118):24"/>
					<v:ud v:nameU="X" v:prompt="" v:val="VT0(0.056783767413689):1"/>
				</v:userDefs>
				<path d="M42.52 578.92 A44.0417 26.9827 0 0 1 12.76 595.28 L0 595.28 A63.1011 38.6597 -180 0 0 0 562.57 L12.76 562.57
							 A43.4518 26.6213 0 0 1 42.52 578.92 Z" class="st5"/>
			</g>
			<g id="shape41-112" v:mID="41" v:groupContext="shape" v:layerMember="0" transform="translate(0,5.45124)">
				<title>시트.41</title>
			</g>
			<g id="shape42-114" v:mID="42" v:groupContext="shape" v:layerMember="0" transform="translate(44.2902,-4.10954)">
				<title>시트.42</title>
			</g>
			<g id="shape43-116" v:mID="43" v:groupContext="shape" v:layerMember="0" transform="translate(11.4476,0)">
				<title>시트.43</title>
				<path d="M26.17 595.28 L0 595.28 L0 562.57 L26.17 562.57 A16.3537 16.3537 0 0 1 26.17 595.28 Z" class="st5"/>
			</g>
			<g id="shape38-118" v:mID="38" v:groupContext="groupContent" v:layerMember="0">
				<v:textBlock v:margins="rect(1,1,1,1)" v:tabSpace="42.5197"/>
				<v:textRect cx="32.7075" cy="601.077" width="14.14" height="11.6036"/>
				<text x="27.7" y="603.48" class="st6" v:langID="1042"><v:paragraph v:horizAlign="1"/><v:tabList/>G5</text>			</g>
		</g>
		<g id="shape44-120" v:mID="44" v:groupContext="shape" v:layerMember="1" transform="translate(361.417,-426.969)">
			<title>동적 연결선</title>
			<desc>True</desc>
			<v:textBlock v:margins="rect(4,4,4,4)" v:tabSpace="42.5197"/>
			<v:textRect cx="10.6299" cy="615.412" width="50" height="20.0036"/>
			<path d="M0 595.28 L10.63 595.28 L10.63 616.66 L40.15 616.66" class="st8"/>
			<rect v:rectContext="textBkgnd" x="0.627358" y="609.412" width="20.005" height="12.0001" class="st9"/>
			<text x="0.63" y="618.41" class="st10" v:langID="1042"><v:paragraph v:horizAlign="1"/><v:tabList/>True</text>		</g>
		<g id="shape45-125" v:mID="45" v:groupContext="shape" v:layerMember="1" transform="translate(361.417,-360.992)">
			<title>동적 연결선.59</title>
			<desc>False</desc>
			<v:textBlock v:margins="rect(4,4,4,4)" v:tabSpace="42.5197"/>
			<v:textRect cx="10.6299" cy="571.713" width="50" height="20.0036"/>
			<path d="M0 595.28 L10.63 595.28 L10.63 567.04 L40.15 567.04" class="st11"/>
			<rect v:rectContext="textBkgnd" x="-0.534721" y="565.713" width="22.3292" height="12.0001" class="st9"/>
			<text x="-0.53" y="574.71" class="st12" v:langID="1042"><v:paragraph v:horizAlign="1"/><v:tabList/>False</text>		</g>
		<g id="shape46-130" v:mID="46" v:groupContext="shape" v:layerMember="1" transform="translate(361.417,-295.016)">
			<title>동적 연결선.60</title>
			<desc>False</desc>
			<v:textBlock v:margins="rect(4,4,4,4)" v:tabSpace="42.5197"/>
			<v:textRect cx="11.4745" cy="612.474" width="50" height="20.0036"/>
			<path d="M0 595.28 L10.63 595.28 L10.63 612.47 L40.15 612.47" class="st11"/>
			<rect v:rectContext="textBkgnd" x="0.309849" y="606.474" width="22.3292" height="12.0001" class="st9"/>
			<text x="0.31" y="615.47" class="st12" v:langID="1042"><v:paragraph v:horizAlign="1"/><v:tabList/>False</text>		</g>
		<g id="shape47-135" v:mID="47" v:groupContext="shape" v:layerMember="1" transform="translate(361.417,-229.039)">
			<title>동적 연결선.61</title>
			<desc>False</desc>
			<v:textBlock v:margins="rect(4,4,4,4)" v:tabSpace="42.5197"/>
			<v:textRect cx="10.6299" cy="569.62" width="50" height="20.0036"/>
			<path d="M0 595.28 L10.63 595.28 L10.63 562.85 L40.15 562.85" class="st11"/>
			<rect v:rectContext="textBkgnd" x="-0.534721" y="563.62" width="22.3292" height="12.0001" class="st9"/>
			<text x="-0.53" y="572.62" class="st12" v:langID="1042"><v:paragraph v:horizAlign="1"/><v:tabList/>False</text>		</g>
		<g id="shape48-140" v:mID="48" v:groupContext="shape" v:layerMember="1" transform="translate(361.417,-163.063)">
			<title>동적 연결선.62</title>
			<desc>False</desc>
			<v:textBlock v:margins="rect(4,4,4,4)" v:tabSpace="42.5197"/>
			<v:textRect cx="10.6299" cy="615.221" width="50" height="20.0036"/>
			<path d="M0 595.28 L10.63 595.28 L10.63 616.28 L40.15 616.28" class="st11"/>
			<rect v:rectContext="textBkgnd" x="-0.534721" y="609.221" width="22.3292" height="12.0001" class="st9"/>
			<text x="-0.53" y="618.22" class="st12" v:langID="1042"><v:paragraph v:horizAlign="1"/><v:tabList/>False</text>		</g>
		<g id="shape49-145" v:mID="49" v:groupContext="shape" v:layerMember="1" transform="translate(361.417,-97.0866)">
			<title>동적 연결선.63</title>
			<desc>False</desc>
			<v:textBlock v:margins="rect(4,4,4,4)" v:tabSpace="42.5197"/>
			<v:textRect cx="10.6299" cy="571.522" width="50" height="20.0036"/>
			<path d="M0 595.28 L10.63 595.28 L10.63 566.66 L40.15 566.66" class="st13"/>
			<rect v:rectContext="textBkgnd" x="-0.534721" y="565.523" width="22.3292" height="12.0001" class="st9"/>
			<text x="-0.53" y="574.52" class="st12" v:langID="1042"><v:paragraph v:horizAlign="1"/><v:tabList/>False</text>		</g>
		<g id="shape50-150" v:mID="50" v:groupContext="shape" v:layerMember="1" transform="translate(466.98,-269.641)">
			<title>동적 연결선.64</title>
			<desc>False</desc>
			<v:textBlock v:margins="rect(4,4,4,4)" v:tabSpace="42.5197"/>
			<v:textRect cx="10.6299" cy="556.406" width="50" height="20.0036"/>
			<path d="M0 595.28 L10.63 595.28 L10.63 536.42 L40.15 536.42" class="st11"/>
			<rect v:rectContext="textBkgnd" x="-0.534721" y="550.406" width="22.3292" height="12.0001" class="st9"/>
			<text x="-0.53" y="559.41" class="st12" v:langID="1042"><v:paragraph v:horizAlign="1"/><v:tabList/>False</text>		</g>
		<g id="shape51-155" v:mID="51" v:groupContext="shape" v:layerMember="1" transform="translate(466.98,-397.407)">
			<title>동적 연결선.65</title>
			<desc>False</desc>
			<v:textBlock v:margins="rect(4,4,4,4)" v:tabSpace="42.5197"/>
			<v:textRect cx="10.6299" cy="631" width="50" height="20.0036"/>
			<path d="M0 595.28 L10.63 595.28 L10.63 647.84 L40.15 647.84" class="st11"/>
			<rect v:rectContext="textBkgnd" x="-0.534721" y="625" width="22.3292" height="12.0001" class="st9"/>
			<text x="-0.53" y="634" class="st12" v:langID="1042"><v:paragraph v:horizAlign="1"/><v:tabList/>False</text>		</g>
		<g id="shape52-160" v:mID="52" v:groupContext="shape" v:layerMember="1" transform="translate(466.98,-133.882)">
			<title>동적 연결선.66</title>
			<desc>False</desc>
			<v:textBlock v:margins="rect(4,4,4,4)" v:tabSpace="42.5197"/>
			<v:textRect cx="38.6875" cy="521.106" width="50" height="20.0036"/>
			<path d="M0 595.28 L10.63 595.28 L10.63 521.11 L151.54 521.11" class="st11"/>
			<rect v:rectContext="textBkgnd" x="27.5228" y="515.106" width="22.3292" height="12.0001" class="st9"/>
			<text x="27.52" y="524.11" class="st12" v:langID="1042"><v:paragraph v:horizAlign="1"/><v:tabList/>False</text>		</g>
		<g id="shape53-165" v:mID="53" v:groupContext="shape" v:layerMember="1" transform="translate(572.542,-336.669)">
			<title>동적 연결선.67</title>
			<desc>False</desc>
			<v:textBlock v:margins="rect(4,4,4,4)" v:tabSpace="42.5197"/>
			<v:textRect cx="10.6299" cy="663.768" width="50" height="20.0036"/>
			<path d="M0 595.28 L10.63 595.28 L10.63 707.54 L45.98 707.54" class="st11"/>
			<rect v:rectContext="textBkgnd" x="-0.534721" y="657.768" width="22.3292" height="12.0001" class="st9"/>
			<text x="-0.53" y="666.77" class="st12" v:langID="1042"><v:paragraph v:horizAlign="1"/><v:tabList/>False</text>		</g>
		<g id="shape54-170" v:mID="54" v:groupContext="shape" v:layerMember="1" transform="translate(683.939,-209.142)">
			<title>동적 연결선.78</title>
			<desc>False</desc>
			<v:textBlock v:margins="rect(4,4,4,4)" v:tabSpace="42.5197"/>
			<v:textRect cx="13.5929" cy="588.189" width="50" height="20.0036"/>
			<path d="M0 588.19 L27.19 588.19" class="st11"/>
			<rect v:rectContext="textBkgnd" x="2.42829" y="582.189" width="22.3292" height="12.0001" class="st9"/>
			<text x="2.43" y="591.19" class="st12" v:langID="1042"><v:paragraph v:horizAlign="1"/><v:tabList/>False</text>		</g>
		<g id="shape55-175" v:mID="55" v:groupContext="shape" v:layerMember="0" transform="translate(711.125,-212.686)">
			<title>I/O 포트</title>
			<desc>Unbalance</desc>
			<v:userDefs>
				<v:ud v:nameU="Form" v:val="VT0(0):26"/>
				<v:ud v:nameU="visVersion" v:val="VT0(15):26"/>
				<v:ud v:nameU="visDescription" v:val="VT4(단방향 또는 양방향 I/O 포트입니다. )"/>
			</v:userDefs>
			<v:textBlock v:margins="rect(1,1,1,1)" v:tabSpace="42.5197"/>
			<v:textRect cx="15.2248" cy="606.701" width="42.85" height="11.6036"/>
			<path d="M0 591.73 L0 588.19 L21.26 588.19 L28.35 591.73 L21.26 595.28 L0 595.28 L0 591.73 Z" class="st14"/>
			<text x="-3.79" y="609.1" class="st6" v:langID="1042"><v:paragraph v:horizAlign="1"/><v:tabList/>Unbalance</text>		</g>
	</g>
</svg>
