<?xml version="1.0" encoding="UTF-8" standalone="no"?>
<!DOCTYPE svg PUBLIC "-//W3C//DTD SVG 1.1//EN" "http://www.w3.org/Graphics/SVG/1.1/DTD/svg11.dtd">
<!-- Microsoft Visio, SVG Export에서 생성되었습니다. Turbine_Fault_03.svg Turbine_Fault_03_Misalignment -->
<svg xmlns="http://www.w3.org/2000/svg" xmlns:xlink="http://www.w3.org/1999/xlink" xmlns:ev="http://www.w3.org/2001/xml-events"
		xmlns:v="http://schemas.microsoft.com/visio/2003/SVGExtensions/" width="11.6929in" height="8.26772in"
		viewBox="0 0 841.89 595.276" xml:space="preserve" color-interpolation-filters="sRGB" class="st13">
	<v:documentProperties v:langID="1042" v:metric="true" v:viewMarkup="false">
		<v:userDefs>
			<v:ud v:nameU="msvNoAutoConnect" v:val="VT0(1):26"/>
		</v:userDefs>
	</v:documentProperties>

	<style type="text/css">
	<![CDATA[
		.st1 {fill:#ffffff;stroke:none;stroke-linecap:round;stroke-linejoin:round;stroke-width:0.75}
		.st2 {fill:#000000;font-family:맑은 고딕;font-size:1.16666em;font-weight:bold}
		.st3 {stroke:#000000;stroke-linecap:round;stroke-linejoin:round;stroke-width:0.75}
		.st4 {fill:#ffffff;stroke:#000000;stroke-linecap:round;stroke-linejoin:round;stroke-width:0.75}
		.st5 {fill:#000000;font-family:맑은 고딕;font-size:0.666664em}
		.st6 {fill:none;stroke:none;stroke-linecap:round;stroke-linejoin:round;stroke-width:0.75}
		.st7 {fill:#000000;font-family:맑은 고딕;font-size:1.00001em}
		.st8 {stroke:#0070c0;stroke-linecap:round;stroke-linejoin:round;stroke-width:1}
		.st9 {fill:#ffffff;stroke:none;stroke-linecap:butt;stroke-width:7.2}
		.st10 {fill:#0070c0;font-family:맑은 고딕;font-size:0.833336em}
		.st11 {stroke:#ff0000;stroke-linecap:round;stroke-linejoin:round;stroke-width:1}
		.st12 {fill:#ff0000;font-family:맑은 고딕;font-size:0.833336em}
		.st13 {fill:none;fill-rule:evenodd;font-size:12px;overflow:visible;stroke-linecap:square;stroke-miterlimit:3}
	]]>
	</style>

	<g v:mID="5" v:index="3" v:groupContext="foregroundPage">
		<title>Turbine_Fault_03_Misalignment</title>
		<v:pageProperties v:drawingScale="0.0393701" v:pageScale="0.0393701" v:drawingUnits="24" v:shadowOffsetX="8.50394"
				v:shadowOffsetY="-8.50394"/>
		<v:layer v:name="전기" v:index="0"/>
		<v:layer v:name="연결선" v:index="1"/>
		<g id="shape2-1" v:mID="2" v:groupContext="shape" transform="translate(141.732,-552.756)">
			<title>시트.2</title>
			<desc>Turbine Fault 03 - Misalignment</desc>
			<v:textBlock v:margins="rect(4,4,4,4)" v:tabSpace="42.5197"/>
			<v:textRect cx="269.307" cy="584.074" width="538.62" height="22.4037"/>
			<rect x="0" y="572.872" width="538.615" height="22.4037" class="st1"/>
			<text x="161.16" y="588.27" class="st2" v:langID="1033"><v:paragraph v:horizAlign="1"/><v:tabList/>Turbine Fault 03 - Misalignment</text>		</g>
		<g id="group4-4" transform="translate(409.351,-352.913)" v:mID="4" v:groupContext="group" v:layerMember="0">
			<v:custProps>
				<v:cp v:nameU="Input" v:lbl="입력 수" v:type="1" v:format="2;3;4;5" v:sortKey="2" v:langID="1042" v:val="VT4(2)"/>
				<v:cp v:nameU="Type" v:lbl="게이트 종류" v:type="1" v:format="OR;AND;NOR;NAND;XOR;XNOR" v:sortKey="1" v:langID="1042"
						v:val="VT4(AND)"/>
				<v:cp v:nameU="Out" v:lbl="출력 수" v:type="1" v:format="1;2;3" v:sortKey="3" v:langID="1042" v:val="VT4(1)"/>
				<v:cp v:nameU="Type" v:lbl="" v:prompt="" v:type="0" v:format="" v:sortKey="" v:invis="false" v:ask="false"
						v:langID="1033" v:cal="0" v:val="VT4(OR)"/>
			</v:custProps>
			<v:userDefs>
				<v:ud v:nameU="SubType" v:val="VT0(1):26"/>
				<v:ud v:nameU="Margin" v:val="VT0(0.059055118110236):24"/>
				<v:ud v:nameU="LimitHeight" v:val="VT0(0):26"/>
				<v:ud v:nameU="visVersion" v:val="VT0(15):26"/>
				<v:ud v:nameU="visDescription" v:val="VT4(여러 가지 모양의 논리 게이트를 나타냅니다.)"/>
				<v:ud v:nameU="SubType" v:prompt="" v:val="VT0(0):26"/>
				<v:ud v:nameU="Margin" v:prompt="" v:val="VT0(0.11356753482738):1"/>
			</v:userDefs>
			<title>논리 게이트 2.29</title>
			<desc>G1</desc>
			<g id="shape5-5" v:mID="5" v:groupContext="shape" v:layerMember="0" transform="translate(0,-8.17686)">
				<title>시트.5</title>
				<path d="M0 578.92 L32.71 578.92" class="st3"/>
				<path d="M0 595.28 L32.71 595.28" class="st3"/>
				<path d="M65.41 587.1 L32.71 587.1" class="st3"/>
			</g>
			<g id="shape6-10" v:mID="6" v:groupContext="shape" v:layerMember="0" transform="translate(11.4476,0)">
				<title>시트.6</title>
				<v:userDefs>
					<v:ud v:nameU="X" v:val="VT0(0.029527559055118):24"/>
					<v:ud v:nameU="X" v:prompt="" v:val="VT0(0.056783767413689):1"/>
				</v:userDefs>
				<path d="M42.52 578.92 A44.0417 26.9827 0 0 1 12.76 595.28 L0 595.28 A63.1011 38.6597 -180 0 0 0 562.57 L12.76 562.57
							 A43.4518 26.6213 0 0 1 42.52 578.92 Z" class="st4"/>
			</g>
			<g id="shape7-12" v:mID="7" v:groupContext="shape" v:layerMember="0" transform="translate(0,5.45124)">
				<title>시트.7</title>
			</g>
			<g id="shape8-14" v:mID="8" v:groupContext="shape" v:layerMember="0" transform="translate(44.2902,-4.10954)">
				<title>시트.8</title>
			</g>
			<g id="shape9-16" v:mID="9" v:groupContext="shape" v:layerMember="0" transform="translate(11.4476,0)">
				<title>시트.9</title>
			</g>
			<g id="shape4-18" v:mID="4" v:groupContext="groupContent" v:layerMember="0">
				<v:textBlock v:margins="rect(1,1,1,1)" v:tabSpace="42.5197"/>
				<v:textRect cx="32.7075" cy="601.077" width="14.84" height="11.6036"/>
				<text x="27.7" y="603.48" class="st5" v:langID="1042"><v:paragraph v:horizAlign="1"/><v:tabList/>G1</text>			</g>
		</g>
		<g id="group10-20" transform="translate(409.351,-267.874)" v:mID="10" v:groupContext="group" v:layerMember="0">
			<v:custProps>
				<v:cp v:nameU="Input" v:lbl="입력 수" v:type="1" v:format="2;3;4;5" v:sortKey="2" v:langID="1042" v:val="VT4(2)"/>
				<v:cp v:nameU="Type" v:lbl="게이트 종류" v:type="1" v:format="OR;AND;NOR;NAND;XOR;XNOR" v:sortKey="1" v:langID="1042"
						v:val="VT4(AND)"/>
				<v:cp v:nameU="Out" v:lbl="출력 수" v:type="1" v:format="1;2;3" v:sortKey="3" v:langID="1042" v:val="VT4(1)"/>
			</v:custProps>
			<v:userDefs>
				<v:ud v:nameU="SubType" v:val="VT0(1):26"/>
				<v:ud v:nameU="Margin" v:val="VT0(0.059055118110236):24"/>
				<v:ud v:nameU="LimitHeight" v:val="VT0(0):26"/>
				<v:ud v:nameU="visVersion" v:val="VT0(15):26"/>
				<v:ud v:nameU="visDescription" v:val="VT4(여러 가지 모양의 논리 게이트를 나타냅니다.)"/>
				<v:ud v:nameU="Margin" v:prompt="" v:val="VT0(0.11356753482738):1"/>
			</v:userDefs>
			<title>논리 게이트 2.9</title>
			<desc>G2</desc>
			<g id="shape11-21" v:mID="11" v:groupContext="shape" v:layerMember="0" transform="translate(0,-8.17686)">
				<title>시트.11</title>
				<path d="M0 578.92 L32.71 578.92" class="st3"/>
				<path d="M0 595.28 L32.71 595.28" class="st3"/>
				<path d="M65.41 587.1 L32.71 587.1" class="st3"/>
			</g>
			<g id="shape12-26" v:mID="12" v:groupContext="shape" v:layerMember="0" transform="translate(11.4476,0)">
				<title>시트.12</title>
				<v:userDefs>
					<v:ud v:nameU="X" v:val="VT0(0.029527559055118):24"/>
					<v:ud v:nameU="X" v:prompt="" v:val="VT0(0.056783767413689):1"/>
				</v:userDefs>
				<path d="M42.52 578.92 A44.0417 26.9827 0 0 1 12.76 595.28 L0 595.28 A63.1011 38.6597 -180 0 0 0 562.57 L12.76 562.57
							 A43.4518 26.6213 0 0 1 42.52 578.92 Z" class="st4"/>
			</g>
			<g id="shape13-28" v:mID="13" v:groupContext="shape" v:layerMember="0" transform="translate(0,5.45124)">
				<title>시트.13</title>
			</g>
			<g id="shape14-30" v:mID="14" v:groupContext="shape" v:layerMember="0" transform="translate(44.2902,-4.10954)">
				<title>시트.14</title>
			</g>
			<g id="shape15-32" v:mID="15" v:groupContext="shape" v:layerMember="0" transform="translate(11.4476,0)">
				<title>시트.15</title>
				<path d="M26.17 595.28 L0 595.28 L0 562.57 L26.17 562.57 A16.3537 16.3537 0 0 1 26.17 595.28 Z" class="st4"/>
			</g>
			<g id="shape10-34" v:mID="10" v:groupContext="groupContent" v:layerMember="0">
				<v:textBlock v:margins="rect(1,1,1,1)" v:tabSpace="42.5197"/>
				<v:textRect cx="32.7075" cy="601.077" width="14.84" height="11.6036"/>
				<text x="27.7" y="603.48" class="st5" v:langID="1042"><v:paragraph v:horizAlign="1"/><v:tabList/>G2</text>			</g>
		</g>
		<g id="shape17-36" v:mID="17" v:groupContext="shape" transform="translate(26.5604,-416.535)">
			<title>시트.17</title>
			<desc>Axial Harmonic Energy &#62; 70% Threshold Ref</desc>
			<v:textBlock v:margins="rect(4,4,4,4)" v:tabSpace="42.5197"/>
			<v:textRect cx="152.419" cy="583.937" width="304.84" height="22.6772"/>
			<rect x="0" y="572.598" width="304.838" height="22.6772" class="st6"/>
			<text x="57.75" y="587.54" class="st7" v:langID="1033"><v:paragraph v:horizAlign="2"/><v:tabList/>Axial Harmonic Energy &#62; 70% Threshold Ref</text>		</g>
		<g id="shape18-39" v:mID="18" v:groupContext="shape" transform="translate(26.5604,-373.858)">
			<title>시트.18</title>
			<desc>Axial Harmonic Energy &#62; 50% Horiz Harmonic Energy</desc>
			<v:textBlock v:margins="rect(4,4,4,4)" v:tabSpace="42.5197"/>
			<v:textRect cx="152.419" cy="583.937" width="304.84" height="22.6772"/>
			<rect x="0" y="572.598" width="304.838" height="22.6772" class="st6"/>
			<text x="6.53" y="587.54" class="st7" v:langID="1033"><v:paragraph v:horizAlign="2"/><v:tabList/>Axial Harmonic Energy &#62; 50% Horiz Harmonic Energy</text>		</g>
		<g id="shape19-42" v:mID="19" v:groupContext="shape" transform="translate(26.5604,-331.181)">
			<title>시트.19</title>
			<desc>Axial Harmonic Energy &#62; 50% Vert Harmonic Energy</desc>
			<v:textBlock v:margins="rect(4,4,4,4)" v:tabSpace="42.5197"/>
			<v:textRect cx="152.419" cy="583.937" width="304.84" height="22.6772"/>
			<rect x="0" y="572.598" width="304.838" height="22.6772" class="st6"/>
			<text x="12.74" y="587.54" class="st7" v:langID="1033"><v:paragraph v:horizAlign="2"/><v:tabList/>Axial Harmonic Energy &#62; 50% Vert Harmonic Energy</text>		</g>
		<g id="shape20-45" v:mID="20" v:groupContext="shape" transform="translate(26.5604,-288.504)">
			<title>시트.20</title>
			<desc>Axial 1xRPM &#60;= 50% Horiz 1xRPM</desc>
			<v:textBlock v:margins="rect(4,4,4,4)" v:tabSpace="42.5197"/>
			<v:textRect cx="152.419" cy="583.937" width="304.84" height="22.6772"/>
			<rect x="0" y="572.598" width="304.838" height="22.6772" class="st6"/>
			<text x="110.71" y="587.54" class="st7" v:langID="1033"><v:paragraph v:horizAlign="2"/><v:tabList/>Axial 1xRPM &#60;= 50% Horiz 1xRPM</text>		</g>
		<g id="shape21-48" v:mID="21" v:groupContext="shape" transform="translate(26.5604,-245.827)">
			<title>시트.21</title>
			<desc>Axial 1xRPM &#60;= 50% Vert 1xRPM</desc>
			<v:textBlock v:margins="rect(4,4,4,4)" v:tabSpace="42.5197"/>
			<v:textRect cx="152.419" cy="583.937" width="304.84" height="22.6772"/>
			<rect x="0" y="572.598" width="304.838" height="22.6772" class="st6"/>
			<text x="116.92" y="587.54" class="st7" v:langID="1033"><v:paragraph v:horizAlign="2"/><v:tabList/>Axial 1xRPM &#60;= 50% Vert 1xRPM</text>		</g>
		<g id="shape22-51" v:mID="22" v:groupContext="shape" transform="translate(26.5604,-203.15)">
			<title>시트.22</title>
			<desc>1xRPM Vib. &#62; 0.8xOverall Alarm</desc>
			<v:textBlock v:margins="rect(4,4,4,4)" v:tabSpace="42.5197"/>
			<v:textRect cx="152.419" cy="583.937" width="304.84" height="22.6772"/>
			<rect x="0" y="572.598" width="304.838" height="22.6772" class="st6"/>
			<text x="126.54" y="587.54" class="st7" v:langID="1033"><v:paragraph v:horizAlign="2"/><v:tabList/>1xRPM Vib. &#62; 0.8xOverall Alarm</text>		</g>
		<g id="shape23-54" v:mID="23" v:groupContext="shape" transform="translate(26.5604,-160.472)">
			<title>시트.23</title>
			<desc>2xRPM Vib. &#62; 0.444xOverall Alarm</desc>
			<v:textBlock v:margins="rect(4,4,4,4)" v:tabSpace="42.5197"/>
			<v:textRect cx="152.419" cy="583.937" width="304.84" height="22.6772"/>
			<rect x="0" y="572.598" width="304.838" height="22.6772" class="st6"/>
			<text x="113.33" y="587.54" class="st7" v:langID="1033"><v:paragraph v:horizAlign="2"/><v:tabList/>2xRPM Vib. &#62; 0.444xOverall Alarm</text>		</g>
		<g id="shape24-57" v:mID="24" v:groupContext="shape" transform="translate(26.5604,-117.795)">
			<title>시트.24</title>
			<desc>3xRPM Vib. &#62; 0.333xOverall Alarm</desc>
			<v:textBlock v:margins="rect(4,4,4,4)" v:tabSpace="42.5197"/>
			<v:textRect cx="152.419" cy="583.937" width="304.84" height="22.6772"/>
			<rect x="0" y="572.598" width="304.838" height="22.6772" class="st6"/>
			<text x="113.33" y="587.54" class="st7" v:langID="1033"><v:paragraph v:horizAlign="2"/><v:tabList/>3xRPM Vib. &#62; 0.333xOverall Alarm</text>		</g>
		<g id="shape25-60" v:mID="25" v:groupContext="shape" transform="translate(26.5604,-75.1181)">
			<title>시트.25</title>
			<desc>4xRPM Vib. &#62; 0.222xOverall Alarm</desc>
			<v:textBlock v:margins="rect(4,4,4,4)" v:tabSpace="42.5197"/>
			<v:textRect cx="152.419" cy="583.937" width="304.84" height="22.6772"/>
			<rect x="0" y="572.598" width="304.838" height="22.6772" class="st6"/>
			<text x="113.33" y="587.54" class="st7" v:langID="1033"><v:paragraph v:horizAlign="2"/><v:tabList/>4xRPM Vib. &#62; 0.222xOverall Alarm</text>		</g>
		<g id="shape26-63" v:mID="26" v:groupContext="shape" v:layerMember="0" transform="translate(352.658,-82.8219)">
			<title>I/O 포트.26</title>
			<desc>Ans9</desc>
			<v:userDefs>
				<v:ud v:nameU="Form" v:val="VT0(0):26"/>
				<v:ud v:nameU="visVersion" v:val="VT0(15):26"/>
				<v:ud v:nameU="visDescription" v:val="VT4(단방향 또는 양방향 I/O 포트입니다. )"/>
			</v:userDefs>
			<v:textBlock v:margins="rect(1,1,1,1)" v:tabSpace="42.5197"/>
			<v:textRect cx="14.1732" cy="582.387" width="21.88" height="11.6036"/>
			<path d="M0 591.73 L0 588.19 L21.26 588.19 L28.35 591.73 L21.26 595.28 L0 595.28 L0 591.73 Z" class="st4"/>
			<text x="5.29" y="584.79" class="st5" v:langID="1042"><v:paragraph v:horizAlign="1"/><v:tabList/>Ans9</text>		</g>
		<g id="shape27-66" v:mID="27" v:groupContext="shape" v:layerMember="0" transform="translate(352.658,-423.691)">
			<title>I/O 포트.35</title>
			<desc>Ans1</desc>
			<v:userDefs>
				<v:ud v:nameU="Form" v:val="VT0(0):26"/>
				<v:ud v:nameU="visVersion" v:val="VT0(15):26"/>
				<v:ud v:nameU="visDescription" v:val="VT4(단방향 또는 양방향 I/O 포트입니다. )"/>
			</v:userDefs>
			<v:textBlock v:margins="rect(1,1,1,1)" v:tabSpace="42.5197"/>
			<v:textRect cx="14.1732" cy="582.387" width="21.88" height="11.6036"/>
			<path d="M0 591.73 L0 588.19 L21.26 588.19 L28.35 591.73 L21.26 595.28 L0 595.28 L0 591.73 Z" class="st4"/>
			<text x="5.29" y="584.79" class="st5" v:langID="1042"><v:paragraph v:horizAlign="1"/><v:tabList/>Ans1</text>		</g>
		<g id="shape28-69" v:mID="28" v:groupContext="shape" v:layerMember="0" transform="translate(352.658,-381.082)">
			<title>I/O 포트.36</title>
			<desc>Ans2</desc>
			<v:userDefs>
				<v:ud v:nameU="Form" v:val="VT0(0):26"/>
				<v:ud v:nameU="visVersion" v:val="VT0(15):26"/>
				<v:ud v:nameU="visDescription" v:val="VT4(단방향 또는 양방향 I/O 포트입니다. )"/>
			</v:userDefs>
			<v:textBlock v:margins="rect(1,1,1,1)" v:tabSpace="42.5197"/>
			<v:textRect cx="14.1732" cy="582.387" width="21.88" height="11.6036"/>
			<path d="M0 591.73 L0 588.19 L21.26 588.19 L28.35 591.73 L21.26 595.28 L0 595.28 L0 591.73 Z" class="st4"/>
			<text x="5.29" y="584.79" class="st5" v:langID="1042"><v:paragraph v:horizAlign="1"/><v:tabList/>Ans2</text>		</g>
		<g id="shape29-72" v:mID="29" v:groupContext="shape" v:layerMember="0" transform="translate(352.658,-338.473)">
			<title>I/O 포트.37</title>
			<desc>Ans3</desc>
			<v:userDefs>
				<v:ud v:nameU="Form" v:val="VT0(0):26"/>
				<v:ud v:nameU="visVersion" v:val="VT0(15):26"/>
				<v:ud v:nameU="visDescription" v:val="VT4(단방향 또는 양방향 I/O 포트입니다. )"/>
			</v:userDefs>
			<v:textBlock v:margins="rect(1,1,1,1)" v:tabSpace="42.5197"/>
			<v:textRect cx="14.1732" cy="582.387" width="21.88" height="11.6036"/>
			<path d="M0 591.73 L0 588.19 L21.26 588.19 L28.35 591.73 L21.26 595.28 L0 595.28 L0 591.73 Z" class="st4"/>
			<text x="5.29" y="584.79" class="st5" v:langID="1042"><v:paragraph v:horizAlign="1"/><v:tabList/>Ans3</text>		</g>
		<g id="shape30-75" v:mID="30" v:groupContext="shape" v:layerMember="0" transform="translate(352.658,-295.865)">
			<title>I/O 포트.38</title>
			<desc>Ans4</desc>
			<v:userDefs>
				<v:ud v:nameU="Form" v:val="VT0(0):26"/>
				<v:ud v:nameU="visVersion" v:val="VT0(15):26"/>
				<v:ud v:nameU="visDescription" v:val="VT4(단방향 또는 양방향 I/O 포트입니다. )"/>
			</v:userDefs>
			<v:textBlock v:margins="rect(1,1,1,1)" v:tabSpace="42.5197"/>
			<v:textRect cx="14.1732" cy="582.387" width="21.88" height="11.6036"/>
			<path d="M0 591.73 L0 588.19 L21.26 588.19 L28.35 591.73 L21.26 595.28 L0 595.28 L0 591.73 Z" class="st4"/>
			<text x="5.29" y="584.79" class="st5" v:langID="1042"><v:paragraph v:horizAlign="1"/><v:tabList/>Ans4</text>		</g>
		<g id="shape31-78" v:mID="31" v:groupContext="shape" v:layerMember="0" transform="translate(352.658,-253.256)">
			<title>I/O 포트.39</title>
			<desc>Ans5</desc>
			<v:userDefs>
				<v:ud v:nameU="Form" v:val="VT0(0):26"/>
				<v:ud v:nameU="visVersion" v:val="VT0(15):26"/>
				<v:ud v:nameU="visDescription" v:val="VT4(단방향 또는 양방향 I/O 포트입니다. )"/>
			</v:userDefs>
			<v:textBlock v:margins="rect(1,1,1,1)" v:tabSpace="42.5197"/>
			<v:textRect cx="14.1732" cy="582.387" width="21.88" height="11.6036"/>
			<path d="M0 591.73 L0 588.19 L21.26 588.19 L28.35 591.73 L21.26 595.28 L0 595.28 L0 591.73 Z" class="st4"/>
			<text x="5.29" y="584.79" class="st5" v:langID="1042"><v:paragraph v:horizAlign="1"/><v:tabList/>Ans5</text>		</g>
		<g id="shape32-81" v:mID="32" v:groupContext="shape" v:layerMember="0" transform="translate(352.658,-210.648)">
			<title>I/O 포트.40</title>
			<desc>Ans6</desc>
			<v:userDefs>
				<v:ud v:nameU="Form" v:val="VT0(0):26"/>
				<v:ud v:nameU="visVersion" v:val="VT0(15):26"/>
				<v:ud v:nameU="visDescription" v:val="VT4(단방향 또는 양방향 I/O 포트입니다. )"/>
			</v:userDefs>
			<v:textBlock v:margins="rect(1,1,1,1)" v:tabSpace="42.5197"/>
			<v:textRect cx="14.1732" cy="582.387" width="21.88" height="11.6036"/>
			<path d="M0 591.73 L0 588.19 L21.26 588.19 L28.35 591.73 L21.26 595.28 L0 595.28 L0 591.73 Z" class="st4"/>
			<text x="5.29" y="584.79" class="st5" v:langID="1042"><v:paragraph v:horizAlign="1"/><v:tabList/>Ans6</text>		</g>
		<g id="shape33-84" v:mID="33" v:groupContext="shape" v:layerMember="0" transform="translate(352.658,-168.039)">
			<title>I/O 포트.41</title>
			<desc>Ans7</desc>
			<v:userDefs>
				<v:ud v:nameU="Form" v:val="VT0(0):26"/>
				<v:ud v:nameU="visVersion" v:val="VT0(15):26"/>
				<v:ud v:nameU="visDescription" v:val="VT4(단방향 또는 양방향 I/O 포트입니다. )"/>
			</v:userDefs>
			<v:textBlock v:margins="rect(1,1,1,1)" v:tabSpace="42.5197"/>
			<v:textRect cx="14.1732" cy="582.387" width="21.88" height="11.6036"/>
			<path d="M0 591.73 L0 588.19 L21.26 588.19 L28.35 591.73 L21.26 595.28 L0 595.28 L0 591.73 Z" class="st4"/>
			<text x="5.29" y="584.79" class="st5" v:langID="1042"><v:paragraph v:horizAlign="1"/><v:tabList/>Ans7</text>		</g>
		<g id="shape34-87" v:mID="34" v:groupContext="shape" v:layerMember="0" transform="translate(352.658,-125.431)">
			<title>I/O 포트.42</title>
			<desc>Ans8</desc>
			<v:userDefs>
				<v:ud v:nameU="Form" v:val="VT0(0):26"/>
				<v:ud v:nameU="visVersion" v:val="VT0(15):26"/>
				<v:ud v:nameU="visDescription" v:val="VT4(단방향 또는 양방향 I/O 포트입니다. )"/>
			</v:userDefs>
			<v:textBlock v:margins="rect(1,1,1,1)" v:tabSpace="42.5197"/>
			<v:textRect cx="14.1732" cy="582.387" width="21.88" height="11.6036"/>
			<path d="M0 591.73 L0 588.19 L21.26 588.19 L28.35 591.73 L21.26 595.28 L0 595.28 L0 591.73 Z" class="st4"/>
			<text x="5.29" y="584.79" class="st5" v:langID="1042"><v:paragraph v:horizAlign="1"/><v:tabList/>Ans8</text>		</g>
		<g id="group35-90" transform="translate(409.351,-181.369)" v:mID="35" v:groupContext="group" v:layerMember="0">
			<v:custProps>
				<v:cp v:nameU="Input" v:lbl="입력 수" v:type="1" v:format="2;3;4;5" v:sortKey="2" v:langID="1042" v:val="VT4(2)"/>
				<v:cp v:nameU="Type" v:lbl="게이트 종류" v:type="1" v:format="OR;AND;NOR;NAND;XOR;XNOR" v:sortKey="1" v:langID="1042"
						v:val="VT4(AND)"/>
				<v:cp v:nameU="Out" v:lbl="출력 수" v:type="1" v:format="1;2;3" v:sortKey="3" v:langID="1042" v:val="VT4(1)"/>
				<v:cp v:nameU="Type" v:lbl="" v:prompt="" v:type="0" v:format="" v:sortKey="" v:invis="false" v:ask="false"
						v:langID="1033" v:cal="0" v:val="VT4(OR)"/>
			</v:custProps>
			<v:userDefs>
				<v:ud v:nameU="SubType" v:val="VT0(1):26"/>
				<v:ud v:nameU="Margin" v:val="VT0(0.059055118110236):24"/>
				<v:ud v:nameU="LimitHeight" v:val="VT0(0):26"/>
				<v:ud v:nameU="visVersion" v:val="VT0(15):26"/>
				<v:ud v:nameU="visDescription" v:val="VT4(여러 가지 모양의 논리 게이트를 나타냅니다.)"/>
				<v:ud v:nameU="SubType" v:prompt="" v:val="VT0(0):26"/>
				<v:ud v:nameU="Margin" v:prompt="" v:val="VT0(0.11356753482738):1"/>
			</v:userDefs>
			<title>논리 게이트 2.43</title>
			<desc>G3</desc>
			<g id="shape36-91" v:mID="36" v:groupContext="shape" v:layerMember="0" transform="translate(0,-8.17686)">
				<title>시트.36</title>
				<path d="M0 578.92 L32.71 578.92" class="st3"/>
				<path d="M0 595.28 L32.71 595.28" class="st3"/>
				<path d="M65.41 587.1 L32.71 587.1" class="st3"/>
			</g>
			<g id="shape37-96" v:mID="37" v:groupContext="shape" v:layerMember="0" transform="translate(11.4476,0)">
				<title>시트.37</title>
				<v:userDefs>
					<v:ud v:nameU="X" v:val="VT0(0.029527559055118):24"/>
					<v:ud v:nameU="X" v:prompt="" v:val="VT0(0.056783767413689):1"/>
				</v:userDefs>
				<path d="M42.52 578.92 A44.0417 26.9827 0 0 1 12.76 595.28 L0 595.28 A63.1011 38.6597 -180 0 0 0 562.57 L12.76 562.57
							 A43.4518 26.6213 0 0 1 42.52 578.92 Z" class="st4"/>
			</g>
			<g id="shape38-98" v:mID="38" v:groupContext="shape" v:layerMember="0" transform="translate(0,5.45124)">
				<title>시트.38</title>
			</g>
			<g id="shape39-100" v:mID="39" v:groupContext="shape" v:layerMember="0" transform="translate(44.2902,-4.10954)">
				<title>시트.39</title>
			</g>
			<g id="shape40-102" v:mID="40" v:groupContext="shape" v:layerMember="0" transform="translate(11.4476,0)">
				<title>시트.40</title>
			</g>
			<g id="shape35-104" v:mID="35" v:groupContext="groupContent" v:layerMember="0">
				<v:textBlock v:margins="rect(1,1,1,1)" v:tabSpace="42.5197"/>
				<v:textRect cx="32.7075" cy="601.077" width="14.14" height="11.6036"/>
				<text x="27.7" y="603.48" class="st5" v:langID="1042"><v:paragraph v:horizAlign="1"/><v:tabList/>G3</text>			</g>
		</g>
		<g id="group41-106" transform="translate(409.351,-96.6093)" v:mID="41" v:groupContext="group" v:layerMember="0">
			<v:custProps>
				<v:cp v:nameU="Input" v:lbl="입력 수" v:type="1" v:format="2;3;4;5" v:sortKey="2" v:langID="1042" v:val="VT4(2)"/>
				<v:cp v:nameU="Type" v:lbl="게이트 종류" v:type="1" v:format="OR;AND;NOR;NAND;XOR;XNOR" v:sortKey="1" v:langID="1042"
						v:val="VT4(AND)"/>
				<v:cp v:nameU="Out" v:lbl="출력 수" v:type="1" v:format="1;2;3" v:sortKey="3" v:langID="1042" v:val="VT4(1)"/>
				<v:cp v:nameU="Type" v:lbl="" v:prompt="" v:type="0" v:format="" v:sortKey="" v:invis="false" v:ask="false"
						v:langID="1033" v:cal="0" v:val="VT4(OR)"/>
			</v:custProps>
			<v:userDefs>
				<v:ud v:nameU="SubType" v:val="VT0(1):26"/>
				<v:ud v:nameU="Margin" v:val="VT0(0.059055118110236):24"/>
				<v:ud v:nameU="LimitHeight" v:val="VT0(0):26"/>
				<v:ud v:nameU="visVersion" v:val="VT0(15):26"/>
				<v:ud v:nameU="visDescription" v:val="VT4(여러 가지 모양의 논리 게이트를 나타냅니다.)"/>
				<v:ud v:nameU="SubType" v:prompt="" v:val="VT0(0):26"/>
				<v:ud v:nameU="Margin" v:prompt="" v:val="VT0(0.11356753482738):1"/>
			</v:userDefs>
			<title>논리 게이트 2.49</title>
			<desc>G4</desc>
			<g id="shape42-107" v:mID="42" v:groupContext="shape" v:layerMember="0" transform="translate(0,-8.17686)">
				<title>시트.42</title>
				<path d="M0 578.92 L32.71 578.92" class="st3"/>
				<path d="M0 595.28 L32.71 595.28" class="st3"/>
				<path d="M65.41 587.1 L32.71 587.1" class="st3"/>
			</g>
			<g id="shape43-112" v:mID="43" v:groupContext="shape" v:layerMember="0" transform="translate(11.4476,0)">
				<title>시트.43</title>
				<v:userDefs>
					<v:ud v:nameU="X" v:val="VT0(0.029527559055118):24"/>
					<v:ud v:nameU="X" v:prompt="" v:val="VT0(0.056783767413689):1"/>
				</v:userDefs>
				<path d="M42.52 578.92 A44.0417 26.9827 0 0 1 12.76 595.28 L0 595.28 A63.1011 38.6597 -180 0 0 0 562.57 L12.76 562.57
							 A43.4518 26.6213 0 0 1 42.52 578.92 Z" class="st4"/>
			</g>
			<g id="shape44-114" v:mID="44" v:groupContext="shape" v:layerMember="0" transform="translate(0,5.45124)">
				<title>시트.44</title>
			</g>
			<g id="shape45-116" v:mID="45" v:groupContext="shape" v:layerMember="0" transform="translate(44.2902,-4.10954)">
				<title>시트.45</title>
			</g>
			<g id="shape46-118" v:mID="46" v:groupContext="shape" v:layerMember="0" transform="translate(11.4476,0)">
				<title>시트.46</title>
			</g>
			<g id="shape41-120" v:mID="41" v:groupContext="groupContent" v:layerMember="0">
				<v:textBlock v:margins="rect(1,1,1,1)" v:tabSpace="42.5197"/>
				<v:textRect cx="32.7075" cy="601.077" width="14.14" height="11.6036"/>
				<text x="27.7" y="603.48" class="st5" v:langID="1042"><v:paragraph v:horizAlign="1"/><v:tabList/>G4</text>			</g>
		</g>
		<g id="group47-122" transform="translate(487.544,-382.677)" v:mID="47" v:groupContext="group" v:layerMember="0">
			<v:custProps>
				<v:cp v:nameU="Input" v:lbl="입력 수" v:type="1" v:format="2;3;4;5" v:sortKey="2" v:langID="1042" v:val="VT4(2)"/>
				<v:cp v:nameU="Type" v:lbl="게이트 종류" v:type="1" v:format="OR;AND;NOR;NAND;XOR;XNOR" v:sortKey="1" v:langID="1042"
						v:val="VT4(AND)"/>
				<v:cp v:nameU="Out" v:lbl="출력 수" v:type="1" v:format="1;2;3" v:sortKey="3" v:langID="1042" v:val="VT4(1)"/>
			</v:custProps>
			<v:userDefs>
				<v:ud v:nameU="SubType" v:val="VT0(1):26"/>
				<v:ud v:nameU="Margin" v:val="VT0(0.059055118110236):24"/>
				<v:ud v:nameU="LimitHeight" v:val="VT0(0):26"/>
				<v:ud v:nameU="visVersion" v:val="VT0(15):26"/>
				<v:ud v:nameU="visDescription" v:val="VT4(여러 가지 모양의 논리 게이트를 나타냅니다.)"/>
				<v:ud v:nameU="Margin" v:prompt="" v:val="VT0(0.11356753482738):1"/>
			</v:userDefs>
			<title>논리 게이트 2.55</title>
			<desc>G5</desc>
			<g id="shape48-123" v:mID="48" v:groupContext="shape" v:layerMember="0" transform="translate(0,-8.17686)">
				<title>시트.48</title>
				<path d="M0 578.92 L32.71 578.92" class="st3"/>
				<path d="M0 595.28 L32.71 595.28" class="st3"/>
				<path d="M65.41 587.1 L32.71 587.1" class="st3"/>
			</g>
			<g id="shape49-128" v:mID="49" v:groupContext="shape" v:layerMember="0" transform="translate(11.4476,0)">
				<title>시트.49</title>
				<v:userDefs>
					<v:ud v:nameU="X" v:val="VT0(0.029527559055118):24"/>
					<v:ud v:nameU="X" v:prompt="" v:val="VT0(0.056783767413689):1"/>
				</v:userDefs>
				<path d="M42.52 578.92 A44.0417 26.9827 0 0 1 12.76 595.28 L0 595.28 A63.1011 38.6597 -180 0 0 0 562.57 L12.76 562.57
							 A43.4518 26.6213 0 0 1 42.52 578.92 Z" class="st4"/>
			</g>
			<g id="shape50-130" v:mID="50" v:groupContext="shape" v:layerMember="0" transform="translate(0,5.45124)">
				<title>시트.50</title>
			</g>
			<g id="shape51-132" v:mID="51" v:groupContext="shape" v:layerMember="0" transform="translate(44.2902,-4.10954)">
				<title>시트.51</title>
			</g>
			<g id="shape52-134" v:mID="52" v:groupContext="shape" v:layerMember="0" transform="translate(11.4476,0)">
				<title>시트.52</title>
				<path d="M26.17 595.28 L0 595.28 L0 562.57 L26.17 562.57 A16.3537 16.3537 0 0 1 26.17 595.28 Z" class="st4"/>
			</g>
			<g id="shape47-136" v:mID="47" v:groupContext="groupContent" v:layerMember="0">
				<v:textBlock v:margins="rect(1,1,1,1)" v:tabSpace="42.5197"/>
				<v:textRect cx="32.7075" cy="601.077" width="14.14" height="11.6036"/>
				<text x="27.7" y="603.48" class="st5" v:langID="1042"><v:paragraph v:horizAlign="1"/><v:tabList/>G5</text>			</g>
		</g>
		<g id="group59-138" transform="translate(503.112,-140.315)" v:mID="59" v:groupContext="group" v:layerMember="0">
			<v:custProps>
				<v:cp v:nameU="Input" v:lbl="입력 수" v:type="1" v:format="2;3;4;5" v:sortKey="2" v:langID="1042" v:val="VT4(2)"/>
				<v:cp v:nameU="Type" v:lbl="게이트 종류" v:type="1" v:format="OR;AND;NOR;NAND;XOR;XNOR" v:sortKey="1" v:langID="1042"
						v:val="VT4(AND)"/>
				<v:cp v:nameU="Out" v:lbl="출력 수" v:type="1" v:format="1;2;3" v:sortKey="3" v:langID="1042" v:val="VT4(1)"/>
				<v:cp v:nameU="Type" v:lbl="" v:prompt="" v:type="0" v:format="" v:sortKey="" v:invis="false" v:ask="false"
						v:langID="1033" v:cal="0" v:val="VT4(OR)"/>
			</v:custProps>
			<v:userDefs>
				<v:ud v:nameU="SubType" v:val="VT0(1):26"/>
				<v:ud v:nameU="Margin" v:val="VT0(0.059055118110236):24"/>
				<v:ud v:nameU="LimitHeight" v:val="VT0(0):26"/>
				<v:ud v:nameU="visVersion" v:val="VT0(15):26"/>
				<v:ud v:nameU="visDescription" v:val="VT4(여러 가지 모양의 논리 게이트를 나타냅니다.)"/>
				<v:ud v:nameU="SubType" v:prompt="" v:val="VT0(0):26"/>
				<v:ud v:nameU="Margin" v:prompt="" v:val="VT0(0.11356753482738):1"/>
			</v:userDefs>
			<title>논리 게이트 2.67</title>
			<desc>G6</desc>
			<g id="shape60-139" v:mID="60" v:groupContext="shape" v:layerMember="0" transform="translate(0,-8.17686)">
				<title>시트.60</title>
				<path d="M0 578.92 L32.71 578.92" class="st3"/>
				<path d="M0 595.28 L32.71 595.28" class="st3"/>
				<path d="M65.41 587.1 L32.71 587.1" class="st3"/>
			</g>
			<g id="shape61-144" v:mID="61" v:groupContext="shape" v:layerMember="0" transform="translate(11.4476,0)">
				<title>시트.61</title>
				<v:userDefs>
					<v:ud v:nameU="X" v:val="VT0(0.029527559055118):24"/>
					<v:ud v:nameU="X" v:prompt="" v:val="VT0(0.056783767413689):1"/>
				</v:userDefs>
				<path d="M42.52 578.92 A44.0417 26.9827 0 0 1 12.76 595.28 L0 595.28 A63.1011 38.6597 -180 0 0 0 562.57 L12.76 562.57
							 A43.4518 26.6213 0 0 1 42.52 578.92 Z" class="st4"/>
			</g>
			<g id="shape62-146" v:mID="62" v:groupContext="shape" v:layerMember="0" transform="translate(0,5.45124)">
				<title>시트.62</title>
			</g>
			<g id="shape63-148" v:mID="63" v:groupContext="shape" v:layerMember="0" transform="translate(44.2902,-4.10954)">
				<title>시트.63</title>
			</g>
			<g id="shape64-150" v:mID="64" v:groupContext="shape" v:layerMember="0" transform="translate(11.4476,0)">
				<title>시트.64</title>
			</g>
			<g id="shape59-152" v:mID="59" v:groupContext="groupContent" v:layerMember="0">
				<v:textBlock v:margins="rect(1,1,1,1)" v:tabSpace="42.5197"/>
				<v:textRect cx="32.7075" cy="601.077" width="14.14" height="11.6036"/>
				<text x="27.7" y="603.48" class="st5" v:langID="1042"><v:paragraph v:horizAlign="1"/><v:tabList/>G6</text>			</g>
		</g>
		<g id="group65-154" transform="translate(640.723,-345.26)" v:mID="65" v:groupContext="group" v:layerMember="0">
			<v:custProps>
				<v:cp v:nameU="Input" v:lbl="입력 수" v:type="1" v:format="2;3;4;5" v:sortKey="2" v:langID="1042" v:val="VT4(2)"/>
				<v:cp v:nameU="Type" v:lbl="게이트 종류" v:type="1" v:format="OR;AND;NOR;NAND;XOR;XNOR" v:sortKey="1" v:langID="1042"
						v:val="VT4(AND)"/>
				<v:cp v:nameU="Out" v:lbl="출력 수" v:type="1" v:format="1;2;3" v:sortKey="3" v:langID="1042" v:val="VT4(1)"/>
			</v:custProps>
			<v:userDefs>
				<v:ud v:nameU="SubType" v:val="VT0(1):26"/>
				<v:ud v:nameU="Margin" v:val="VT0(0.059055118110236):24"/>
				<v:ud v:nameU="LimitHeight" v:val="VT0(0):26"/>
				<v:ud v:nameU="visVersion" v:val="VT0(15):26"/>
				<v:ud v:nameU="visDescription" v:val="VT4(여러 가지 모양의 논리 게이트를 나타냅니다.)"/>
				<v:ud v:nameU="Margin" v:prompt="" v:val="VT0(0.11356753482738):1"/>
			</v:userDefs>
			<title>논리 게이트 2.73</title>
			<desc>G7</desc>
			<g id="shape66-155" v:mID="66" v:groupContext="shape" v:layerMember="0" transform="translate(0,-8.17686)">
				<title>시트.66</title>
				<path d="M0 578.92 L32.71 578.92" class="st3"/>
				<path d="M0 595.28 L32.71 595.28" class="st3"/>
				<path d="M65.41 587.1 L32.71 587.1" class="st3"/>
			</g>
			<g id="shape67-160" v:mID="67" v:groupContext="shape" v:layerMember="0" transform="translate(11.4476,0)">
				<title>시트.67</title>
				<v:userDefs>
					<v:ud v:nameU="X" v:val="VT0(0.029527559055118):24"/>
					<v:ud v:nameU="X" v:prompt="" v:val="VT0(0.056783767413689):1"/>
				</v:userDefs>
				<path d="M42.52 578.92 A44.0417 26.9827 0 0 1 12.76 595.28 L0 595.28 A63.1011 38.6597 -180 0 0 0 562.57 L12.76 562.57
							 A43.4518 26.6213 0 0 1 42.52 578.92 Z" class="st4"/>
			</g>
			<g id="shape68-162" v:mID="68" v:groupContext="shape" v:layerMember="0" transform="translate(0,5.45124)">
				<title>시트.68</title>
			</g>
			<g id="shape69-164" v:mID="69" v:groupContext="shape" v:layerMember="0" transform="translate(44.2902,-4.10954)">
				<title>시트.69</title>
			</g>
			<g id="shape70-166" v:mID="70" v:groupContext="shape" v:layerMember="0" transform="translate(11.4476,0)">
				<title>시트.70</title>
				<path d="M26.17 595.28 L0 595.28 L0 562.57 L26.17 562.57 A16.3537 16.3537 0 0 1 26.17 595.28 Z" class="st4"/>
			</g>
			<g id="shape65-168" v:mID="65" v:groupContext="groupContent" v:layerMember="0">
				<v:textBlock v:margins="rect(1,1,1,1)" v:tabSpace="42.5197"/>
				<v:textRect cx="32.7075" cy="601.077" width="14.14" height="11.6036"/>
				<text x="27.7" y="603.48" class="st5" v:langID="1042"><v:paragraph v:horizAlign="1"/><v:tabList/>G7</text>			</g>
		</g>
		<g id="shape71-170" v:mID="71" v:groupContext="shape" v:layerMember="0" transform="translate(778.847,-280.684)">
			<title>I/O 포트.79</title>
			<desc>Misalignment</desc>
			<v:userDefs>
				<v:ud v:nameU="Form" v:val="VT0(0):26"/>
				<v:ud v:nameU="visVersion" v:val="VT0(15):26"/>
				<v:ud v:nameU="visDescription" v:val="VT4(단방향 또는 양방향 I/O 포트입니다. )"/>
			</v:userDefs>
			<v:textBlock v:margins="rect(1,1,1,1)" v:tabSpace="42.5197"/>
			<v:textRect cx="9.49606" cy="605.251" width="53.83" height="11.6036"/>
			<path d="M0 591.73 L0 588.19 L21.26 588.19 L28.35 591.73 L21.26 595.28 L0 595.28 L0 591.73 Z" class="st4"/>
			<text x="-15.01" y="607.71" class="st5" v:langID="1042"><v:paragraph v:horizAlign="1"/><v:tabList/>Misalignment</text>		</g>
		<g id="shape73-173" v:mID="73" v:groupContext="shape" v:layerMember="1" transform="translate(381.004,-427.234)">
			<title>동적 연결선.72</title>
			<desc>True</desc>
			<v:textBlock v:margins="rect(4,4,4,4)" v:tabSpace="42.5197"/>
			<v:textRect cx="63.2826" cy="595.276" width="50" height="20.0036"/>
			<path d="M0 595.28 L72.54 595.28 L72.54 615.3 L106.54 615.3" class="st8"/>
			<rect v:rectContext="textBkgnd" x="53.2801" y="589.276" width="20.005" height="12.0001" class="st9"/>
			<text x="53.28" y="598.28" class="st10" v:langID="1042"><v:paragraph v:horizAlign="1"/><v:tabList/>True</text>		</g>
		<g id="shape74-178" v:mID="74" v:groupContext="shape" v:layerMember="1" transform="translate(381.004,-388.121)">
			<title>동적 연결선.73</title>
			<desc>False</desc>
			<v:textBlock v:margins="rect(4,4,4,4)" v:tabSpace="42.5197"/>
			<v:textRect cx="10.6299" cy="605.906" width="50" height="20.0036"/>
			<path d="M0 598.77 L10.63 598.77 L10.63 605.95 L28.35 605.95" class="st11"/>
			<rect v:rectContext="textBkgnd" x="-0.534721" y="599.906" width="22.3292" height="12.0001" class="st9"/>
			<text x="-0.53" y="608.91" class="st12" v:langID="1042"><v:paragraph v:horizAlign="1"/><v:tabList/>False</text>		</g>
		<g id="shape75-183" v:mID="75" v:groupContext="shape" v:layerMember="1" transform="translate(381.004,-342.017)">
			<title>동적 연결선.74</title>
			<desc>True</desc>
			<v:textBlock v:margins="rect(4,4,4,4)" v:tabSpace="42.5197"/>
			<v:textRect cx="10.6299" cy="582.196" width="50" height="20.0036"/>
			<path d="M0 595.28 L10.63 595.28 L10.63 576.2 L28.35 576.2" class="st8"/>
			<rect v:rectContext="textBkgnd" x="0.627358" y="576.196" width="20.005" height="12.0001" class="st9"/>
			<text x="0.63" y="585.2" class="st10" v:langID="1042"><v:paragraph v:horizAlign="1"/><v:tabList/>True</text>		</g>
		<g id="shape76-188" v:mID="76" v:groupContext="shape" v:layerMember="1" transform="translate(474.068,-369.267)">
			<title>동적 연결선.75</title>
			<desc>True</desc>
			<v:textBlock v:margins="rect(4,4,4,4)" v:tabSpace="42.5197"/>
			<v:textRect cx="6.01272" cy="583.408" width="50" height="20.0036"/>
			<path d="M0.7 595.28 L6.01 595.28 L6.01 573.69 L13.48 573.69" class="st8"/>
			<rect v:rectContext="textBkgnd" x="-3.98984" y="577.408" width="20.005" height="12.0001" class="st9"/>
			<text x="-3.99" y="586.41" class="st10" v:langID="1042"><v:paragraph v:horizAlign="1"/><v:tabList/>True</text>		</g>
		<g id="shape77-193" v:mID="77" v:groupContext="shape" v:layerMember="1" transform="translate(552.958,-399.031)">
			<title>동적 연결선.76</title>
			<desc>True</desc>
			<v:textBlock v:margins="rect(4,4,4,4)" v:tabSpace="42.5197"/>
			<v:textRect cx="29.2623" cy="624.516" width="50" height="20.0036"/>
			<path d="M0 595.28 L10.63 595.28 L10.63 624.52 L87.76 624.52" class="st8"/>
			<rect v:rectContext="textBkgnd" x="19.2597" y="618.516" width="20.005" height="12.0001" class="st9"/>
			<text x="19.26" y="627.52" class="st10" v:langID="1042"><v:paragraph v:horizAlign="1"/><v:tabList/>True</text>		</g>
		<g id="shape79-198" v:mID="79" v:groupContext="shape" v:layerMember="1" transform="translate(381.004,-302.993)">
			<title>동적 연결선.79</title>
			<desc>True</desc>
			<v:textBlock v:margins="rect(4,4,4,4)" v:tabSpace="42.5197"/>
			<v:textRect cx="10.6714" cy="605.864" width="50" height="20.0036"/>
			<path d="M0 598.86 L10.63 598.86 L10.63 605.86 L28.35 605.86" class="st8"/>
			<rect v:rectContext="textBkgnd" x="0.668877" y="599.864" width="20.005" height="12.0001" class="st9"/>
			<text x="0.67" y="608.86" class="st10" v:langID="1042"><v:paragraph v:horizAlign="1"/><v:tabList/>True</text>		</g>
		<g id="shape80-203" v:mID="80" v:groupContext="shape" v:layerMember="1" transform="translate(381.004,-256.8)">
			<title>동적 연결선.88</title>
			<desc>True</desc>
			<v:textBlock v:margins="rect(4,4,4,4)" v:tabSpace="42.5197"/>
			<v:textRect cx="10.6299" cy="582.107" width="50" height="20.0036"/>
			<path d="M0 595.28 L10.63 595.28 L10.63 576.02 L28.35 576.02" class="st8"/>
			<rect v:rectContext="textBkgnd" x="0.627358" y="576.107" width="20.005" height="12.0001" class="st9"/>
			<text x="0.63" y="585.11" class="st10" v:langID="1042"><v:paragraph v:horizAlign="1"/><v:tabList/>True</text>		</g>
		<g id="shape81-208" v:mID="81" v:groupContext="shape" v:layerMember="1" transform="translate(474.766,-284.228)">
			<title>동적 연결선.89</title>
			<desc>True</desc>
			<v:textBlock v:margins="rect(4,4,4,4)" v:tabSpace="42.5197"/>
			<v:textRect cx="49.395" cy="527.087" width="50" height="20.0036"/>
			<path d="M0 595.28 L49.39 595.28 L49.39 526.07 L165.96 526.07" class="st8"/>
			<rect v:rectContext="textBkgnd" x="39.3924" y="521.087" width="20.005" height="12.0001" class="st9"/>
			<text x="39.39" y="530.09" class="st10" v:langID="1042"><v:paragraph v:horizAlign="1"/><v:tabList/>True</text>		</g>
		<g id="shape82-213" v:mID="82" v:groupContext="shape" v:layerMember="1" transform="translate(381.004,-217.132)">
			<title>동적 연결선.90</title>
			<desc>True</desc>
			<v:textBlock v:margins="rect(4,4,4,4)" v:tabSpace="42.5197"/>
			<v:textRect cx="10.6299" cy="605.906" width="50" height="20.0036"/>
			<path d="M0 598.22 L10.63 598.22 L10.63 606.51 L28.35 606.51" class="st8"/>
			<rect v:rectContext="textBkgnd" x="0.627358" y="599.906" width="20.005" height="12.0001" class="st9"/>
			<text x="0.63" y="608.91" class="st10" v:langID="1042"><v:paragraph v:horizAlign="1"/><v:tabList/>True</text>		</g>
		<g id="shape83-218" v:mID="83" v:groupContext="shape" v:layerMember="1" transform="translate(381.004,-171.582)">
			<title>동적 연결선.91</title>
			<desc>True</desc>
			<v:textBlock v:margins="rect(4,4,4,4)" v:tabSpace="42.5197"/>
			<v:textRect cx="10.6299" cy="582.75" width="50" height="20.0036"/>
			<path d="M0 595.28 L10.63 595.28 L10.63 577.31 L28.35 577.31" class="st8"/>
			<rect v:rectContext="textBkgnd" x="0.627358" y="576.751" width="20.005" height="12.0001" class="st9"/>
			<text x="0.63" y="585.75" class="st10" v:langID="1042"><v:paragraph v:horizAlign="1"/><v:tabList/>True</text>		</g>
		<g id="shape84-223" v:mID="84" v:groupContext="shape" v:layerMember="1" transform="translate(381.004,-132.143)">
			<title>동적 연결선.92</title>
			<desc>True</desc>
			<v:textBlock v:margins="rect(4,4,4,4)" v:tabSpace="42.5197"/>
			<v:textRect cx="10.6299" cy="605.906" width="50" height="20.0036"/>
			<path d="M0 598.45 L10.63 598.45 L10.63 606.28 L28.35 606.28" class="st8"/>
			<rect v:rectContext="textBkgnd" x="0.627358" y="599.906" width="20.005" height="12.0001" class="st9"/>
			<text x="0.63" y="608.91" class="st10" v:langID="1042"><v:paragraph v:horizAlign="1"/><v:tabList/>True</text>		</g>
		<g id="shape85-228" v:mID="85" v:groupContext="shape" v:layerMember="1" transform="translate(381.004,-86.3653)">
			<title>동적 연결선.84</title>
			<desc>True</desc>
			<v:textBlock v:margins="rect(4,4,4,4)" v:tabSpace="42.5197"/>
			<v:textRect cx="10.6299" cy="582.522" width="50" height="20.0036"/>
			<path d="M0 595.28 L10.63 595.28 L10.63 576.85 L28.35 576.85" class="st8"/>
			<rect v:rectContext="textBkgnd" x="0.627358" y="576.522" width="20.005" height="12.0001" class="st9"/>
			<text x="0.63" y="585.52" class="st10" v:langID="1042"><v:paragraph v:horizAlign="1"/><v:tabList/>True</text>		</g>
		<g id="shape86-233" v:mID="86" v:groupContext="shape" v:layerMember="1" transform="translate(474.766,-112.963)">
			<title>동적 연결선.85</title>
			<desc>True</desc>
			<v:textBlock v:margins="rect(4,4,4,4)" v:tabSpace="42.5197"/>
			<v:textRect cx="10.6299" cy="573.968" width="50" height="20.0036"/>
			<path d="M0 595.28 L10.63 595.28 L10.63 559.75 L28.35 559.75" class="st8"/>
			<rect v:rectContext="textBkgnd" x="0.627358" y="567.968" width="20.005" height="12.0001" class="st9"/>
			<text x="0.63" y="576.97" class="st10" v:langID="1042"><v:paragraph v:horizAlign="1"/><v:tabList/>True</text>		</g>
		<g id="shape87-238" v:mID="87" v:groupContext="shape" v:layerMember="1" transform="translate(474.766,-197.723)">
			<title>동적 연결선.86</title>
			<desc>True</desc>
			<v:textBlock v:margins="rect(4,4,4,4)" v:tabSpace="42.5197"/>
			<v:textRect cx="10.6299" cy="615.258" width="50" height="20.0036"/>
			<path d="M0 595.28 L10.63 595.28 L10.63 628.15 L28.35 628.15" class="st8"/>
			<rect v:rectContext="textBkgnd" x="0.627358" y="609.258" width="20.005" height="12.0001" class="st9"/>
			<text x="0.63" y="618.26" class="st10" v:langID="1042"><v:paragraph v:horizAlign="1"/><v:tabList/>True</text>		</g>
		<g id="group88-243" transform="translate(683.243,-267.874)" v:mID="88" v:groupContext="group" v:layerMember="0">
			<v:custProps>
				<v:cp v:nameU="Input" v:lbl="입력 수" v:type="1" v:format="2;3;4;5" v:sortKey="2" v:langID="1042" v:val="VT4(2)"/>
				<v:cp v:nameU="Type" v:lbl="게이트 종류" v:type="1" v:format="OR;AND;NOR;NAND;XOR;XNOR" v:sortKey="1" v:langID="1042"
						v:val="VT4(AND)"/>
				<v:cp v:nameU="Out" v:lbl="출력 수" v:type="1" v:format="1;2;3" v:sortKey="3" v:langID="1042" v:val="VT4(1)"/>
			</v:custProps>
			<v:userDefs>
				<v:ud v:nameU="SubType" v:val="VT0(1):26"/>
				<v:ud v:nameU="Margin" v:val="VT0(0.059055118110236):24"/>
				<v:ud v:nameU="LimitHeight" v:val="VT0(0):26"/>
				<v:ud v:nameU="visVersion" v:val="VT0(15):26"/>
				<v:ud v:nameU="visDescription" v:val="VT4(여러 가지 모양의 논리 게이트를 나타냅니다.)"/>
				<v:ud v:nameU="Margin" v:prompt="" v:val="VT0(0.11356753482738):1"/>
			</v:userDefs>
			<title>논리 게이트 2.96</title>
			<desc>G8</desc>
			<g id="shape89-244" v:mID="89" v:groupContext="shape" v:layerMember="0" transform="translate(0,-8.17686)">
				<title>시트.89</title>
				<path d="M0 578.92 L32.71 578.92" class="st3"/>
				<path d="M0 595.28 L32.71 595.28" class="st3"/>
				<path d="M65.41 587.1 L32.71 587.1" class="st3"/>
			</g>
			<g id="shape90-249" v:mID="90" v:groupContext="shape" v:layerMember="0" transform="translate(11.4476,0)">
				<title>시트.90</title>
				<v:userDefs>
					<v:ud v:nameU="X" v:val="VT0(0.029527559055118):24"/>
					<v:ud v:nameU="X" v:prompt="" v:val="VT0(0.056783767413689):1"/>
				</v:userDefs>
				<path d="M42.52 578.92 A44.0417 26.9827 0 0 1 12.76 595.28 L0 595.28 A63.1011 38.6597 -180 0 0 0 562.57 L12.76 562.57
							 A43.4518 26.6213 0 0 1 42.52 578.92 Z" class="st4"/>
			</g>
			<g id="shape91-251" v:mID="91" v:groupContext="shape" v:layerMember="0" transform="translate(0,5.45124)">
				<title>시트.91</title>
			</g>
			<g id="shape92-253" v:mID="92" v:groupContext="shape" v:layerMember="0" transform="translate(44.2902,-4.10954)">
				<title>시트.92</title>
			</g>
			<g id="shape93-255" v:mID="93" v:groupContext="shape" v:layerMember="0" transform="translate(11.4476,0)">
				<title>시트.93</title>
				<path d="M26.17 595.28 L0 595.28 L0 562.57 L26.17 562.57 A16.3537 16.3537 0 0 1 26.17 595.28 Z" class="st4"/>
			</g>
			<g id="shape88-257" v:mID="88" v:groupContext="groupContent" v:layerMember="0">
				<v:textBlock v:margins="rect(1,1,1,1)" v:tabSpace="42.5197"/>
				<v:textRect cx="32.7075" cy="601.077" width="14.14" height="11.6036"/>
				<text x="27.7" y="603.48" class="st5" v:langID="1042"><v:paragraph v:horizAlign="1"/><v:tabList/>G8</text>			</g>
		</g>
		<g id="shape94-259" v:mID="94" v:groupContext="shape" v:layerMember="1" transform="translate(568.527,-156.669)">
			<title>동적 연결선.102</title>
			<desc>True</desc>
			<v:textBlock v:margins="rect(4,4,4,4)" v:tabSpace="42.5197"/>
			<v:textRect cx="10.6299" cy="488.856" width="50" height="20.0036"/>
			<path d="M0 595.28 L10.63 595.28 L10.63 475.89 L114.72 475.89" class="st8"/>
			<rect v:rectContext="textBkgnd" x="0.627358" y="482.857" width="20.005" height="12.0001" class="st9"/>
			<text x="0.63" y="491.86" class="st10" v:langID="1042"><v:paragraph v:horizAlign="1"/><v:tabList/>True</text>		</g>
		<g id="shape95-264" v:mID="95" v:groupContext="shape" v:layerMember="1" transform="translate(706.138,-361.614)">
			<title>동적 연결선.103</title>
			<desc>True</desc>
			<v:textBlock v:margins="rect(4,4,4,4)" v:tabSpace="42.5197"/>
			<v:textRect cx="4.35009" cy="645.678" width="50" height="20.0036"/>
			<path d="M0 595.28 L10.63 595.28 L10.63 645.68 L-33.53 645.68 L-33.53 664.48 L-22.9 664.48" class="st8"/>
			<rect v:rectContext="textBkgnd" x="-5.65247" y="639.678" width="20.005" height="12.0001" class="st9"/>
			<text x="-5.65" y="648.68" class="st10" v:langID="1042"><v:paragraph v:horizAlign="1"/><v:tabList/>True</text>		</g>
		<g id="shape96-269" v:mID="96" v:groupContext="shape" v:layerMember="1" transform="translate(748.658,-277.141)">
			<title>동적 연결선.104</title>
			<desc>True</desc>
			<v:textBlock v:margins="rect(4,4,4,4)" v:tabSpace="42.5197"/>
			<v:textRect cx="15.0945" cy="588.189" width="50" height="20.0036"/>
			<path d="M0 588.19 L30.19 588.19" class="st8"/>
			<rect v:rectContext="textBkgnd" x="5.09193" y="582.189" width="20.005" height="12.0001" class="st9"/>
			<text x="5.09" y="591.19" class="st10" v:langID="1042"><v:paragraph v:horizAlign="1"/><v:tabList/>True</text>		</g>
	</g>
</svg>
